<?xml version="1.0" encoding="UTF-8"?>
<svg id="Layer_2" data-name="Layer 2" xmlns="http://www.w3.org/2000/svg" viewBox="0 0 1126.64 703.03">
  <defs>
    <style>
      .cls-1 {
        fill: #231f20;
        font-size: 40px;
      }

      .cls-1, .cls-2, .cls-3, .cls-4 {
        font-family: PlayfairDisplay-Regular, 'Playfair Display';
      }

      .cls-5 {
        letter-spacing: -.02em;
      }

      .cls-6 {
        letter-spacing: 0em;
      }

      .cls-7 {
        font-family: MyriadPro-Regular, 'Myriad Pro';
      }

      .cls-3 {
        letter-spacing: -.01em;
      }

      .cls-8 {
        letter-spacing: 0em;
      }

      .cls-9 {
        stroke: #d63927;
        stroke-miterlimit: 10;
        stroke-width: 7px;
      }

      .cls-9, .cls-10, .cls-4 {
        fill: #d63927;
      }

      .cls-10, .cls-4 {
        font-size: 180px;
      }

      .cls-11 {
        letter-spacing: 0em;
      }

      .cls-12 {
        letter-spacing: -.02em;
      }

      .cls-13 {
        letter-spacing: -.02em;
      }
    </style>
  </defs>
  <g id="Layer_1-2" data-name="Layer 1">
    <g>
      <text class="cls-10" transform="translate(56.91 176.65)"><tspan class="cls-3" x="0" y="0">P</tspan><tspan class="cls-2" x="103.32" y="0">ort-</tspan><tspan class="cls-7" x="435.59" y="0"> </tspan></text>
      <line class="cls-9" x1="5.46" y1=".44" x2="5.46" y2="403.31"/>
      <text class="cls-4" transform="translate(713.58 591.05)"><tspan class="cls-12" x="0" y="0">f</tspan><tspan class="cls-11" x="56.7" y="0">o</tspan><tspan class="cls-8" x="153.54" y="0">lio</tspan></text>
      <line class="cls-9" x1="1099.11" y1="403.31" x2="1099.11" y2="686.62"/>
      <line class="cls-9" x1="413.64" y1="686.62" x2="1102.54" y2="686.62"/>
      <line class="cls-9" x1="1.93" y1="3.5" x2="534.31" y2="3.5"/>
      <line class="cls-9" x1="950.16" y1="3.5" x2="1102.55" y2="3.5"/>
      <text class="cls-1" transform="translate(1092.48 49.21) rotate(90)"><tspan x="0" y="0">Af </tspan><tspan class="cls-5" x="48.44" y="0">J</tspan><tspan class="cls-6" x="60.76" y="0">osephine </tspan><tspan class="cls-5" x="233.36" y="0">M</tspan><tspan class="cls-6" x="267.48" y="0">ote</tspan><tspan class="cls-13" x="323.79" y="0">t</tspan></text>
      <line class="cls-9" x1="3.5" y1="686.62" x2="200.57" y2="686.62"/>
      <line class="cls-9" x1="1099.11" y1="1.03" x2="1099.11" y2="44.38"/>
      <line class="cls-9" x1="3.5" y1="606.05" x2="3.5" y2="690.38"/>
      <text class="cls-1" transform="translate(219.43 693.39)"><tspan x="0" y="0">2023</tspan><tspan class="cls-13" x="80.36" y="0">/</tspan><tspan x="94.56" y="0">2024</tspan></text>
    </g>
  </g>
</svg>