<?xml version="1.0" encoding="UTF-8"?>
<svg id="Layer_2" data-name="Layer 2" xmlns="http://www.w3.org/2000/svg" viewBox="0 0 133.86 142.1">
  <defs>
    <style>
      .cls-1 {
        fill: none;
        stroke-width: .75px;
      }

      .cls-1, .cls-2, .cls-3, .cls-4 {
        stroke: #2f0d00;
        stroke-miterlimit: 10;
      }

      .cls-2, .cls-5 {
        fill: #f02b2c;
      }

      .cls-3 {
        fill: #2f0d00;
      }

      .cls-4, .cls-6 {
        fill: #f88433;
      }

      .cls-6, .cls-5 {
        stroke-width: 0px;
      }
    </style>
  </defs>
  <g id="point_tegning">
    <g>
      <path class="cls-4" d="m87.72,119.36c1.53,2.53,2.17,2.03,3.66,4.62.66,1.14.79,1.69,1.83,3.4.18.3.74,1.2,1.57,2.35.75,1.04,1.75,2.43,3.31,4.01,1.94,1.96,3.75,3.22,4.7,3.83,1.21.78,2.15,1.25,3.66,2,2.16,1.08,3.24,1.62,4.27,1.83,2.28.47,4.19.01,5.31-.26,1.63-.39,2.73-.96,4.27-1.74.7-.36,2.42-1.27,4.44-2.79.86-.64,2.32-1.75,3.92-3.48,1.41-1.52,2.59-2.8,3.48-4.79,1.12-2.49,1.17-4.68,1.22-6.97.07-3.12-.47-5.43-.61-6.01-.66-2.71-1.67-4.6-2.44-6.01-1.37-2.51-2.77-4.21-3.83-5.49-1.22-1.46-2.26-2.48-4.35-4.53-1.95-1.91-3.75-3.55-5.14-4.79-3.8-3.38-4.08-3.32-5.4-4.88-1.09-1.28-1.86-2.45-3.4-4.79-1.77-2.69-1.66-2.84-2.79-4.35-1.5-2.01-1.83-1.95-3.83-4.44-.79-.99-1.55-2.05-3.05-4.18-1.93-2.73-2-2.95-3.4-4.88-.99-1.36-1.87-2.57-3.13-4.09-1.63-1.96-2.14-2.31-3.92-4.35-1.48-1.7-1.32-1.67-3.66-4.53-2.29-2.8-3.78-4.62-5.92-6.79-1.35-1.37-1.28-1.18-3.05-2.96-2.06-2.08-2.57-2.76-4.44-4.7-1.9-1.97-4.91-5.11-5.31-4.79-.17.14.29.82,1.83,4.09,1,2.14.94,2.13,1.39,2.96,1.06,1.94,1.43,2,2.09,3.48.74,1.66.34,1.73,1.04,2.96.51.9.88,1.13,2.09,2.87.71,1.02,1.06,1.54.96,1.65-.31.34-3.58-2.19-4.35-2.79-1.04-.8-2.52-1.96-4.35-3.74-1.87-1.83-3.15-3.37-4.09-4.53-2.62-3.2-2.35-3.47-4.01-5.14-1.02-1.03-1.12-.93-4.88-3.92-2.3-1.83-2.2-1.82-4.18-3.4-2.88-2.29-6.36-5.06-6.71-4.7-.19.2.86,1.05,1.92,3.31.75,1.6.66,2.1,1.48,3.4.19.29.71.93,1.74,2.18,1.14,1.38,1.43,1.7,2.18,2.61.97,1.18,1.68,2.09,2.09,2.61,1.32,1.69,2.35,3.09,2.7,3.57,1.77,2.42,1.75,2.56,2.53,3.4,1.02,1.11,1.25,1.08,2.44,2.35,1.2,1.28,1.05,1.4,2.26,2.79,1.61,1.84,2.26,2.07,3.48,3.74.56.76,1.5,2.05,1.22,2.35-.27.3-1.48-.58-4.62-2.26-.83-.45-1.98-1.03-4.27-2.18-3.53-1.78-3.75-1.8-4.96-2.53-1.18-.7-2.14-1.41-4.01-2.79-3.69-2.73-5.19-4.13-5.4-3.92-.08.08.06.34,2.53,3.83,1.42,2.01,1.74,2.44,2.26,3.05.86,1,.98.98,2.35,2.44.65.7,1.28,1.42,2.53,2.87,2.46,2.86,1.88,2.34,2.79,3.31.9.96,1.22,1.21,1.13,1.39-.24.49-3.08-.19-5.57-1.39-1.93-.94-1.99-1.38-4.44-2.87-2.42-1.47-2.56-1.15-5.75-2.87-3.36-1.82-3.41-2.29-5.92-3.4-1.99-.88-1.99-.6-4.62-1.65-3.75-1.51-5.48-2.78-5.83-2.35-.15.18.07.53,1.74,3.31,1.5,2.5,1.54,2.59,1.83,2.96.94,1.21,1.81,1.95,3.22,3.13,1.26,1.06,2.28,1.79,2.96,2.26,1.18.83,1.54,1.01,3.48,2.26,1.02.66,2.36,1.52,3.92,2.61,2.02,1.41,3.03,2.11,4.18,3.13,1.58,1.41,1.42,1.59,3.13,3.13.89.8,1.19.99,3.83,3.05,3.69,2.87,3.95,3.17,3.92,3.22-.09.13-2.35-1.93-6.1-3.13-2.14-.69-2.39-.33-4.27-1.13-1.31-.56-2.29-1.2-4.27-1.83-1.27-.4-2.12-.66-2.35-.35-.47.64,1.96,3.15,2.7,3.92,1.29,1.33,1.96,1.78,4.44,3.83,3.19,2.63,2.99,2.65,4.96,4.18,2.57,2,2.64,1.76,4.53,3.31,1.53,1.25,1.53,1.45,4.88,4.62,1.51,1.43,2.71,2.57,4.35,4.01,2.2,1.93,2.42,1.97,4.53,3.83,1.14,1.01,2.46,2.18,4.09,3.83.47.47,2.32,2.36,4.53,5.05,1.47,1.8,2.46,3.15,3.13,4.09,1.37,1.9,1.89,2.78,2.26,3.48.43.8.53,1.1,1.22,2.61,1.11,2.43,1.66,3.64,2.09,4.35Z"/>
      <path class="cls-5" d="m81.98,52.27c-.4-.13-1.79-.59-2.45.06-.35.35-.37.88-.38,1.01-.01.36.08.72.82,1.82.49.74.9,1.26.94,1.32.97,1.24,1.14,1.2,1.63,1.95.66.98.43,1.13,1.01,1.89.85,1.11,1.79,1.39,1.7,1.63-.12.32-1.83-.05-2.2-.13-1.01-.22-1.74-.51-1.89-.57-1.38-.56-2.46-1.27-3.27-1.89-.73-.55-.86-.74-3.33-3.27-3.09-3.15-3.04-3.02-3.4-3.52-.73-1.04-.96-1.64-1.82-2.14-.74-.43-2.1-.85-2.89-.19-.52.43-.61,1.16-.63,1.32-.03.26-.04.68.19,1.26.45,1.13,1.38,1.79,1.76,2.08.15.12,1.11,1.38,3.02,3.9,3.59,4.74,3.09,4.14,3.21,4.28,1.16,1.41,1.76,2.01,2.26,3.27.32.81.95,2.38.25,3.14-.68.74-2.27.33-3.14-.06-.74-.33-1.29-.81-3.08-3.21-1.8-2.4-2.14-3.12-3.33-3.84-.57-.34-1.83-1.1-2.77-.57-.51.29-.84.92-.88,1.51-.04.61.22,1.07.38,1.32.4.66.84.79,1.51,1.32.59.47.4.49,1.89,2.26.71.84.96,1.09,1.57,1.89.78,1.02.94,1.36,1.01,1.76.03.2.2,1.14-.38,1.82-.76.9-2.19.65-2.33.63-.87-.16-1.27-.67-3.02-2.64-3.9-4.41-2.39-2.44-3.33-3.58-.89-1.08-1.24-1.62-1.95-1.7-.82-.09-1.82.49-2.14,1.38-.26.72.02,1.39.13,1.63.39.9,1,.97,1.82,1.76,1.21,1.16.71,1.78,2.26,3.9.5.68.66.76,1.32,1.7,1.18,1.67,1.22,2.19,1.19,2.52-.06.62-.43,1.37-1.07,1.63-.25.1-.87.26-2.96-1.07-2.16-1.38-2.18-1.99-3.46-2.39-.12-.04-2.45-.74-3.4.44-.07.08-.64.74-.38,1.38.22.54.99.67,1.31.74.76.18,1.99,1.31,4.41,3.58,2.66,2.49,3.99,3.74,4.27,4.01,1.85,1.76,2.16,2.08,3.15,2.98.95.85,1.73,1.51,3.24,2.8,3.22,2.73,3.08,2.52,4.13,3.47.86.78,2.31,2.15,3.93,3.97,1.8,2.02,1.55,2.05,3.44,4.17,1.75,1.96,2.19,2.17,3.21,3.6.23.32,1.13,1.59,2,3.44.9,1.89.86,2.45,1.81,4.45.2.42.76,1.58,1.6,2.89,1.83,2.88,2.69,2.92,4.25,5.42,1.2,1.92.76,1.99,2.06,4.02,1.16,1.82,2.33,3.02,3.39,4.11.93.96,2.19,2.25,4.11,3.62.88.63,2.16,1.32,4.71,2.71,1.87,1.02,2.5,1.3,3.37,1.51.34.08,1.61.36,3.51.18,2.42-.24,4.15-1.06,5.99-1.97,1.36-.67,3.66-1.93,6.15-4.06,1.39-1.19,2.71-2.32,4.02-4.24.7-1.02,2.03-3.01,2.61-5.88.35-1.76.27-3.11.16-5.05-.09-1.45-.2-3.16-.82-5.3-.64-2.21-1.49-3.73-2.25-5.09-1.21-2.16-2.44-3.74-3.19-4.64-.68-.81-.71-.76-3.42-3.56-2.74-2.83-2.66-2.83-3.69-3.81-.59-.56-1.72-1.53-3.94-3.45-2.79-2.4-3.02-2.57-3.66-3.23-1.38-1.43-2.25-2.65-3.03-3.76-2.33-3.31-1.84-3.64-3.7-6.11-1.54-2.04-1.91-1.86-4.11-4.72-.61-.79-1.19-1.61-2.35-3.25-1.66-2.35-1.94-2.84-2.92-4.21-1.46-2.04-2.64-3.48-3.76-4.85-3.4-4.16-3.24-3.39-4.85-5.59-2.33-3.19-2.99-5.22-5.15-5.93Z"/>
      <path class="cls-6" d="m97.21,114.12c.58-1.55,1.29-2.64,1.74-3.34.96-1.47,1.87-2.41,2.98-3.56,1.19-1.23,1.88-1.94,3.05-2.69.67-.43,1.43-.91,2.54-1.23,1.91-.55,3.56-.24,4.79,0,.77.15,1.53.42,3.05.94,1.64.57,2.45.85,3.34,1.31.76.39,2.09,1.09,3.41,2.4.4.4.26.31,2.32,2.98,1.34,1.73,1.51,1.9,1.81,2.47.62,1.15.84,2.11,1.09,3.19.47,2.06.48,3.8.44,4.86-.08,1.73-.12,2.72-.65,3.92-.21.49-.42.81-2.61,3.41-1.44,1.71-2.16,2.57-2.47,2.83-1.31,1.13-2.52,1.62-4.5,2.4-2.71,1.06-4.06,1.59-5.81,1.67-2.86.13-5.05-.83-6.61-1.52-1.42-.63-3.21-1.45-4.94-3.27-1.82-1.93-2.56-3.92-2.98-5.08-.91-2.55-.94-4.67-.94-5.81,0-1.24,0-3.37.94-5.88Z"/>
      <path class="cls-1" d="m101.49,118.84c-.39.06,1.02-.2,1.81,0,.98.25,1.58.85,1.81,1.09.19.19.49.69,1.09,1.67.49.8.73,1.2.8,1.38.37.98.32,1.88.29,2.25-.03.39-.29,1.89-.15.94"/>
      <path class="cls-1" d="m106.52,109c-.1.03.55-.11.92-.13.3-.01.8,0,1.39.16.68.18,1.15.47,1.3.57.26.17.51.41,1.01.89.51.48.63.66.73.82.04.07.21.36.32.79.09.34.1,1.08.1.93"/>
      <path class="cls-1" d="m114.32,114.14c0-.12-.79.86-.72.68.12-.31.37-.54,1.33-.98.75-.35,1.16-.54,1.8-.7.63-.16,1.13-.2,1.46-.22,0,0,.65-.05,1.32-.01.26.01.52.04.52.04.13.01.52.06.32.04"/>
      <path class="cls-3" d="m114.17,117.81c-.09-.28,0-.51.05-.65.06-.17.13-.33.3-.41.22-.1.45.02.48.04.1.06.16.13.25.23.09.11.2.24.24.43.04.18,0,.33-.04.43-.05.17-.14.44-.37.52-.21.07-.41-.06-.52-.12-.07-.04-.28-.18-.38-.46Z"/>
      <path class="cls-3" d="m109.8,115.19c.06-.02.22,0,.55.01.17.01.11.05.16.09,0,0,.17.05.19.28.01.12.02.24.02.46,0,.24,0,.3-.02.37-.03.13-.05.2-.1.26-.16.15-.48.03-.66-.04-.2-.07-.33-.17-.4-.23-.13-.11-.25-.2-.28-.36-.02-.09,0-.16.04-.3.03-.11.06-.21.13-.31.13-.17.31-.23.36-.25Z"/>
      <path class="cls-2" d="m34.75.56c.01-.06.32-.1.63,0,.8.26.99,1.27,2.08,4.16.34.89.53,1.34,1.01,1.7.42.32.71.29,1.45.69.48.26.63.42,1.32.94,1.52,1.15,1.69,1.06,2.39,1.7.88.8.6.94,1.39,1.7.23.22.68.62,3.59,1.95,1.64.75,1.83.77,1.89.69.21-.27-1.16-1.42-2.96-3.84-1.32-1.77-1.11-1.85-2.33-3.4-1.11-1.4-2.03-2.56-3.59-3.53-.69-.43-1.38-.71-2.77-1.26-2.34-.93-4.13-1.36-4.09-1.51Z"/>
      <path class="cls-2" d="m15.36,22.41c.61,1.06,1.27,2.43,1.76,4.09.27.91.45,1.75.57,2.52.37,2.42-.01,3.1.57,3.59.82.7,1.9-.4,3.46.38.13.06.04.03,1.64,1.32,1.13.91,1.26,1,1.7,1.39.46.4.84.78,1.57,1.51,1.06,1.06,1.59,1.59,2.02,2.08,1.21,1.41,1.46,2.15,1.64,2.08.34-.13-.02-3.07-1.57-5.86-.55-.98-.48-.58-3.27-4.16-1.76-2.25-2.31-3.08-3.59-4.28-1.34-1.26-1.41-.9-2.52-2.02-1.58-1.59-2.33-3.1-3.34-2.96-.28.04-.49.19-.63.31Z"/>
      <path class="cls-2" d="m.56,35.7c-.33.55.82,1.85,1.64,2.77.48.54.92.95,2.52,2.27,2.57,2.11,2.81,2.17,3.72,3.09.82.83.64.8,2.08,2.39,1.19,1.33,1.92,2.13,2.9,2.96,1.66,1.41,3.73,2.61,3.97,2.33.2-.24-1.28-1.19-2.39-3.46-1.04-2.11-.56-2.93-1.76-4.47-.43-.55-1.02-1.04-2.2-2.02-1.24-1.02-1.55-1.14-2.58-1.95-2.27-1.8-2.03-2.26-3.4-3.09-1.76-1.06-4.09-1.45-4.47-.82Z"/>
    </g>
  </g>
</svg>