<?xml version="1.0" encoding="UTF-8"?>
<svg id="Layer_2" data-name="Layer 2" xmlns="http://www.w3.org/2000/svg" xmlns:xlink="http://www.w3.org/1999/xlink" viewBox="0 0 1923.49 1080">
  <defs>
    <style>
      .cls-1 {
        fill: url(#linear-gradient);
      }

      .cls-1, .cls-2, .cls-3, .cls-4, .cls-5, .cls-6, .cls-7 {
        stroke-width: 0px;
      }

      .cls-8, .cls-9 {
        stroke: #272525;
        stroke-miterlimit: 10;
      }

      .cls-8, .cls-3 {
        fill: #b0c4de;
      }

      .cls-9, .cls-2 {
        fill: #add8e6;
      }

      .cls-4 {
        fill: #a98b52;
      }

      .cls-5 {
        fill: #9d794e;
      }

      .cls-6 {
        fill: #b4a26d;
      }

      .cls-7 {
        fill: #978475;
      }
    </style>
    <linearGradient id="linear-gradient" x1="4302" y1="-3342" x2="5382" y2="-3342" gradientTransform="translate(-3882 3882)" gradientUnits="userSpaceOnUse">
      <stop offset=".14" stop-color="#254895"/>
      <stop offset=".38" stop-color="#6151d5"/>
      <stop offset=".57" stop-color="#4d6bbc"/>
      <stop offset=".81" stop-color="#d56630" stop-opacity=".9"/>
    </linearGradient>
  </defs>
  <g id="forside">
    <g>
      <rect class="cls-1" x="420" y="-420" width="1080" height="1920" transform="translate(1500 -420) rotate(90)"/>
      <g>
        <path class="cls-9" d="m216.5,605.5c-1.35-2.04.37-3.38,3-16,1.75-8.37,2.56-15.31,3-19,1.44-12.21.43-12.63,2-18,1.2-4.1,3.46-8.07,8-16,4.75-8.32,8.81-14.27,10-16,5.07-7.38,8.12-11.81,13-17,6.36-6.76,12.04-10.78,18-15,5.11-3.62,11.97-8.42,22-13,4.35-1.99,12.61-5.7,24-8,6.96-1.41,12.98-1.61,25-2,15.82-.52,23.73-.78,32,1,8.55,1.84,14.69,4.65,22,8,9.46,4.33,16.03,8.54,23,13,9.57,6.12,16.25,11.3,21,15,10.78,8.4,16.17,12.6,20,18,5.45,7.7,7.59,15.01,9,20,2.29,8.08,1.29,9.59,3,26,2.11,20.27,4.68,28.03,0,32-1.51,1.28-3.71,1.52-8,2-9.08,1.02-15.31-.29-21-1-2.38-.3-1.25-.07-26,0-2.33,0-12,.03-23,0-21.65-.06-21.52-.25-27,0-13.35.61-13.66,1.73-25,2-11.91.28-12.34-.94-25-1-13.39-.06-15.72,1.29-32,2-17.85.78-16.29-.79-29,0-25.45,1.57-38.5,8.28-42,3Z"/>
        <path class="cls-8" d="m368.5,521.5c-.85,2.56,3.93,5.4,8,10,6.85,7.74,5.49,13.45,9,14,4.08.64,5.16-7.17,15-14,4.17-2.89,8.1-4.34,10-8,.26-.5.95-1.93,2-2,1.13-.07,1.99,1.49,3,3,2.01,2.99,4.45,6.64,7,7,1.47.21,2.15-.79,8-6,5.23-4.66,5.01-4.14,8-7,4.23-4.05,6.34-6.07,7-7,1.14-1.62,1.82-2.96,3-3,1.08-.04,1.74,1.03,4,4,3.95,5.19,4.95,5.88,6,6,1.78.2,3.3-1.31,4-2,5.39-5.3,11.64-9.67,17-15,6.26-6.23,9.39-9.34,14-13,5.24-4.17,9.35-6.72,9-10-.12-1.07-.67-1.84-4-5-4.31-4.08-6.94-6.15-9-8-4.41-3.94-3.33-4.23-9-10-3.14-3.19-5.64-5.31-10-9-2.67-2.26-5.75-4.86-10-8-4.78-3.53-4.98-3.27-10-7-4.94-3.67-7.41-5.5-9-7-3.88-3.65-5.91-6.58-8-6-.75.21-.93.7-2,2-1.42,1.71-2,1.94-7,6-2.93,2.38-4.39,3.57-6,5-2.58,2.29-3.23,3.16-7,7-7.85,7.99-7.68,6.93-10,10-3.26,4.31-3.04,5.64-6,8-2.05,1.63-3.94,2.4-4,4-.06,1.42,1.36,2.62,3,4,2.87,2.42,4.83,2.61,5,4,.1.85-.55,1.42-2,3-1.76,1.92-3.27,4.05-5,6-3.24,3.66-2.72,3.5-5,6-2.31,2.53-3.46,3.8-5,5-3.07,2.39-4.88,2.68-5,4-.08.88.88,1.04,4,4,1.99,1.89,1.61,1.81,3,3,1.95,1.68,3.02,2.12,3,3-.02.78-.9,1.22-2,2l-5,5c-1.67,1.67-3.33,3.33-5,5s-3.26,3.41-5,5c-1.65,1.5-1.85,1.54-2,2Z"/>
        <path class="cls-9" d="m215,624c-4.88,3.41-1.17,14.81,1,28,2.37,14.38,2.17,26.28,2,36-.34,19.71-3.49,26.43,1,30,4.09,3.26,9.57-.05,25-3,5.35-1.02,13.23-1.68,29-3,15.04-1.26,20.35-.75,48-1,13.2-.12,25.47-.41,50-1,31.68-.76,35.34-1.13,48-1,0,0,34.02,2,43,2h10c1.08,0,2.13.58,3,0,.88-.59.97-1.74,1-7,.01-2.74,0-5.46,0-7,0-2.37,0-3.55,0-4,.09-4.4.77-7.75,1-9,1.97-10.71,2-36.17,2-42v-19c.4-3.01,1.08-5.11,0-6-.91-.74-2.51-.17-3,0h-47c-21.24.03-28.64,1.06-59,2-31.56.98-27.37-.02-54,1-32.41,1.24-33.72,2.53-50,2-10.99-.36-22.08,1.36-33,0-.64-.08-7.22-.91-15,1-1.61.4-2.43.6-3,1Z"/>
        <path class="cls-8" d="m220,604c-6.65,0-9.98,0-10,0-.82-.1-9.35-1.11-10,0-.21.36-.11.6,0,2v6c0,2,.08,4,0,6-.21,4.85-.87,5.92,0,7,1.01,1.25,2.87,1,6,1,4.81,0,2.39.59,11,1,6.12.29,11,.16,16,0,10.8-.36,16.2-.53,23-1,14.84-1.02,25.97-2.49,30-3,16.39-2.06,31.26-2.37,61-3,30.03-.64,35.36.3,71,0,0,0,29.22-1,48-1h18c1.86,0,3.33.76,4,0,.52-.59.08-1.42,0-3-.08-1.61.31-1.91,1-5,.59-2.65.18-1.89,1-7,.39-2.41.62-3.43,0-4-.8-.75-2.44-.18-3,0h-28c-10.64-.15-12.65-.72-23-1-6.96-.19-11.87-.09-17,0-32.28.56-41.79.1-78,1-22.88.57-62.9,1.84-86,3,0,0-19.86,1-35,1Z"/>
        <path class="cls-8" d="m269,711c-2.69-1.86-2.01-6.48-1-17,1.72-17.83.88-15.96,2-22,1.44-7.71,2.47-13.26,6-20,1.77-3.38,4.15-7.81,9-12,2.01-1.74,6.3-5.35,13-7,3.06-.75,10.06-2.47,17,1,7.86,3.93,10.63,12.01,12,16,1.44,4.19,1.62,8.13,2,16,.17,3.53.03,3.94,0,18-.01,6.44-.02,9.66,0,10,.52,9.26,2.3,14.59,0,16-.64.4-1.17.21-3,0-.69-.08-.15,0-10,0-18.3,0-17.78-.28-23,0-10.73.57-16.09.86-17,1-3.71.57-5.44,1.08-7,0Z"/>
        <path class="cls-9" d="m315,685c-.39-.06-1.28-.26-2-1-1.01-1.03-1-2.38-1-3,.01-1.5.69-2.57,1-3,.35-.49,1.32-1.82,3-2,1.45-.15,2.54.66,3,1,.27.2,1.59,1.2,2,3,.11.5.28,1.21,0,2-.37,1.06-1.27,1.58-2,2-1.5.87-3.02,1.01-4,1Z"/>
        <path class="cls-2" d="m430.5,482.5s2.86,3.41,5,6c6.71,8.14,7.12,9.01,10,12,4.57,4.76,4.99,4.08,7,7,2.15,3.12,3.12,5.98,5,6,.47,0,.71-.17,3-2,3.69-2.95,3.99-3.24,5-4,2.68-2.03,4.13-2.69,4-3-.21-.5-3.77,1.44-8,1-2.81-.3-4.83-1.61-7-3-4.01-2.56-6.47-5.39-7-6-2.76-3.15-17-14-17-14Z"/>
        <path class="cls-2" d="m406.5,509.5c3.24,3.12,3.74,2.51,6,5,1.9,2.09,1.75,2.75,5,7,2.66,3.48,3.36,3.84,4,4,2.06.52,4-.86,7-3,3.81-2.72,3.39-3.63,7-6,.3-.2,1.53-1.13,4-3,1.62-1.23,2.04-1.56,2-2-.1-1.14-3.17-2.16-6-2-2.6.15-3,1.18-6,2-.53.14-4.59,1.2-9,0-2.58-.7-4.14-1.87-7-4-3.61-2.69-4.32-4.06-9-8-3.41-2.87-5.36-4.48-6-4-.9.68,1.21,5.16,3,8,.38.61,1.99,3.1,5,6Z"/>
        <path class="cls-2" d="m375.5,523.5s3.1,5.27,4,7c1.11,2.15,1.67,3.22,2,4,1.46,3.48,1.52,5.25,3,6,1.07.54,2.26.2,3,0,.93-.25,2.04-.8,4-3,1.72-1.92,1.68-2.41,3-4,2.12-2.57,4.5-4.06,6-5,2.04-1.28,2.81-1.41,5-3,1.62-1.17,3.24-2.35,3-3-.32-.85-3.69-.35-6,0-2.03.31-4.63.71-8,2-3.37,1.29-3.32,1.86-5,2-2.51.21-3.6-.98-7-2-1.56-.47-3.92-.99-7-1"/>
        <path class="cls-6" d="m1.5,804.35c3.09-12.35,70-29.49,70-29.49,28.81-7.38,16.39-8.89,85-33.71,32.2-11.65,48.98-16.39,65-20.01,22.64-5.11,39.38-6.98,43-7.37,18.17-1.97,21.64-.89,53-2.11,34.25-1.33,33.48-2.75,58-3.16,7.31-.12,22.64.27,53,1.05,40.61,1.05,45.22,1.41,51,2.11,14.93,1.79,19.78,3.61,50,10.53,33.07,7.57,29.14,5.82,69,14.75,34.16,7.65,51.56,11.58,67,16.85,22.95,7.83,41.05,16.35,51,21.07,16.82,7.97,27.81,14.21,42,22.12,59.69,33.27,58.53,30.65,89,48.45,29.07,16.99,23.1,15.27,73,46.35,49.53,30.85,54.82,32.16,89,54.77,5.1,3.37,32.35,21.49,66,48.45,13.9,11.14,46.93,38.23,44,43.19-.69,1.16-2.9.36-10,0-9.11-.46-14.07.43-22,1.05-2.89.23-10.43.76-48,1.05-36.17.28-54.25.42-74,0-33.28-.71-33.75-1.87-73-3.16-18.42-.6-44.12-1.45-75-1.05-47.1.6-50.03,3.36-96,4.21-36.54.67-34.72-1.07-85-1.05-36.52.01-63.83.94-98,2.11-66.54,2.27-65.74,3.74-104,4.21-50.07.62-50.02-1.93-98-1.05-13.12.24-51.18,1.12-100,5.27-42.57,3.62-43.29,5.47-85,8.43-36.57,2.6-42.11,1.61-62,5.27-34.51,6.35-51.76,9.52-55,10.53-12.67,3.95-26.52,9.43-32,3.16-2.73-3.12-2.25-7.86-2-10.53,1.91-20.62-1.16-41.47,0-62.14.82-14.72,0-29.49,0-44.24v-136.93c-.17-1.29-.95-6.68,0-13.69,0,0,.37-2.75,1-5.27Z"/>
        <path class="cls-7" d="m256,715c.84-1.69,3.06-2.14,16-3,9.24-.61,13.85-.92,18-1,7.36-.14,13.08-.13,30,0,14.5.11,16.39.15,21,0,10.42-.35,15.63-.52,18-1,3.36-.68,6.97-1.72,12-1,2.77.4,4.04,1.05,7,2,5.77,1.85,8.26,1.71,16,3,4.69.79,9.13,1.86,18,4,8.91,2.15,13.36,3.23,19,5,4.94,1.55,11.03,4.06,23,9,11.63,4.8,17.56,7.26,23,10,6.62,3.34,10.76,5.37,16,9,4.16,2.88,9.91,6.87,15.5,13.5,8.33,9.89,11.47,19.94,13,25,1.71,5.66,2.47,12.1,4,25,.77,6.47,1.34,12.86,3,23,1.04,6.37,1.87,10.31,4,15,.44.96,2.6,5.64,7,11,1.54,1.88,7.12,8.41,17,14,7.65,4.32,13.96,5.86,23,8,11.74,2.77,21,3.49,28,4,10.71.78,11.49.09,31,1,12.45.58,15.94,1.04,20,2,8.72,2.07,15.53,5.4,20,8,2.32,1.35,11.17,6.67,20,17,6.63,7.75,5.39,9.13,14,21,3.62,4.99,8.9,12.21,17,20,8.42,8.11,16,13.09,22,17,12.3,8.01,13.54,6.73,26,15,.94.62.72.49,20,15,10.58,7.96,16.75,12.6,16,14-.3.57-1.55.24-5,0-.69-.05-4.13-.03-11,0-3.25.02-4.76.23-20,2-9.58,1.11-14.45,1.64-18,0-2.47-1.14-1.71-1.53-7-5-5.23-3.44-9.67-5.48-13-7-3.54-1.61-6.19-2.83-10-4-6.17-1.9-7.67-1.34-13-3-4.71-1.47-7.94-3.28-11-5-4-2.25-7.38-4.63-15-11-4.18-3.5-7.33-6.26-16-14-12.24-10.93-13.01-11.71-16-14-4.77-3.65-9.7-7.39-17-11-3.54-1.75-10.58-4.93-20-7-2.28-.5-7.52-1.55-24-2-13.19-.36-15.03.18-30,0-9.84-.12-16.75-.21-26-1-11.69-.99-18.24-1.55-27-4-10.62-2.97-18.21-6.96-24-10-5.17-2.72-11.56-6.11-19-12-6.03-4.77-11.3-8.94-16-16-5.14-7.73-6.8-14.72-9-24-1.6-6.76-1.27-7.86-4-27-1.83-12.87-2.78-19.38-4-23-3.98-11.76-10.35-19.6-14-24-7.81-9.43-15.75-14.9-19-17-9.65-6.25-17.95-8.72-29-12-9.31-2.76-16.67-4.11-27-6-6.55-1.2-7.35-1.17-24-4-12.79-2.18-15.83-2.79-20-4-4.59-1.33-10.71-3.13-18-7-2.64-1.4-10.5-5.76-19-14-5.96-5.78-14.64-14.2-12.5-18.5Z"/>
        <path class="cls-5" d="m662.5,744.24c4.47-2.75,10.9-6.33,19-9.59,4.75-1.91,11.34-4.22,26-7.46,11.94-2.64,20.62-3.99,29-5.33,31.6-5.04,25.75-4.56,45-7.46,11.22-1.69,27-4.05,48-6.39,8.98-1,25.76-2.77,47-4.26,17.97-1.26,31.71-1.81,40-2.13,9.98-.39,10.7-.31,40-1.07,29.85-.77,31.46-.91,42-1.07,9.06-.13,9.06-.03,42,0,13.29.01,24.19,0,46,0,33.03-.01,31.82-.05,35,0,7.61.11,14.63.29,55,2.13,36.36,1.65,36.6,1.77,48,2.13,21.47.68,22.54.31,36,1.07,15.23.85,16.66,1.47,41,3.2,18.14,1.29,18.51,1.03,32,2.13,13.73,1.12,14.74,1.51,33,3.2,21.29,1.97,21.1,1.56,38,3.2,5.02.49,7.18.73,38,4.26,22.76,2.61,34.2,3.92,37,4.26,19.95,2.45,31.42,3.85,47,6.39,13.12,2.14,26.44,4.34,44,8.52,14.16,3.38,24.82,6.55,35,9.59,14.13,4.21,8.68,3,36,11.72,10.08,3.22,17.4,5.48,27,10.65,3.24,1.75,18.15,9.78,17,13.85-.35,1.24-2.05,1.65-4,2.13-8.35,2.06-16.59,4.63-25,6.39-4.74.99-8.16,2.08-15,4.26-9.02,2.87-14.61,5.34-27,10.65-27.56,11.82-24.32,10.08-30,12.78-8.41,4-9.91,5.14-30,15.98-24.6,13.27-22.17,11.45-32,17.04-14.52,8.26-14.57,9.22-38,23.43-19.47,11.81-19.61,11.25-32,19.17-5.27,3.37-13.51,8.99-30,20.24-15.51,10.58-15.45,10.63-28,19.17-20.09,13.66-19.63,13.1-25,17.04-4.12,3.03-5.16,3.93-29,23.43-18.68,15.28-20.76,16.96-25,21.3-5.14,5.27-9.65,10.56-17,19.17-3.15,3.69-8.37,9.9-16,18.11-.49.53-1.21,2.6-3,3.2-.87.29-1.41.08-4,0h-51c-34.78,0-34.12,0-35,0-8.84.07-24.1.99-39,1.07-6.58.03-9.87.05-12,0-7.41-.17-7.72-.5-10,0-4.99,1.1-8.21,3.74-10,2.13-.68-.61-1.42-2.07-2-3.2-.57-1.12-.6-1.42-1-2.13-.99-1.78-2.35-2.71-3-3.2-2.44-1.82-3.47-3.7-6-6.39-7.34-7.81-24-21.3-24-21.3-14.91-12.07-11.86-11.06-27-23.43-3.04-2.49-14.7-11.96-31-23.43-3.55-2.5-4.19-2.89-34-22.37-20.83-13.61-25.07-16.39-33-21.3-7.38-4.57-7.28-4.37-23-13.85-19.64-11.85-21.3-13.06-35-21.3-17.59-10.58-17.21-9.99-38-22.37-15.11-9-15.61-9.49-37-22.37-22.36-13.47-33.54-20.2-43-25.56-6.22-3.53-24.16-13.62-48-25.56-20.24-10.14-30.36-15.21-39-18.11-8.75-2.94-17.1-7.22-26-9.59-5.9-1.57-13.82-3.26-14-6.39-.1-1.72,2.15-3.57,3-4.26,2-1.64,4.06-2.02,5-2.13Z"/>
        <path class="cls-6" d="m1283,1029.07c-1.36-4.02,7.85-10.81,13-14.76,20.4-15.67,2.84-6.67,43-40.07,10.35-8.61,29.21-23.91,56-43.23,29.93-21.58,54.26-36.99,66-44.29,27.17-16.87,51.13-30.16,70-40.07,13.87-7.29,40.56-20.93,75-35.85,19.42-8.41,32.34-13.97,51-20.03,8-2.6,27.27-8.62,53-13.71,33.14-6.56,57.8-7.79,95-9.49,0,0,42.94-2.33,82-1.05,10.91.36,21,1.05,21,1.05,2.61-.78,9.91-2.67,13,1.05,1.97,2.38,1.36,6,1,8.44-1.38,9.38-.51,18.99-1,28.47-.08,1.65-.01.66,0,27.42,0,.63,0,7.68,0,17.93,0,30.46,0,30.04,0,30.58.17,18.5.74,18.6,1,39.01.08,6.04.19,15.33,0,27.42-.23,14.32-.65,18.19-1,30.58-.46,16.55-.8,28.45,0,43.23,1.31,24.35,4.87,41.31,0,43.23-.3.12-.87.08-2,0-7.03-.5-11.43-2.18-16-3.16-3.66-.79-3.18-.22-10-1.05-9.6-1.18-12.54-2.55-22-4.22-2.31-.41-1.74-.26-17-2.11-12.56-1.53-18.97-2.31-25-3.16-11.37-1.62-10.21-1.78-20-3.16-13.23-1.87-23.61-2.76-29-3.16-7.16-.54-10.84-.61-23-1.05-23.94-.87-35.92-1.3-48-2.11-15.09-1.01-12.81-1.4-34-3.16-9.58-.8-28.09-2.32-51-3.16-25.71-.94-25.7.12-49-1.05-17.93-.9-19.95-1.63-36-2.11-13.6-.4-24.02-.23-38,0-19.13.32-20.81.74-38,1.05-15.63.29-26.75.18-44,0-9.72-.1-27.65-.29-51-1.05-29.3-.95-26.87-1.49-33-1.05-4.49.32-19.9,1.61-39,1.05-7.34-.21-12.13-.61-13-3.16Z"/>
        <path class="cls-3" d="m221,599c-1.67-2.36,1.94-5.35,5-16,2.04-7.1,2.66-13.5,3-17,.79-8.17-.12-8.56,1-13,.98-3.92,3-7.33,7-14,2.99-4.99,5.68-9.44,10-15,4.37-5.62,10.1-12.99,12-12,1.88.98-.42,9.89-3,16-2.33,5.52-3.78,6.12-6,12-1.76,4.67-2.39,8.37-3,12-.76,4.5-1.72,10.43-1,18,.71,7.43,1.06,11.14,4,14,2.56,2.49,6.74,3.03,15,4,7.09.83,8.33.43,14,1,9.36.94,20.12,3.48,20,5-.02.24-.35,1-13,2-8.82.69-15.09.83-21,1-14.44.42-21.66.63-25,1-12.36,1.37-17.24,3.49-19,1Z"/>
        <path class="cls-3" d="m472,707c2.04-2.11.14-4.77,0-14-.03-2.13.08-1.6,1-15,.73-10.54.79-12.76,0-13-1.47-.44-4.71,6.39-5,7-1.22,2.61-1.26,3.51-3,9-1.53,4.85-2.45,7.7-4,11-1.83,3.88-2.62,5.9-4,7-2.19,1.74-4.62,1.91-11,2-7.94.11-9.64-.08-13,0-8.05.2-17.01,1.74-17,3,0,1.03,6.04,1.76,8,2,6.53.79,9.62.12,16,0,6.22-.11,11.39.38,18,1,9.79.93,12.25,1.81,14,0Z"/>
        <polygon class="cls-4" points="1 1080 1921 1080 1921 1049.5 1854 1039.5 1709 1027.5 1501 1018.5 1283 1015.5 1082.5 1006.28 892.5 1020.5 721.5 1023.5 538.5 1024.5 336.5 1027.5 151.5 1040.5 .5 1048.5 1 1080"/>
      </g>
    </g>
  </g>
</svg>