<?xml version="1.0" encoding="UTF-8"?>
<svg id="Layer_2" data-name="Layer 2" xmlns="http://www.w3.org/2000/svg" viewBox="0 0 151.19 124.31">
  <defs>
    <style>
      .cls-1 {
        fill: #2f0d00;
        stroke-linecap: round;
      }

      .cls-1, .cls-2, .cls-3, .cls-4, .cls-5 {
        stroke: #2f0d00;
        stroke-miterlimit: 10;
      }

      .cls-2 {
        fill: #fff;
        stroke-width: .25px;
      }

      .cls-3 {
        fill: #ffd635;
      }

      .cls-4 {
        fill: #f88433;
      }

      .cls-5 {
        fill: none;
        stroke-width: .5px;
      }
    </style>
  </defs>
  <g id="Tegning_af_stjerneskud" data-name="Tegning af stjerneskud">
    <g>
      <path class="cls-4" d="m89.38,74.68c-3.71-5.09-5.56-7.63-7.9-11.94-.8-1.48-3.78-4.66-9.73-11.02-2.64-2.82-5.42-5.79-9.37-9.55-4.09-3.91-7.31-6.65-10.28-9.18-4.23-3.6-7.63-6.31-9.92-8.08-4.58-3.56-6.93-5.37-10.28-7.35-1.57-.92-3.71-1.91-7.94-3.97-2.58-1.26-3.87-1.96-5.89-2.82-2.01-.86-2.92-1.13-5.51-2.09-2.46-.91-9.19-3.39-9.09-3.69.08-.25,5.16.73,10.46,3.01,1.92.83,2.32,1.16,4.16,1.81,3.75,1.33,4.44.79,7.21,1.95,1.85.77,1.41.96,5.64,3.24.8.43,2.22,1.2,4.07,2.07,2.43,1.15,3.58,1.53,5.83,2.47.99.42,3.72,1.58,6.89,3.22,4.59,2.37,7.26,2.93,8.65,4.24.46.43,2.29,1.86,3.38,3.21.1.12.63.19,1.25.49.88.43,1.45.9,1.64,1.06,1.37,1.1,2.16,1.21,4.18,2.61,1.43.99,2.39,1.87,3.99,3.36,1.4,1.29,2.68,2.58,2.68,2.58.98.98,1.32,1.38,2.08,2.04,1.04.91,1.57,1.2,2.34,1.78,1.28.98,2.22,1.04,5.26,4.52,1.78,2.05,1.14,1.79,2.17,3.03,1.22,1.47,2.2,2.61,3.64,4.66.57.81,1.68,2.4,3.54,5.4,1.51,2.44,1.79,3.02,2.09,3.61,1.07,2.12,1.92,2.56,2.06,3.16.15.64.6,1.83,1.27,2.44.61.55-.12.75-.02,1.05.36,1.05-4.79,4.97-7.61,3.49-.54-.29-.84-.69-.94-.82Z"/>
      <path class="cls-3" d="m97.2,72.16c.17.02.67-.18,1.67-.58.75-.3,1.32-.53,2.04-.93.47-.26.9-.5,1.42-.92.25-.2.74-.63,1.26-1.28.69-.87,1.03-1.31.97-1.81-.08-.63-.68-.66-1.35-1.54-.58-.76-.44-1.16-.96-2.56-.4-1.08-.57-1.06-1.33-2.63-.65-1.34-.55-1.38-1.42-3.4-.46-1.06-.97-2.24-1.75-3.7-.54-1-.95-1.67-1.73-2.93-1.23-1.99-1.85-2.99-2.5-3.73-1.06-1.22-1.34-1.15-2.37-2.45-.73-.93-.76-1.19-1.6-2.28-.87-1.14-1.64-1.92-2.07-2.34-1.17-1.17-2.14-1.9-3.46-2.9-1.1-.83-1.96-1.41-2.63-1.87-1.29-.88-1.69-1.08-3.95-2.51-3.57-2.25-3.4-2.24-4.51-2.83-1.84-.98-2.16-.93-3.43-1.78-1.3-.87-1.25-1.12-2.91-2.4-.84-.65-.89-.62-3.74-2.51-2.79-1.85-2.71-1.86-3.59-2.37-1.59-.92-1.72-.81-3.86-1.97-2.13-1.15-2.09-1.31-3.58-2.06-1.38-.7-2.44-1.07-4.5-1.8-2.09-.74-2.41-.75-5.16-1.65-3.03-.99-2.81-1.02-5.06-1.73-1.75-.55-3.21-.94-6.11-1.71-3.19-.85-4.44-1.16-4.87-1.26-1.34-.32-1.34-.53-2.85-.8-2.35-.43-4.05-.9-7.46-1.38-4.12-.58-3.8-.76-5.48-.81-2.03-.06-2.7.28-4.99.09-2.06-.16-3.02-.08-3.05.04-.05.2,2.92,1.18,5.43,1.84.57.15.82.2,1.78.45,1.72.45,2.67.7,3.59,1.01,1.96.66,1.83.91,3.72,1.59.82.3.8.23,4.05,1.05,3.55.9,4.07,1.11,4.71,1.47,1.07.61.97.81,2.42,1.63,1.18.67,1.44.64,2.99,1.49,1.11.6,1.15.71,2.27,1.3.74.39,1.26.62,2.29,1.09,1.57.71,2.39,1.09,3.53,1.51,1.58.58,1.69.49,2.81.99.79.35.78.42,2.25,1.16,1.16.58,1.24.58,2.71,1.3,1.27.62,1.9.93,2.44,1.26,1.24.75,1.15.91,2.48,1.78,1.34.88,2.62,1.5,3.28,1.82,1,.48,1.25.55,1.9.95.88.55,1.16.9,1.94,1.53,1.52,1.21,1.34.42,2.85,1.57,1.43,1.09,1.67,1.23,2.89,1.75.84.36,1.26.79,2.03,1.3,1.35.9,2,1.78,3.87,3.34,1.22,1.03,1.19,1.11,2.39,2.36,1.27,1.32,2.29,2.18,2.5,2.35,1.35,1.13,1.45,1,2.54,1.92.28.24,1.01.87,2.91,3.06.58.67,1.2,1.4,2.52,3.01,1.68,2.06,2.78,3.41,4.21,5.31,1.59,2.1,2.15,2.97,2.37,3.32.65,1.02.84,1.43,1.8,3.14,2.29,4.07,2.17,3.47,2.87,4.94,1.33,2.8,1.53,4.55,2.58,4.68Z"/>
      <path class="cls-4" d="m101.81,65.51c-.91-.66-1.07-2.04-1.44-3.38-.21-.77-.13-.19-1.94-4.39-.96-2.22-.86-2.09-1.27-2.96-.62-1.31-1.18-2.27-2.27-4.14-1.3-2.23-1.95-3.34-2.64-4.25-1.05-1.4-1.18-1.26-2.79-3.19-2.05-2.46-1.99-2.86-3.34-4.29-.8-.85-1.9-1.67-4.11-3.3-1.59-1.18-2.88-2.06-5.46-3.81-2.87-1.95-3.45-2.28-3.89-2.53-2.08-1.16-2.46-1.06-4.11-2.02-1.78-1.03-2-1.53-4.33-3.3-1.98-1.51-3.54-2.46-5.39-3.59-.66-.4-.35-.2-6.12-3.45-1.84-1.04-2.35-1.33-3.26-1.76-.67-.32-1.74-.81-4.58-1.83-.95-.34-1.81-.64-5.72-1.94-4.13-1.37-4.76-1.57-5.28-1.72-1.95-.59-3.4-.96-4.91-1.36-2.35-.61-4.24-1.1-6.74-1.61-2.3-.47-2.39-.4-6.23-1.14-3.38-.65-3.05-.65-3.96-.77-1.38-.18-2.21-.17-7.15-.18-2.88,0-4.32-.02-4.4-.33-.12-.53,2-1.52,3.45-2.02.85-.29,1.49-.43,4.73-.92,2.58-.39,3.87-.58,4.69-.66.71-.07,2.44-.21,5.06-.18,2.88.03,3.42.23,8.03.55,4.92.34,5.06.17,7.66.51,1.18.16,2.82.47,6.05,1.1,3.76.73,5.65,1.1,7.04,1.43,1.79.43,4.94,1.19,8.8,2.6.31.11.24.09,7.11,2.97,3.76,1.58,4.47,1.87,5.75,2.49.62.3,2.8,1.37,5.57,3.01,1.78,1.05,3.24,1.92,5.06,3.26.93.69.88.71,4.91,4.14,3.18,2.71,3.47,2.92,4.44,3.85,1.26,1.21,2.24,2.29,3.41,3.56,1.08,1.17,1.84,2.01,2.82,3.19,1.25,1.51,2.28,2.76,3.37,4.51.39.63,1.1,2.01,2.49,4.73,1.53,2.98,1.33,2.66,1.76,3.45,1.71,3.09,2.56,4.63,3.12,5.17.12.11.39.36.49.77.18.66-.22,1.17-.56,1.96-.26.61-.06.37-.63,2.77-.41,1.73-.49,1.73-.61,2.56-.11.72-.07.86-.23,1.93-.16,1.05-.29,1.54-.36,1.8-.13.47-.25.88-.51,1.38-.18.36-.25.41-.4.76-.2.48-.2.71-.38.8-.28.15-.71-.17-.82-.24Z"/>
      <path class="cls-3" d="m100.77,67.52s2.26-4.31,2.59-5.77c.4-1.75.28-2.66.91-5.43.2-.9.5-1.9,1.08-3.85,1.46-4.93,1.67-5.1,2.04-6.85.75-3.54-.05-3.06.68-5.6.82-2.88,2.09-4.33,1.81-7.07-.09-.85-.28-1.64-.28-1.64,0,0,.53,2.58,1.36,5.6.83,3.04,1.06,3.06,2.49,7.7,1.05,3.39,1.01,3.66,1.7,5.43,1.01,2.6,1.32,2.64,2.09,4.81,1.26,3.55,1.87,5.26,1.87,5.26,0,0,2.24-.68,6.06-2.26,2.07-.86,4.02-1.36,7.92-2.38,3.34-.87,3.83-.82,5.38-1.53,1.74-.8,2.18-1.34,4.24-2.09,1.55-.57,1.73-.42,3.57-1.08,2.51-.89,3.74-1.36,3.74-1.36,0,0-1.79,2.93-2.21,3.4-1.23,1.39-1.74,1.65-3.9,3.68-.96.9-2.17,2.04-3.62,3.62-.46.51-1.44,1.59-2.6,3.06-.99,1.25-.94,1.29-2.66,3.57-1.66,2.19-1.77,2.25-2.21,3-.99,1.72-.66,1.92-1.53,3.34-1.25,2.05-2.49,3.45-2.49,3.45,0,0,.23,1.56.96,3.11.98,2.08,2.08,3.76,3.17,5.26.99,1.37.85,1.05,2.55,3.28,1.96,2.59,2.05,2.88,3.51,4.7,1.28,1.59,2.18,2.56,2.83,3.23.78.8,1.24,1.21,1.75,1.7,2.14,2.04,4.64,5.77,4.64,5.77,0,0-1.58-.9-4.53-2.09-1.37-.55-1.59-.5-6.06-1.7-2.93-.79-4.4-1.18-6.39-1.81-2.53-.8-2.63-.94-4.7-1.53-.44-.13-1.92-.5-4.87-1.25-1.28-.32-2.58-.58-3.85-.96-2.23-.68-3.34-.79-3.34-.79,0,0-1.27,1.45-2.55,3.28-.43.62-.48.59-3.68,3.74-3.83,3.77-3.42,3.48-4.58,4.53-1.6,1.44-2.27,1.88-3.85,3.45-.32.31-.5.51-2.15,2.26-2.46,2.62-3.69,3.93-3.9,4.19-1.01,1.19-1.88,2.4-3.62,4.81-1.84,2.54-2.49,3.17-2.49,3.17,0,0,.41-2.21,1.75-7.47.83-3.25.87-3.74,1.7-6.79.48-1.75.5-1.7,1.3-4.58,1.1-3.95,1-3.82,1.53-5.55.65-2.15.96-2.84,1.58-5.09.96-3.46.62-4.36.62-4.36,0,0-1.62-.91-5.15-1.81-2.79-.71-2.43-.81-4.3-1.25-3.07-.71-3.62-.35-8.32-.91-3.7-.44-3.37-.67-7.07-1.08-3.51-.39-5.32-.74-5.32-.74,0,0,1.83-.76,5.43-1.98,2.35-.79,4.32-1.6,8.26-3.23,3.3-1.36,3-1.32,5.77-2.43,3.66-1.47,3.9-1.41,5.6-2.26,2.8-1.4,2.73-1.84,4.98-2.72.77-.3,1.76-.64,2.94-1.47.84-.59,1.82-1.64,1.82-1.64Z"/>
      <g>
        <path class="cls-5" d="m99.93,79.74c.14.49-.49-.75,0,0,.36.55.7.92,1.29,1.55.58.62,1.32,1.35,2.27,2.14.86.72,1.53,1.2,2.4,1.82.96.69,1.7,1.22,2.77,1.85,1.35.79,2.03,1.19,2.87,1.4,1.61.41,3.04.16,3.82.02,2.17-.38,3.59-1.3,4.45-1.87,1.55-1.03,2.42-2.13,3.09-2.96.59-.73.73-1.04,1.96-2.71.55-.75,1.11-1.68,1.42-2.07"/>
        <path class="cls-2" d="m116.24,68.8c.65-.37,1.35-.32,2.75-.24.51.03.89.09,1.31.15.95.14,1.43.21,1.95.43.62.26,1.22.51,1.48,1.09.06.13.02.1.09,1.52.02.56.04.78-.09,1.05-.12.25-.29.39-.62.67-.93.75-1.4,1.13-1.5,1.2-.52.34-.86.57-1.37.77-1.09.43-2.05.39-2.53.36-.87-.05-1.46-.08-2.06-.49-.82-.57-1.09-1.44-1.18-1.76-.25-.83-.13-1.52-.06-1.85.13-.72.42-1.21.58-1.48.31-.53.64-1.08,1.27-1.44Z"/>
        <path class="cls-2" d="m104.33,70.05c.65-.37,1.35-.32,2.75-.24.51.03.89.09,1.31.15.95.14,1.43.21,1.95.43.62.26,1.22.51,1.48,1.09.06.13.02.1.09,1.52.02.56.04.78-.09,1.05-.12.25-.29.39-.62.67-.93.75-1.4,1.13-1.5,1.2-.52.34-.86.57-1.37.77-1.09.43-2.05.39-2.53.36-.87-.05-1.46-.08-2.06-.49-.82-.57-1.09-1.44-1.18-1.76-.25-.83-.13-1.52-.06-1.85.13-.72.42-1.21.58-1.48.31-.53.64-1.08,1.27-1.44Z"/>
        <path class="cls-1" d="m117.45,72.79c0-.35.51-.55.66-.61.19-.08.45-.18.68-.05.28.16.29.52.29.56,0,.04,0,.3-.19.51-.23.24-.53.22-.61.22-.38-.02-.83-.3-.83-.63Z"/>
        <path class="cls-1" d="m106.35,73.46c0-.35.51-.55.66-.61.19-.08.45-.18.68-.05.28.16.29.52.29.56,0,.04,0,.3-.19.51-.23.24-.53.22-.61.22-.38-.02-.83-.3-.83-.63Z"/>
      </g>
    </g>
  </g>
</svg>