<?xml version="1.0" encoding="UTF-8"?>
<svg id="Layer_2" data-name="Layer 2" xmlns="http://www.w3.org/2000/svg" viewBox="0 0 825.72 1075.67">
  <defs>
    <style>
      .cls-1 {
        fill: snow;
        stroke: #000;
      }

      .cls-2, .cls-3, .cls-4, .cls-5, .cls-6, .cls-7, .cls-8, .cls-9, .cls-10, .cls-11, .cls-12, .cls-13, .cls-14, .cls-15, .cls-16 {
        stroke-width: 0px;
      }

      .cls-3 {
        fill: #6151d5;
      }

      .cls-4 {
        fill: #4d6bbc;
      }

      .cls-5 {
        fill: #254895;
      }

      .cls-6 {
        fill: #d56630;
      }

      .cls-7 {
        fill: silver;
      }

      .cls-8 {
        fill: #add8e6;
      }

      .cls-9 {
        fill: #b0c4de;
      }

      .cls-10 {
        fill: #a98b52;
      }

      .cls-11 {
        fill: #d12610;
      }

      .cls-12 {
        fill: #9d794e;
      }

      .cls-13 {
        fill: #b4a26d;
      }

      .cls-14 {
        fill: #fff;
      }

      .cls-15 {
        fill: bisque;
      }

      .cls-16 {
        fill: #ffc933;
      }
    </style>
  </defs>
  <g id="Layer_1-2" data-name="Layer 1">
    <g>
      <path class="cls-16" d="m259.14,440.19H0v195.3h259.14v-195.3Z"/>
      <path class="cls-8" d="m259.69,660.28H.55v195.3h259.14v-195.3Z"/>
      <path class="cls-9" d="m550.91,660.28h-259.14v195.3h259.14v-195.3Z"/>
      <path class="cls-3" d="m259.14,880.38H0v195.3h259.14v-195.3Z"/>
      <path class="cls-5" d="m550.14,880.38h-259.14v195.3h259.14v-195.3Z"/>
      <path class="cls-4" d="m825.72,660.28h-259.14v195.3h259.14v-195.3Z"/>
      <path class="cls-13" d="m263.17,220.09H4.03v195.3h259.14v-195.3Z"/>
      <path class="cls-10" d="m546.46,220.09h-259.14v195.3h259.14v-195.3Z"/>
      <path class="cls-12" d="m825.72,220.09h-259.14v195.3h259.14v-195.3Z"/>
      <path class="cls-7" d="m259.69,0H.55v195.3h259.14V0Z"/>
      <path class="cls-15" d="m549.58,0h-259.14v195.3h259.14V0Z"/>
      <path class="cls-1" d="m825.18,1.19h-256.94v192.91h256.94V1.19Z"/>
      <path class="cls-6" d="m549.58,440.19h-259.14v195.3h259.14v-195.3Z"/>
      <path class="cls-11" d="m825.72,440.19h-259.14v195.3h259.14v-195.3Z"/>
      <path class="cls-2" d="m71.51,552.13v-27.71h16.92v4.83h-11.52v6.6h10.39v4.83h-10.39v11.45h-5.4Zm20.56,0v-27.71h16.92v4.83h-11.52v6.6h10.39v4.83h-10.39v11.45h-5.4Zm43.1-18.01h-5.47c-.1-.77-.3-1.45-.61-2.04-.31-.6-.7-1.12-1.19-1.54-.48-.42-1.04-.75-1.67-.98-.62-.23-1.3-.34-2.03-.34-1.32,0-2.47.36-3.46,1.07-.98.7-1.74,1.73-2.28,3.08-.54,1.34-.81,2.98-.81,4.9s.27,3.63.81,4.98c.55,1.34,1.32,2.36,2.3,3.04.98.69,2.12,1.03,3.41,1.03.72,0,1.39-.1,2.01-.31.63-.21,1.18-.51,1.66-.9.48-.41.88-.9,1.2-1.48.32-.58.55-1.24.67-1.97l5.47.03c-.14,1.27-.49,2.5-1.06,3.68-.56,1.17-1.31,2.22-2.26,3.15-.94.92-2.06,1.65-3.37,2.19-1.3.53-2.77.8-4.41.8-2.28,0-4.32-.56-6.11-1.68-1.79-1.12-3.2-2.74-4.24-4.86-1.03-2.12-1.55-4.69-1.55-7.7s.52-5.59,1.57-7.71c1.05-2.12,2.47-3.73,4.27-4.84,1.8-1.12,3.82-1.68,6.06-1.68,1.48,0,2.85.22,4.12.68,1.27.45,2.4,1.11,3.38,1.97.98.86,1.78,1.91,2.4,3.15.62,1.25,1.02,2.67,1.2,4.28Zm12.97-10.08c1.32,0,2.58.24,3.79.72,1.22.47,2.31,1.24,3.27,2.29.97,1.05,1.73,2.44,2.28,4.17.57,1.72.85,3.84.86,6.35,0,2.35-.25,4.46-.74,6.3-.48,1.84-1.18,3.41-2.08,4.7s-2,2.28-3.28,2.95c-1.28.67-2.71,1-4.29,1-1.7,0-3.21-.36-4.52-1.07-1.3-.72-2.36-1.7-3.16-2.94-.79-1.24-1.27-2.64-1.44-4.19h5.33c.21,1.01.65,1.8,1.31,2.36.67.55,1.49.82,2.47.82,1.66,0,2.93-.78,3.79-2.35.87-1.58,1.3-3.74,1.31-6.48h-.18c-.38.81-.9,1.51-1.55,2.1-.65.58-1.39,1.02-2.23,1.34-.83.32-1.72.47-2.66.47-1.51,0-2.85-.38-4.03-1.15-1.18-.77-2.11-1.82-2.79-3.17-.68-1.34-1.02-2.88-1.02-4.6,0-1.86.39-3.52,1.18-4.97.8-1.45,1.92-2.59,3.34-3.41,1.44-.83,3.11-1.24,5.02-1.23Zm.04,4.6c-.84,0-1.59.22-2.24.65-.65.43-1.17,1.01-1.55,1.75-.37.73-.56,1.55-.55,2.45,0,.91.18,1.73.55,2.47.38.72.88,1.3,1.52,1.73.65.42,1.39.64,2.22.64.62,0,1.2-.13,1.73-.38.53-.25.99-.6,1.39-1.04.4-.45.71-.97.94-1.55.22-.59.34-1.21.34-1.87,0-.88-.2-1.68-.58-2.41-.37-.73-.89-1.32-1.55-1.76-.66-.44-1.4-.67-2.22-.67Zm23.36,23.87c-1.86,0-3.52-.35-4.98-1.04-1.45-.7-2.59-1.67-3.43-2.89-.83-1.24-1.26-2.66-1.28-4.28h5.44c.03.68.24,1.27.61,1.79.38.51.89.9,1.52,1.18.63.28,1.34.42,2.13.42s1.55-.16,2.19-.47c.63-.32,1.13-.75,1.48-1.31.36-.56.54-1.21.54-1.94s-.19-1.39-.57-1.96c-.38-.58-.92-1.03-1.62-1.35-.7-.32-1.53-.49-2.49-.49h-2.38v-4.3h2.38c.81,0,1.54-.15,2.16-.46.63-.31,1.12-.73,1.47-1.27.35-.55.52-1.19.52-1.92s-.15-1.31-.46-1.83c-.3-.53-.72-.95-1.27-1.25-.54-.3-1.17-.45-1.9-.45s-1.4.14-2.01.43c-.61.28-1.09.68-1.46,1.21-.37.52-.56,1.14-.59,1.84h-5.18c.02-1.6.45-3,1.26-4.22.81-1.22,1.91-2.17,3.29-2.85,1.39-.7,2.96-1.04,4.7-1.04s3.31.34,4.63,1.04c1.32.7,2.35,1.63,3.08,2.82.74,1.17,1.11,2.49,1.1,3.95,0,1.55-.44,2.85-1.34,3.88-.89,1.04-2.05,1.7-3.48,1.97v.22c1.88.26,3.31.97,4.29,2.12.99,1.15,1.48,2.58,1.47,4.3,0,1.58-.41,2.98-1.26,4.21-.84,1.23-2,2.19-3.48,2.9-1.48.7-3.18,1.05-5.09,1.05Zm23.16,0c-1.86,0-3.52-.35-4.98-1.04-1.45-.7-2.59-1.67-3.43-2.89-.83-1.24-1.26-2.66-1.28-4.28h5.44c.03.68.24,1.27.61,1.79.38.51.89.9,1.52,1.18.63.28,1.34.42,2.13.42s1.55-.16,2.19-.47c.63-.32,1.13-.75,1.48-1.31.36-.56.54-1.21.54-1.94s-.19-1.39-.57-1.96c-.38-.58-.92-1.03-1.62-1.35-.7-.32-1.53-.49-2.49-.49h-2.38v-4.3h2.38c.81,0,1.54-.15,2.16-.46.63-.31,1.12-.73,1.47-1.27.35-.55.52-1.19.52-1.92s-.15-1.31-.46-1.83c-.3-.53-.72-.95-1.27-1.25-.54-.3-1.17-.45-1.9-.45s-1.4.14-2.01.43c-.61.28-1.1.68-1.46,1.21-.37.52-.56,1.14-.59,1.84h-5.18c.02-1.6.44-3,1.26-4.22.81-1.22,1.91-2.17,3.29-2.85,1.39-.7,2.96-1.04,4.7-1.04s3.31.34,4.63,1.04c1.32.7,2.35,1.63,3.08,2.82.74,1.17,1.11,2.49,1.1,3.95,0,1.55-.44,2.85-1.34,3.88-.89,1.04-2.05,1.7-3.48,1.97v.22c1.88.26,3.31.97,4.29,2.12.99,1.15,1.48,2.58,1.47,4.3,0,1.58-.41,2.98-1.26,4.21-.84,1.23-2,2.19-3.48,2.9-1.48.7-3.18,1.05-5.09,1.05Z"/>
      <path class="cls-2" d="m73.09,772.22h-5.79l8.82-27.71h6.96l8.81,27.71h-5.79l-6.4-21.38h-.2l-6.41,21.38Zm-.36-10.89h13.68v4.58h-13.68v-4.58Zm31.3,10.89h-9.06v-27.71h9.13c2.57,0,4.78.55,6.64,1.66,1.86,1.1,3.28,2.68,4.28,4.75,1.01,2.07,1.51,4.54,1.51,7.41s-.5,5.37-1.51,7.44c-1,2.08-2.43,3.67-4.3,4.78-1.86,1.11-4.09,1.66-6.69,1.66Zm-3.66-5.02h3.43c1.6,0,2.94-.31,4.03-.92,1.1-.62,1.92-1.58,2.47-2.88.56-1.31.84-2.99.84-5.06s-.28-3.72-.84-5.02c-.55-1.3-1.37-2.25-2.46-2.87-1.09-.61-2.43-.92-4.03-.92h-3.44v17.67Zm29.22,5.02h-9.06v-27.71h9.13c2.57,0,4.78.55,6.64,1.66,1.86,1.1,3.28,2.68,4.28,4.75,1.01,2.07,1.51,4.54,1.51,7.41s-.5,5.37-1.51,7.44c-1,2.08-2.43,3.67-4.3,4.78-1.86,1.11-4.09,1.66-6.69,1.66Zm-3.66-5.02h3.43c1.6,0,2.94-.31,4.03-.92,1.1-.62,1.92-1.58,2.47-2.88.56-1.31.84-2.99.84-5.06s-.28-3.72-.84-5.02c-.55-1.3-1.37-2.25-2.46-2.87-1.09-.61-2.43-.92-4.03-.92h-3.44v17.67Zm29.54,5.4c-1.92,0-3.63-.34-5.13-1.01-1.49-.69-2.66-1.62-3.51-2.8-.85-1.18-1.27-2.52-1.27-4.02,0-1.16.24-2.21.72-3.18.49-.98,1.16-1.78,2-2.42.84-.65,1.78-1.07,2.82-1.25v-.19c-1.36-.3-2.47-1.01-3.32-2.15-.85-1.14-1.27-2.47-1.27-3.99,0-1.43.39-2.71,1.16-3.83.77-1.13,1.83-2.01,3.18-2.65,1.36-.65,2.89-.98,4.62-.98s3.26.32,4.6.98c1.36.65,2.42,1.54,3.19,2.66.77,1.12,1.16,2.39,1.17,3.82,0,1.52-.44,2.85-1.3,3.99-.86,1.14-1.95,1.86-3.29,2.15v.19c1.02.18,1.95.6,2.78,1.25.84.64,1.51,1.45,2,2.42.5.96.75,2.02.76,3.18,0,1.5-.44,2.84-1.29,4.02-.85,1.18-2.02,2.11-3.52,2.8-1.49.68-3.19,1.01-5.12,1.01Zm0-4.3c.86,0,1.61-.17,2.25-.5.64-.34,1.14-.81,1.5-1.41.37-.6.55-1.3.55-2.08s-.19-1.51-.56-2.12c-.37-.62-.88-1.11-1.52-1.46-.64-.36-1.38-.54-2.21-.54s-1.56.18-2.21.54c-.65.35-1.16.84-1.53,1.46-.37.61-.55,1.32-.55,2.12s.18,1.48.54,2.08c.36.6.86,1.07,1.51,1.41.65.33,1.4.5,2.25.5Zm0-12.38c.72,0,1.35-.16,1.91-.47.56-.32.99-.76,1.31-1.32.32-.56.47-1.2.47-1.93s-.16-1.35-.47-1.9c-.32-.55-.75-.98-1.3-1.28-.55-.32-1.19-.47-1.92-.47s-1.36.16-1.92.47c-.56.3-.99.73-1.31,1.28-.31.54-.46,1.17-.46,1.9s.16,1.38.47,1.93c.32.56.75,1,1.31,1.32.56.31,1.19.47,1.91.47Zm13.85,16.31v-27.71h17.22v4.83h-11.82v6.6h10.93v4.83h-10.93v6.62h11.87v4.83h-17.27Zm31.17.38c-1.31,0-2.58-.25-3.8-.72-1.21-.47-2.3-1.23-3.27-2.29-.96-1.06-1.73-2.46-2.3-4.2-.56-1.74-.84-3.88-.84-6.41,0-2.33.25-4.41.74-6.24.49-1.84,1.19-3.4,2.1-4.68.92-1.28,2.01-2.26,3.28-2.92,1.27-.68,2.7-1.01,4.28-1.01,1.7,0,3.21.36,4.52,1.08,1.31.71,2.35,1.68,3.14,2.91.8,1.23,1.28,2.6,1.45,4.13h-5.33c-.21-.97-.64-1.72-1.31-2.27-.67-.55-1.49-.83-2.47-.83-1.66,0-2.93.79-3.79,2.36-.86,1.57-1.29,3.7-1.31,6.4h.17c.38-.82.9-1.52,1.55-2.1.66-.59,1.4-1.03,2.23-1.34.84-.31,1.73-.47,2.66-.47,1.51,0,2.86.39,4.04,1.16,1.18.77,2.11,1.82,2.8,3.17.68,1.34,1.02,2.88,1.02,4.61,0,1.88-.4,3.54-1.21,5.01-.8,1.46-1.92,2.61-3.36,3.44-1.43.82-3.09,1.23-4.99,1.22Zm-.02-4.6c.83,0,1.58-.22,2.23-.65.66-.43,1.17-1.02,1.55-1.76.37-.74.56-1.57.56-2.49s-.19-1.75-.56-2.47c-.37-.73-.87-1.31-1.52-1.75-.65-.43-1.39-.65-2.22-.65-.62,0-1.2.13-1.73.38-.52.25-.99.6-1.38,1.05-.39.45-.7.98-.92,1.57-.22.59-.34,1.21-.34,1.88,0,.89.19,1.71.56,2.45.38.74.9,1.33,1.55,1.77.66.44,1.4.66,2.23.66Z"/>
      <path class="cls-2" d="m352.29,772.22v-27.71h10.23c1.88,0,3.45.3,4.7.9,1.26.6,2.2,1.44,2.83,2.52.63,1.07.95,2.29.95,3.68,0,1.08-.2,2.03-.6,2.85-.4.81-.95,1.48-1.65,2-.69.51-1.48.88-2.37,1.1v.27c.97.04,1.88.34,2.73.89.86.55,1.55,1.32,2.08,2.31.53.98.8,2.16.8,3.52,0,1.47-.34,2.78-1.01,3.94-.67,1.15-1.65,2.05-2.96,2.72-1.31.67-2.92,1-4.83,1h-10.92Zm5.4-4.79h4.41c1.51,0,2.6-.31,3.29-.93.69-.63,1.04-1.47,1.04-2.52,0-.77-.17-1.45-.51-2.03-.34-.59-.83-1.05-1.46-1.38-.62-.33-1.37-.5-2.23-.5h-4.53v7.36Zm0-11.33h4.01c.74,0,1.4-.14,1.97-.42.58-.29,1.04-.69,1.37-1.22.34-.52.51-1.15.51-1.88,0-1-.33-1.81-.99-2.42-.65-.61-1.57-.92-2.77-.92h-4.11v6.86Zm27.7,16.73c-2.15-.01-3.99-.58-5.54-1.72-1.54-1.14-2.73-2.78-3.56-4.94-.82-2.15-1.23-4.75-1.22-7.78,0-3.02.41-5.6,1.23-7.73.83-2.13,2.02-3.75,3.56-4.86,1.55-1.12,3.39-1.68,5.53-1.68s3.97.56,5.51,1.68c1.55,1.12,2.74,2.74,3.57,4.87.83,2.12,1.24,4.69,1.24,7.71,0,3.04-.42,5.64-1.25,7.8-.82,2.15-2.01,3.8-3.54,4.94-1.54,1.14-3.38,1.71-5.53,1.71Zm0-4.86c1.46,0,2.63-.8,3.5-2.4.87-1.59,1.31-3.99,1.3-7.19,0-2.1-.2-3.85-.6-5.25-.39-1.4-.95-2.45-1.67-3.15-.72-.7-1.56-1.05-2.53-1.05-1.46,0-2.62.79-3.49,2.37-.87,1.58-1.32,3.94-1.32,7.09,0,2.13.2,3.91.59,5.33.4,1.42.96,2.48,1.68,3.19.72.7,1.57,1.05,2.55,1.05Zm36.87-13.76h-5.47c-.1-.77-.3-1.45-.61-2.04-.31-.6-.7-1.12-1.19-1.54-.48-.42-1.04-.75-1.67-.98-.62-.23-1.3-.34-2.03-.34-1.32,0-2.47.36-3.46,1.07-.98.7-1.74,1.73-2.28,3.09-.54,1.34-.81,2.98-.81,4.9s.27,3.63.81,4.98c.55,1.34,1.32,2.36,2.3,3.04.98.69,2.12,1.03,3.41,1.03.72,0,1.39-.11,2.01-.31.63-.21,1.18-.51,1.66-.9.48-.41.88-.9,1.2-1.48.32-.58.55-1.24.67-1.97l5.47.03c-.14,1.27-.49,2.5-1.06,3.68-.56,1.17-1.31,2.22-2.26,3.15-.94.92-2.06,1.65-3.37,2.19-1.3.53-2.77.8-4.41.8-2.28,0-4.32-.56-6.11-1.68-1.79-1.12-3.2-2.74-4.24-4.86-1.03-2.12-1.55-4.69-1.55-7.7s.52-5.59,1.57-7.71c1.05-2.12,2.47-3.74,4.27-4.84,1.8-1.12,3.82-1.68,6.06-1.68,1.48,0,2.85.22,4.12.68,1.27.45,2.4,1.11,3.38,1.97.98.86,1.78,1.91,2.4,3.15.62,1.25,1.02,2.67,1.2,4.28Zm3.34,13.14v-4.62l10.67-18.23h3.67v6.38h-2.17l-6.73,11.54v.22h15.16v4.7h-20.6Zm12.27,4.87v-6.28l.1-2.04v-19.39h5.06v27.71h-5.17Zm21.14,0h-9.06v-27.71h9.13c2.57,0,4.78.55,6.64,1.66,1.86,1.1,3.28,2.68,4.28,4.75,1.01,2.07,1.51,4.54,1.51,7.41s-.5,5.37-1.51,7.44c-1,2.08-2.43,3.67-4.31,4.78-1.86,1.11-4.09,1.66-6.69,1.66Zm-3.66-5.02h3.43c1.6,0,2.94-.31,4.03-.92,1.1-.62,1.92-1.58,2.47-2.88.56-1.31.84-2.99.84-5.06s-.28-3.72-.84-5.02c-.55-1.3-1.37-2.25-2.46-2.87-1.09-.61-2.43-.92-4.03-.92h-3.44v17.67Zm20.16,5.02v-27.71h17.22v4.83h-11.82v6.6h10.93v4.83h-10.93v6.62h11.87v4.83h-17.27Z"/>
      <path class="cls-2" d="m81.65,992.69c-1.32,0-2.58-.25-3.81-.72-1.21-.47-2.3-1.23-3.27-2.29-.96-1.06-1.73-2.46-2.29-4.2-.56-1.74-.84-3.88-.84-6.41,0-2.33.25-4.41.74-6.24.49-1.84,1.19-3.4,2.1-4.68.92-1.28,2.01-2.26,3.28-2.92,1.27-.68,2.7-1.01,4.28-1.01,1.71,0,3.21.36,4.52,1.08,1.31.71,2.35,1.68,3.14,2.91.8,1.23,1.28,2.6,1.45,4.13h-5.33c-.21-.97-.65-1.72-1.31-2.27-.67-.55-1.49-.83-2.47-.83-1.66,0-2.93.79-3.79,2.36-.86,1.57-1.29,3.7-1.31,6.4h.18c.38-.82.9-1.52,1.55-2.1.66-.59,1.4-1.03,2.23-1.34.84-.31,1.73-.47,2.66-.47,1.51,0,2.86.39,4.04,1.16,1.18.77,2.11,1.82,2.79,3.17.68,1.34,1.02,2.88,1.02,4.61,0,1.88-.4,3.54-1.21,5.01-.8,1.46-1.92,2.61-3.36,3.44-1.43.82-3.09,1.23-4.99,1.22Zm-.02-4.6c.83,0,1.57-.22,2.23-.65.66-.43,1.17-1.02,1.55-1.76.38-.74.56-1.57.56-2.49s-.19-1.75-.56-2.47c-.37-.73-.87-1.31-1.52-1.75-.65-.43-1.39-.65-2.22-.65-.63,0-1.2.13-1.73.38-.52.25-.99.6-1.39,1.05-.39.45-.7.98-.92,1.57-.23.59-.34,1.21-.34,1.88,0,.89.19,1.71.56,2.45.38.74.9,1.33,1.55,1.77.66.44,1.4.66,2.24.66Zm24.53-23.49v27.71h-5.4v-22.15h-.15l-5.85,3.98v-5.19l6.32-4.34h5.08Zm15.41,28.09c-1.76,0-3.34-.35-4.72-1.05-1.37-.7-2.46-1.67-3.27-2.91-.81-1.24-1.23-2.65-1.26-4.25h5.24c.06,1.07.47,1.95,1.25,2.61.77.67,1.69,1,2.76,1,.85,0,1.6-.2,2.24-.61.66-.42,1.17-.99,1.54-1.72.38-.74.56-1.59.56-2.55s-.19-1.83-.57-2.57c-.38-.74-.9-1.32-1.56-1.73-.67-.42-1.43-.63-2.28-.64-.75,0-1.48.17-2.19.5-.7.33-1.24.79-1.63,1.37l-4.81-.93,1.21-14.61h15.62v4.79h-11.17l-.66,6.94h.15c.45-.69,1.13-1.26,2.03-1.71.91-.45,1.92-.68,3.04-.68,1.54,0,2.91.39,4.12,1.18,1.21.79,2.16,1.86,2.86,3.23.7,1.36,1.04,2.93,1.03,4.71,0,1.87-.39,3.53-1.2,4.98-.8,1.44-1.92,2.58-3.36,3.41-1.43.82-3.09,1.23-4.99,1.23Zm24.43-28.09v27.71h-5.4v-22.15h-.15l-5.85,3.98v-5.19l6.33-4.34h5.08Zm15.28,27.71h-9.06v-27.71h9.14c2.57,0,4.78.55,6.64,1.66,1.86,1.1,3.28,2.68,4.28,4.75,1.01,2.07,1.51,4.54,1.51,7.41s-.51,5.37-1.51,7.44c-1,2.08-2.43,3.67-4.3,4.78-1.86,1.11-4.09,1.66-6.69,1.66Zm-3.65-5.02h3.43c1.6,0,2.94-.31,4.03-.92,1.1-.62,1.92-1.58,2.47-2.88.56-1.31.84-2.99.84-5.06s-.28-3.72-.84-5.02c-.55-1.3-1.37-2.25-2.46-2.87-1.09-.61-2.43-.92-4.03-.92h-3.44v17.67Zm29.34,5.4c-1.76,0-3.34-.35-4.72-1.05-1.37-.7-2.46-1.67-3.27-2.91-.81-1.24-1.23-2.65-1.26-4.25h5.24c.06,1.07.47,1.95,1.25,2.61.77.67,1.69,1,2.76,1,.85,0,1.6-.2,2.25-.61.66-.42,1.17-.99,1.53-1.72.38-.74.56-1.59.56-2.55s-.19-1.83-.57-2.57c-.38-.74-.89-1.32-1.56-1.73-.67-.42-1.43-.63-2.28-.64-.75,0-1.48.17-2.19.5-.7.33-1.24.79-1.63,1.37l-4.8-.93,1.21-14.61h15.62v4.79h-11.17l-.66,6.94h.15c.45-.69,1.13-1.26,2.03-1.71.91-.45,1.92-.68,3.05-.68,1.54,0,2.91.39,4.12,1.18,1.21.79,2.16,1.86,2.86,3.23.7,1.36,1.04,2.93,1.03,4.71,0,1.87-.39,3.53-1.2,4.98-.8,1.44-1.92,2.58-3.36,3.41-1.43.82-3.09,1.23-4.99,1.23Z"/>
      <path class="cls-14" d="m352.71,992.32v-4.22l9.1-9.13c.78-.81,1.42-1.54,1.95-2.19.53-.65.94-1.28,1.21-1.91.27-.63.41-1.31.41-2.04,0-.81-.17-1.51-.51-2.1-.34-.6-.81-1.05-1.4-1.37-.59-.32-1.26-.49-2.01-.49s-1.46.17-2.04.51c-.58.34-1.03.84-1.35,1.48-.32.64-.47,1.4-.47,2.29h-5.13c0-1.82.38-3.39,1.14-4.72.76-1.34,1.82-2.37,3.18-3.1,1.36-.73,2.94-1.1,4.71-1.1s3.42.35,4.78,1.06c1.36.69,2.42,1.66,3.18,2.89.76,1.24,1.14,2.65,1.14,4.25,0,1.05-.19,2.08-.57,3.1-.37,1.02-1.04,2.15-2.01,3.4-.96,1.23-2.32,2.72-4.08,4.45l-3.73,3.96v.19h10.73v4.79h-18.22Zm31.47.38c-1.76,0-3.34-.35-4.72-1.05-1.37-.7-2.46-1.67-3.27-2.91-.81-1.24-1.23-2.65-1.26-4.25h5.24c.06,1.07.47,1.95,1.25,2.61.77.67,1.69,1,2.76,1,.85,0,1.6-.2,2.24-.61.66-.42,1.17-.99,1.54-1.72.38-.74.56-1.59.56-2.55s-.19-1.83-.58-2.57c-.37-.74-.89-1.32-1.56-1.73-.67-.42-1.43-.63-2.28-.64-.75,0-1.48.17-2.18.5-.7.33-1.24.79-1.63,1.37l-4.81-.93,1.21-14.61h15.62v4.79h-11.17l-.66,6.94h.15c.45-.69,1.13-1.26,2.03-1.71.91-.45,1.92-.68,3.04-.68,1.54,0,2.91.39,4.12,1.18,1.21.79,2.16,1.86,2.86,3.23.7,1.36,1.04,2.93,1.03,4.71,0,1.87-.39,3.53-1.2,4.98-.8,1.44-1.92,2.58-3.36,3.41-1.43.82-3.09,1.23-4.99,1.23Zm12.93-5.25v-4.62l10.67-18.23h3.67v6.38h-2.17l-6.73,11.54v.22h15.16v4.7h-20.6Zm12.27,4.87v-6.28l.1-2.04v-19.39h5.06v27.71h-5.17Zm21.47.38c-1.92,0-3.63-.34-5.13-1.01-1.49-.69-2.66-1.62-3.5-2.8-.85-1.18-1.27-2.52-1.27-4.02,0-1.16.24-2.21.72-3.18.49-.98,1.16-1.78,2-2.42.84-.65,1.78-1.07,2.82-1.25v-.19c-1.36-.3-2.47-1.01-3.32-2.15-.85-1.14-1.27-2.47-1.27-3.99,0-1.43.39-2.71,1.16-3.83.77-1.13,1.83-2.01,3.18-2.65,1.36-.65,2.9-.98,4.62-.98s3.26.32,4.6.98c1.36.65,2.42,1.54,3.2,2.66.77,1.12,1.16,2.39,1.17,3.82,0,1.52-.44,2.85-1.3,3.99-.86,1.14-1.95,1.86-3.29,2.15v.19c1.02.18,1.95.6,2.78,1.25.84.64,1.51,1.45,2,2.42.5.96.75,2.02.76,3.18,0,1.5-.44,2.84-1.28,4.02-.85,1.18-2.02,2.11-3.52,2.8-1.49.68-3.19,1.01-5.11,1.01Zm0-4.3c.86,0,1.61-.17,2.24-.5.64-.34,1.14-.81,1.5-1.41.37-.6.55-1.3.55-2.08s-.19-1.51-.56-2.12c-.38-.62-.88-1.11-1.52-1.46-.64-.36-1.37-.54-2.21-.54s-1.56.18-2.21.54c-.65.35-1.16.84-1.54,1.46-.36.61-.55,1.32-.55,2.12s.18,1.48.54,2.08c.36.6.86,1.07,1.51,1.41.65.33,1.4.5,2.25.5Zm0-12.38c.71,0,1.35-.16,1.91-.47.56-.32.99-.76,1.31-1.32.32-.56.47-1.2.47-1.93s-.16-1.35-.47-1.9c-.32-.55-.75-.98-1.3-1.28-.55-.32-1.19-.47-1.92-.47s-1.36.16-1.92.47c-.56.3-.99.73-1.31,1.28-.31.54-.46,1.17-.46,1.9s.16,1.38.47,1.93c.32.56.75,1,1.31,1.32.56.31,1.19.47,1.91.47Zm22.94-11.78c1.32,0,2.58.24,3.79.72,1.22.48,2.31,1.24,3.27,2.29.96,1.05,1.73,2.44,2.28,4.17.56,1.72.85,3.84.86,6.35,0,2.35-.25,4.46-.74,6.3-.48,1.84-1.18,3.4-2.08,4.7-.91,1.29-2,2.28-3.28,2.95-1.28.67-2.71,1-4.29,1-1.71,0-3.21-.36-4.52-1.07-1.31-.72-2.36-1.7-3.16-2.94-.79-1.24-1.27-2.64-1.44-4.19h5.33c.21,1.01.65,1.8,1.31,2.36.67.55,1.49.82,2.47.82,1.66,0,2.93-.78,3.79-2.35.87-1.58,1.3-3.74,1.31-6.48h-.18c-.38.81-.9,1.51-1.55,2.1-.65.58-1.39,1.03-2.23,1.34-.83.32-1.72.47-2.66.47-1.5,0-2.85-.38-4.03-1.15-1.18-.77-2.11-1.82-2.8-3.17-.68-1.34-1.02-2.88-1.02-4.6,0-1.86.39-3.52,1.18-4.97.8-1.45,1.92-2.59,3.34-3.41,1.44-.83,3.11-1.24,5.02-1.23Zm.04,4.6c-.84,0-1.59.22-2.25.65-.65.43-1.16,1.01-1.55,1.75-.38.73-.56,1.55-.55,2.45,0,.91.18,1.73.55,2.47.37.72.88,1.3,1.52,1.73.65.42,1.39.64,2.22.64.63,0,1.2-.13,1.73-.38.53-.25.99-.6,1.39-1.04.4-.45.71-.97.94-1.55s.34-1.21.34-1.87c0-.88-.2-1.68-.57-2.41-.37-.73-.89-1.32-1.55-1.76-.66-.44-1.4-.67-2.22-.67Zm23.25,23.87c-1.76,0-3.34-.35-4.71-1.05-1.37-.7-2.46-1.67-3.27-2.91-.81-1.24-1.23-2.65-1.26-4.25h5.24c.06,1.07.47,1.95,1.25,2.61.77.67,1.69,1,2.76,1,.85,0,1.6-.2,2.25-.61.66-.42,1.17-.99,1.54-1.72.37-.74.56-1.59.56-2.55s-.19-1.83-.58-2.57c-.37-.74-.89-1.32-1.56-1.73-.67-.42-1.43-.63-2.28-.64-.75,0-1.48.17-2.18.5-.7.33-1.24.79-1.63,1.37l-4.81-.93,1.21-14.61h15.62v4.79h-11.17l-.66,6.94h.15c.45-.69,1.13-1.26,2.03-1.71.91-.45,1.92-.68,3.04-.68,1.54,0,2.91.39,4.12,1.18,1.21.79,2.16,1.86,2.86,3.23.7,1.36,1.05,2.93,1.04,4.71,0,1.87-.39,3.53-1.2,4.98-.8,1.44-1.92,2.58-3.36,3.41-1.43.82-3.09,1.23-4.99,1.23Z"/>
      <path class="cls-14" d="m630.29,767.35v-4.62l10.67-18.23h3.67v6.38h-2.17l-6.73,11.54v.22h15.16v4.7h-20.6Zm12.27,4.87v-6.28l.1-2.04v-19.39h5.06v27.71h-5.17Zm21.14,0h-9.06v-27.71h9.13c2.57,0,4.78.55,6.64,1.66,1.85,1.1,3.28,2.68,4.28,4.75,1.01,2.07,1.51,4.54,1.51,7.41s-.5,5.37-1.51,7.44c-1,2.08-2.43,3.67-4.31,4.78-1.86,1.11-4.09,1.66-6.69,1.66Zm-3.66-5.02h3.43c1.6,0,2.94-.31,4.03-.92,1.1-.62,1.92-1.58,2.47-2.88.56-1.31.84-2.99.84-5.06s-.28-3.72-.84-5.02c-.55-1.3-1.37-2.25-2.46-2.87-1.09-.61-2.43-.92-4.03-.92h-3.44v17.67Zm29.82,5.4c-1.31,0-2.58-.25-3.81-.72-1.21-.47-2.3-1.23-3.27-2.29-.97-1.06-1.73-2.46-2.3-4.2-.56-1.74-.83-3.88-.83-6.41,0-2.33.25-4.41.74-6.24.49-1.84,1.19-3.4,2.1-4.68.92-1.28,2.01-2.26,3.28-2.92,1.27-.68,2.7-1.01,4.28-1.01,1.7,0,3.21.36,4.52,1.08,1.31.71,2.35,1.68,3.14,2.91.8,1.23,1.28,2.6,1.45,4.13h-5.33c-.21-.97-.64-1.72-1.31-2.27-.67-.55-1.49-.83-2.47-.83-1.66,0-2.93.79-3.79,2.36-.86,1.57-1.29,3.7-1.31,6.4h.17c.38-.82.9-1.52,1.55-2.1.66-.59,1.4-1.03,2.23-1.34.84-.31,1.73-.47,2.66-.47,1.51,0,2.86.39,4.04,1.16,1.18.77,2.11,1.82,2.8,3.17.68,1.34,1.02,2.88,1.02,4.61,0,1.88-.4,3.54-1.21,5.01-.8,1.46-1.92,2.61-3.36,3.44-1.43.82-3.09,1.23-4.99,1.22Zm-.02-4.6c.83,0,1.58-.22,2.23-.65.66-.43,1.17-1.02,1.55-1.76.37-.74.56-1.57.56-2.49s-.19-1.75-.56-2.47c-.37-.73-.87-1.31-1.52-1.75-.65-.43-1.39-.65-2.22-.65-.62,0-1.2.13-1.73.38-.52.25-.99.6-1.38,1.05-.39.45-.7.98-.92,1.57-.22.59-.34,1.21-.34,1.88,0,.89.19,1.71.56,2.45.38.74.9,1.33,1.55,1.77.66.44,1.4.66,2.23.66Zm13.56,4.22v-27.71h10.23c1.88,0,3.45.3,4.7.9s2.2,1.44,2.83,2.52c.63,1.07.95,2.29.95,3.68,0,1.08-.2,2.03-.6,2.85-.4.81-.95,1.48-1.65,2-.69.51-1.48.88-2.37,1.1v.27c.97.04,1.88.34,2.73.89.86.55,1.55,1.32,2.08,2.31.53.98.8,2.16.8,3.52,0,1.47-.34,2.78-1.01,3.94-.67,1.15-1.65,2.05-2.96,2.72-1.31.67-2.92,1-4.83,1h-10.92Zm5.4-4.79h4.41c1.51,0,2.6-.31,3.29-.93.69-.63,1.04-1.47,1.04-2.52,0-.77-.17-1.45-.51-2.03-.34-.59-.83-1.05-1.46-1.38-.62-.33-1.37-.5-2.23-.5h-4.53v7.36Zm0-11.33h4.01c.74,0,1.4-.14,1.97-.42.58-.29,1.04-.69,1.37-1.22.34-.52.51-1.15.51-1.88,0-1-.33-1.81-.99-2.42-.65-.61-1.57-.92-2.77-.92h-4.11v6.86Zm17.83,16.12v-27.71h10.23c1.88,0,3.45.3,4.7.9,1.26.6,2.2,1.44,2.83,2.52.63,1.07.95,2.29.95,3.68,0,1.08-.2,2.03-.6,2.85-.4.81-.95,1.48-1.65,2-.69.51-1.48.88-2.37,1.1v.27c.97.04,1.88.34,2.73.89.86.55,1.55,1.32,2.08,2.31.53.98.8,2.16.8,3.52,0,1.47-.34,2.78-1.01,3.94-.67,1.15-1.65,2.05-2.96,2.72-1.31.67-2.92,1-4.83,1h-10.92Zm5.4-4.79h4.41c1.51,0,2.6-.31,3.29-.93.69-.63,1.04-1.47,1.04-2.52,0-.77-.17-1.45-.51-2.03-.34-.59-.83-1.05-1.46-1.38-.62-.33-1.37-.5-2.23-.5h-4.53v7.36Zm0-11.33h4.01c.74,0,1.4-.14,1.97-.42.58-.29,1.04-.69,1.37-1.22.34-.52.51-1.15.51-1.88,0-1-.33-1.81-.99-2.42-.65-.61-1.57-.92-2.77-.92h-4.11v6.86Zm40.38-1.89h-5.46c-.1-.77-.31-1.45-.61-2.04-.31-.6-.7-1.12-1.18-1.54-.48-.42-1.04-.75-1.67-.98-.62-.23-1.3-.34-2.03-.34-1.32,0-2.47.36-3.46,1.07-.98.7-1.74,1.73-2.28,3.09-.54,1.34-.81,2.98-.81,4.9s.27,3.63.81,4.98c.55,1.34,1.32,2.36,2.3,3.04.98.69,2.12,1.03,3.41,1.03.72,0,1.39-.11,2.01-.31.62-.21,1.18-.51,1.66-.9.48-.41.88-.9,1.2-1.48.33-.58.55-1.24.67-1.97l5.46.03c-.14,1.27-.49,2.5-1.06,3.68-.56,1.17-1.31,2.22-2.26,3.15-.94.92-2.06,1.65-3.37,2.19-1.3.53-2.77.8-4.41.8-2.28,0-4.32-.56-6.11-1.68-1.79-1.12-3.2-2.74-4.24-4.86-1.03-2.12-1.55-4.69-1.55-7.7s.52-5.59,1.57-7.71c1.05-2.12,2.47-3.74,4.27-4.84,1.8-1.12,3.82-1.68,6.06-1.68,1.48,0,2.85.22,4.12.68,1.27.45,2.4,1.11,3.38,1.97.98.86,1.78,1.91,2.4,3.15.62,1.25,1.02,2.67,1.2,4.28Z"/>
      <path class="cls-2" d="m64.81,332.03v-27.71h10.23c1.88,0,3.45.3,4.7.9,1.26.6,2.2,1.44,2.83,2.52.63,1.07.95,2.29.95,3.68,0,1.08-.2,2.03-.6,2.85-.4.81-.95,1.48-1.65,2-.69.51-1.48.88-2.37,1.1v.27c.97.05,1.88.34,2.73.89.86.55,1.55,1.32,2.08,2.31.53.98.8,2.16.8,3.52,0,1.47-.34,2.78-1.01,3.94-.67,1.15-1.65,2.05-2.96,2.72s-2.92,1-4.83,1h-10.92Zm5.4-4.79h4.4c1.51,0,2.6-.31,3.29-.93.69-.63,1.04-1.47,1.04-2.52,0-.77-.17-1.44-.51-2.03s-.83-1.05-1.46-1.38c-.62-.33-1.37-.5-2.23-.5h-4.53v7.36Zm0-11.33h4.01c.74,0,1.4-.14,1.97-.42.58-.29,1.04-.7,1.37-1.22.34-.52.51-1.15.51-1.88,0-1-.33-1.81-.99-2.42-.65-.61-1.57-.92-2.77-.92h-4.11v6.86Zm17.29,11.25v-4.62l10.67-18.23h3.67v6.38h-2.17l-6.73,11.54v.22h15.16v4.7h-20.6Zm12.27,4.87v-6.28l.1-2.04v-19.39h5.07v27.71h-5.17Zm16.49,0h-5.79l8.82-27.71h6.96l8.81,27.71h-5.79l-6.4-21.38h-.2l-6.41,21.38Zm-.36-10.89h13.68v4.58h-13.68v-4.58Zm22.09,10.89v-4.22l9.1-9.13c.77-.81,1.42-1.54,1.95-2.19.53-.65.94-1.28,1.21-1.91.27-.63.41-1.31.41-2.04,0-.81-.17-1.51-.51-2.1-.34-.6-.81-1.05-1.4-1.37-.59-.32-1.26-.49-2.01-.49s-1.46.17-2.05.51c-.58.34-1.03.84-1.35,1.48-.32.64-.47,1.4-.47,2.29h-5.13c0-1.81.38-3.39,1.14-4.72.76-1.34,1.82-2.37,3.18-3.1,1.36-.73,2.94-1.1,4.72-1.1s3.42.35,4.78,1.06c1.36.69,2.42,1.66,3.18,2.89.76,1.24,1.14,2.65,1.14,4.25,0,1.05-.19,2.08-.57,3.1-.37,1.02-1.04,2.15-2.01,3.4-.96,1.23-2.32,2.72-4.08,4.45l-3.73,3.97v.19h10.73v4.79h-18.22Zm31.94.38c-1.31,0-2.58-.25-3.81-.72-1.21-.47-2.3-1.23-3.27-2.29-.96-1.06-1.73-2.46-2.3-4.2-.56-1.74-.84-3.88-.84-6.41,0-2.33.25-4.41.74-6.24.49-1.84,1.19-3.4,2.1-4.68.92-1.28,2.01-2.26,3.28-2.92,1.27-.68,2.7-1.01,4.28-1.01,1.71,0,3.21.36,4.52,1.08,1.31.71,2.35,1.68,3.14,2.91.8,1.23,1.28,2.6,1.45,4.13h-5.33c-.21-.97-.64-1.72-1.31-2.28-.67-.55-1.49-.83-2.47-.83-1.66,0-2.93.79-3.79,2.36-.86,1.57-1.29,3.7-1.31,6.4h.17c.38-.82.9-1.52,1.55-2.1.66-.58,1.4-1.03,2.23-1.34.84-.31,1.73-.47,2.66-.47,1.51,0,2.86.39,4.04,1.16,1.18.77,2.11,1.82,2.8,3.17.68,1.34,1.02,2.88,1.02,4.61,0,1.88-.4,3.55-1.21,5.01-.8,1.46-1.92,2.61-3.36,3.44-1.43.82-3.09,1.23-4.99,1.22Zm-.03-4.6c.83,0,1.58-.22,2.23-.65.66-.43,1.17-1.02,1.55-1.76.37-.74.56-1.57.56-2.49s-.19-1.75-.56-2.47c-.37-.73-.87-1.31-1.52-1.75-.65-.43-1.39-.65-2.22-.65-.62,0-1.2.13-1.73.38-.52.25-.99.6-1.39,1.05-.39.45-.7.98-.92,1.57-.22.59-.34,1.21-.34,1.88,0,.89.19,1.71.56,2.45.38.74.9,1.33,1.55,1.77.66.44,1.4.66,2.23.66Zm22.62,4.22h-9.06v-27.71h9.13c2.57,0,4.78.55,6.64,1.66,1.86,1.1,3.28,2.68,4.28,4.75,1.01,2.06,1.51,4.54,1.51,7.41s-.5,5.37-1.51,7.44c-1,2.08-2.43,3.67-4.3,4.78-1.86,1.11-4.09,1.66-6.69,1.66Zm-3.66-5.02h3.43c1.6,0,2.94-.31,4.03-.92,1.1-.62,1.92-1.58,2.47-2.88.56-1.31.83-2.99.83-5.06s-.28-3.72-.83-5.02c-.55-1.3-1.37-2.25-2.46-2.87-1.09-.61-2.43-.92-4.03-.92h-3.44v17.67Z"/>
      <path class="cls-2" d="m354.26,332.03h-5.79l8.82-27.71h6.96l8.81,27.71h-5.79l-6.4-21.38h-.2l-6.41,21.38Zm-.36-10.89h13.67v4.58h-13.67v-4.58Zm31.34-17.2c1.32,0,2.58.24,3.79.72,1.22.47,2.31,1.24,3.27,2.29.96,1.05,1.73,2.44,2.28,4.17.56,1.72.85,3.84.86,6.35,0,2.35-.25,4.46-.74,6.3-.48,1.84-1.18,3.41-2.08,4.7-.91,1.29-2,2.28-3.28,2.95-1.28.67-2.71,1-4.29,1-1.71,0-3.21-.36-4.52-1.07-1.31-.72-2.36-1.7-3.16-2.94-.79-1.24-1.27-2.64-1.44-4.19h5.33c.21,1.01.65,1.8,1.31,2.36.67.55,1.49.82,2.47.82,1.66,0,2.93-.78,3.79-2.35.87-1.58,1.3-3.74,1.31-6.48h-.18c-.38.81-.9,1.51-1.55,2.1-.65.58-1.39,1.02-2.23,1.34-.83.32-1.72.47-2.66.47-1.5,0-2.85-.38-4.03-1.15-1.18-.77-2.11-1.82-2.8-3.17-.68-1.34-1.02-2.88-1.02-4.6,0-1.86.39-3.52,1.18-4.97.8-1.45,1.91-2.59,3.34-3.41,1.44-.83,3.11-1.24,5.02-1.23Zm.04,4.6c-.84,0-1.59.22-2.25.65-.65.43-1.16,1.01-1.55,1.75-.38.73-.56,1.55-.55,2.45,0,.91.18,1.73.55,2.47.37.72.88,1.3,1.52,1.73.65.42,1.39.64,2.22.64.63,0,1.2-.13,1.73-.38.53-.25.99-.6,1.39-1.04.4-.45.71-.97.94-1.55.22-.59.34-1.21.34-1.87,0-.88-.2-1.68-.57-2.41-.37-.73-.89-1.32-1.55-1.76-.66-.44-1.4-.67-2.22-.67Zm23.45,23.87c-1.92,0-3.63-.34-5.13-1.01-1.49-.69-2.66-1.62-3.51-2.8-.85-1.18-1.27-2.52-1.27-4.02,0-1.16.24-2.21.72-3.18.49-.97,1.16-1.78,2-2.42.84-.65,1.78-1.07,2.82-1.25v-.19c-1.37-.3-2.47-1.01-3.32-2.15-.85-1.14-1.27-2.47-1.27-3.99,0-1.43.39-2.71,1.16-3.83.77-1.13,1.83-2.01,3.18-2.65,1.35-.65,2.89-.98,4.62-.98s3.26.33,4.61.98c1.35.65,2.42,1.54,3.19,2.66.78,1.12,1.17,2.39,1.17,3.82,0,1.52-.44,2.85-1.3,3.99-.86,1.14-1.96,1.86-3.29,2.15v.19c1.02.18,1.95.6,2.78,1.25.84.64,1.5,1.45,2,2.42.5.97.75,2.02.76,3.18,0,1.5-.44,2.84-1.28,4.02-.85,1.18-2.02,2.11-3.52,2.8-1.49.68-3.2,1.01-5.12,1.01Zm0-4.3c.86,0,1.61-.17,2.25-.5.64-.34,1.14-.81,1.5-1.41.36-.61.55-1.3.55-2.08s-.19-1.51-.56-2.12c-.37-.62-.88-1.11-1.52-1.46-.64-.36-1.38-.54-2.21-.54s-1.56.18-2.21.54c-.65.35-1.16.84-1.54,1.46-.37.61-.55,1.32-.55,2.12s.18,1.48.54,2.08c.36.6.86,1.07,1.51,1.41.65.33,1.4.5,2.24.5Zm0-12.38c.72,0,1.35-.16,1.91-.47.56-.32.99-.76,1.31-1.32.32-.56.47-1.2.47-1.93s-.16-1.35-.47-1.9c-.32-.55-.75-.98-1.3-1.28-.55-.32-1.19-.47-1.92-.47s-1.36.16-1.92.47c-.56.31-.99.73-1.31,1.28-.31.54-.46,1.17-.46,1.9s.16,1.38.47,1.93c.32.56.75,1,1.31,1.32.56.31,1.19.47,1.91.47Zm13.85,16.31v-27.71h10.23c1.88,0,3.45.3,4.7.9,1.26.6,2.2,1.44,2.83,2.52.63,1.07.95,2.29.95,3.68,0,1.08-.2,2.03-.6,2.85-.4.81-.95,1.48-1.65,2-.69.51-1.48.88-2.37,1.1v.27c.97.05,1.88.34,2.73.89.86.55,1.55,1.32,2.08,2.31.53.98.8,2.16.8,3.52,0,1.47-.34,2.78-1.01,3.94-.67,1.15-1.65,2.05-2.96,2.72s-2.92,1-4.83,1h-10.92Zm5.4-4.79h4.41c1.5,0,2.6-.31,3.29-.93.69-.63,1.03-1.47,1.03-2.52,0-.77-.17-1.44-.51-2.03-.34-.59-.83-1.05-1.46-1.38-.62-.33-1.37-.5-2.23-.5h-4.53v7.36Zm0-11.33h4.01c.74,0,1.4-.14,1.97-.42.58-.29,1.04-.7,1.37-1.22.34-.52.51-1.15.51-1.88,0-1-.33-1.81-.98-2.42-.65-.61-1.57-.92-2.77-.92h-4.1v6.86Zm27.01,16.49c-1.76,0-3.34-.35-4.72-1.05-1.37-.7-2.46-1.68-3.27-2.91-.81-1.24-1.23-2.65-1.26-4.25h5.24c.06,1.07.47,1.95,1.25,2.61.77.67,1.69,1,2.76,1,.85,0,1.6-.2,2.24-.61.66-.42,1.17-.99,1.54-1.72.38-.74.56-1.59.56-2.54s-.19-1.83-.57-2.57c-.38-.74-.9-1.32-1.56-1.73-.67-.42-1.43-.63-2.28-.64-.75,0-1.48.17-2.19.5-.7.33-1.24.79-1.63,1.37l-4.81-.93,1.21-14.61h15.62v4.79h-11.17l-.66,6.94h.15c.45-.69,1.13-1.26,2.03-1.71.91-.45,1.92-.68,3.04-.68,1.54,0,2.91.39,4.12,1.18,1.21.79,2.16,1.86,2.86,3.23.7,1.36,1.04,2.93,1.03,4.71,0,1.87-.39,3.53-1.2,4.98-.8,1.44-1.92,2.58-3.36,3.41-1.43.82-3.09,1.23-4.99,1.23Zm13.31-.38v-4.22l9.1-9.13c.77-.81,1.42-1.54,1.95-2.19.53-.65.94-1.28,1.21-1.91.27-.63.41-1.31.41-2.04,0-.81-.17-1.51-.51-2.1-.34-.6-.81-1.05-1.4-1.37-.59-.32-1.26-.49-2.01-.49s-1.46.17-2.05.51c-.58.34-1.03.84-1.35,1.48-.32.64-.47,1.4-.47,2.29h-5.13c0-1.82.38-3.39,1.14-4.72.76-1.34,1.82-2.37,3.18-3.1,1.37-.73,2.94-1.1,4.72-1.1s3.42.35,4.78,1.06c1.36.69,2.42,1.66,3.18,2.89.76,1.24,1.14,2.65,1.14,4.25,0,1.05-.19,2.08-.57,3.1-.38,1.02-1.05,2.15-2.01,3.4-.96,1.23-2.33,2.72-4.08,4.45l-3.73,3.97v.19h10.73v4.79h-18.22Z"/>
      <path class="cls-2" d="m641.49,303.94c1.31,0,2.58.24,3.79.72,1.22.47,2.31,1.24,3.27,2.29.96,1.05,1.72,2.44,2.28,4.17.57,1.72.85,3.84.86,6.35,0,2.35-.24,4.46-.74,6.3-.48,1.84-1.18,3.41-2.08,4.7s-2,2.28-3.28,2.95c-1.28.67-2.71,1-4.29,1-1.7,0-3.21-.36-4.52-1.07-1.31-.72-2.36-1.7-3.16-2.94-.79-1.24-1.27-2.64-1.43-4.19h5.33c.21,1.01.64,1.8,1.31,2.36.67.55,1.49.82,2.47.82,1.66,0,2.93-.78,3.79-2.35.87-1.58,1.3-3.74,1.31-6.48h-.17c-.38.81-.9,1.51-1.55,2.1-.65.58-1.39,1.02-2.23,1.34-.83.32-1.72.47-2.66.47-1.51,0-2.85-.38-4.03-1.15-1.18-.77-2.11-1.82-2.8-3.17-.68-1.34-1.02-2.88-1.02-4.6,0-1.86.39-3.52,1.19-4.97.8-1.45,1.91-2.59,3.34-3.41,1.44-.83,3.11-1.24,5.02-1.23Zm.04,4.6c-.84,0-1.59.22-2.25.65-.65.43-1.16,1.01-1.55,1.75-.37.73-.56,1.55-.55,2.45,0,.91.18,1.73.55,2.47.38.72.88,1.3,1.52,1.73.65.42,1.39.64,2.22.64.62,0,1.2-.13,1.73-.38.53-.25.99-.6,1.38-1.04.4-.45.71-.97.94-1.55.22-.59.34-1.21.34-1.87,0-.88-.2-1.68-.57-2.41-.38-.73-.89-1.32-1.55-1.76-.66-.44-1.4-.67-2.22-.67Zm23.12,23.49h-9.06v-27.71h9.13c2.57,0,4.78.55,6.64,1.66,1.86,1.1,3.28,2.68,4.28,4.75,1.01,2.06,1.51,4.54,1.51,7.41s-.5,5.37-1.51,7.44c-1,2.08-2.43,3.67-4.3,4.78-1.86,1.11-4.09,1.66-6.69,1.66Zm-3.66-5.02h3.43c1.6,0,2.94-.31,4.03-.92,1.1-.62,1.92-1.58,2.47-2.88.56-1.31.84-2.99.84-5.06s-.28-3.72-.84-5.02c-.55-1.3-1.37-2.25-2.46-2.87-1.09-.61-2.43-.92-4.03-.92h-3.44v17.67Zm21.02,5.02l10.59-22.73v-.19h-12.34v-4.79h17.93v4.86l-10.61,22.86h-5.58Zm28.79-28.09c1.32,0,2.58.24,3.79.72,1.22.47,2.31,1.24,3.27,2.29.96,1.05,1.73,2.44,2.28,4.17.56,1.72.85,3.84.86,6.35,0,2.35-.25,4.46-.74,6.3-.48,1.84-1.18,3.41-2.08,4.7s-2,2.28-3.28,2.95c-1.28.67-2.71,1-4.29,1-1.71,0-3.21-.36-4.52-1.07-1.31-.72-2.36-1.7-3.16-2.94-.79-1.24-1.27-2.64-1.44-4.19h5.33c.21,1.01.65,1.8,1.31,2.36.67.55,1.49.82,2.47.82,1.66,0,2.93-.78,3.79-2.35.87-1.58,1.3-3.74,1.31-6.48h-.18c-.38.81-.9,1.51-1.55,2.1-.65.58-1.39,1.02-2.23,1.34-.83.32-1.72.47-2.66.47-1.5,0-2.85-.38-4.03-1.15-1.18-.77-2.11-1.82-2.8-3.17-.68-1.34-1.02-2.88-1.02-4.6,0-1.86.39-3.52,1.18-4.97.8-1.45,1.91-2.59,3.34-3.41,1.44-.83,3.11-1.24,5.02-1.23Zm.04,4.6c-.84,0-1.59.22-2.25.65-.65.43-1.16,1.01-1.55,1.75-.38.73-.56,1.55-.55,2.45,0,.91.18,1.73.55,2.47.37.72.88,1.3,1.52,1.73.65.42,1.39.64,2.22.64.63,0,1.2-.13,1.73-.38.53-.25.99-.6,1.39-1.04.4-.45.71-.97.94-1.55.22-.59.34-1.21.34-1.87,0-.88-.2-1.68-.57-2.41-.37-.73-.89-1.32-1.55-1.76-.66-.44-1.4-.67-2.22-.67Zm13.53,18.62v-4.62l10.67-18.23h3.67v6.38h-2.17l-6.72,11.54v.22h15.16v4.7h-20.6Zm12.27,4.87v-6.28l.1-2.04v-19.39h5.07v27.71h-5.17Zm12.09,0v-27.71h17.22v4.83h-11.81v6.6h10.93v4.83h-10.93v6.62h11.87v4.83h-17.27Z"/>
      <path class="cls-2" d="m80.07,93.93h-5.47c-.1-.77-.3-1.45-.61-2.04-.31-.61-.7-1.12-1.19-1.54-.48-.42-1.04-.75-1.67-.97-.62-.23-1.3-.34-2.03-.34-1.32,0-2.47.36-3.46,1.07-.98.7-1.74,1.73-2.28,3.09-.54,1.34-.81,2.98-.81,4.9s.27,3.63.81,4.98c.55,1.35,1.31,2.36,2.3,3.05.98.69,2.12,1.03,3.41,1.03.72,0,1.39-.1,2.01-.31.62-.21,1.18-.51,1.66-.91.48-.41.88-.9,1.2-1.48.32-.58.55-1.24.67-1.98l5.47.03c-.14,1.27-.49,2.5-1.06,3.68-.56,1.17-1.31,2.22-2.26,3.15-.94.92-2.06,1.65-3.37,2.19-1.3.53-2.77.8-4.4.8-2.28,0-4.32-.56-6.11-1.68-1.79-1.12-3.2-2.74-4.24-4.86-1.03-2.12-1.55-4.69-1.55-7.7s.52-5.59,1.57-7.71c1.05-2.12,2.47-3.74,4.27-4.85,1.8-1.12,3.82-1.68,6.06-1.68,1.48,0,2.85.23,4.12.68,1.27.45,2.4,1.11,3.38,1.98.98.86,1.78,1.91,2.4,3.15.62,1.25,1.02,2.67,1.2,4.28Zm13.74,18.62c-2.15,0-3.99-.58-5.54-1.72-1.54-1.14-2.72-2.78-3.56-4.94-.82-2.16-1.23-4.75-1.22-7.78,0-3.02.41-5.6,1.24-7.73.83-2.13,2.02-3.75,3.56-4.86,1.55-1.12,3.39-1.68,5.53-1.68s3.98.56,5.52,1.68c1.55,1.12,2.74,2.74,3.57,4.87.83,2.12,1.24,4.69,1.24,7.71,0,3.04-.42,5.64-1.25,7.79-.82,2.16-2,3.8-3.54,4.94-1.54,1.14-3.38,1.7-5.53,1.7Zm0-4.86c1.46,0,2.63-.8,3.51-2.4.87-1.6,1.31-3.99,1.3-7.19,0-2.1-.2-3.85-.6-5.25-.39-1.4-.95-2.45-1.67-3.15-.72-.7-1.56-1.06-2.53-1.06-1.46,0-2.62.79-3.49,2.37-.87,1.58-1.31,3.94-1.32,7.09,0,2.13.2,3.91.59,5.33.4,1.42.96,2.48,1.68,3.19.72.7,1.57,1.06,2.55,1.06Zm36.87-13.76h-5.47c-.1-.77-.3-1.45-.61-2.04-.31-.61-.7-1.12-1.19-1.54-.48-.42-1.04-.75-1.67-.97-.62-.23-1.3-.34-2.03-.34-1.32,0-2.47.36-3.46,1.07-.98.7-1.74,1.73-2.28,3.09-.54,1.34-.81,2.98-.81,4.9s.27,3.63.81,4.98c.55,1.35,1.31,2.36,2.3,3.05.98.69,2.12,1.03,3.41,1.03.72,0,1.39-.1,2.01-.31.62-.21,1.18-.51,1.66-.91.48-.41.88-.9,1.2-1.48.32-.58.55-1.24.67-1.98l5.47.03c-.14,1.27-.49,2.5-1.06,3.68-.56,1.17-1.31,2.22-2.26,3.15-.94.92-2.06,1.65-3.37,2.19-1.3.53-2.77.8-4.4.8-2.28,0-4.32-.56-6.11-1.68-1.79-1.12-3.2-2.74-4.24-4.86-1.03-2.12-1.55-4.69-1.55-7.7s.52-5.59,1.57-7.71c1.05-2.12,2.47-3.74,4.27-4.85,1.8-1.12,3.82-1.68,6.06-1.68,1.48,0,2.85.23,4.12.68,1.27.45,2.4,1.11,3.38,1.98.98.86,1.78,1.91,2.4,3.15.62,1.25,1.02,2.67,1.2,4.28Zm13.74,18.62c-2.15,0-3.99-.58-5.54-1.72-1.54-1.14-2.72-2.78-3.56-4.94-.82-2.16-1.23-4.75-1.22-7.78,0-3.02.41-5.6,1.24-7.73.83-2.13,2.02-3.75,3.56-4.86,1.55-1.12,3.39-1.68,5.53-1.68s3.98.56,5.52,1.68c1.55,1.12,2.74,2.74,3.57,4.87.83,2.12,1.24,4.69,1.24,7.71,0,3.04-.42,5.64-1.25,7.79-.82,2.16-2,3.8-3.54,4.94-1.54,1.14-3.38,1.7-5.53,1.7Zm0-4.86c1.46,0,2.63-.8,3.51-2.4.87-1.6,1.31-3.99,1.3-7.19,0-2.1-.2-3.85-.6-5.25-.39-1.4-.95-2.45-1.67-3.15-.72-.7-1.56-1.06-2.53-1.06-1.46,0-2.62.79-3.49,2.37-.87,1.58-1.31,3.94-1.32,7.09,0,2.13.2,3.91.59,5.33.4,1.42.96,2.48,1.68,3.19.72.7,1.57,1.06,2.55,1.06Zm36.87-13.76h-5.47c-.1-.77-.3-1.45-.61-2.04-.31-.61-.7-1.12-1.19-1.54-.48-.42-1.04-.75-1.67-.97-.62-.23-1.3-.34-2.03-.34-1.32,0-2.47.36-3.46,1.07-.98.7-1.74,1.73-2.28,3.09-.54,1.34-.81,2.98-.81,4.9s.27,3.63.81,4.98c.55,1.35,1.31,2.36,2.3,3.05.98.69,2.12,1.03,3.41,1.03.72,0,1.39-.1,2.01-.31.62-.21,1.18-.51,1.66-.91.48-.41.88-.9,1.2-1.48.32-.58.55-1.24.67-1.98l5.47.03c-.14,1.27-.49,2.5-1.06,3.68-.56,1.17-1.31,2.22-2.26,3.15-.94.92-2.06,1.65-3.37,2.19-1.3.53-2.77.8-4.4.8-2.28,0-4.32-.56-6.11-1.68-1.79-1.12-3.2-2.74-4.24-4.86-1.03-2.12-1.55-4.69-1.55-7.7s.52-5.59,1.57-7.71c1.05-2.12,2.47-3.74,4.27-4.85,1.8-1.12,3.82-1.68,6.06-1.68,1.48,0,2.85.23,4.12.68,1.27.45,2.4,1.11,3.38,1.98.98.86,1.78,1.91,2.4,3.15.62,1.25,1.02,2.67,1.2,4.28Zm13.74,18.62c-2.15,0-3.99-.58-5.54-1.72-1.54-1.14-2.72-2.78-3.56-4.94-.82-2.16-1.23-4.75-1.22-7.78,0-3.02.41-5.6,1.24-7.73.83-2.13,2.02-3.75,3.56-4.86,1.55-1.12,3.39-1.68,5.53-1.68s3.98.56,5.52,1.68c1.55,1.12,2.74,2.74,3.57,4.87.83,2.12,1.24,4.69,1.23,7.71,0,3.04-.42,5.64-1.25,7.79-.82,2.16-2.01,3.8-3.54,4.94-1.54,1.14-3.38,1.7-5.53,1.7Zm0-4.86c1.46,0,2.63-.8,3.51-2.4.87-1.6,1.31-3.99,1.3-7.19,0-2.1-.2-3.85-.6-5.25-.39-1.4-.95-2.45-1.67-3.15-.72-.7-1.56-1.06-2.53-1.06-1.46,0-2.62.79-3.49,2.37-.87,1.58-1.31,3.94-1.32,7.09,0,2.13.2,3.91.59,5.33.4,1.42.96,2.48,1.68,3.19.72.7,1.57,1.06,2.55,1.06Z"/>
      <path class="cls-2" d="m354.99,111.94v-27.71h16.92v4.83h-11.52v6.6h10.39v4.83h-10.39v11.45h-5.4Zm20.56,0v-27.71h16.92v4.83h-11.52v6.6h10.39v4.83h-10.39v11.45h-5.4Zm20.55,0v-27.71h17.22v4.83h-11.82v6.6h10.93v4.83h-10.93v6.62h11.87v4.83h-17.27Zm20.98-4.87v-4.61l10.67-18.23h3.67v6.39h-2.17l-6.72,11.54v.22h15.16v4.7h-20.6Zm12.27,4.87v-6.28l.1-2.04v-19.39h5.07v27.71h-5.17Zm34.63-18.01h-5.47c-.1-.77-.3-1.45-.61-2.04-.31-.61-.7-1.12-1.19-1.54-.48-.42-1.04-.75-1.67-.97-.62-.23-1.3-.34-2.03-.34-1.32,0-2.47.36-3.46,1.07-.98.7-1.74,1.73-2.28,3.09-.54,1.34-.81,2.98-.81,4.9s.27,3.63.81,4.98c.55,1.35,1.31,2.36,2.29,3.05.98.69,2.12,1.03,3.41,1.03.72,0,1.39-.1,2.01-.31.62-.21,1.18-.51,1.66-.91.48-.41.88-.9,1.2-1.48.33-.58.55-1.24.67-1.98l5.47.03c-.14,1.27-.5,2.5-1.06,3.68-.56,1.17-1.31,2.22-2.26,3.15-.94.92-2.06,1.65-3.37,2.19-1.3.53-2.76.8-4.41.8-2.28,0-4.32-.56-6.11-1.68-1.79-1.12-3.2-2.74-4.24-4.86-1.03-2.12-1.55-4.69-1.55-7.7s.52-5.59,1.57-7.71c1.05-2.12,2.47-3.74,4.27-4.85,1.8-1.12,3.82-1.68,6.06-1.68,1.48,0,2.85.23,4.12.68,1.27.45,2.4,1.11,3.38,1.98.98.86,1.78,1.91,2.4,3.15.62,1.25,1.02,2.67,1.2,4.28Zm3.34,13.14v-4.61l10.67-18.23h3.67v6.39h-2.17l-6.72,11.54v.22h15.16v4.7h-20.6Zm12.27,4.87v-6.28l.1-2.04v-19.39h5.07v27.71h-5.17Z"/>
      <path class="cls-2" d="m633.64,111.94v-27.71h16.92v4.83h-11.52v6.6h10.39v4.83h-10.39v11.45h-5.4Zm20.55,0v-27.71h16.92v4.83h-11.52v6.6h10.39v4.83h-10.39v11.45h-5.4Zm20.56,0v-27.71h16.92v4.83h-11.52v6.6h10.39v4.83h-10.39v11.45h-5.4Zm21.77,0h-5.79l8.82-27.71h6.96l8.81,27.71h-5.79l-6.4-21.38h-.2l-6.41,21.38Zm-.36-10.89h13.67v4.57h-13.67v-4.57Zm22.24,10.89v-27.71h16.92v4.83h-11.52v6.6h10.39v4.83h-10.39v11.45h-5.4Zm21.77,0h-5.79l8.82-27.71h6.96l8.81,27.71h-5.79l-6.4-21.38h-.2l-6.41,21.38Zm-.36-10.89h13.67v4.57h-13.67v-4.57Z"/>
      <path class="cls-2" d="m359.21,552.13h-9.06v-27.71h9.13c2.57,0,4.78.55,6.64,1.66,1.86,1.1,3.28,2.68,4.28,4.75,1.01,2.06,1.51,4.54,1.51,7.41s-.5,5.37-1.51,7.44c-1,2.08-2.43,3.67-4.3,4.78-1.86,1.11-4.09,1.66-6.69,1.66Zm-3.66-5.02h3.43c1.6,0,2.94-.31,4.03-.92,1.1-.62,1.92-1.58,2.47-2.88.56-1.31.84-2.99.84-5.06s-.28-3.72-.84-5.02c-.55-1.3-1.37-2.25-2.46-2.87-1.09-.61-2.43-.92-4.03-.92h-3.44v17.67Zm29.34,5.4c-1.76,0-3.33-.35-4.71-1.05-1.37-.7-2.46-1.68-3.27-2.91-.81-1.24-1.23-2.65-1.26-4.25h5.24c.06,1.07.47,1.95,1.25,2.61.77.67,1.69,1,2.76,1,.85,0,1.6-.2,2.25-.61.66-.42,1.17-.99,1.54-1.72.38-.74.56-1.59.56-2.54s-.19-1.83-.58-2.57c-.37-.74-.89-1.32-1.56-1.73-.67-.42-1.43-.63-2.28-.64-.75,0-1.48.17-2.18.5-.7.33-1.24.79-1.63,1.37l-4.81-.93,1.21-14.61h15.62v4.79h-11.17l-.66,6.94h.15c.45-.69,1.13-1.26,2.03-1.71.91-.45,1.92-.68,3.04-.68,1.54,0,2.91.39,4.12,1.18,1.21.79,2.16,1.86,2.86,3.23.7,1.36,1.05,2.93,1.04,4.71,0,1.87-.39,3.53-1.2,4.98-.8,1.44-1.92,2.58-3.36,3.41-1.43.82-3.09,1.23-4.99,1.23Zm23.12,0c-1.32,0-2.58-.25-3.81-.72-1.21-.47-2.3-1.23-3.27-2.29-.96-1.06-1.73-2.46-2.29-4.2-.56-1.74-.84-3.88-.84-6.41,0-2.33.25-4.41.74-6.24.49-1.84,1.19-3.4,2.1-4.68.92-1.28,2.01-2.26,3.28-2.92,1.27-.68,2.7-1.01,4.28-1.01,1.71,0,3.21.36,4.52,1.08,1.31.71,2.35,1.68,3.14,2.91.8,1.23,1.28,2.6,1.45,4.13h-5.33c-.21-.97-.65-1.72-1.31-2.28-.67-.55-1.49-.83-2.47-.83-1.66,0-2.93.79-3.79,2.36-.86,1.57-1.29,3.7-1.31,6.4h.18c.38-.82.9-1.52,1.55-2.1.66-.58,1.4-1.03,2.23-1.34.84-.31,1.73-.47,2.66-.47,1.51,0,2.86.39,4.04,1.16,1.18.77,2.11,1.82,2.79,3.17.68,1.34,1.02,2.88,1.02,4.61,0,1.88-.4,3.55-1.21,5.01-.8,1.46-1.92,2.61-3.36,3.44-1.43.82-3.09,1.23-4.99,1.22Zm-.02-4.6c.83,0,1.57-.22,2.23-.65.66-.43,1.17-1.02,1.55-1.76.38-.74.56-1.57.56-2.49s-.19-1.75-.56-2.47c-.37-.73-.87-1.31-1.52-1.75-.65-.43-1.39-.65-2.22-.65-.63,0-1.2.13-1.73.38-.52.25-.99.6-1.39,1.05-.39.45-.7.98-.92,1.57-.23.59-.34,1.21-.34,1.88,0,.89.19,1.71.56,2.45.38.74.9,1.33,1.55,1.77.66.44,1.4.66,2.24.66Zm23.22,4.6c-1.31,0-2.58-.25-3.81-.72-1.21-.47-2.3-1.23-3.27-2.29-.97-1.06-1.73-2.46-2.3-4.2-.56-1.74-.83-3.88-.83-6.41,0-2.33.25-4.41.74-6.24.49-1.84,1.19-3.4,2.1-4.68.92-1.28,2.01-2.26,3.28-2.92,1.27-.68,2.7-1.01,4.28-1.01,1.7,0,3.21.36,4.52,1.08,1.31.71,2.35,1.68,3.14,2.91.8,1.23,1.28,2.6,1.45,4.13h-5.33c-.21-.97-.64-1.72-1.31-2.28-.67-.55-1.49-.83-2.47-.83-1.66,0-2.93.79-3.79,2.36-.86,1.57-1.29,3.7-1.31,6.4h.17c.38-.82.9-1.52,1.55-2.1.66-.58,1.4-1.03,2.23-1.34.84-.31,1.73-.47,2.66-.47,1.52,0,2.86.39,4.04,1.16,1.18.77,2.11,1.82,2.8,3.17.68,1.34,1.02,2.88,1.02,4.61,0,1.88-.4,3.55-1.21,5.01-.8,1.46-1.92,2.61-3.36,3.44-1.43.82-3.09,1.23-4.99,1.22Zm-.02-4.6c.83,0,1.58-.22,2.23-.65.66-.43,1.17-1.02,1.55-1.76.37-.74.56-1.57.56-2.49s-.19-1.75-.56-2.47c-.37-.73-.87-1.31-1.52-1.75-.65-.43-1.39-.65-2.22-.65-.62,0-1.2.13-1.73.38-.52.25-.99.6-1.38,1.05-.39.45-.7.98-.92,1.57-.22.59-.34,1.21-.34,1.88,0,.89.19,1.71.56,2.45.38.74.9,1.33,1.55,1.77.66.44,1.4.66,2.23.66Zm22.86,4.6c-1.86,0-3.52-.35-4.98-1.04-1.45-.7-2.59-1.67-3.43-2.89-.83-1.24-1.26-2.66-1.29-4.28h5.44c.03.68.24,1.27.61,1.79.38.51.89.9,1.52,1.18.63.28,1.34.42,2.13.42s1.55-.16,2.18-.47c.63-.32,1.13-.75,1.48-1.31.36-.56.54-1.21.54-1.94s-.19-1.39-.58-1.96c-.37-.58-.91-1.03-1.62-1.35-.7-.32-1.53-.49-2.5-.49h-2.38v-4.3h2.38c.81,0,1.54-.15,2.16-.46.63-.31,1.12-.73,1.47-1.27.35-.55.52-1.19.52-1.92s-.15-1.31-.46-1.83c-.3-.53-.72-.95-1.27-1.25-.54-.3-1.17-.45-1.9-.45s-1.4.14-2.01.43c-.61.28-1.09.68-1.46,1.21-.36.52-.56,1.14-.59,1.84h-5.18c.03-1.6.45-3,1.26-4.22.81-1.22,1.91-2.17,3.29-2.85,1.39-.7,2.96-1.04,4.7-1.04s3.31.34,4.63,1.04,2.35,1.63,3.08,2.82c.74,1.17,1.1,2.49,1.1,3.95,0,1.55-.44,2.85-1.34,3.88-.89,1.04-2.05,1.7-3.48,1.97v.22c1.88.26,3.31.97,4.29,2.12.99,1.15,1.48,2.58,1.47,4.3,0,1.58-.41,2.98-1.26,4.21-.84,1.23-2,2.19-3.48,2.9-1.48.7-3.18,1.05-5.09,1.05Zm23.74.23c-2.15,0-3.99-.58-5.54-1.72-1.54-1.14-2.73-2.78-3.56-4.94-.82-2.15-1.23-4.75-1.22-7.78,0-3.02.41-5.6,1.23-7.73.83-2.13,2.02-3.75,3.56-4.86,1.55-1.12,3.39-1.68,5.53-1.68s3.98.56,5.52,1.68c1.55,1.12,2.74,2.74,3.57,4.87.83,2.12,1.24,4.69,1.23,7.71,0,3.04-.41,5.64-1.25,7.8-.82,2.15-2,3.8-3.54,4.94-1.54,1.14-3.38,1.7-5.53,1.7Zm0-4.86c1.46,0,2.63-.8,3.51-2.4.87-1.6,1.31-3.99,1.3-7.19,0-2.1-.2-3.85-.6-5.25-.39-1.4-.95-2.45-1.67-3.15-.72-.7-1.56-1.05-2.53-1.05-1.46,0-2.62.79-3.49,2.37-.87,1.58-1.31,3.94-1.32,7.09,0,2.13.2,3.91.59,5.33.4,1.42.96,2.48,1.68,3.2.72.7,1.57,1.05,2.55,1.05Z"/>
      <path class="cls-2" d="m648.75,552.13h-9.06v-27.71h9.13c2.57,0,4.78.55,6.64,1.66,1.85,1.1,3.28,2.68,4.28,4.75,1.01,2.06,1.51,4.54,1.51,7.41s-.5,5.37-1.51,7.44c-1,2.08-2.43,3.67-4.3,4.78-1.86,1.11-4.09,1.66-6.69,1.66Zm-3.66-5.02h3.43c1.6,0,2.94-.31,4.03-.92,1.1-.62,1.92-1.58,2.47-2.88.56-1.31.83-2.99.83-5.06s-.28-3.72-.83-5.02c-.55-1.3-1.37-2.25-2.46-2.87-1.09-.61-2.43-.92-4.03-.92h-3.44v17.67Zm31.13-22.69v27.71h-5.4v-22.15h-.15l-5.85,3.98v-5.19l6.32-4.34h5.08Zm6.07,27.71v-4.22l9.1-9.13c.78-.81,1.42-1.54,1.95-2.19.53-.65.94-1.28,1.21-1.91.27-.63.41-1.31.41-2.04,0-.81-.17-1.51-.51-2.1-.34-.6-.81-1.05-1.4-1.37-.59-.32-1.26-.49-2.01-.49s-1.46.17-2.04.51c-.58.34-1.03.84-1.35,1.48-.32.64-.47,1.4-.47,2.29h-5.13c0-1.81.38-3.39,1.14-4.72.76-1.34,1.82-2.37,3.18-3.1,1.36-.73,2.94-1.1,4.71-1.1s3.42.35,4.78,1.06c1.36.69,2.42,1.66,3.18,2.89.76,1.24,1.14,2.65,1.14,4.25,0,1.05-.19,2.08-.57,3.1-.37,1.02-1.04,2.15-2.01,3.4-.96,1.23-2.32,2.72-4.08,4.45l-3.73,3.97v.19h10.73v4.79h-18.22Zm31.94.38c-1.31,0-2.58-.25-3.81-.72-1.21-.47-2.3-1.23-3.27-2.29-.97-1.06-1.73-2.46-2.3-4.2-.56-1.74-.83-3.88-.83-6.41,0-2.33.25-4.41.74-6.24.49-1.84,1.19-3.4,2.1-4.68.92-1.28,2.01-2.26,3.28-2.92,1.27-.68,2.7-1.01,4.28-1.01,1.7,0,3.21.36,4.52,1.08,1.31.71,2.35,1.68,3.14,2.91.8,1.23,1.28,2.6,1.45,4.13h-5.33c-.21-.97-.64-1.72-1.31-2.28-.67-.55-1.49-.83-2.47-.83-1.66,0-2.93.79-3.79,2.36-.86,1.57-1.29,3.7-1.31,6.4h.17c.38-.82.9-1.52,1.55-2.1.66-.58,1.4-1.03,2.23-1.34.84-.31,1.73-.47,2.66-.47,1.52,0,2.86.39,4.04,1.16,1.18.77,2.11,1.82,2.8,3.17.68,1.34,1.02,2.88,1.02,4.61,0,1.88-.4,3.55-1.21,5.01-.8,1.46-1.92,2.61-3.36,3.44-1.43.82-3.09,1.23-4.99,1.22Zm-.02-4.6c.83,0,1.58-.22,2.23-.65.66-.43,1.17-1.02,1.55-1.76.37-.74.56-1.57.56-2.49s-.19-1.75-.56-2.47c-.37-.73-.87-1.31-1.52-1.75-.65-.43-1.39-.65-2.22-.65-.62,0-1.2.13-1.73.38-.52.25-.99.6-1.38,1.05-.39.45-.7.98-.92,1.57-.22.59-.34,1.21-.34,1.88,0,.89.19,1.71.56,2.45.38.74.9,1.33,1.55,1.77.66.44,1.4.66,2.23.66Zm24.53-23.49v27.71h-5.4v-22.15h-.15l-5.85,3.98v-5.19l6.33-4.34h5.08Zm16.1,28.32c-2.15,0-3.99-.58-5.54-1.72-1.54-1.14-2.73-2.78-3.56-4.94-.82-2.15-1.23-4.75-1.22-7.78,0-3.02.41-5.6,1.23-7.73.83-2.13,2.02-3.75,3.56-4.86,1.55-1.12,3.39-1.68,5.53-1.68s3.97.56,5.51,1.68c1.55,1.12,2.74,2.74,3.57,4.87.83,2.12,1.24,4.69,1.23,7.71,0,3.04-.41,5.64-1.25,7.8-.82,2.15-2,3.8-3.54,4.94-1.54,1.14-3.38,1.7-5.53,1.7Zm0-4.86c1.46,0,2.63-.8,3.5-2.4.87-1.6,1.31-3.99,1.3-7.19,0-2.1-.2-3.85-.6-5.25-.39-1.4-.95-2.45-1.67-3.15-.72-.7-1.56-1.05-2.53-1.05-1.46,0-2.62.79-3.49,2.37-.87,1.58-1.32,3.94-1.32,7.09,0,2.13.2,3.91.59,5.33.4,1.42.96,2.48,1.69,3.2.72.7,1.57,1.05,2.55,1.05Z"/>
    </g>
  </g>
</svg>