<?xml version="1.0" encoding="UTF-8"?>
<svg id="Layer_2" data-name="Layer 2" xmlns="http://www.w3.org/2000/svg" viewBox="0 0 580.7 497.34">
  <defs>
    <style>
      .cls-1, .cls-2, .cls-3, .cls-4, .cls-5, .cls-6, .cls-7, .cls-8, .cls-9, .cls-10, .cls-11, .cls-12, .cls-13, .cls-14, .cls-15, .cls-16, .cls-17, .cls-18, .cls-19, .cls-20, .cls-21, .cls-22, .cls-23, .cls-24, .cls-25, .cls-26, .cls-27 {
        stroke: #2f0d00;
      }

      .cls-1, .cls-3, .cls-4, .cls-5, .cls-6, .cls-7, .cls-8, .cls-9, .cls-10, .cls-11, .cls-12, .cls-13, .cls-14, .cls-15, .cls-16, .cls-17, .cls-18, .cls-19, .cls-20, .cls-21, .cls-22, .cls-23, .cls-24, .cls-25, .cls-26, .cls-27 {
        stroke-miterlimit: 10;
      }

      .cls-1, .cls-3, .cls-4, .cls-5, .cls-7, .cls-8, .cls-9, .cls-10, .cls-11, .cls-12 {
        stroke-linecap: round;
      }

      .cls-1, .cls-6, .cls-9, .cls-19 {
        fill: #fff;
      }

      .cls-1, .cls-12, .cls-27 {
        stroke-width: .5px;
      }

      .cls-2 {
        stroke-miterlimit: 10;
        stroke-width: 1px;
      }

      .cls-2, .cls-4, .cls-23, .cls-28 {
        fill: #2f0d00;
      }

      .cls-3, .cls-12, .cls-13, .cls-26, .cls-27 {
        fill: none;
      }

      .cls-5, .cls-24 {
        fill: #9b6a4a;
      }

      .cls-6 {
        stroke-width: .25px;
      }

      .cls-7 {
        fill: snow;
      }

      .cls-8, .cls-18 {
        fill: #ffe2c4;
      }

      .cls-10 {
        fill: #fcaabd;
      }

      .cls-11 {
        fill: #695f59;
      }

      .cls-13 {
        stroke-width: .75px;
      }

      .cls-14 {
        fill: #ffd736;
      }

      .cls-15 {
        fill: #ffd635;
      }

      .cls-16, .cls-29 {
        fill: #f02b2c;
      }

      .cls-17 {
        fill: #e3e2e1;
      }

      .cls-20 {
        fill: #ffe3c4;
      }

      .cls-21 {
        fill: #c2c1c1;
      }

      .cls-22 {
        fill: #5b4f47;
      }

      .cls-25, .cls-30 {
        fill: #f88433;
      }

      .cls-30, .cls-31, .cls-28, .cls-29 {
        stroke-width: 0px;
      }

      .cls-31 {
        fill: #4b8dcc;
      }
    </style>
  </defs>
  <g id="Layer_2-2" data-name="Layer 2">
    <g>
      <g id="tegning_bange" data-name="tegning bange">
        <g>
          <g>
            <path class="cls-18" d="m255.66,37.46c1.67-2.32,7.1-9.01,15.23-10.01,1.77-.22,4.08,0,8.7.44,6.13.58,7.84,1.32,8.7,1.74,3.37,1.66,5.25,4.14,5.98,5.13.76,1.03,2.97,4.24,3.42,8.79.27,2.75-.44,2.58-.61,7.94-.04,1.27,0,1.45.12,7.57.09,4.18.13,6.27.12,6.96-.07,4.44-.66,7.82-1.1,10.26-1.44,7.99-2.3,12.79-5.62,18.07-1.44,2.29-5.53,8.14-12.94,11.6-2.71,1.26-6.15,2.81-10.5,2.08-1.06-.18-4.78-.86-7.57-3.91-1.75-1.91-3.23-2.91-4.52-7.2-2.7-8.98-1.84-8.45-2.81-12.58-.51-2.2-.74-3.82-1.34-15.63-.71-13.85-.59-15.24-.37-16.73,0,0,.19-1.41.42-2.67,1.25-6.92,4.68-11.84,4.68-11.84h0Z"/>
            <circle class="cls-9" cx="283.73" cy="61.38" r="8.11"/>
            <circle class="cls-7" cx="259.34" cy="61.38" r="8.11" transform="translate(157.21 307.54) rotate(-80.78)"/>
            <path class="cls-8" d="m250.43,70.48c-.54-.72-1.26-1.71-2.08-2.93-1.99-2.97-2.25-3.84-2.32-4.64-.06-.63-.17-1.99.73-3.05,1.3-1.52,3.61-1.13,3.79-1.1"/>
            <path class="cls-8" d="m296.96,64.82c.62-.19,2.51-.87,3.79-2.81,1.05-1.6,1.1-3.16,1.1-3.54,0-.95.02-2.78-1.34-3.79-1.2-.88-2.69-.57-3.05-.49"/>
            <path class="cls-21" d="m250.12,49.32c-.53.24-1.35.02-4.08-2.23-1.75-1.43-2.96-2.62-3.12-2.78-3.08-3-4.62-4.5-6.55-5.87-3.2-2.28-4.85-3.49-4.85-3.49,0,0,3.07-2.83,5.44-3.32,4.31-.88,7.79.82,8,.26.21-.57-3.22-2.43-3.91-2.81-3.06-1.66-4.68-2.72-4.68-2.72,0,0,2.52-1.45,2.89-1.53.66-.15,2.5-.53,4.51.26,2.77,1.08,3.75,3.53,4.34,3.23.6-.31-.9-2.65,0-5.19.51-1.44.43-1.86,2.29-4.32,1.16-1.54,1.08-1.59,2.84-4.29,1.36-2.09,3.63-3.3,3.63-3.3,0,0-2.07,4.59-.6,9.19.24.74.87,1.86,2.13,4.08,1.46,2.57,2.2,3.87,3.06,4.42.42.27,1.67.91,1.69,1.39.01.4-1.04.23-1.91,1.24-.47.55-.41.58-.92,1.17-.56.65-.89.93-1.25,1.3-.67.69-.91,1.41-1.6,2.28-3.65,4.62-4.6,7.57-5.47,9.2-.39.74-.28,1.05-.61,1.71-.92,1.79-.97,1.99-1.27,2.12h0Z"/>
            <path class="cls-21" d="m283.82,27.64c-.2-.54.87-1.43,2.09-2.43,1.2-.98,1.72-1.23,2.32-1.7,2.61-2.03,3.16-5.48,3.25-6.18.24-1.78-.07-3.22-.39-4.68-.47-2.15-1.03-3.4-1.03-3.4,0,0,3.36,3.76,4.88,9.31.4,1.45.65,2.92,1.23,2.96.94.06.99-3.73,3.84-5.62.14-.09,1.26-.47,3.5-1.23,2.18-.74,3.3-1.09,4.68-1.38,1.62-.34,3.35-.25,3.35-.25l-3.1,3.01c-2.79,2.24-3.27,2.41-4.14,3.5-1.14,1.43-1.61,2.79-1.87,3.55-.49,1.43-1.15,4.18-.44,4.53.67.33,1.58-2,4.39-3.4,1.89-.94,3.61-.94,6.31-.94,1.53,0,5.57,1.08,5.57,1.08,0,0-.7,1.17-1.97,2.12-1.97,1.47-3.68,2.21-3.7,2.22-3.68,1.59-6.55,4.6-7.1,5.17-3.07,3.22-4.38,4.53-7,7.15-.08.08-.26.26-.49.25-.58-.02-.9-1.2-1.46-2.48-.37-.84-.78-1.51-1.6-2.85-.62-1.01-1.45-2.36-2.85-3.68-.54-.51-1.62-1.22-3.77-2.64-1.4-.92-1.83-1.15-2.41-1.34-1.23-.4-1.92-.26-2.07-.65h-.02Z"/>
            <path class="cls-21" d="m250.39,81.28s1.44.83,3.26.94c.32.02.58,0,.67,0,1.11-.04,2.04-.35,2.57-.6,1.05-.5,1.59-1.33,2.48-2.74,1.35-2.14.96-2.51,1.97-3.68.97-1.12,2.09-1.67,3.25-2.23,1.71-.82,3.12-1.06,3.42-1.11,1.49-.24,2.67-.43,3.94.09,2.01.82,2.87,2.84,3.34,3.94.36.86.89,2.15.68,3.85-.04.32-.27,2.02-1.63,3.6-1.2,1.4-2.61,1.91-3.25,2.14-1.29.46-2.44.5-4.62.34-2.7-.19-4.47-.32-7.02-.94-5.52-1.34-9.07-3.6-9.07-3.6h0Z"/>
            <path class="cls-11" d="m265.42,273.27l5.84-.05s.66,10.85-2.92,12.02c-1.78.58-3.03-.88-7.45-.61-.7.04-1.43.12-2.73.14-1.36.02-2.27-.05-4.19-.19-3.34-.24-5.02-.36-5.42-.38-3.08-.12-4.71-.09-4.71-.09,0,0,2.53-.4,6.74-1.37,4.72-1.09,4.8-1.59,6.55-1.51.58.03,1.83.14,3.16-.47.58-.27,1.05-.61,1.55-.99.5-.37.74-.6,1.98-1.74,1.64-1.52,1.7-1.57,1.79-1.79.5-1.28-.19-2.97-.19-2.97h0Z"/>
            <path class="cls-11" d="m281.48,273.27s.79-.13,3.06-.38c2.37-.25,3.11-.33,3.11-.33,0,0,.61,2.89,2.31,4.19.67.52.71.11,2.5.85,2.01.83,2.36,1.52,3.86,1.79.89.16.95-.04,2.21,0,2.1.07,2.67.65,4.52.99,3.26.6,5.7.19,5.7.19,0,0-.7,1.14-1.04,1.41-1.08.88-2.25,1.16-4.05,1.41-1.56.22-2.85.4-4.95.42-2.71.03-2.87-.23-5.04-.09-1.61.1-1.5.25-3.72.42-1.17.09-2.63.16-4.38,0-1.76-.16-2.31-.42-2.69-.66-1.01-.64-1.48-1.57-1.65-1.98-.42-.99-.23-1.55-.14-3.58.14-3.34.38-4.66.38-4.66h.01Z"/>
            <path class="cls-9" d="m284.11,102.89c2.05-.76,3.78,0,7.83,1.54,4.02,1.52,3.98,1.4,4.87,1.9,1.11.63,1.76,1.16,4.15,3.2,3.37,2.87,5.06,4.31,5.34,4.63.72.81.97,1.24,4.03,6.88,3.12,5.75,3.46,6.4,3.92,7.71.31.87.42,1.32,1.54,6.17,1.14,4.92,1.71,7.38,1.78,7.71.9,4.31,1.59,7.63,1.9,12.1.25,3.54.14,6.16.12,6.76-.12,2.7-.24,5.63-1.19,9.14-.8,2.98-1.18,2.61-3.2,8.43-1.26,3.61-1.06,3.59-1.9,5.58-1.53,3.62-2.24,3.77-3.32,6.88-.88,2.54-1.23,4.79-1.66,4.75-.18-.02-.28-.42-.37-.89-.58-2.84-.52-5.4-.55-7.17,0-.26-.05-1.09-.14-2.74-.19-3.38-.28-5.07-.47-6.88-.27-2.61-.61-4.59-.72-5.22-.28-1.59-.33-1.57-.68-3.5-.22-1.22-.58-3.19-.87-5.64-.18-1.56-.09-1.2-.43-4.48-.16-1.59-.35-3.28-.4-3.71-.17-1.51-.15-1.33-.24-2.15-.27-2.46-.42-4.3-.47-4.97-.05-.58-.03-.39-.19-2.6-.11-1.59-.24-3.28-.29-3.93-.27-3.38-.9-6.53-.95-6.53-.22.03,6.7,50.91,6.41,71.44-.13,9.23-.47,14-.47,14-.26,3.6-.62,7.13-.95,13.29-.06,1.13-.18,3.38-.24,6.29-.08,3.68-.12,5.52,0,6.88.44,5.16,1.94,7.6.95,8.31-.83.59-1.96-1.06-5.1-1.42-1.76-.2-2.03.23-5.22.47-2.05.15-2.58.02-6.05,0-4.3-.03-6.45.07-6.76.12-1.6.23-3,.58-3.92-.24-.64-.57-.9-1.6-.94-1.77-.21-.88-.08-1.6-.05-1.8.12-.68.15-3.84.21-10.17.04-4.33-.24-7.92-.37-9.53-.23-2.86-.4-4.47-.4-4.47-.23-2.17-.35-2.78-.43-4.25-.07-1.26-.03-1.76,0-3.99.04-3.18.06-4.77-.02-5.9-.19-3.07-.61-3.14-.79-6.24-.03-.43-.09-1.65.05-5.07.15-3.76.34-5.09.46-7.3.06-1.04.07-1.7-.23-10.2-.19-5.38-.28-8.11-.38-9.68-.14-2.23-.19-2.29-.76-8.99-.63-7.34-.61-7.7-.9-10.45-.13-1.28-.25-2.31-1.26-10.04-1.21-9.21-1.61-12.05-1.82-16.53-.25-5.31.04-7.02.16-7.67.52-2.78,1.78-5.2,4.32-10.05,1.74-3.33,3.66-6.5,6.64-7.86.13-.06.24-.11.42-.17v.02Z"/>
            <path class="cls-17" d="m296.89,186.64c.66-.88,1.82-1.11,4.15-1.57,2.69-.54,5.05-1,6.22.21.54.56.42,1.04.5,4.86.07,3.15.14,2.17.21,6.22.06,3.1,0,3,.07,4.43.16,3.49.44,3.45.5,5.86.09,3.73-.59,3.86-.36,7.01.23,3.05.93,3.77.29,4.65-.9,1.22-3.11.94-7.08.43-3.38-.43-5.09-.67-5.93-1.79-.67-.88-.65-1.83-.07-6.36.46-3.59.89-6.43,1.14-8.15.66-4.57,1-6.86.93-8.01-.26-4.35-1.8-6.16-.57-7.79h0Z"/>
            <path class="cls-17" d="m283.03,102.59s.19,1.31,1.19,4.75c.12.42.5,1.49,1.26,3.64.77,2.19,1.17,3.29,1.34,3.57,1.47,2.4,3.42,3.64,3.42,3.64,0,0-1.69.47-3.94,1.86-.33.2-1.13.9-2.75,2.3-2.1,1.82-1.51,1.4-2.9,2.6-1.75,1.51-2.08,2.08-2.08,2.08,0,0,1.11,1.21,2.82,3.12.71.79,1.54.54,2.67,2.53.91,1.61,1.27,1.84,2.9,4.23,1.57,2.31,2.3,4.16,2.3,4.16,0,0-1.26,1.76-3.79,4.46-1.44,1.54-2.36,2.78-3.42,4.23-1.82,2.48-3.07,4.67-3.86,6.17-1.42,2.68-1.93,4.09-1.93,4.09,0,0-.45-3.6-1.34-9.96-.45-3.27-.6-2.96-1.11-6.61-.71-5.02-.38-5.23-1.04-9.88-.65-4.64-1.07-5.09-1.04-7.73.03-2.95.59-5.19.89-6.39.22-.87.99-3.76,3.27-7.95,1.69-3.11,7.13-8.92,7.13-8.92h0Z"/>
            <path class="cls-5" d="m262.09,106.77c.06-.08.7.46,1.86.93.76.31,1.35.42,2.41.62.98.19,1.74.33,2.79.36.6.02,1.63.04,2.91-.22.66-.14.68-.2,2.81-.93,2.11-.72,2.12-.66,2.69-.93,1.64-.77,2.5-1.68,2.6-1.57.11.12-.93,1.04-2.31,2.95-.39.54-.77,1.1-1.31,1.91-.57.85-.85,1.27-1.1,1.69-.31.52-.83,1.42-1.36,2.6-.28.63-.46,1.08-.79,1.96-.27.71-.52,1.38-.81,2.29-.3.94-.44,1.42-.55,2.03-.19,1.11-.11,1.62-.26,1.65-.29.06-.9-1.76-1.22-2.91-.35-1.25-.28-1.45-.6-2.46-.21-.66-.56-1.61-1.14-2.62-.68-1.19-1.36-1.94-2.71-3.39-.84-.91-1.68-1.74-1.9-1.95-1.24-1.21-2.09-1.92-2.02-2.02h0Z"/>
            <path class="cls-24" d="m259.79,259.92c-.49.66.26,1.4.36,3.36.06,1.08-.17.93-.3,2.98-.13,2.06.11,2.06-.08,3.4-.23,1.61-.64,2.16-.28,2.58.36.42,1.04.16,2.46.12,1.6-.04,1.49.27,3.52.38,2.2.12,2.16-.25,4.43-.1,1.16.08,1.59.21,2.58.12.53-.05,1-.13,1.8-.1.82.04.88.15,1.14.08.62-.17.93-1,1.48-3.48.52-2.33.78-3.5.78-4.39,0-1.7-.35-1.69-.32-3.66.03-1.59.27-2.15-.16-2.62-.4-.44-.87-.26-3.04-.46-1.59-.15-1.54-.27-2.7-.32-1.34-.06-2.38.05-3.04.12-.94.1-1.81.29-3.54.66-2.11.45-1.53.41-2.96.7-1.56.31-1.87.29-2.12.62h0Z"/>
            <path class="cls-24" d="m277.79,258.56c.52-.79,1.27-.6,1.64-1.36.51-1.03-.41-2.32-.12-2.48.25-.14.78.97,1.98,1.26.39.09.81.04,1.64-.06,1.16-.14,1.42-.33,2.24-.4.73-.06.81.06,1.92.12,1.65.09,2.29-.13,4.43-.02.89.05,1.2.11,1.48.34.49.4.34.86.81,2.11.42,1.12.64,1.03.91,1.97.24.85.1,1.02.34,2.02.2.79.4,1.1.65,1.77.41,1.07.37,1.47.71,3.19.63,3.14,1.15,3.6.74,4.19-.33.47-.81.4-3.32.65-3.02.31-3.05.5-5.09.59-2.11.1-1.77-.12-3.38,0-1.31.1-3.35.37-5.43.84,0,0-1.22.27-2.98.12-.76-.06-1.02-.16-1.15-.37-.27-.46.38-1.04.99-2.48.48-1.14.64-2.11.74-2.79.11-.68.12-1.32.16-2.57.04-1.71.06-2.57,0-3.69-.11-1.94-.32-2.35.07-2.93l.02-.02Z"/>
            <path class="cls-3" d="m267.57,62.31c.24-.33.72-.89,1.56-1.32.65-.33,1.23-.43,1.67-.5.64-.11,1.5-.25,2.51.03,1.11.31,1.78.96,2.07,1.29"/>
            <path class="cls-3" d="m250.55,59.32c-.34-.54-.84-1.29-1.51-2.16-.78-1.02-1.18-1.54-1.75-1.95-.34-.25-1.36-.98-2.83-1.08-1.07-.07-1.83.22-2.89.63-1.3.51-2.3.89-2.71,1.87-.26.63-.18,1.25-.08,1.65"/>
            <path class="cls-3" d="m291.69,58.69c.76-.71,1.76-1.61,2.96-2.62,1.69-1.43,2.35-1.87,2.69-2.08,1.33-.86,2.32-1.47,3.73-1.61.86-.09,1.5.04,2.29.2,1.94.39,3.34,1.26,3.93,1.63.29.18.52.34.67.45"/>
            <path class="cls-3" d="m286.7,51.04c.39-.19,1.06-.44,1.86-.35.74.08,1.29.42,1.79.72.09.05.45.27.87.64.45.39.78.77,1,1.07"/>
            <g>
              <path class="cls-9" d="m267.28,99.77c-.28-.02-.61-.32-1.27-.92-.5-.46-1.08-.98-1.67-1.78-.42-.57-1.31-1.77-1.64-3.41-.46-2.24.24-4.83,1.06-4.93.36-.05.47.43,1.53,1.41.38.34,1.3,1.18,2.58,1.76,1.32.59,2.52.69,3.05.7,2.11.07,3.27-.75,3.52-.35.31.48-1.18,1.99-1.76,2.58-1.09,1.11-1.31,1-2.35,2-1.82,1.73-2.16,3.02-3.05,2.94h0Z"/>
              <path class="cls-12" d="m263.76,88.73c0,.36,0,.89.12,1.51.14.75.38,1.45,1.08,2.75.9,1.68,1.36,2.52,2.04,3.16.47.45,1.37,1.15,2.75,1.51"/>
              <path class="cls-12" d="m265.81,94.63c.3-.15.75-.42,1.16-.87.65-.72.84-1.5.9-1.86"/>
              <path class="cls-12" d="m267.05,96.36c.55-.24,1.33-.64,2.1-1.33.99-.89,1.51-1.84,1.78-2.42"/>
              <path class="cls-12" d="m265.27,97.65l1.77-1.29"/>
              <path class="cls-1" d="m263.66,95.14c.11.06.51.27.99.09.54-.21.8-.76.86-.88"/>
            </g>
            <path class="cls-3" d="m253.76,51.94c.41-.35.78-.63,1.06-.83,1.25-.91,1.62-.92,1.9-.86.42.1.77.41,1.02.68"/>
            <path class="cls-21" d="m276.36,77.26c0-.61,0-1.56.6-2.46.48-.72,1.1-1.04,1.94-1.47,1.42-.73,2.69-.92,3.5-1.04.39-.06,1.2-.08,2.81-.13,2.47-.08,2.87-.04,3.37.09.68.17,1.68.42,2.37,1.25.49.59.29.81.86,1.9.31.59.83,1.57,1.86,2.24.58.38,1.09.5,2.11.73.76.18,1.83.42,3.11.35,2.3-.14,3.75-.73,3.75-.73,0,0-.07,1.58-.6,2.85-.52,1.22-.94,2.2-1.86,3.06-.9.85-1.92,1.14-3.97,1.73-1.66.47-3.2.92-5.31.91-1.27,0-2.23-.19-4.14-.56-2-.39-3.14-.61-4.57-1.25-1.01-.45-2.2-.99-3.37-2.16-.41-.41-2.44-2.44-2.46-5.31h0Z"/>
            <path class="cls-26" d="m272.03,70.57c.55.65,1.07,1.13,1.46,1.46.68.57,1.05.88,1.67,1.09.77.27,1.43.2,1.88.16.85-.09,1.73-.18,2.29-.89.64-.8.45-1.85.42-2.03-.1-.53-.33-.89-1.2-1.93-1.4-1.67-2.12-2.51-2.92-2.92-.41-.21-1.22-.61-2.29-.57-.61.02-1.09.18-1.3.26-.61.23-1.05.56-1.3.78"/>
            <circle class="cls-4" cx="261.19" cy="61.87" r="1.5"/>
            <circle class="cls-4" cx="286.12" cy="62.31" r="1.5"/>
            <path class="cls-9" d="m259.2,106.11c2.95.82,5.27,2.77,5.77,3.19,1.84,1.55,2.79,3.07,3.71,4.55.8,1.28,1.96,3.41,2.79,6.28.6,2.08.61,3.13,1.14,9.01.19,2.09.43,4.17.6,6.26,1.25,14.85,2.8,28,4.28,50.11.89,13.29,1.33,19.94,1.37,28.41.05,10.75-.49,11.17-.09,18.96.83,16,1.25,24,1.55,24.65.07.16.39.8.06,1.19-.45.53-1.71.16-4.04.15-.28,0-1.07.04-2.64.13-3.3.19-6.82.8-8.14,1.02-4.34.72-3.49.3-11.88,1.38-5.33.69-8,1.03-9.51,1.39-5.46,1.3-8.35,2.96-9.45,1.99-.78-.69-.09-2.2.37-3.39.24-.62.83-4.59,2.01-12.52.88-5.92-.1-5.65.56-14.54.32-4.32.51-3.92,1.3-11.14.61-5.59,1.24-11.33,1.44-18.46.22-8.03-.42-6.19-.21-13.75.27-9.74,1.4-15.96-2.6-18.31-.24-.14-1.08-.48-2.77-1.17-3.13-1.28-5.13-1.93-7.97-2.94-.3-.11-2.4-.89-6.6-2.46-10.81-4.04-11.78-4.42-13.53-5.46-1.68-1-4.03-2.43-6.28-4.97-1.44-1.61-3.74-4.28-4.27-8.14-.37-2.71.31-4.75,1.16-7.27,1.5-4.47,3.83-7.55,5.97-10.32,1.91-2.48,3.95-5.12,7.6-7.89,3.42-2.6,6.54-4.01,8.8-5.03,2.94-1.32,4.48-1.69,11.7-3.91.81-.25,4.52-1.41,11.95-3.74,10.64-3.33,12.82-4.1,15.85-3.26h0Z"/>
            <path class="cls-17" d="m252.99,124.31s1.65-2.19,4.51-7.25c1.45-2.57,2.27-4.02,2.98-6.28.74-2.37,1.29-3.54,1.29-3.54,0,0,5.13,3.52,7.09,7.81.76,1.68,1.29,3.39,2.26,9.67.7,4.57.81,6.18,1.45,11.2,1.04,8.14,1.56,12.21,2.01,15.15.94,6.06.56,8.94.56,8.94,0,0-2.65-2.09-8.06-5.8-3.45-2.37-5.49-3.73-8.3-3.79-3.28-.07-5.8.97-5.8.97l2.58-6.77c1.64-3.18,2.11-2.93,2.66-4.19.54-1.23,1.03-1.94,1.69-5.32.62-3.19.84-2.28,1.13-3.46.86-3.59.73-4.03.73-4.03l-8.78-3.3h0Z"/>
            <path class="cls-3" d="m242.2,139.38c-.4,1.49-.53,2.73-.58,3.62-.05.93,0,1.31.35,1.59.5.41,1.2.24,3.09.23,1.06,0,1.8.05,3.23.16,2.44.18,2.23.35,3.61.36,1.48,0,2.07-.18,2.5.17.54.44.27,1.3.11,1.87-.03.1-.24,2.03-.67,5.9-.19,1.67.07,1.53.09,4.76,0,1.61.03,4.73-.5,8.47-.61,4.32-1.16,3.91-1.14,6.35.02,1.98.39,3.21-.64,4.01-1.28,1-3.73.5-4.19.4-1.56-.32-1.94-.88-3.99-2.03-.76-.43-2.46-1.14-5.86-2.56-1.04-.43-2.29-.94-4.79-1.95-1.51-.61-2.77-1.12-3.64-1.48"/>
            <path class="cls-17" d="m239.51,219.9c.5.31,2.36-.29,6.05-1.49,3.67-1.2,4.54-1.62,5.27-2.04,1.21-.7,2.74-1.58,3.71-2.92,1.66-2.3.32-4.14-.23-10.37-.39-4.4.24-4-.24-8.4-.51-4.76-1.22-4.97-.98-7.97.13-1.64.43-2.74-.29-3.24-.87-.6-2.28.33-5.71,1.47-4.86,1.62-5.77,1-6.79,2.15-1.23,1.39-.27,2.7-.04,7.74.13,2.82-.18,2.29-.23,7.29-.06,6.12.41,5.72.17,8.86-.43,5.55-2.02,8.1-.68,8.92h-.01Z"/>
            <path class="cls-4" d="m254.69,154.35c.43-.23.7-.08,2.4-.23.58-.05,1.1-.1,1.74-.23.96-.19,1.62-.32,2.28-.75.74-.48,1.07-1.08,1.26-1.43.27-.49.38-.93.46-1.35.15-.84.19-1.79-.05-3.62-.19-1.47-.32-1.61-.42-2.81-.04-.51-.1-1.23-.05-2.07.06-1.13.19-2.96,1.44-4.89.5-.77,1.05-1.59,2.22-2.17.34-.17,1.17-.57,2.3-.58,1.65,0,2.71.85,2.97,1.08.6.53.8,1.06,1.15,2.03.4,1.11.49,1.98.57,2.91.03.3.15,1.73-.01,3.68-.03.33-.01.04-.29,2.28-.3,2.37-.3,2.5-.45,2.95-.36,1.05-.84,1.65-.56,1.83.21.14.61-.09,1.44-.32.34-.09.53-.12,2.39-.35,3.19-.38,3.38-.38,3.64-.35.56.06,1.15.26,2.34.66,2.05.69,2.46,1.11,2.62,1.29.18.21.62.71.58,1.43-.04.73-.54,1.24-.68,1.37-.88.87-2.2.94-2.17,1.16.02.13.49.13,1.42.22,1.5.14,2.26.21,2.84.5.83.41,1.18,1.03,1.3,1.24.18.34.58,1.07.18,1.82-.33.61-1.02.9-1.3,1.02-1.43.59-2.94.14-2.99.29-.04.11.88.27,1.99.82.64.32,1.18.58,1.58,1.09.41.52.46,1.02.54,1.79.1.93.15,1.39-.19,1.86-.49.69-1.46.94-2.03,1.09-1.4.36-2.6.13-2.62.25-.02.11,1.01.15,1.99.76.25.16.68.43.97.92.42.7.29,1.38.23,1.64-.03.12-.27,1.16-1.36,1.91-.34.23-1.19.73-4.19.76-.88,0-1.94-.02-4.37-.29-3.25-.36-3.33-.53-5.51-.72-3.02-.25-2.93.07-4.59-.27-1.1-.22-1.33-.41-4.46-1.23-1.66-.44-1.93-.48-2.25-.5-.87-.05-1.38.08-3.86.43-1.73.24-1.99.25-2.2.09-.45-.35-.02-1.05.31-2.88.17-.95.05-.75.24-2.04.33-2.18.64-2.59.73-3.87.03-.44-.08-1.23-.27-2.82-.19-1.56-.33-2.24-.18-3.34.14-.99.25-1.72.91-2.08l.02.02Z"/>
            <ellipse class="cls-2" cx="270.25" cy="182.3" rx="3.03" ry="2.45" transform="translate(-16.23 26.74) rotate(-5.5)"/>
            <ellipse class="cls-2" cx="271.54" cy="195.75" rx="3.03" ry="2.45" transform="translate(-17.51 26.93) rotate(-5.5)"/>
            <ellipse class="cls-2" cx="271.42" cy="208.82" rx="3.03" ry="2.45" transform="translate(-18.76 26.98) rotate(-5.5)"/>
          </g>
          <g>
            <path class="cls-20" d="m376.13,62.82c.28-8.84.06-9.29.59-11.54.45-1.92,1.36-5.66,4.3-9.39.95-1.2,4.23-5.25,9.98-7.04,3.23-1.01,5.91-.9,8.67-.78,3.87.16,6.77.95,8.47,1.43,2.17.61,4.77,1.36,7.82,3.13,1.54.9,3.64,2.13,5.74,4.43,2.44,2.67,3.54,5.3,4.3,7.17,1.23,3.01,1.58,5.31,2.22,9.38.26,1.68.73,5.08.91,9.52.22,5.37-.1,9.75-.39,12.51-.19,1.82-.69,4.71-1.69,10.43-1.46,8.31-1.27,6.76-2.48,13.56-1.31,7.37-1.55,9.3-2.87,12.64-1.82,4.62-3.53,6.41-4.17,7.04-2.66,2.61-5.58,3.53-7.69,4.17-2.32.7-7.14,2.16-12.51.26-3.99-1.41-6.37-4-8.21-6-2.61-2.84-3.96-5.54-4.82-7.3-.39-.79-1.39-2.92-3.26-10.04-.57-2.17-1.59-6.2-2.74-11.99-1.04-5.24-1.56-7.85-1.95-11.6-.49-4.67-.51-8.36-.52-10.56-.01-3.07.11-2.94.31-9.43h0Z"/>
            <ellipse class="cls-19" cx="390.33" cy="73.95" rx="9.12" ry="9.5"/>
            <ellipse class="cls-19" cx="416.17" cy="72.32" rx="9.12" ry="9.5"/>
            <g>
              <path class="cls-26" d="m391.52,71.32c.04-.15.14-.28.25-.38.11-.09.23-.16.37-.19.07-.02.14-.03.21-.03.17,0,.32.11.41.25s.13.31.13.48c0,.14-.03.28-.13.38-.4.39-1.42.19-1.24-.51Z"/>
              <path class="cls-26" d="m392.26,71.46c-.05-.08-.09-.17-.11-.26.06-.02.12.02.14.08s.02.12.02.18c0,.05,0,.1-.04.13-.06.07-.19,0-.2-.09s.08-.17.17-.18"/>
            </g>
            <g>
              <path class="cls-26" d="m413.93,68.9c.04-.15.14-.28.25-.38.11-.09.23-.16.37-.19.07-.02.14-.03.21-.03.17,0,.32.11.41.25s.13.31.13.48c0,.14-.03.28-.13.38-.4.39-1.42.19-1.24-.51Z"/>
              <path class="cls-26" d="m414.68,69.03c-.05-.08-.09-.17-.11-.26.06-.02.12.02.14.08s.02.12.02.18c0,.05,0,.1-.04.13-.06.07-.19,0-.2-.09s.08-.17.17-.18"/>
            </g>
            <path class="cls-3" d="m383.46,62.08c-.05-.2-.16-.8.18-1.33.34-.54.94-.69,1.38-.8.56-.14,1.05-.09,1.33-.04"/>
            <path class="cls-3" d="m397.33,47.9c.18-.23.5-.56.98-.84.29-.17.84-.48,1.6-.49.74,0,1.3.29,1.56.44"/>
            <path class="cls-3" d="m394.71,45.01c.21-.44.63-1.09,1.38-1.51.55-.31,1.05-.36,1.82-.44.51-.06,1.24-.09,2.13,0"/>
            <path class="cls-3" d="m418.4,58.66c.24-.18.7-.46,1.33-.58.37-.07.9-.16,1.42.09.85.41,1.04,1.41,1.07,1.56"/>
            <path class="cls-3" d="m380.66,73.41c-.38-.6-.95-1.51-1.61-2.65-.98-1.71-1.1-2.08-1.75-3-.46-.66-1.17-1.65-2.37-2.65-.64-.54-1.57-1.29-3-1.81-1.92-.7-3.56-.55-4.05-.49-1.66.2-2.89.84-3.56,1.26"/>
            <path class="cls-3" d="m425.05,67.76c.25-.7.66-1.69,1.33-2.79.91-1.49,1.85-2.46,2.93-3.56.21-.22,1.24-1.12,3.28-2.93,1.61-1.42,2.2-1.94,3.14-2.58.9-.61,1.69-1.05,2.23-1.33"/>
            <path class="cls-3" d="m400.34,73.48c.2-.28.6-.76,1.26-1.12.55-.3,1.03-.37,1.33-.42.4-.06,1.12-.16,1.95.14.62.22,1.06.57,1.33.84"/>
            <path class="cls-3" d="m402.89,78.07c.41.72.88,1.55,1.42,2.44.95,1.58,1.28,2.01,1.63,2.95.34.92.63,1.74.41,2.75-.08.35-.32,1.45-1.22,1.93-.88.47-1.88.07-2.85-.31-1-.39-1.71-.94-2.14-1.32"/>
            <path class="cls-21" d="m404.4,90.88c-.3,1.05.53,2.15,1.02,2.79.35.47,1.14,1.38,3.68,2.54.63.29,2.59,1.15,5.59,1.78,1.99.41,3.53.53,4.83.64,2.08.16,3.73.15,4.57.13,1.3-.03,2.18-.11,3.81-.25,3.11-.28,4.66-.41,5.72-.76,2.16-.72,3.62-1.85,4.32-2.41,1.4-1.11,2.18-2.14,3.43-3.81.23-.31,3.6-4.84,3.05-5.33-.29-.26-1.31.89-3.43,2.03-1.01.55-4.09,2.17-7.87,2.03-2.03-.07-3.49-.62-6.22-1.65-3.51-1.32-3.23-1.83-5.21-2.29-2.54-.58-4.63-.11-8.51.76-1.49.34-2.6.73-4.83,1.52-3.05,1.09-3.73,1.57-3.94,2.29h0Z"/>
            <path class="cls-21" d="m401.99,90.88c-.52-1.45-1.71-2.21-2.03-2.41-1.45-.9-2.92-.77-4.57-.64-.61.05-2.59.26-5.08,1.4-1.47.67-2.51,1.42-4.57,2.92-3.15,2.28-2.97,2.57-4.45,3.3-2.37,1.19-4.58,1.33-5.84,1.4-1.37.07-3.3.18-5.46-.64-2.89-1.09-4.27-3.09-4.45-2.92-.23.22,2.28,3.4,5.33,6.48,1.75,1.76,2.64,2.66,3.94,3.43.75.45,3.18,1.81,6.6,2.03,2.77.18,4.75-.48,7.49-1.4,3.47-1.16,5.8-2.63,7.24-3.56,2.36-1.52,3.63-2.35,4.7-4.06.59-.94,1.94-3.11,1.14-5.33h.01Z"/>
            <path class="cls-10" d="m394.11,113.11c-.68-.69.8-3.91,3.3-5.72.35-.25,1.73-1.21,3.81-1.52,1.2-.18,3.54-.53,5.21.89,1.22,1.04,1.44,2.5,1.78,4.7.3,2,.29,4.46-.25,4.57-.47.1-.66-1.71-2.41-3.05-1.37-1.05-2.9-1.21-3.56-1.27-1.34-.13-2.52.17-4.83.76-2.31.59-2.77.92-3.05.64Z"/>
            <path class="cls-21" d="m382.05,40.08c-.53-1.43-3.06-.45-6.1-2.54-1.96-1.35-2.9-3.13-3.94-5.08-1.77-3.34-2.18-6.34-2.29-7.24-.72-6.24.89-11.05.89-11.05,0,0-2.74,2.41-2.92,2.67-1.49,2.12-1.88,4.19-2.16,5.72-.2,1.11-.51,3.35-.13,6.22.52,3.97,2.01,6.55,1.65,6.73-.33.17-1.32-2.16-3.94-4.32-.48-.39-2.07-1.65-4.45-2.54-2.82-1.05-5.17-.99-7.87-.89-1.99.07-5.97,1.14-5.97,1.14,0,0,1.67.6,4.57,2.03,2.1,1.03,3.56,2.13,4.95,3.18,1.56,1.17,1.53,1.32,4.32,3.68,3.33,2.82,4.74,3.77,4.57,4.06-.21.36-2.36-1.04-6.1-1.78-3.52-.69-6.18-.34-8.76,0-1.97.26-4.19,1.27-4.19,1.27,0,0,2.21,1.7,3.68,2.29,1.59.63,3,1,5.59,1.52,4.82.98,4.88.71,6.35,1.27,1.91.73,3.06,1.67,5.21,3.43.63.52,2.99,2.48,6.1,6.1,2.69,3.13,3.87,5.09,4.45,4.83.52-.24-.3-1.95,0-5.21.18-1.92.66-3.45,1.02-4.57.24-.75.71-2.13,1.52-3.81,2.34-4.82,4.43-5.8,3.94-7.11h.01Z"/>
            <path class="cls-21" d="m413.78,36.7c-.04-.82,1.46-.89,2.79-2.48.78-.93,1.1-2.15,1.75-4.59.48-1.8.73-3.23.83-3.82.21-1.26.57-3.55.57-6.55,0-.87-.04-3.49-.62-6.81-.33-1.86-.57-3.2-.57-3.2,0,0,1.1,2.58,1.55,3.92.64,1.9.86,2.82,1.7,5.57,1.14,3.73,1.56,4.74,1.81,4.69.24-.04.01-1.01.46-2.22.28-.75.81-1.55,2.73-2.99.68-.51,1.75-1.26,4.59-2.79,2.15-1.15,3.52-1.79,4.8-2.32,1.88-.78,3.71-1.03,3.71-1.03,0,0-.35.86-1.7,2.53-.22.27-2.28,2.81-3.41,4.33-1.29,1.75-2.09,3.18-2.73,4.33-.49.89-2.65,4.77-2.12,5.16.39.28,1.55-1.78,4.28-2.63.77-.24,1.79-.28,3.82-.36,1.88-.07,3.19-.02,4.59.05,2.76.13,4.23.62,4.23.62,0,0-1.45.79-3.61,2.63-1.21,1.03-1.16,1.31-2.79,2.73-1.37,1.2-1.5,1.08-2.48,2.01-.76.73-.79.91-2.53,3.04-1.58,1.94-1.75,2.03-2.58,3.15-.17.23-1.13,1.52-1.91,2.84-2.48,4.18-2.46,7.41-3.51,7.43-.53,0-1.06-.81-1.75-1.91-.44-.7-.5-1-.83-1.6-.51-.95-1.16-1.58-2.43-2.79-.95-.9-1.66-1.5-3.04-2.63-1.48-1.22-2.22-1.83-2.79-2.22-1.98-1.38-2.81-1.51-2.84-2.12l.03.03Z"/>
            <path class="cls-31" d="m384.01,84.45c-.21-.23-.88.46-2.35.84-1.4.35-1.9,0-2.51.53-.72.62-.69,1.7-.68,1.9,0,.2.08,1.65,1.21,2.2.97.47,2.17,0,2.73-.68.54-.65.18-1.1.68-2.58.47-1.38,1.12-1.98.91-2.2h.01Z"/>
            <path class="cls-31" d="m425.23,76.31c-.18.26.64.76,1.32,2.12.64,1.29.42,1.85,1.06,2.33.76.57,1.81.31,2,.26.2-.05,1.6-.43,1.89-1.66.25-1.05-.47-2.12-1.25-2.52-.75-.39-1.12.06-2.67-.11-1.45-.16-2.18-.66-2.35-.42Z"/>
            <path class="cls-31" d="m434.3,79.59c-.18.26.64.76,1.32,2.12.64,1.29.42,1.85,1.06,2.33.76.57,1.81.31,2,.26.2-.05,1.6-.43,1.89-1.66.25-1.05-.47-2.12-1.25-2.52-.75-.39-1.12.06-2.67-.11-1.45-.16-2.18-.66-2.35-.42Z"/>
            <path class="cls-31" d="m447.74,82.03c-.18.26.64.76,1.32,2.12.64,1.29.42,1.85,1.06,2.33.76.57,1.81.31,2,.26.2-.05,1.6-.43,1.89-1.66.25-1.05-.47-2.12-1.25-2.52-.75-.39-1.12.06-2.67-.11-1.45-.16-2.18-.66-2.35-.42Z"/>
            <path class="cls-31" d="m459.27,84.47c-.18.26.64.76,1.32,2.12.64,1.29.42,1.85,1.06,2.33.76.57,1.81.31,2,.26.2-.05,1.6-.43,1.89-1.66.25-1.05-.47-2.12-1.25-2.52-.75-.39-1.12.06-2.67-.11-1.45-.16-2.18-.66-2.35-.42Z"/>
            <path class="cls-31" d="m375.24,92.34c-.21-.23-.88.46-2.35.84-1.4.35-1.9,0-2.51.53-.72.62-.69,1.7-.68,1.9,0,.2.08,1.65,1.21,2.2.97.47,2.17,0,2.73-.68.54-.65.18-1.1.68-2.58.47-1.38,1.12-1.98.91-2.2h.01Z"/>
            <path class="cls-31" d="m369.32,99.55c-.21-.23-.88.46-2.35.84-1.4.35-1.9,0-2.51.53-.72.62-.69,1.7-.68,1.9,0,.2.08,1.65,1.21,2.2.97.47,2.17,0,2.73-.68.54-.65.18-1.1.68-2.58.47-1.38,1.12-1.98.91-2.2h.01Z"/>
            <path class="cls-31" d="m362.95,108.44c-.21-.23-.88.46-2.35.84-1.4.35-1.9,0-2.51.53-.72.62-.69,1.7-.68,1.9,0,.2.08,1.65,1.21,2.2.97.47,2.17,0,2.73-.68.54-.65.18-1.1.68-2.58.47-1.38,1.12-1.98.91-2.2h.01Z"/>
            <path class="cls-23" d="m371.65,75.59c-.65.69-3.49-1.04-3.92-1.31-.84-.52-1.48-1.05-4.22-3.82-1.53-1.55-2.3-2.32-3.31-3.41-1.13-1.21-2.29-2.47-3.72-4.22-1.57-1.93-1.2-1.68-3.11-4.12-1.79-2.27-2.44-2.9-3.11-4.42-.42-.94-1.29-2.91-.5-3.72.57-.59,1.76-.32,2.31-.2,1.28.28,2.13.99,2.61,1.41,2.63,2.27,4.32,4.52,4.32,4.52,1.65,2.2,1.6,2.38,3.21,4.62,1.01,1.4,2.48,3.28,5.42,7.03.64.82,1.37,1.74,2.21,3.11,1,1.63,2.39,3.91,1.81,4.52h0Z"/>
            <path class="cls-23" d="m446.88,40.74c.79.22.97,1.96,1.1,3.21.16,1.55-.05,2.82-.2,3.52-.23,1.04-.72,2.11-1.71,4.22-.74,1.59-.81,1.62-1.51,3.11-.58,1.25-.83,1.86-1.71,3.92-1.2,2.8-1.8,4.2-2.01,4.62-.79,1.58-.64.98-3.31,5.32-1.17,1.91-1.58,2.63-2.21,2.61-.85-.02-1.57-1.37-1.81-2.41-.28-1.19.04-2.07.6-3.82,1.42-4.46.95-3.85,1.71-5.72.92-2.29,1.16-2.04,2.61-5.12,1.34-2.84,1.17-3.12,2.51-5.83.62-1.26,1.43-2.75,2.61-4.42,1.29-1.82,2.46-3.46,3.31-3.21h.02Z"/>
            <path class="cls-19" d="m355.64,62.91c-1.77.5-2.39,2.47-3.54,4.54-.44.79-1.86,2.42-4.68,5.67-3.61,4.16-3.8,3.81-6.1,6.66-2.21,2.75-3.68,5.12-4.54,6.52-1.1,1.8-2.09,3.4-3.12,5.67-1.72,3.79-2.43,6.92-2.83,8.79-.89,4.05-1.04,7.18-1.13,9.36-.16,3.76-.28,6.39.42,9.92.86,4.29,2.41,7.35,3.12,8.65.91,1.65,2.01,3.63,4.11,5.67,2.1,2.04,4.11,3.08,6.1,4.11,2.05,1.07,3.73,1.66,7.09,2.84,1.76.62,1.78.58,6.52,2.13,2.76.9,4.48,1.48,5.95,1.98,5.54,1.9,6.35,2.33,6.95,2.69,2.23,1.33,3.62,2.82,4.68,3.97,1.13,1.22,2.69,3.14,4.82,7.23,2.68,5.15,4.04,9.46,5.1,12.9.77,2.49,1.74,5.66,2.55,9.92.35,1.84,1.16,6.46,1.42,14.88.17,5.65-.12,6.09-.28,16.3-.1,5.78-.18,10.96,0,17.72.22,8.2.56,8.58.57,15.45,0,7.56.01,11.34,0,11.48-.36,4.16-1.14,8.62.43,9.36.1.05.23.09,1.78-.04,1.72-.14,2.61-.22,3.58-.38,2.67-.45,3.03-1.07,5.49-1.64.42-.1,2.43-.54,4.92-.46,4.02.14,6.3,1.55,6.86.72.28-.41-.15-.98-.72-2.44-.37-.95-.65-2.28-1.22-4.95-.44-2.08-.9-4.87-1.35-9.51-.35-3.62-.57-7.15-.71-11.05-.06-1.85-.18-5.89-.06-14.14.12-8.64.31-8.41.39-15.1.07-6.44-.05-11.32-.19-16.84-.13-5-.23-9.22-.58-15.04-.26-4.45-.53-7.47-1.03-13.24-.31-3.61-.7-6.84-1.48-13.3-.29-2.39-.54-4.39-1.35-7.01-.89-2.86-1.92-4.79-2.89-6.56-1.61-2.95-3.79-6.93-5.91-6.68-.47.05-.56.27-1.48.45-1.49.29-2.67,0-3.28-.13-2.32-.49-2.41.13-5.91-.19-1.25-.11-2.74-.42-5.66-1.03-1.69-.35-3.64-.76-5.78-1.29-5.61-1.38-8.41-2.07-10.67-3.21-2.24-1.14-6.94-3.53-8.94-8.51-.98-2.46-.87-4.51-.65-8.61.16-3.02.37-6.86,2.35-11.22,1.61-3.54,3.69-5.9,5.74-8.22,1.48-1.68,2.94-3.32,5.22-5.22,3.38-2.81,5.84-3.89,5.61-5.35-.09-.58-.52-.72-2.09-1.96,0,0-1.87-1.47-4.57-4.18-1.86-1.87-2.79-2.8-3.78-4.31-1.17-1.78-1.64-3.11-3.13-3.65-.34-.12-1.18-.37-2.1-.11h-.02Z"/>
            <path class="cls-17" d="m394.34,129.21c-.35.22.34,1.28.27,3.28-.03.89-.2,1.59-.46,2.64-.16.68-.36,1.48-.77,2.46-.3.71-.62,1.27-1.28,2.37-.93,1.58-1.41,2.38-2.1,2.92-.38.3-.78.53-.73.64.07.16.93-.23,2.14-.27.17,0,1.31-.04,2.51.41.99.37,1.01.69,2.37,1.59,2.04,1.35,3.2,1.42,3.33,2.28.06.38-.13.71-.5,1.37-.42.75-.77.92-1.37,1.73-.38.52-.6.94-.82,1.37-.56,1.09-.72,1.91-1.14,3.83-.44,2.01-.66,3.02-.82,3.6-.68,2.51-1.27,3.66-.77,4.1.21.19.37.03,1.32.09,1.1.08,1.93.36,2.46.55.31.11.99.36,1.78.82.42.24,1.51.91,2.64,2.14.51.56.81.99,1.32,1.73,1.57,2.27,1.88,3.44,2.37,3.37.54-.07.76-1.59.82-2.05.24-1.75-.12-3.01-.36-4.19-.35-1.7-.05-1.34-.41-5.1-.3-3.13-.53-3.53-.91-6.7-.48-3.98-.17-3.64-.59-6.97-.45-3.52-.75-5.7-1.96-8.34-.87-1.89-1.86-3.27-2.37-3.96-1.17-1.6-2.14-2.55-3.55-3.92-1.9-1.85-2.27-1.87-2.41-1.78h-.01Z"/>
            <path class="cls-17" d="m414.57,127.84c-.56-.14-1.16.49-1.69,1.05-.45.47-.76.95-1.14,1.64-.42.77-.62,1.26-1.14,2.51-.88,2.1-.83,1.91-1.28,3.01-.12.29-.49,1.23-.96,2.51-.56,1.54-.89,2.44-1.18,3.46-.28.97-.47,2.14-.87,4.47-.29,1.73-.44,2.6-.55,3.55-.12,1.06-.26,2.4-.23,4.1.02.86.13,1.93.36,4.05.29,2.68.36,2.8.5,4.42.15,1.76.22,2.63.23,3.46,0,2.23-.27,3.18.23,3.46.5.28,1.44-.31,1.96-.87.82-.88.46-1.51,1.23-2.96.44-.84.95-1.37,1.91-2.37.82-.85,1.23-1.28,1.73-1.59,1.92-1.19,3.53-.4,4.1-1.37.2-.33.03-1.02-.32-2.37-.24-.92-.52-2.02-1.18-3.51-.55-1.24-.64-1.13-1.37-2.69-.87-1.85-.65-1.82-1.23-2.87-.9-1.63-1.55-1.97-1.41-2.73.13-.72.85-1.18,1.37-1.5.51-.32.85-.39,2.32-.77.85-.22,1.7-.46,2.55-.68,2.95-.78,2.67-.72,2.73-.73,1.5-.32,2.1-.31,2.19-.64s-.42-.71-1.23-1.37c0,0-1.61-1.31-2.92-2.55-.6-.57-1.7-1.63-2.55-3.33-.63-1.25-1.08-2.14-1.09-3.37,0-.6.09-1.27-.23-2.19-.16-.46-.38-1.11-.87-1.23h.03Z"/>
            <path class="cls-24" d="m405.09,147.78c.3-.02.49-.56.97-2.31.44-1.61.69-2.67.97-3.72.15-.55.38-1.42.74-2.53.55-1.68,1.08-2.93,1.41-3.72.34-.8.6-1.35,1.12-2.45.85-1.8,1.28-2.72,1.71-3.27.65-.83,1.16-1.18,1.04-1.41-.18-.35-1.58.04-2.23.22-.99.28-1.28.49-2.23.82-1.4.49-2.54.64-2.75.67-.74.1-.81.03-3.42,0-2.24-.03-2.25.02-2.75-.07-.65-.13-.78-.24-2.83-.89-1.54-.49-1.97-.59-2.16-.37-.24.27,0,.93.3,1.34.45.62.91.5,1.79,1.19.18.14.49.49,1.12,1.19.64.71.96,1.07,1.34,1.56.55.71.92,1.28,1.19,1.71.3.47.69,1.12,1.12,1.93.48.92.81,1.56,1.12,2.45.16.46.3,1.12.6,2.45.34,1.52.5,2.28.52,2.38.12.69.19,1.21.52,1.86.21.41.5.99.82.97h-.03Z"/>
            <path class="cls-17" d="m387.98,188.97c.4-1.01,1.53-1.5,1.99-1.7.4-.17,1.02-.43,1.84-.37.27.02,1.2.1,1.99.81.6.54.81,1.16,1.03,1.84.3.91.32,1.58.37,2.51.11,1.91.09.46.3,3.54.13,1.98.2,2.97.22,3.84.05,1.96-.06,1.91,0,3.84.07,2.46.15,3.47.15,3.47.12,1.68.23,2.25-.15,2.95-.43.79-1.18,1.18-1.62,1.4s-.77.29-2.58.52c-2.47.31-2.72.28-2.95.07-.12-.11-.36-.37-.37-2.66,0-1.23.06-1.65.07-2.8.02-1.4-.06-1.52-.07-2.95-.01-1.68.1-1.84.15-3.69.01-.55-.02-1.77-.07-4.21-.06-2.67-.1-4.02-.15-4.28-.19-.99-.41-1.48-.15-2.14h0Z"/>
            <path class="cls-23" d="m401.53,182.31c-.58-.13-1.12-.62-1.21-1.3-.09-.59.18-1.18.65-1.5.08-.06.53-.36,1.13-.24.62.12.93.6,1.01.73.07.11.37.62.2,1.26-.03.11-.13.48-.49.77-.54.44-1.21.3-1.3.28h0Z"/>
            <path class="cls-23" d="m401.53,198.12c-.58-.13-1.12-.62-1.21-1.3-.09-.59.18-1.18.65-1.5.08-.06.53-.36,1.13-.24.62.12.93.6,1.01.73.07.11.37.62.2,1.26-.03.11-.13.48-.49.77-.54.44-1.21.3-1.3.28h0Z"/>
            <path class="cls-23" d="m402.67,210.77c-.58-.13-1.12-.62-1.21-1.3-.09-.59.18-1.18.65-1.5.08-.06.53-.36,1.13-.24.62.12.93.6,1.01.73.07.11.37.62.2,1.26-.03.11-.13.48-.49.77-.54.44-1.21.3-1.3.28h0Z"/>
            <path class="cls-17" d="m433.2,183.88c-.2-.23-.94-.45-2.42-.9-1.28-.39-1.77-.46-2.29-.46-.49,0-1,0-1.59.27-.81.37-1.23.99-1.36,1.19-.1.15-.5.79-.56,2.12-.07,1.43.35,1.54.46,3.38v4.35c.01,1.21.05,1.67.1,2.92.03.85.04,1.76.07,3.58,0,0,.02,1.37.1,3.22.06,1.47.12,2.08.56,2.65.51.65,1.23.87,1.43.93.56.17,1.07.1,2.06-.03.45-.06.91-.16,1.83-.37,1.35-.3,1.31-.34,1.92-.43.7-.1.81-.06,1-.2.49-.38.39-1.28.27-2.29-.26-2.03-.38-3.05-.5-3.72-.09-.53-.18-1.7-.37-4.05-.2-2.61-.31-3.91-.33-5.31-.03-1.8-.05-2.71-.03-3.38.05-2.16.21-2.88-.33-3.48h-.02Z"/>
            <path class="cls-24" d="m401.84,265.22c-.29.31-.16.69-.07,2.17.05.91.04,1.59.04,2.36-.01,1.39-.02,2.08-.07,2.73-.08.98-.18,1.42.11,1.7.27.26.7.19,1.33.11.99-.13,1.99-.21,2.99-.33.87-.11,1.59-.12,3.02-.15,1.45-.03,1.7.03,2.62-.04,1.34-.1,1.31-.32,2.47-.37.58-.02.84.01,1.03-.18.34-.35.05-1-.26-2.25-.37-1.51-.16-1.48-.63-3.39-.43-1.77-.67-2.07-.96-2.25-.43-.27-.7-.07-1.84-.04-.85.02-.73-.08-3.17-.29-1.18-.1-1.79-.16-2.43-.15-.95.01-.89.1-2.14.15-1.47.06-1.76-.05-2.03.22h0Z"/>
            <path class="cls-24" d="m416.25,273.1h1.47c1.46-.07,2.19-.1,2.28-.11,1.94-.14,2-.24,3.39-.29.43-.02.89-.02,1.81-.04.97-.01,1.46-.02,1.7,0,.91.08,1.24.24,1.36.07.12-.16-.07-.47-.77-1.55-.46-.7-.94-1.42-1.22-1.84-.86-1.32-1.03-1.7-1.11-1.88-.09-.22-.3-.75-.44-1.47-.28-1.42.01-1.92-.37-2.25-.17-.15-.37-.16-1.88.07-1.56.25-1.69.32-2.51.41-.72.08-.77.04-1.77.15-1.21.13-1.07.18-1.51.18-.94,0-1.29-.23-2.1-.04-.54.13-.69.3-.74.37-.2.27-.13.58,0,1.33,0,0,.16.89.33,2.03.13.84.08.85.18,1.44.11.63.42,1.26.52,1.99.11.79-.12,1.01.11,1.25.17.18.53.18,1.25.18h.02Z"/>
            <path class="cls-22" d="m407.55,273.84c.33-.21.59-.19,2.14-.18h1.7c1.51-.07,1.76-.34,2.21-.07.13.08.24.17.99,1.44.25.42.42.68.63,1.07.34.62.56,1.04.77,1.62.27.77.43,1.2.33,1.77-.03.15-.13.78-.63,1.22-.46.4-1,.42-2.03.44-1.56.03-2.83.03-3.21.04-1.52.01-1.48.08-2.88.07-.87,0-.87-.03-2.54-.07-.85-.02-.48,0-2.62-.04-1.59-.02-1.99-.04-2.65.07-.4.07-.36.09-1.51.37-1.42.35-2.13.52-2.62.55-.8.05-2.84-.7-2.84-.7,0,0,.74-1.44,1.47-1.84.37-.2.62-.26,2.17-.55,2.08-.39,1.96-.35,2.36-.44.72-.17,1.43-.39,2.84-.85.78-.25,1.27-.42,1.73-.59,1.58-.58,1.91-.81,2.1-.96.41-.33.7-.68,1.14-1.22.67-.82.6-.94.92-1.14h.03Z"/>
            <path class="cls-22" d="m419.38,273.18c-.21.4.19.75.44,1.81.06.26.02.15.18,1.47.15,1.21.17,1.13.22,1.66.11,1.11,0,1.19.15,1.77.15.59.27,1.11.7,1.44.42.32.82.2,2.17.22.36,0,.9.04,1.99.11.52.03,1.65.11,2.84.29,1.72.27,1.63.47,3.28.74.35.06.33.04,2.95.29,2.2.21,2.17.22,2.4.22,1.22.02,2.47.05,3.83-.59.83-.39,1.38-.87,1.73-1.18.91-.8,1.3-1.48,1.44-1.73.31-.58.37-1.25.37-1.25,0,0-1.31-.67-2.32-.74-1.31-.08-1.7.12-3.83.22-.4.02-1.11.04-1.99.04-1.1,0-1.97-.06-2.54-.11-1.47-.12-2.21-.18-2.8-.41-.96-.37-1.6-.92-2.03-1.29-.65-.56-1.05-.91-1.29-1.51-.34-.86,0-1.29-.37-1.66-.34-.34-.77-.12-2.28-.07-1.2.04-1.79.06-2.54-.07-.71-.13-1.23-.32-1.95-.11-.28.08-.6.17-.74.44h-.01Z"/>
            <path class="cls-19" d="m435.03,70.76c-.19-.91,1.22-1.38,2.94-3.63.81-1.06,1.35-2.09,2.42-4.15.8-1.54,1.19-2.47,2.25-3.46.99-.92,1.39-1.16,1.73-1.21.94-.13,1.46.58,2.77,1.38.88.54.83.34,4.67,1.73,1.86.68,2.8,1.02,3.75,1.43,1.04.46,2.63,1.16,4.44,2.32,2.3,1.48,2.29,1.98,4.75,3.46,1.3.78,1.54.78,2.42,1.44,1.18.88,1.87,1.71,3.04,3.15,2.19,2.68,3.28,4.01,3.51,4.33,1.57,2.19,2.85,3.99,3.87,6.65.68,1.79.93,3.15,1.29,5.16.7,3.88.69,6.93.67,8.1-.06,3.21-.49,5.78-.83,7.38-.61,2.94-1.4,5.06-1.6,5.57-1.13,2.97-2.39,5.07-2.84,5.78-.49.78-2,3.14-4.59,5.78-2.34,2.39-2.46,1.84-5.16,4.49-2.48,2.43-2.75,3.25-5.42,5.67-.79.72-1.9,1.72-3.46,2.84-2.87,2.06-3.56,1.86-6.86,3.92-2.49,1.55-1.93,1.56-6.19,4.44-1.26.85-2.39,1.58-4.07,2.84-2.46,1.84-1.74,1.55-3.04,2.42-.77.52-1.42.88-1.91,1.7-.44.74-.52,1.44-.57,1.86-.38,3.61-.31,5.83-.31,5.83.11,3.57-.02,2.45.1,5.73.11,2.96.21,3.6.31,5.93.04.81.1,2.45.1,7.74,0,7.11-.11,6.62-.05,9.7.08,4.33.35,7.67.57,10.27.33,4.03.47,4.09,1.03,9.7.41,4.04.81,7.98,1.07,13.04.24,4.68.28,8.49.29,10.66.05,5.91-.15,5.81,0,9.41.17,4.17.59,7.93.88,10.58.47,4.28.71,6.42.73,6.54.56,2.56,1.36,4.63.51,5.29-.27.21-.52.13-1.69.07,0,0-.99-.04-3.67.07-1.51.07-1.35.21-3.97.51-2.7.31-2.79.15-4.56.44-1.98.33-1.88.54-3.67.81-2.42.36-2.32-.06-4.56.29-1.94.31-2.77.74-3.75.22-.44-.23-.8-.6-1.25-1.4-1.05-1.86-1.16-3.6-1.32-5.14-.38-3.64-.67-2.84-1.1-6.91-.2-1.9-.11-1.84-.37-5.59-.35-5.13-.54-5.74-.66-8.82-.05-1.43-.04-3.09,0-6.39.03-2.92.08-4.64.22-10.36.12-4.93.18-7.43.22-9.26.06-3.04.12-5.7.15-9.11.04-4.46.06-6.7,0-9.33-.1-4.41-.31-5.23-.81-12.79-.75-11.37-.29-9.89-.81-14.11-.42-3.4-.69-6.35-1.25-12.27-.09-.96-.26-2.93.15-5.44.25-1.52.58-2.44,1.18-4.26,1.25-3.82.65-2.37,2.72-8.75,1.45-4.45,2.13-6.37,3.6-6.69.1-.02.08,0,1.76,0,.36,0,2.66.02,3.45,0,1.6-.03,2.58-.28,4.78-.73,0,0,1.87-.39,6.69-1.25,6.63-1.19,6.38-.6,8.45-1.4,2.63-1,4.35-2.44,6.54-4.26,2.57-2.14,4.32-4.22,5.37-5.59,2.72-3.55,4.05-6.72,4.34-7.42,2.15-5.25,2.27-9.71,2.28-10.73.03-2.18.04-6.61-2.35-11.54-1.57-3.24-3.58-5.46-4.85-6.69-1.13-1.09-2.77-2.67-5.36-3.9-.93-.44-3.27-1.44-6.25-2.5-1.83-.65-2.72-.91-2.86-1.58h0Z"/>
            <path class="cls-18" d="m375.72,75.71c-1.55-.43-2.34-1.18-2.74-1.66-.28-.34-.21-.35-1.17-2.3-.82-1.65-1.01-1.91-1.12-2.59-.1-.58-.22-1.36.2-2.15.11-.21.46-.89,1.22-1.17.62-.23,1.16-.06,1.71.1.89.26,1.55.75,2,1.17"/>
            <path class="cls-18" d="m428.99,63.64c.08-.21.4-.98,1.26-1.46.23-.13.91-.47,1.8-.32.16.03,1.24.22,1.79,1.12.42.69.28,1.39.01,2.69-.13.63-.4,1.91-1.33,3.24-.54.78-1.1,1.29-1.43,1.58-.53.48-1.04.84-1.44,1.08"/>
          </g>
          <g>
            <path class="cls-18" d="m514.29,31.83c1.72-2.39,7.31-9.28,15.69-10.31,1.83-.22,4.21,0,8.97.45,6.32.6,8.08,1.36,8.97,1.79,3.47,1.71,5.41,4.26,6.16,5.28.79,1.06,3.06,4.37,3.52,9.06.28,2.84-.45,2.66-.63,8.18-.04,1.31,0,1.5.13,7.8.09,4.31.14,6.46.13,7.17-.07,4.57-.68,8.06-1.13,10.57-1.48,8.24-2.37,13.18-5.79,18.62-1.48,2.36-5.69,8.39-13.34,11.95-2.79,1.3-6.34,2.9-10.82,2.14-1.09-.18-4.92-.89-7.8-4.03-1.8-1.96-3.32-3-4.65-7.42-2.78-9.25-1.9-8.7-2.89-12.96-.53-2.27-.76-3.93-1.38-16.1-.73-14.27-.6-15.7-.38-17.23,0,0,.2-1.46.43-2.75,1.29-7.13,4.82-12.2,4.82-12.2h0Z"/>
            <circle class="cls-9" cx="543.21" cy="56.47" r="8.35"/>
            <circle class="cls-7" cx="518.08" cy="56.47" r="8.35" transform="translate(364.66 554.52) rotate(-79.1)"/>
            <path class="cls-8" d="m508.91,65.85c-.55-.74-1.3-1.77-2.14-3.02-2.05-3.06-2.32-3.96-2.39-4.78-.06-.65-.18-2.05.75-3.15,1.34-1.57,3.72-1.16,3.9-1.13"/>
            <path class="cls-8" d="m556.84,60.02c.64-.2,2.59-.9,3.9-2.89,1.08-1.64,1.13-3.26,1.13-3.65,0-.98.02-2.86-1.38-3.9-1.23-.91-2.77-.59-3.15-.5"/>
            <path class="cls-21" d="m508.58,44.05c-.55.25-1.39.02-4.21-2.29-1.8-1.48-3.05-2.7-3.22-2.86-3.18-3.09-4.76-4.63-6.75-6.05-3.29-2.34-5-3.59-5-3.59,0,0,3.17-2.92,5.61-3.42,4.44-.91,8.02.85,8.24.26.22-.58-3.32-2.5-4.03-2.89-3.16-1.72-4.82-2.8-4.82-2.8,0,0,2.6-1.49,2.98-1.58.68-.15,2.57-.55,4.64.26,2.85,1.11,3.86,3.64,4.47,3.33.62-.32-.93-2.73,0-5.35.53-1.48.44-1.91,2.36-4.45,1.19-1.58,1.11-1.64,2.93-4.42,1.4-2.15,3.74-3.4,3.74-3.4,0,0-2.14,4.73-.61,9.46.25.77.89,1.91,2.19,4.21,1.5,2.65,2.27,3.99,3.15,4.56.43.27,1.72.93,1.74,1.43.01.41-1.07.23-1.96,1.28-.48.56-.43.6-.95,1.2-.58.67-.92.96-1.29,1.33-.69.72-.94,1.45-1.65,2.35-3.76,4.76-4.74,7.8-5.64,9.48-.41.76-.29,1.09-.63,1.76-.95,1.84-1,2.05-1.31,2.19h.02Z"/>
            <path class="cls-21" d="m543.3,21.71c-.21-.56.9-1.48,2.15-2.5,1.24-1.01,1.78-1.27,2.39-1.75,2.68-2.09,3.25-5.64,3.35-6.37.25-1.83-.08-3.32-.41-4.82-.49-2.22-1.07-3.5-1.07-3.5,0,0,3.46,3.87,5.03,9.6.41,1.5.67,3.01,1.27,3.05.96.06,1.02-3.85,3.96-5.79.14-.09,1.3-.49,3.6-1.27,2.24-.76,3.4-1.12,4.82-1.42,1.67-.35,3.45-.25,3.45-.25l-3.2,3.1c-2.87,2.3-3.37,2.48-4.26,3.6-1.17,1.48-1.66,2.87-1.93,3.66-.5,1.47-1.18,4.31-.46,4.67.69.34,1.62-2.07,4.52-3.5,1.95-.97,3.72-.97,6.5-.96,1.58,0,5.74,1.12,5.74,1.12,0,0-.72,1.2-2.03,2.18-2.03,1.51-3.79,2.28-3.81,2.28-3.79,1.64-6.74,4.74-7.31,5.33-3.17,3.32-4.52,4.67-7.21,7.36-.08.08-.27.26-.51.25-.6-.02-.93-1.23-1.51-2.56-.38-.87-.8-1.56-1.65-2.94-.64-1.04-1.49-2.43-2.94-3.79-.56-.53-1.67-1.26-3.89-2.72-1.44-.95-1.89-1.18-2.48-1.38-1.26-.42-1.98-.26-2.13-.67h.02Z"/>
            <path class="cls-21" d="m508.86,76.98s1.48.86,3.36.96c.33.02.6,0,.69,0,1.14-.05,2.11-.36,2.65-.62,1.08-.52,1.64-1.37,2.56-2.82,1.39-2.2.99-2.58,2.03-3.79,1-1.16,2.15-1.72,3.35-2.29,1.76-.85,3.22-1.1,3.53-1.15,1.54-.25,2.75-.44,4.06.09,2.07.84,2.96,2.93,3.44,4.06.38.88.92,2.21.71,3.97-.04.33-.28,2.08-1.68,3.7-1.24,1.44-2.69,1.97-3.35,2.2-1.33.47-2.51.52-4.76.35-2.78-.2-4.6-.33-7.23-.97-5.69-1.38-9.35-3.7-9.35-3.7h-.01Z"/>
            <path class="cls-11" d="m524.34,274.77l6.02-.05s.68,11.18-3.01,12.38c-1.83.6-3.12-.9-7.67-.63-.72.04-1.47.13-2.82.15-1.4.02-2.34-.05-4.32-.19-3.44-.25-5.17-.37-5.58-.39-3.17-.12-4.85-.1-4.85-.1,0,0,2.61-.41,6.94-1.41,4.86-1.12,4.94-1.64,6.75-1.55.6.03,1.88.15,3.25-.49.59-.27,1.08-.63,1.6-1.02.51-.38.76-.62,2.04-1.8,1.69-1.57,1.76-1.62,1.84-1.84.52-1.32-.19-3.06-.19-3.06h0Z"/>
            <path class="cls-11" d="m540.9,274.77s.82-.14,3.16-.39c2.45-.26,3.2-.34,3.2-.34,0,0,.63,2.98,2.38,4.32.69.53.74.11,2.57.87,2.07.86,2.43,1.56,3.98,1.84.91.17.98-.04,2.28,0,2.16.07,2.75.67,4.66,1.02,3.36.62,5.87.19,5.87.19,0,0-.72,1.17-1.07,1.46-1.11.9-2.32,1.19-4.17,1.46-1.61.23-2.93.41-5.1.44-2.8.03-2.96-.24-5.19-.1-1.66.11-1.54.26-3.84.44-1.21.09-2.71.17-4.51,0-1.81-.17-2.38-.43-2.77-.68-1.04-.66-1.52-1.62-1.7-2.04-.43-1.02-.23-1.6-.15-3.69.14-3.44.39-4.81.39-4.81h.01Z"/>
            <path class="cls-9" d="m520.1,104.27c-3.66-1.62-7.88.51-12.13,2.66-1.93.97-4.82,2.46-7.85,5.43-.65.63-3.17,3.16-5.43,7.39-2.03,3.79-2.76,7.24-4.16,13.98-.8,3.85-1.58,7.66-1.96,12.94-.35,4.9-.18,8.65,0,12.47.21,4.41.31,6.62.81,9.36.75,4.1,1.84,6.91,3.81,12.01.31.79,1.67,3.85,4.39,9.93,2.52,5.63,3.79,8.45,4.74,8.32.66-.09,1.18-1.98,1.28-2.32.16-.57.21-1.01.22-1.14.43-4,.82-4.72,1.04-9.01.1-1.86,0-1.32.11-7.05.05-2.54.08-3.81.11-4.62.3-7.01,1.22-8.11,1.05-13.17-.04-1.17-.09-1.06-.3-4.82-.15-2.77-.23-4.15-.28-5.8-.03-1.01-.05-1.76-.12-3.02-.01-.2-.09-1.56-.23-2.99-.18-1.84-.69-6.36-.92-6.35-.71.03,1,42.8-.35,61.91-.05.68-.31,4.36-.58,9.36-.37,6.91-.58,10.84-.58,15.94,0,6.85.37,7.13.23,13.4-.08,3.74-.3,7.31-.46,9.93-.67,10.95-1.21,12.27,0,13.4,1.4,1.31,6.57.16,16.86-2.19,3.8-.87,5.38-1.3,8.2-1.62,5.89-.66,9.08,1.68,10.51,0,.86-1.01-.11-1.9-.12-7.28,0-2.11.15-2.06.23-5.66.03-1.25.06-3.31,0-5.78-.05-2.07-.14-3.82-.35-6.82-.52-7.55-.66-7.07-.81-10.4-.25-5.59.22-5.41-.12-10.16-.32-4.64-.77-4.88-.81-8.55-.03-3.18.3-3.3.46-8.2.09-2.74.05-4.8,0-7.97-.05-2.7-.13-4.85-.23-7.51-.09-2.36-.14-3.66-.23-5.31-.24-4.35-.43-5.17-.81-10.28-.42-5.76-.24-5.53-.58-8.55-.45-4.06-.74-4.02-1.27-8.2-.61-4.84-.28-5.25-.92-11.2-.39-3.57-.47-3.1-1.04-7.97-.69-5.95-.52-6.28-1.04-8.66-.53-2.44-1.15-5.2-3-8.32-1.77-2.99-3.78-4.81-4.5-5.43-1.24-1.07-1.91-1.65-2.89-2.08h.02Z"/>
            <path class="cls-9" d="m543.6,99.24c2.11-.78,3.89,0,8.07,1.59,4.14,1.56,4.1,1.44,5.01,1.96,1.15.65,1.81,1.2,4.28,3.3,3.47,2.96,5.21,4.44,5.5,4.77.74.84,1,1.28,4.16,7.09,3.22,5.93,3.56,6.6,4.03,7.95.32.9.43,1.36,1.59,6.36,1.18,5.07,1.76,7.61,1.83,7.95.92,4.44,1.63,7.86,1.96,12.47.26,3.65.15,6.34.12,6.97-.12,2.78-.25,5.8-1.22,9.41-.82,3.07-1.21,2.69-3.3,8.68-1.3,3.72-1.09,3.7-1.96,5.75-1.58,3.73-2.31,3.89-3.42,7.09-.91,2.61-1.27,4.93-1.71,4.89-.18-.02-.29-.43-.38-.91-.59-2.92-.53-5.56-.57-7.39,0-.27-.05-1.12-.15-2.82-.19-3.48-.29-5.22-.48-7.09-.28-2.68-.63-4.73-.74-5.38-.29-1.64-.34-1.62-.7-3.6-.23-1.26-.59-3.29-.89-5.81-.19-1.6-.09-1.23-.44-4.61-.17-1.63-.36-3.38-.41-3.82-.17-1.56-.16-1.37-.25-2.21-.27-2.53-.43-4.43-.48-5.12-.05-.6-.03-.4-.19-2.68-.12-1.63-.24-3.38-.3-4.05-.28-3.48-.92-6.73-.98-6.72-.22.03,6.91,52.45,6.6,73.6-.14,9.51-.49,14.43-.49,14.43-.27,3.7-.64,7.35-.98,13.69-.06,1.17-.18,3.48-.24,6.48-.08,3.79-.12,5.69,0,7.09.46,5.31,2,7.83.98,8.56-.85.6-2.02-1.09-5.26-1.47-1.81-.21-2.09.24-5.38.49-2.11.16-2.66.02-6.24,0-4.43-.03-6.64.08-6.97.12-1.65.23-3.09.6-4.03-.24-.66-.59-.93-1.65-.97-1.82-.22-.9-.08-1.65-.05-1.85.12-.7.15-3.96.22-10.47.05-4.46-.25-8.15-.38-9.81-.23-2.95-.41-4.61-.41-4.61-.24-2.24-.36-2.86-.44-4.37-.07-1.3-.03-1.81,0-4.11.04-3.27.06-4.91-.02-6.08-.2-3.16-.63-3.24-.82-6.43-.03-.45-.09-1.7.05-5.22.15-3.88.35-5.25.47-7.53.06-1.07.07-1.75-.24-10.5-.19-5.55-.29-8.35-.39-9.97-.15-2.3-.19-2.36-.78-9.27-.65-7.57-.63-7.93-.92-10.77-.14-1.32-.26-2.38-1.3-10.35-1.24-9.49-1.65-12.42-1.87-17.03-.26-5.47.04-7.24.17-7.9.53-2.86,1.84-5.36,4.45-10.36,1.79-3.43,3.77-6.7,6.84-8.1.13-.06.25-.11.43-.18v-.04Z"/>
            <path class="cls-17" d="m502.92,220.66c.43.34,2.06-.12,5.3-1.03,3.23-.91,3.99-1.26,4.64-1.62,1.08-.59,2.43-1.35,3.31-2.58,1.52-2.12.41-4,.15-10.09-.19-4.3.34-3.87.07-8.18-.29-4.66-.89-4.92-.59-7.81.17-1.58.47-2.63-.15-3.17-.74-.64-1.99.16-5.01,1.03-4.28,1.24-5.04.57-5.97,1.62-1.12,1.27-.32,2.6-.29,7.51.02,2.75-.23,2.21-.44,7.07-.25,5.94.17,5.59-.15,8.62-.56,5.36-2.02,7.73-.88,8.62h.01Z"/>
            <path class="cls-17" d="m556.77,185.52c.68-.91,1.88-1.14,4.27-1.62,2.77-.55,5.2-1.03,6.41.22.55.57.43,1.07.52,5.01.07,3.25.14,2.23.22,6.41.06,3.2,0,3.09.07,4.57.16,3.59.46,3.56.52,6.04.09,3.84-.61,3.98-.37,7.22.23,3.14.95,3.89.29,4.79-.92,1.26-3.2.97-7.29.44-3.49-.45-5.25-.69-6.11-1.84-.69-.91-.67-1.89-.07-6.56.47-3.7.92-6.63,1.18-8.4.68-4.71,1.03-7.07.96-8.25-.27-4.48-1.86-6.35-.59-8.03h-.01Z"/>
            <path class="cls-17" d="m511.55,121.3s1.7-2.25,4.65-7.47c1.5-2.65,2.34-4.15,3.07-6.47.76-2.44,1.33-3.65,1.33-3.65,0,0,5.29,3.62,7.3,8.05.79,1.73,1.33,3.49,2.32,9.96.72,4.71.83,6.37,1.49,11.54,1.07,8.39,1.61,12.58,2.07,15.6.97,6.25.58,9.21.58,9.21,0,0-2.73-2.15-8.3-5.98-3.56-2.44-5.65-3.84-8.55-3.9-3.38-.07-5.98,1-5.98,1l2.66-6.97c1.68-3.28,2.18-3.02,2.74-4.32.55-1.27,1.07-2,1.74-5.48.64-3.28.87-2.35,1.16-3.57.89-3.7.75-4.15.75-4.15l-9.05-3.4h.02Z"/>
            <path class="cls-17" d="m542.49,98.93s.19,1.35,1.22,4.9c.12.43.52,1.54,1.3,3.75.8,2.25,1.2,3.39,1.38,3.67,1.52,2.47,3.52,3.75,3.52,3.75,0,0-1.74.49-4.06,1.91-.34.21-1.17.93-2.83,2.37-2.16,1.87-1.55,1.44-2.99,2.68-1.8,1.55-2.14,2.14-2.14,2.14,0,0,1.14,1.24,2.91,3.21.73.81,1.59.56,2.76,2.6.94,1.66,1.31,1.9,2.99,4.36,1.61,2.38,2.37,4.29,2.37,4.29,0,0-1.29,1.82-3.9,4.59-1.49,1.58-2.43,2.87-3.52,4.36-1.87,2.56-3.17,4.82-3.98,6.35-1.46,2.76-1.99,4.21-1.99,4.21,0,0-.47-3.71-1.38-10.26-.47-3.37-.62-3.05-1.15-6.81-.73-5.17-.4-5.38-1.07-10.18-.67-4.78-1.1-5.24-1.07-7.96.04-3.03.61-5.35.92-6.58.23-.89,1.02-3.87,3.37-8.19,1.74-3.21,7.35-9.18,7.35-9.18v.02Z"/>
            <path class="cls-5" d="m520.91,103.24c.06-.08.72.48,1.92.96.79.32,1.39.43,2.49.64,1.01.19,1.79.34,2.88.37.62.02,1.68.04,3-.23.68-.14.7-.21,2.89-.96,2.18-.74,2.18-.68,2.77-.96,1.69-.79,2.58-1.73,2.68-1.62.11.12-.96,1.08-2.38,3.04-.4.56-.79,1.13-1.35,1.97-.59.88-.88,1.31-1.14,1.74-.32.53-.85,1.46-1.4,2.68-.29.65-.47,1.12-.82,2.02-.28.73-.54,1.42-.83,2.36-.3.97-.46,1.46-.57,2.09-.2,1.14-.11,1.67-.27,1.7-.3.06-.93-1.81-1.26-3-.36-1.29-.29-1.5-.62-2.54-.21-.68-.58-1.66-1.17-2.7-.7-1.23-1.4-2-2.79-3.5-.87-.94-1.73-1.79-1.95-2.01-1.28-1.25-2.15-1.98-2.08-2.08v.03Z"/>
            <path class="cls-24" d="m518.55,261.01c-.51.68.27,1.44.37,3.47.06,1.12-.18.95-.31,3.07-.13,2.13.11,2.12-.08,3.51-.23,1.66-.66,2.23-.29,2.66s1.07.16,2.54.12c1.65-.04,1.53.28,3.63.39,2.26.12,2.22-.26,4.56-.1,1.2.08,1.64.21,2.66.12.55-.05,1.03-.14,1.86-.1.84.04.9.16,1.18.08.64-.18.96-1.03,1.53-3.59.53-2.41.8-3.61.8-4.52,0-1.75-.36-1.75-.33-3.78.03-1.64.28-2.21-.17-2.7-.41-.45-.89-.26-3.14-.47-1.64-.15-1.58-.27-2.78-.33-1.39-.07-2.45.05-3.14.12-.97.11-1.86.3-3.65.68-2.18.47-1.57.42-3.05.72-1.61.32-1.93.29-2.19.64h0Z"/>
            <path class="cls-24" d="m537.09,259.61c.53-.81,1.31-.62,1.69-1.4.52-1.07-.42-2.39-.12-2.56.26-.15.8,1,2.04,1.3.4.1.83.04,1.69-.06,1.19-.15,1.46-.34,2.31-.41.75-.06.84.06,1.98.12,1.7.1,2.35-.13,4.56-.02.92.05,1.24.11,1.53.35.5.42.35.89.83,2.18.43,1.15.65,1.06.93,2.03.25.87.1,1.06.35,2.08.2.81.41,1.14.67,1.82.42,1.1.38,1.52.73,3.29.65,3.23,1.19,3.71.77,4.31-.34.49-.84.41-3.42.67-3.11.32-3.14.51-5.24.61-2.17.1-1.83-.12-3.48,0-1.35.1-3.45.38-5.59.86,0,0-1.25.28-3.07.13-.78-.07-1.05-.17-1.18-.38-.28-.47.39-1.07,1.02-2.56.5-1.17.65-2.17.77-2.88.11-.7.13-1.36.16-2.65.04-1.76.06-2.64,0-3.8-.11-2-.32-2.42.07-3.02h0Z"/>
            <path class="cls-4" d="m519.4,57.06s-.62-.34-.64-.83c0-.24.14-.44.45-.83.32-.42.49-.63.77-.77.42-.21.83-.13,1.22-.06.44.08,1.24.22,1.41.77.11.34-.08.68-.13.77-.16.28-.41.41-.64.51-1,.46-1.76.81-2.43.45h0Z"/>
            <path class="cls-4" d="m541.12,55.9c-.37-.13-.48-.67-.51-.83-.1-.49.06-.88.13-1.03.14-.32.33-.52.38-.58.1-.1.63-.6,1.22-.51.36.05.77.32.77.32l.32,1.09s-.26.45-.58.77c-.36.36-.74.51-1.09.64-.32.12-.48.18-.64.13h0Z"/>
            <path class="cls-3" d="m526.57,57.43c.25-.34.74-.92,1.61-1.36.67-.34,1.27-.44,1.72-.52.66-.11,1.55-.25,2.58.03,1.15.32,1.84.99,2.13,1.32"/>
            <path class="cls-3" d="m509.03,54.35c-.35-.56-.87-1.33-1.55-2.22-.81-1.05-1.22-1.58-1.8-2.01-.35-.26-1.4-1.01-2.91-1.11-1.11-.08-1.89.23-2.98.65-1.34.52-2.37.92-2.79,1.93-.27.65-.18,1.29-.08,1.7"/>
            <path class="cls-3" d="m551.41,53.7c.78-.73,1.81-1.66,3.05-2.7,1.74-1.47,2.42-1.92,2.77-2.15,1.37-.88,2.39-1.52,3.84-1.66.89-.09,1.55.05,2.36.21,2,.4,3.44,1.3,4.05,1.68.3.19.53.35.69.47"/>
            <path class="cls-3" d="m526.87,30.64c.27-.37.75-.91,1.52-1.21.72-.28,1.38-.24,1.97-.21.1,0,.54.04,1.1.17.6.14,1.08.33,1.43.49"/>
            <path class="cls-3" d="m528.32,35.62c.46-.15.86-.26,1.18-.35,1.39-.37,1.77-.36,2.04-.31.42.07.75.24.97.38"/>
            <path class="cls-3" d="m518.87,89.06c1.12-.2,1.99-.51,2.6-.76.66-.28,1.19-.58,1.44-.72.48-.27.82-.49,1.29-.81.38-.25.89-.6,1.49-1.04"/>
            <path class="cls-3" d="m522.96,87.99c.09.2.23.5.38.87.31.74.37.96.62,1.56.3.69.45,1.04.66,1.32.41.54.9.85,1.18,1,.8.43,1.54.45,1.8.45.3,0,.59-.04,1.18-.14.52-.08.95-.17,1.25-.24"/>
            <path class="cls-21" d="m535.62,72.83c0-.63,0-1.61.62-2.53.5-.74,1.14-1.07,2-1.51,1.46-.75,2.77-.95,3.6-1.07.41-.06,1.23-.08,2.89-.13,2.54-.08,2.96-.04,3.47.09.7.17,1.73.43,2.45,1.29.51.61.29.84.89,1.96.32.61.86,1.62,1.91,2.31.6.39,1.13.51,2.18.76.78.18,1.89.43,3.2.36,2.37-.14,3.87-.76,3.87-.76,0,0-.07,1.63-.62,2.93-.54,1.26-.96,2.26-1.91,3.16-.93.87-1.98,1.17-4.09,1.78-1.71.49-3.29.94-5.47.93-1.31,0-2.3-.2-4.27-.58-2.06-.4-3.24-.63-4.71-1.29-1.04-.47-2.27-1.02-3.47-2.22-.42-.42-2.51-2.51-2.53-5.47h0Z"/>
            <path class="cls-26" d="m531.15,65.94c.57.67,1.1,1.17,1.5,1.5.7.59,1.08.91,1.72,1.13.79.27,1.48.21,1.93.16.88-.09,1.78-.19,2.36-.91.66-.83.46-1.91.43-2.09-.1-.55-.34-.92-1.23-1.99-1.44-1.72-2.18-2.58-3.01-3.01-.42-.22-1.26-.63-2.36-.59-.63.02-1.13.19-1.34.27-.63.24-1.08.57-1.34.8"/>
            <circle class="cls-23" cx="531.29" cy="178.88" r="1.93"/>
            <circle class="cls-23" cx="531.29" cy="193.63" r="1.93"/>
            <circle class="cls-23" cx="531.29" cy="209.91" r="1.93"/>
          </g>
          <g>
            <path class="cls-21" d="m109.38,29.54c-.01-.38,1.06-.32,2.06-1.3.34-.33.27-.39,1.21-1.75.62-.9.65-.88,1.03-1.44.52-.77.85-1.41,1.48-2.65.66-1.29.99-1.94,1.21-2.56.1-.29.46-1.32.67-2.74.07-.5.22-1.66.13-3.18-.07-1.25-.23-1.51-.4-2.83-.29-2.21-.04-4.48-.04-4.48,0,0,.83,2.34.94,4.71.03.63.02,1.24.22,2.15.2.88.34.95.67,2.15.38,1.4.24,1.51.58,2.2.09.17.4.61,1.03,1.48.31.43.41.56.58.58.42.06.81-.6,1.3-1.35,0,0,.94-1.4,1.93-2.51.89-1,1.78-1.55,2.6-2.06.69-.43,1.46-.78,3-1.48,1.26-.57,1.89-.86,2.65-1.12,1.29-.45,1.46-.37,3-.9,1.33-.45,1.97-.63,1.97-.63,0,0-1.09,1.13-2.06,1.88-.92.71-1.02.73-1.66,1.26-.5.41-1.24,1.06-2.02,1.93-.64.71-1.07,1.31-1.93,2.51-.6.84-.9,1.27-1.26,1.88-.23.41-1.31,2.3-.99,2.56.25.2.97-.88,2.6-1.44.3-.1.57-.16,2.74-.31,1.97-.14,2.95-.2,3.5-.18.95.04.63.11,3.5.45.67.08,1.25.14,2.06.31,1.32.28,2.24.85,2.24.85,0,0-.83.85-2.6,1.75-1.47.74-1.69.74-2.56,1.26-.77.46-.74.55-2.29,1.7-1.73,1.29-1.96,1.33-3.14,2.29-.66.54-1.19.97-1.84,1.66-.39.41-.39.46-2.02,2.56-.95,1.22-1.13,1.44-1.35,1.93-.25.55-.35,1.05-.54,2.02-.26,1.33-.2,1.54-.4,2.6-.31,1.64-.46,2.46-.99,2.92-.79.69-2.13.79-3,.27-.4-.24-.68-.73-1.21-1.7-.67-1.22-.77-1.67-1.3-2.69-.29-.55-.76-1.46-1.52-2.42-.86-1.08-1.68-1.73-2.56-2.42-1.28-1.01-1.95-1.56-3.05-2.02-.26-.11-.89-.33-2.15-.76-1.57-.54-2.06-.69-2.06-.94h.04Z"/>
            <path class="cls-18" d="m71.37,44.12c2.45-6.53,7.62-10.06,9.06-11.02,3.8-2.52,7.12-3.15,12.97-4.26,4.89-.93,8.88-1.69,14.04-.71,2.91.55,6.99,1.32,10.66,4.62,4.38,3.94,5.5,9.06,6.04,11.55.5,2.3.45,4.79.36,9.77-.11,5.69-.61,10.2-1.07,14.21-.3,2.62-.55,4.88-1.07,8-.88,5.36-1.89,9.38-3.02,13.86-.69,2.72-1.3,5.12-2.31,8.35-1.6,5.11-2.4,7.66-3.55,9.24-3.39,4.64-8.69,6.05-10.66,6.57-2.53.67-6.57,1.74-10.84,0-3.6-1.47-5.54-4.19-8-7.64-1.98-2.77-3.01-5.09-4.44-8.35-1.64-3.73-1.93-5.17-4.26-11.9-3.32-9.58-3.32-8.34-3.91-11.02-.87-3.96-1.06-7.47-1.42-14.04-.15-2.73-.22-4.09-.18-5.86.1-3.99.19-7.62,1.6-11.37Z"/>
            <path class="cls-18" d="m69.49,63.44c-.41,0-1.88-.04-3.11-1.15-1.28-1.15-1.43-2.66-1.49-3.25-.04-.42-.15-1.58.47-2.84.11-.22.51-1,1.35-1.69,1.18-.97,2.48-1.17,3.04-1.22"/>
            <path class="cls-18" d="m124.97,47.85c1.15.37,2.04.81,2.64,1.15,1.05.6,1.59.91,1.96,1.56.43.74.4,1.47.34,2.71-.04.84-.08,1.65-.54,2.57-.37.74-.84,1.19-1.22,1.56-.57.55-1.19,1.14-2.17,1.35-.59.13-1.1.07-1.42,0"/>
            <path class="cls-21" d="m96.59,73.85c-.16-.54-.58-2.02-1.89-3.11-1.48-1.24-3.22-1.27-4.33-1.29-.77-.01-2.31-.02-3.92.88-1.38.77-2.11,1.8-2.84,2.84-.46.65-1.18,1.69-1.62,3.18-.62,2.09-.01,2.7-.81,4.53-.57,1.31-1.33,2.02-1.49,2.17-.39.35-1.26,1.14-2.57,1.35-.28.04-.64.07-1.69-.07-2.09-.28-3.1-1.21-3.1-1.21,0,0,2.1.98,4.73,2.63.6.37,1.04.71,1.89,1.08.24.1,1.26.54,3.04.81,1.53.23,2.67.41,4.13.14,1.39-.26,2.35-.79,3.72-1.56.96-.53,1.91-1.06,2.98-2.03.77-.69,2.21-2.17,3.18-4.47.36-.85.86-2.07.88-3.72,0-.43,0-1.21-.27-2.17l-.02.02Z"/>
            <path class="cls-21" d="m98.21,74.25c.28-1.41,1.39-2.26,2.57-3.18,1.4-1.08,2.72-1.51,4.13-1.96.96-.31,2.22-.7,3.92-.74,1.07-.03,1.96-.04,2.98.41,1.13.49,1.78,1.26,2.37,1.96,1.36,1.63,1.12,2.41,2.3,3.65.75.78,1.47,1.13,2.64,1.69,1.27.61,3.17,1.52,5.48,1.29,1.66-.17,2.77-.54,2.77-.54,0,0-1.14,1.82-2.5,2.84-1,.75-1.99,1.26-4.67,2.3-2.79,1.08-4.18,1.63-5.14,1.83-3.12.65-5.68.32-6.77.14-1.76-.3-3.9-.66-5.95-2.3-1.08-.86-1.71-1.74-2.17-2.37-1.17-1.64-2.32-3.24-1.96-5.01h0Z"/>
            <path class="cls-26" d="m95.85,88.06c.84-.27,1.72.53,2.1.88.81.74,1.09,1.61,1.22,2.03.21.7.54,1.75,0,2.71-.08.14-.56.99-1.42,1.08-.81.09-1.44-.55-1.76-.88-.8-.82-.95-1.78-1.15-2.98-.18-1.12-.04-1.58.07-1.83.09-.2.36-.82.95-1.01h0Z"/>
            <path class="cls-28" d="m76.36,49.26c.03-.32.1-.63.2-.93l-.09.25c.12-.33.28-.63.49-.91l-.18.24c.16-.21.34-.4.54-.57l-.26.22c.15-.12.3-.23.47-.32l-.32.18c.15-.08.31-.15.47-.21l-.38.13c.15-.05.3-.09.45-.12l-.39.07c.16-.03.31-.04.47-.05h-.37.11c.4,0,.77-.04,1.14-.21.26-.12.63-.35.76-.63.11-.23.15-.5-.03-.71s-.52-.34-.81-.34c-1.48-.02-2.97.49-4,1.59-.66.71-1.12,1.62-1.2,2.6-.06.68.77.87,1.3.8.38-.05.78-.16,1.09-.39.22-.17.5-.4.53-.7h0Z"/>
            <path class="cls-28" d="m111.57,43.25c.05-.04.1-.08.16-.12l.09-.06c.15-.1-.15.08-.16.09.08-.02.17-.08.25-.12.2-.09-.15.07-.17.06,0,0,.14-.04.15-.04.04,0,.08-.02.12-.03.17-.04-.3.05-.26.05.03,0,.07,0,.1-.02.07,0,.17,0,.24-.02-.03,0-.36,0-.17,0,.06,0,.12,0,.18,0,.04,0,.23.03.03,0s0,0,.04.02c.06.02.34.12.13.04s.03.02.08.05c.07.04.14.08.2.12.35.23.69.47,1.01.74l-.2-.17c.12.1.24.21.36.32.51.47,1.35.42,1.95.13.28-.14.62-.33.76-.63.1-.21.17-.52-.03-.71-.42-.39-.86-.75-1.33-1.07-.54-.37-1.08-.6-1.73-.71-1.24-.2-2.66.18-3.65.95-.22.17-.48.4-.53.7-.04.26.1.51.33.63.59.33,1.54.19,2.07-.22h-.02Z"/>
            <path class="cls-28" d="m92.51,40.12c.05-.11.11-.22.17-.33l-.11.18c.13-.21.29-.4.47-.56l-.2.18c.07-.06.14-.12.22-.17l-.27.17c.06-.04.12-.07.18-.1l-.33.15c.06-.03.13-.05.19-.07l-.38.12c.07-.02.15-.04.22-.06l-.39.08c.1-.02.21-.04.31-.05l-.36.03c.1,0,.2-.02.3,0,.19,0,.37-.03.56-.08.2-.03.39-.09.57-.17.17-.06.32-.14.46-.24.13-.07.23-.16.33-.26.11-.14.2-.34.03-.49-.21-.17-.51-.16-.76-.17s-.51.03-.76.06-.51.09-.75.16c-.36.11-.72.23-1.06.42-.67.37-1.22.94-1.53,1.64-.09.2.11.35.27.41.14.05.27.07.42.06.17,0,.35,0,.52-.03.38-.06.77-.17,1.1-.36.23-.13.46-.28.57-.52h.01Z"/>
            <path class="cls-28" d="m90.71,36.89c.02-.12.04-.23.08-.34.02-.06.04-.12.07-.18.02-.04.04-.08.06-.11.04-.07.03-.05-.03.05.03,0,.14-.17.17-.2.14-.15-.2.16,0,0,.09-.08.19-.15.28-.22.22-.17.45-.33.69-.48.17-.11,0,0-.07.04.07-.03.14-.08.2-.11.11-.06.23-.13.35-.19l.18-.09c.2-.1-.29.11-.14.06.04-.02.09-.03.13-.05-.28.09-.37.12-.25.08.12-.03.03,0-.26.05.21-.03-.38.03-.09,0,.21,0-.12.02-.15,0,.01,0,.14,0,.15.02.17.02-.18-.05-.05,0,.05.02.11.03.16.04.07.02.14.05.21.08.02,0,.21.1.11.05.55.31,1.33.14,1.89-.09.27-.11.61-.25.8-.49.09-.12.23-.36.03-.47-.65-.36-1.35-.53-2.1-.47-1.02.08-1.93.46-2.8.96-.65.37-1.28.81-1.84,1.32-.35.32-.58.75-.65,1.21-.08.56.86.47,1.2.42.38-.07.77-.17,1.1-.36.18-.1.54-.28.58-.51h0Z"/>
            <path class="cls-21" d="m70.2,44.72c-1.49-1.08-3.15-2.98-3.15-2.98-.66-.76-1.65-1.48-3.64-2.93-1.1-.81-1.67-1.21-2.28-1.47-.36-.15-1.17-.44-3.8-.6-2.3-.13-2.28.06-3.47-.11-.3-.04-3.96-1.68-3.96-1.68,0,0,.82-1.03,2.55-2.17,1.19-.78,1.79-1.17,2.55-1.52.77-.35,2.25-1,4.29-1.09.6-.03,1.73-.06,3.09.33,2.06.59,3.17,1.74,3.31,1.57.15-.17-1.26-1.34-2.88-3.58-.79-1.09-1.34-2.05-1.79-2.82-.61-1.05-.4-.79-1.63-3.09-.79-1.49-.87-1.95-.87-1.95,0,0,1.71.6,3.64,1.79,1.5.93,1.74,1.2,2.6,1.47.68.21,1.11.22,1.79.6.64.35,1.04.77,1.47,1.25,1.79,2.02,2.26,3.25,2.6,3.15.37-.11-.09-1.53.33-3.85.26-1.47.76-2.6.98-3.09.58-1.31.76-1.18,1.46-2.66.74-1.54.63-1.87,1.41-3.36.26-.51.62-1.18,1.21-1.96,1.12-1.48,2.54-2.38,2.54-2.38,0,0-3.1,2.46-3.09,5.48,0,.64.15,1.21.16,2.82,0,.87-.04,1.28.05,2.06.05.4.14,1.15.43,2.01.21.61.33.7,1.14,2.17.9,1.64.95,1.86,1.52,2.71.49.73.74,1.1,1.14,1.47.82.75,1.43.82,1.47,1.25.03.35-.35.57-1.48,1.41-.5.37-1.65,1.23-2.61,2.07-.71.63-1.2,1.16-1.54,1.52-.86.93-1.44,1.69-1.95,2.38-.57.76-.86,1.15-1.22,1.75-.28.47-.5.93-.95,1.84-.37.76-.56,1.14-.61,1.36-.11.49-.1.91-.34,1-.18.07-.4-.08-.49-.15l.02-.02Z"/>
            <circle class="cls-19" cx="108.29" cy="57.64" r="7.78"/>
            <circle class="cls-19" cx="85.02" cy="59.42" r="7.78"/>
            <path class="cls-3" d="m95.41,69.86c.83.32,1.53.54,2.06.69,1.06.29,1.36.29,1.65.21.83-.24,1.2-1.03,1.24-1.1.27-.58.16-1.11,0-1.92-.15-.74-.38-1.26-.62-1.78-.09-.19-.45-.97-1.1-1.92-.37-.53-.88-1.21-1.58-1.92"/>
            <path class="cls-26" d="m92.89,59.65c.23-.26.76-.75,1.64-1.05,1.01-.34,1.9-.22,2.25-.17.35.05.64.13,1.46.44.64.24,1.5.59,2.52,1.05"/>
            <path class="cls-23" d="m86.36,59.67c-.3-.12-.3-.53-.3-.6,0-.21.08-.58.35-.65.16-.04.32.03.42.12.14.13.14.32.15.55,0,.2,0,.32-.07.42-.12.16-.36.23-.55.15h0Z"/>
            <path class="cls-23" d="m109.49,56.73c.22-.12.48-.03.62.1.13.11.23.3.2.5-.02.13-.1.21-.17.3-.1.11-.23.26-.4.25-.24,0-.38-.31-.42-.4-.04-.08-.09-.2-.07-.35,0-.03.04-.28.25-.4h-.01Z"/>
            <path class="cls-24" d="m85.22,112.44c-.2.49.49,1.12,2.23,2.89.98,1,1.73,1.76,2.49,2.63.58.66,1.27,1.43,2.04,2.49,1.14,1.58,1.81,2.91,2.23,3.74.64,1.27,1.02,2.25,1.77,4.2.58,1.49.97,2.63,1.31,3.61.83,2.4,1.64,4.92,1.64,4.92,1.09,3.41,1.25,4.14,1.58,4.14.59,0,.66-2.3,1.97-6.04.19-.55.24-.65,2.23-5.12,1.8-4.05,2.7-6.07,3.09-6.96,1.27-2.93,1.44-3.42,2.3-5.25,1.57-3.37,1.37-2.53,2.1-4.27.38-.9.75-1.89,1.64-3.02.66-.84,1.34-1.12,1.25-1.31-.13-.28-1.62-.1-2.76.72-.56.4-.56.62-1.4,1.27-.49.38-.88.6-1.52.97-.49.28-1.28.74-2.38,1.23-1.41.63-2.52.96-3.57,1.27-1.73.51-3.03.89-4.84,1.05-.69.06-1.64.14-2.89.01-1.88-.18-3.23-.7-3.59-.84-1.28-.51-2.04-.81-2.82-1.55-.49-.47-.78-.91-1.51-1.2-.22-.09-.85-.32-1.59-.13-.37.09-.85.22-.99.55h-.01Z"/>
            <path class="cls-17" d="m100.28,153.67s1.23-.66,2.72-2.06c2.57-2.41,3.02-2.43,4.46-4.13.9-1.07.7-1.04,1.49-1.9,1.87-2.05,3.22-3.14,3.22-3.14,0,0-.05-1.92-.74-4.21-.4-1.31-.6-1.7-1.32-3.88-.88-2.65-.74-3.47-.74-3.47,0,0,.53-.75,2.81-2.48.24-.18.98-.75,2.48-1.9,2.21-1.7,2.7-2.12,3.72-2.64,1.19-.62,1.98-.83,1.98-.83,0,0-.55-1.48-1.65-3.88-.52-1.13-.81-2.05-1.32-3.63-.42-1.31-.83-2.89-.83-2.89-.57-2.14-1.15-3.08-1.15-3.08,0,0-.25,0-1.03.97-.81,1.01-1.18,1.67-1.18,1.67-.71,1.27-1.07,2.26-1.4,3.08-.64,1.56-.7,1.34-1.84,3.76-.72,1.52-.73,1.68-1.89,4.34-1.13,2.6-.99,2.15-2.01,4.48-1.51,3.49-1.56,3.89-2.38,5.46-.18.33-.44.82-.72,1.54-.45,1.14-.59,1.91-.84,2.97-.51,2.11-.68,1.94-.95,3.26-.4,1.91,0,1.99-.27,4.81-.22,2.22-.33,3.33-.59,4.18l-.26,2.79.24.81h-.01Z"/>
            <path class="cls-17" d="m83.76,113.11s1.77.55,3.54,1.91c1.39,1.07,2.08,1.6,2.68,2.3,1,1.17,1.05,1.75,2.3,4.02,1.25,2.28,1.43,2.11,2.35,3.83.25.48.54,1.06,2.06,5.22,1.3,3.56,1.92,5.41,2.25,6.41.73,2.2,1.09,3.32,1.24,4.16.16.87.53,2.99.21,5.63-.26,2.17-.69,2.27-.78,4.4-.05,1.14-.36,2.03-.36,2.03,0,0-2.27-.61-3.22-1.56-.56-.56-.62-.82-2.32-3.8-.94-1.65-1.27-2.19-1.79-2.88-.71-.94-1.12-1.5-1.85-2.03-1.5-1.09-2.75-1.41-2.75-1.41,0,0,1-1.76,2.17-4.53.26-.61.04-.22,1.09-3.93.71-2.51.6-3.73.6-3.73,0,0-1.5-1.34-2.63-1.74-.63-.22-2.32-.8-4.33-.33-2.43.56-3.89,1.92-3.89,1.92,0,0,1.14-2.49,2.4-6.63.6-1.98.9-2.96.85-4.05-.01-.22-.1-1.9-.09-3.99,0-.71.26-1.23.26-1.23h.01Z"/>
            <path class="cls-26" d="m5.38,101.74s4.65-.18,10.06-2.67c2.56-1.18,4.34-2.55,6.36-4.11,3.22-2.48,5.31-4.74,6.98-6.57,2.99-3.27,4.48-4.9,5.75-7.39,2.21-4.35,2.87-7.19,2.87-7.19,0,0,2.85,5.48,8.62,12.52,2.39,2.92,4.79,5.08,7.6,7.6,2.27,2.04,4.42,3.97,7.6,6.16,2.98,2.05,3.2,1.8,8.42,5.13,3.97,2.53,4.12,2.86,6.16,3.9,3.83,1.97,4.61,1.5,7.52,3.06,3.94,2.1,6.3,4.97,7.6,6.58,2.27,2.82,3.29,5.2,5.02,9.25,1.45,3.4,2.91,6.82,3.76,11.6.83,4.68.68,8.35.48,13.11-.11,2.54-.25,3.53-.7,8.27-.7,7.31-1.15,12.11-1.4,17.1-.1,1.93-.11,6.59-.14,15.84-.03,8.44-.04,12.65,0,14.29.19,8.06.59,10.21.7,19.06.08,6.4-.13,5.18,0,8.27.54,12.86,3.56,19.06.7,21.16-.56.41-.67.17-4.9.42,0,0-4.78.28-9.67.98-3.32.47-6.65.83-9.95,1.4-2.01.35-3.27.61-4.06-.14-.98-.93-.51-2.74.28-6.31,0,0,.5-2.24,1.96-9.67.65-3.3.88-5.66,1.26-9.53.33-3.42.29-4.21.7-11.77.45-8.28.55-8.02.7-12.05.14-3.75.14-6.66.14-12.33,0-8.08-.13-8.37-.14-15.98,0-7.45.12-8.44,0-13.73-.2-8.56-.65-11.18-.84-12.19-.54-2.87-1.3-6.83-3.64-11.35-2.55-4.92-5.65-7.98-8.55-10.79-2.67-2.59-2.69-2.12-10.65-8.55-4.48-3.61-5.31-4.44-9.81-7.99-6.2-4.89-7.77-5.81-8.97-6.45-2.21-1.18-2.28-.94-8.97-3.78-6.48-2.76-6.26-2.91-8.27-3.5-5.89-1.73-10.58-1.66-10.58-1.66h0Z"/>
            <path class="cls-26" d="m114.34,108.86c1.7-1.54,2.94-1.18,7.29-2.38,4.41-1.22,7.5-2.8,10.79-4.48,1.29-.66,5.31-2.77,10.09-6.31,1.71-1.27,3.76-3.04,7.85-6.59,3.96-3.43,5.99-5.2,8.55-7.71,3.22-3.16,2.43-2.72,6.03-6.31,5.42-5.41,7.07-6.26,8.69-9.53,1.36-2.75,2.1-5.05,2.1-5.05,0,0-.46,4.32,1.12,9.25.81,2.51,1.93,4.06,4.06,7.01,2.35,3.25,4.51,5.38,7.99,8.83,2.81,2.78,4.21,4.17,6.03,5.75,3.57,3.1,5.19,5.05,5.19,5.05,0,0-3.25-.13-7.57.42-3.28.42-4.37,1.38-9.53,3.5-5.89,2.42-5.47,1.58-11.35,3.92-3.92,1.56-6.77,3-12.47,5.89-1.82.92-4.63,2.36-7.99,4.2-1.28.7-3.34,1.88-7.43,4.2-6.96,3.97-7.5,4.3-8.41,4.9-2.23,1.49-1.13.95-7.15,5.47-3.53,2.65-4.64,3.39-5.61,5.19-.8,1.49-1.03,2.84-1.4,5.05-.5,2.96-.15,3.88-.7,6.87-.38,2.06-.65,2.18-1.12,4.2-.46,1.95-.63,3.63-.7,9.53-.03,2.47-.03,4.85,0,8.55.04,4.56.11,8.09.14,9.81.11,5.47.16,8.21.27,10.35.22,4.29.52,7.4.99,12.06.44,4.39.75,7.53,1.33,11.68.9,6.44,1.3,7.13,2.74,16.28.8,5.1,1.42,9.57,1.5,10.17,1.34,9.76,1.03,9.66,1.77,12.56,1.24,4.86,2.6,7.01,1.59,7.96-.96.91-2.76-.55-7.6-1.59-3.59-.77-6.63-.83-9.2-.88-6.28-.13-7.77.87-9.37-.53-.98-.85-1.41-2.99-2.29-7.26-.54-2.66-.82-4.76-.94-5.83-.17-1.45-.39-3.65-.51-7.63-.15-4.6.04-4.99-.04-9.6-.05-3.01-.13-2.82-.43-9.94-.19-4.55-.29-6.82-.34-9.64-.05-2.61-.04-5.69,0-11.74.04-6.08.05-9.12.13-11.69.16-5.54.43-9.75.51-11.01.12-1.81.42-5.3,1.03-12.21.73-8.39.77-8.49.77-9.64,0-.42.02-4.24.21-8.82.05-1.15.13-2.73.77-4.67.54-1.62,1.18-2.62,1.76-3.6,1.42-2.43,1.12-2.56,3.68-8.27,2.35-5.25,2.26-4.37,3.56-7.5,2.28-5.53,1.92-6.69,3.63-8.24h0Z"/>
            <path class="cls-23" d="m21.5,94.19c-1.42.46-2.37-.54-5.1-1.74-.82-.36-.17-.02-6.27-2.08-.61-.21-1.78-.6-3.29-1.19-2.6-1.01-3.23-1.44-3.64-1.75-.92-.7-2.35-1.79-2.24-3.01.15-1.71,3.22-2.41,3.01-3.36-.15-.68-1.7-.37-2.73-1.61-.59-.71-.99-1.9-.56-2.8.47-.98,1.78-1.32,2.38-1.47.98-.25,1.5-.08,1.61-.35.2-.48-1.45-1.06-2.17-2.73-.1-.22-.78-1.87.07-3.36.09-.16.63-1.08,1.75-1.47,1.02-.36,1.93-.07,2.59.14.61.19.69.33,2.38,1.19,1.44.73,1.64.76,1.68.7.14-.18-1.38-1.02-2.03-2.73-.1-.25-.83-2.23.14-3.29.76-.84,2.16-.66,3.43-.49,1.36.18,2.36.68,2.94.98.26.14.97.51,2.17,1.47,2.03,1.62,3.07,2.99,3.22,2.87.17-.13-1.42-1.63-1.75-4.07-.06-.46.02-.21.21-3.5.1-1.8.1-2.35.56-2.87.51-.59,1.39-.92,2.17-.84.41.04,1.7.29,3.99,4.91,1.09,2.19,1.07,2.67,2.59,6.24,1.27,2.97,1.5,3.14,1.96,4.56.81,2.5.18,3.68.98,6.17.63,1.95,1.56,2.06,1.54,3.22,0,.8-.66,1.57-1.94,3.08-.97,1.14-1.22,1.25-2.6,2.71-1.37,1.45-1.4,1.64-2.91,3.21-.94.98-1.57,1.57-2.4,2.19-.86.63-1.29.95-1.76,1.1l.02-.03Z"/>
            <path class="cls-23" d="m178.79,72.15c-.17-2.08.81-4.06,1.23-5,1.13-2.53.32-2.08,1.74-6.02.64-1.78,1.43-3.25,3.01-6.19.32-.59,1.09-1.99,2.63-2.8.95-.5,1.38-.34,1.48-.3.83.36.89,1.86.93,2.71.06,1.38-.21,2.91-.47,4.28-.15.79-.24,1.18-.08,1.27.25.14.87-.65,2.46-2.42.89-.99,1.75-1.92,2.76-2.88,1.19-1.15,1.87-1.65,2.8-1.95.56-.18,1.44-.47,1.95-.04.63.53.31,1.85.08,2.8-.06.27-.24.96-1.06,2.63-.87,1.77-1.39,2.49-1.23,2.63s.81-.47,2.12-1.4c.08-.06,1.74-1.23,3.82-2.29,1.8-.92,2.6-1.08,3.39-.93.3.06.92.18,1.23.68.4.64.04,1.5-.13,1.91-.3.72-.56.78-2.16,2.54-.87.95-.83.99-1.44,1.61-.69.71-1.12,1.06-1.06,1.14.07.09.66-.28,1.87-.85.34-.16,1.4-.66,2.71-1.1,1.15-.39,1.47-.4,1.7-.38.25.02,1.34.08,1.82.85.62,1-.27,2.42-.42,2.67-.44.7-1.05,1.15-1.61,1.57-.92.68-1.58.91-1.53,1.19.04.21.44.29.91.39.86.18,1.33.11,2.02.14,1.05.05,1.75.08,2.3.56.59.51.71,1.25.77,1.61.03.19.2,1.23-.35,2.09-.5.79-1.14.71-3.35,1.68-.54.24-1.59.7-2.72,1.4-1.27.78-1.33,1.05-2.44,1.82-1.14.79-2.31,1.29-4.64,2.28-2.12.91-2.53.95-3.27,1.61-.69.62-.8,1-1.75,1.75-.69.54-.81.48-2.04,1.28-1.67,1.09-1.73,1.38-2.23,1.37-.8,0-1.21-.77-2.56-2.23-1.2-1.3-1.04-.9-2.42-2.32-.68-.7-1.69-1.75-2.84-3.22-1.31-1.68-.97-1.56-1.8-2.46-.81-.88-1.51-1.39-1.9-2.51-.06-.18-.18-.57-.23-1.16h0Z"/>
            <path class="cls-24" d="m79.54,259.56c-.63,1.13-.08,2.24,0,4.47.03.87-.01,1.67.22,2.96.13.72.23.96.43,1.15.61.58,1.65.21,2.81.07,1.36-.16,1.19.19,4.33.51,1.89.19,3.31.2,5.34.22,2.7.02,1.88-.12,3.54-.07,1.52.04,2.01.16,2.45-.22.3-.26.57-.73.43-3.25-.09-1.66-.28-2.78-.43-3.97-.41-3.14.12-3.44-.36-3.97-.8-.87-2.08-.14-7.57.39-2.13.21-2.31.13-3.9.36-3.35.47-3.29.9-4.55.7-.63-.1-1.7-.38-2.39.21-.13.11-.24.24-.35.44Z"/>
            <path class="cls-24" d="m114.36,267.36c.8-.58,1.02-1.54,1.16-2.14.25-1.09-.06-1.26-.05-2.79.02-1.83.46-2.65.14-4.42-.08-.47-.17-.72-.39-.93-.66-.65-1.94-.29-3.13-.09-1.03.17-2.49.11-5.4,0-2.69-.11-4.03-.16-5.11-.33-1.36-.21-2.29-.46-2.79.05-.35.36-.26.85-.14,2.23.1,1.21.18,2.58.19,3.44.04,2.46-.44,3.11.19,4,.5.71,1.29.98,1.69,1.12,1.05.36,1.69.11,3.42,0,1.23-.08,2.12-.03,3.66.05,1.67.09,2.13.22,3.76.23,1.96.02,2.43-.16,2.79-.42h0Z"/>
            <path class="cls-22" d="m103.27,269c.41-.42.89-.03,3.56,0,1.85.02,3.35-.05,3.35-.05,1.67-.08,2.12-.2,2.57.16.6.48.27,1.08.89,2.36.39.8.87,1.28,1.62,2.04.65.65,1.35,1.35,2.46,1.88.61.29,1.22.42,2.41.68,1.69.36,1.97.28,3.4.58,1.88.39,3.1.89,3.35.99,1.29.54,2.88,1.99,2.88,1.99,0,0-1.35,1.1-1.83,1.26-1.32.43-2.37.29-3.46.21-1.53-.11-3.07.07-4.61.1-2.32.05-4.26.14-5.86.21-4,.18-4.43.28-5.5,0-.95-.25-3.34-.87-4.29-2.77-.72-1.43.15-2.02-.16-4.82-.32-2.9-1.45-4.12-.79-4.82h.01Z"/>
            <path class="cls-22" d="m67.05,279.19s.87-1.3,1.37-1.56c.14-.07.41-.2,1.71-.38,1.18-.17,1.6-.16,2.51-.28.64-.09.83-.15,1.94-.38,3.08-.63,3.17-.48,4.31-.85,1.24-.4,2.11-.89,2.7-1.23.99-.57,2.06-1.19,2.94-2.37.76-1.01.84-1.72.85-1.9.05-.59-.13-.7,0-.95.39-.76,2.18.12,4.98-.24,1.42-.18,2.1-.56,2.89-.09.69.4.97,1.15,1.09,1.47.3.8.21,1.49,0,2.84-.12.8-.29,1.87-.85,3.18-.45,1.05-.68,1.57-1.23,2.09-.37.34-.99.77-2.89,1.14-1.51.29-2.64.31-3.65.33-3.56.08-1.43.1-5.83.19-3.71.07-3.81.03-4.79.14-2.05.24-2.3.51-3.65.47-1.87-.05-4.41-1.61-4.41-1.61h.01Z"/>
            <path class="cls-17" d="m76.53,181.81c.49-.42.83-.15,2.75-.41,2.09-.28,2.44-.69,3.16-.41,1.03.4,1.42,1.66,1.79,2.86.58,1.94.37,3.01.46,5.97.08,2.74.28,2.33.36,5.1.06,2.06-.07,1.73-.1,5.72-.02,2.73.03,3.23-.26,4.29-.14.53-.61,2.06-1.84,3.57-.53.65-.91,1.12-1.63,1.48-.21.11-1.79.86-3.42.1-.27-.13-1.05-.5-1.53-1.33-.78-1.33.03-2.4.15-5.1.07-1.46-.17-1.08-.36-4.39-.1-1.72-.1-3.04-.1-4.59,0-2.49.07-2.4.05-4.49-.01-1.23-.04-2.41-.05-4.54,0-2.69.04-3.37.57-3.82h0Z"/>
            <path class="cls-17" d="m111.69,183.18c.3-.79.84-2.19,2.09-2.71.17-.07.74-.11,1.89-.2,1.96-.15,2.16-.13,2.4,0,.38.21.74.68.97,2.5.24,1.91.07,3.06,0,4.8-.05,1.19,0,2.24.1,4.34.04.81.14,2.76.41,5.31.15,1.38.16,1.28.46,3.73.58,4.83.39,4.28.66,5.97.59,3.66,1.21,4.55.56,5.26-1.04,1.15-3.89.19-4.59-.05-.72-.25-1.98-.67-3.01-1.84-.28-.32-1.07-1.28-1.58-4.19-.32-1.79-.16-2.23-.31-6.02-.11-2.75-.2-2.8-.26-5.26-.06-2.54.04-2.39-.05-3.98-.13-2.22-.34-2.87-.26-4.64.09-1.87.41-2.74.51-3.01h.01Z"/>
            <path class="cls-23" d="m93.3,192.98c-.61-.09-.86-.74-.88-.79-.12-.33-.16-.89.16-1.1.23-.16.57-.07.62-.05.17.05.27.13.4.22.13.1.35.28.5.59.1.21.25.51.12.78-.15.32-.6.41-.91.36h-.01Z"/>
            <path class="cls-23" d="m92.89,172.7c-.21-.06-.66-.19-.76-.57-.09-.35.17-.7.4-.86.23-.17.48-.18.76-.19.3,0,.62-.02.81.19.1.12.12.26.16.53.04.31.06.47-.02.62-.19.37-.88.41-1.34.28h-.01Z"/>
            <path class="cls-23" d="m92.92,158.32c.04-.12.24-.77.9-1.03.12-.05.48-.19.9-.05.12.04.49.16.62.5.15.37-.08.73-.16.86-.23.38-.59.52-.88.64-.28.11-.59.23-.93.12-.08-.03-.34-.11-.47-.36-.12-.24-.04-.48.02-.67h0Z"/>
            <path class="cls-3" d="m64.21,55.9c-.06-.36-.24-1.68.58-2.88.76-1.12,1.9-1.46,2.5-1.63.8-.24,1.45-.22,2.31-.19.87.03,1.54.05,2.31.38.23.1.33.17,1.63,1.15,1.08.81,1.62,1.22,1.73,1.35.48.54.74,1.17,1.25,2.4.31.75.56,1.46.77,2.11"/>
            <path class="cls-3" d="m115.33,54.32c.43-.49,1.07-1.22,1.83-2.13.92-1.11,1.14-1.42,1.73-2.02.69-.69,1.29-1.3,2.24-1.79.66-.34,1.18-.48,1.93-.67.97-.25,1.71-.32,3.15-.45,2.15-.2,3.2-.14,3.56-.11.19,0,.59.04,1.12.11,1.71.22,2.56.34,3.25.9.32.26.9.85,1.22,2.13"/>
          </g>
        </g>
      </g>
      <g id="point_tegning" data-name="point tegning">
        <g>
          <path class="cls-25" d="m246.31,467.29c1.86,2.81,2.65,2.26,4.46,5.13.8,1.27.96,1.88,2.23,3.78.22.33.9,1.33,1.9,2.61.91,1.16,2.13,2.7,4.02,4.45,2.36,2.18,4.56,3.58,5.72,4.25,1.48.87,2.62,1.39,4.46,2.22,2.63,1.2,3.95,1.8,5.19,2.03,2.78.52,5.09.01,6.47-.29,1.98-.43,3.32-1.07,5.19-1.93.85-.4,2.94-1.41,5.41-3.1,1.05-.71,2.82-1.94,4.77-3.87,1.71-1.69,3.15-3.11,4.24-5.32,1.36-2.77,1.43-5.2,1.48-7.74.09-3.47-.57-6.03-.75-6.68-.8-3.01-2.03-5.11-2.96-6.68-1.67-2.79-3.36-4.68-4.66-6.1-1.48-1.62-2.76-2.76-5.3-5.03-2.37-2.12-4.56-3.94-6.25-5.32-4.62-3.75-4.96-3.69-6.56-5.42-1.32-1.42-2.26-2.72-4.13-5.32-2.15-2.99-2.02-3.16-3.4-4.83-1.83-2.23-2.23-2.17-4.66-4.93-.96-1.1-1.88-2.28-3.71-4.64-2.35-3.03-2.43-3.28-4.13-5.42-1.2-1.51-2.28-2.86-3.82-4.54-1.98-2.18-2.6-2.57-4.77-4.83-1.81-1.89-1.61-1.86-4.46-5.03-2.79-3.11-4.61-5.13-7.2-7.54-1.64-1.52-1.56-1.31-3.71-3.29-2.51-2.31-3.13-3.07-5.41-5.22-2.3-2.19-5.98-5.68-6.47-5.32-.22.16.36.91,2.23,4.54,1.22,2.38,1.15,2.37,1.7,3.29,1.29,2.16,1.74,2.22,2.54,3.87.9,1.84.42,1.92,1.28,3.29.63,1,1.07,1.26,2.54,3.19.87,1.13,1.3,1.71,1.17,1.83-.38.38-4.36-2.43-5.3-3.1-1.27-.89-3.07-2.18-5.3-4.15-2.28-2.03-3.83-3.74-4.99-5.03-3.19-3.56-2.85-3.85-4.88-5.71-1.24-1.14-1.37-1.03-5.94-4.35-2.8-2.03-2.68-2.02-5.08-3.78-3.5-2.54-7.74-5.62-8.15-5.22-.23.22,1.04,1.17,2.34,3.68.91,1.78.8,2.33,1.81,3.78.23.32.87,1.03,2.12,2.42,1.38,1.53,1.74,1.89,2.65,2.9,1.18,1.31,2.05,2.32,2.54,2.9,1.6,1.88,2.85,3.43,3.29,3.97,2.15,2.69,2.13,2.84,3.07,3.78,1.24,1.23,1.52,1.2,2.96,2.61,1.46,1.42,1.28,1.56,2.76,3.1,1.96,2.04,2.75,2.3,4.24,4.15.68.84,1.82,2.28,1.48,2.61s-1.81-.64-5.61-2.51c-1.02-.5-2.41-1.14-5.19-2.42-4.3-1.98-4.56-2-6.05-2.81-1.44-.78-2.61-1.57-4.88-3.1-4.5-3.03-6.32-4.59-6.56-4.35-.1.09.08.38,3.07,4.25,1.73,2.23,2.12,2.71,2.76,3.39,1.05,1.11,1.2,1.09,2.87,2.71.79.78,1.56,1.58,3.07,3.19,3,3.18,2.28,2.6,3.4,3.68,1.09,1.07,1.48,1.34,1.37,1.54-.29.54-3.75-.21-6.78-1.54-2.35-1.04-2.41-1.53-5.41-3.19-2.95-1.63-3.11-1.28-7-3.19-4.09-2.02-4.15-2.54-7.2-3.78-2.42-.98-2.42-.67-5.61-1.83-4.56-1.68-6.67-3.09-7.09-2.61-.18.2.09.59,2.12,3.68,1.83,2.78,1.87,2.88,2.23,3.29,1.14,1.34,2.21,2.17,3.93,3.48,1.52,1.18,2.78,1.99,3.6,2.51,1.44.92,1.88,1.12,4.24,2.51,1.23.73,2.87,1.69,4.77,2.9,2.45,1.57,3.69,2.34,5.08,3.48,1.92,1.57,1.73,1.77,3.82,3.48,1.08.89,1.45,1.1,4.66,3.39,4.49,3.19,4.81,3.52,4.77,3.58-.11.14-2.85-2.14-7.42-3.48-2.61-.77-2.9-.37-5.19-1.26-1.59-.62-2.78-1.33-5.19-2.03-1.55-.44-2.58-.73-2.87-.39-.56.71,2.39,3.5,3.29,4.35,1.57,1.48,2.39,1.98,5.41,4.25,3.88,2.92,3.64,2.94,6.05,4.64,3.14,2.22,3.22,1.96,5.52,3.68,1.86,1.39,1.86,1.61,5.94,5.13,1.84,1.59,3.3,2.86,5.3,4.45,2.68,2.14,2.95,2.19,5.52,4.25,1.38,1.12,3,2.42,4.99,4.25.57.52,2.81,2.62,5.52,5.61,1.8,2,2.98,3.5,3.82,4.54,1.67,2.11,2.29,3.09,2.76,3.87.52.89.64,1.22,1.48,2.9,1.35,2.7,2.02,4.04,2.54,4.83l-.06.04Z"/>
          <path class="cls-29" d="m239.32,392.76c-.49-.14-2.17-.66-2.98.07-.43.39-.45.98-.45,1.12-.02.4.11.8.99,2.02.59.82,1.09,1.4,1.15,1.47,1.18,1.38,1.38,1.33,1.99,2.17.8,1.09.53,1.26,1.22,2.1,1.03,1.23,2.17,1.54,2.07,1.81-.15.36-2.23-.06-2.68-.14-1.23-.24-2.12-.57-2.29-.63-1.69-.62-3-1.41-3.98-2.1-.89-.61-1.05-.82-4.06-3.63-3.76-3.5-3.7-3.36-4.13-3.91-.9-1.16-1.17-1.82-2.22-2.38-.91-.48-2.55-.94-3.51-.21-.63.48-.75,1.29-.77,1.47-.04.29-.04.76.23,1.4.54,1.26,1.69,1.99,2.14,2.31.18.13,1.35,1.53,3.68,4.33,4.37,5.27,3.76,4.6,3.9,4.75,1.41,1.57,2.14,2.23,2.76,3.63.39.9,1.16,2.64.3,3.49-.83.82-2.77.37-3.83-.07-.9-.37-1.57-.9-3.75-3.57-2.18-2.67-2.61-3.47-4.06-4.27-.69-.38-2.23-1.22-3.36-.63-.62.32-1.02,1.02-1.07,1.68-.05.68.27,1.19.45,1.47.49.73,1.02.88,1.84,1.47.71.52.49.54,2.29,2.51.85.93,1.18,1.21,1.91,2.1.95,1.13,1.14,1.51,1.22,1.96.04.22.24,1.27-.45,2.02-.92,1-2.66.72-2.83.7-1.06-.18-1.55-.74-3.68-2.93-4.75-4.9-2.91-2.71-4.06-3.98-1.08-1.2-1.51-1.8-2.37-1.89-.99-.1-2.22.54-2.61,1.53-.31.8.02,1.54.15,1.81.48,1,1.21,1.08,2.22,1.96,1.47,1.29.87,1.98,2.76,4.33.61.76.8.84,1.61,1.89,1.44,1.86,1.49,2.43,1.45,2.8-.06.69-.52,1.52-1.3,1.81-.3.11-1.06.29-3.6-1.19-2.63-1.53-2.65-2.21-4.21-2.66-.14-.04-2.97-.82-4.13.49-.09.09-.78.82-.45,1.53.26.6,1.2.74,1.59.82.93.2,2.42,1.46,5.36,3.98,3.23,2.77,4.86,4.15,5.2,4.45,2.25,1.96,2.63,2.31,3.84,3.31,1.16.94,2.1,1.68,3.95,3.11,3.91,3.03,3.75,2.8,5.03,3.85,1.05.87,2.81,2.39,4.79,4.41,2.2,2.24,1.88,2.28,4.19,4.63,2.13,2.18,2.66,2.41,3.9,4,.28.36,1.37,1.77,2.43,3.82,1.09,2.1,1.05,2.72,2.2,4.94.24.47.93,1.76,1.94,3.21,2.23,3.2,3.27,3.24,5.18,6.02,1.47,2.13.92,2.21,2.5,4.47,1.42,2.02,2.83,3.36,4.12,4.57,1.12,1.07,2.66,2.5,5.01,4.02,1.07.7,2.63,1.47,5.73,3.01,2.28,1.13,3.05,1.44,4.1,1.68.42.09,1.96.4,4.27.2,2.95-.27,5.05-1.18,7.29-2.19,1.65-.74,4.46-2.14,7.48-4.51,1.7-1.32,3.3-2.58,4.9-4.71.85-1.13,2.47-3.34,3.17-6.53.43-1.96.34-3.46.19-5.61-.11-1.61-.24-3.51-.99-5.89-.78-2.46-1.82-4.14-2.74-5.65-1.47-2.4-2.96-4.15-3.88-5.15-.82-.9-.85-.84-4.16-3.95-3.33-3.14-3.24-3.14-4.49-4.23-.72-.62-2.09-1.7-4.79-3.83-3.4-2.67-3.68-2.86-4.46-3.59-1.69-1.59-2.75-2.94-3.69-4.18-2.83-3.68-2.24-4.04-4.5-6.79-1.87-2.27-2.33-2.07-5.01-5.24-.75-.88-1.45-1.79-2.85-3.61-2.02-2.61-2.36-3.16-3.56-4.68-1.77-2.27-3.21-3.87-4.57-5.39-4.14-4.62-3.94-3.77-5.9-6.21-2.84-3.54-3.63-5.8-6.26-6.59v.02Z"/>
          <path class="cls-30" d="m257.85,461.47c.7-1.72,1.57-2.93,2.12-3.71,1.17-1.63,2.27-2.68,3.62-3.95,1.44-1.37,2.29-2.16,3.71-2.99.82-.48,1.74-1.01,3.09-1.37,2.33-.61,4.34-.27,5.83,0,.93.17,1.86.47,3.71,1.04,1.99.63,2.98.94,4.07,1.46.93.43,2.55,1.21,4.15,2.67.49.44.31.34,2.82,3.31,1.63,1.92,1.84,2.11,2.21,2.74.76,1.28,1.03,2.34,1.33,3.54.57,2.29.58,4.22.53,5.4-.1,1.92-.15,3.02-.79,4.35-.26.54-.51.9-3.18,3.79-1.75,1.9-2.63,2.86-3.01,3.14-1.59,1.26-3.07,1.8-5.47,2.67-3.3,1.18-4.94,1.77-7.06,1.86-3.48.14-6.14-.92-8.03-1.69-1.72-.7-3.91-1.61-6-3.63-2.22-2.14-3.11-4.35-3.62-5.64-1.11-2.83-1.15-5.19-1.15-6.45,0-1.38,0-3.74,1.15-6.53h-.02Z"/>
          <path class="cls-13" d="m263.06,466.71c-.47.07,1.24-.22,2.21,0,1.2.28,1.92.94,2.21,1.21.23.21.59.77,1.33,1.86.59.89.89,1.33.97,1.53.45,1.09.39,2.09.36,2.5-.03.43-.36,2.1-.17,1.04"/>
          <path class="cls-13" d="m269.17,455.78c-.13.03.66-.12,1.11-.14.37-.01.97,0,1.7.18.83.2,1.4.52,1.58.63.31.19.63.46,1.23.99.62.53.77.73.89.91.05.08.26.4.39.88.11.38.12,1.2.12,1.03"/>
          <path class="cls-13" d="m278.68,461.49c0-.13-.96.96-.88.76.14-.34.45-.6,1.61-1.09.92-.39,1.42-.6,2.2-.78.77-.18,1.37-.22,1.77-.24,0,0,.79-.06,1.6-.01.31.01.63.04.63.04.15.01.64.07.39.04"/>
          <path class="cls-23" d="m278.49,465.57c-.11-.31,0-.57.06-.72.08-.19.15-.37.36-.46.26-.11.54.02.58.04.13.07.19.14.3.26.11.12.24.27.28.48.04.2-.01.37-.05.48-.06.19-.16.49-.44.58-.25.08-.5-.07-.64-.13-.08-.04-.35-.2-.46-.51h.01Z"/>
          <path class="cls-23" d="m273.16,462.66c.08-.02.27,0,.67.01.21.01.14.06.19.1,0,0,.21.06.24.31.01.13.02.27.02.51,0,.27,0,.33-.02.41-.03.14-.05.22-.13.29-.19.17-.58.03-.81-.04-.24-.08-.4-.19-.49-.26-.16-.12-.3-.22-.34-.4-.02-.1,0-.18.05-.33.03-.12.06-.23.16-.34.15-.19.38-.26.43-.28v.02Z"/>
          <path class="cls-16" d="m181.85,335.31c.02-.07.39-.11.77,0,.97.29,1.2,1.41,2.53,4.62.41.99.64,1.49,1.22,1.89.52.36.87.32,1.76.77.58.29.77.47,1.61,1.04,1.85,1.28,2.05,1.18,2.91,1.89,1.07.89.72,1.04,1.69,1.89.28.24.83.69,4.37,2.17,1.99.83,2.22.86,2.3.77.26-.3-1.41-1.58-3.6-4.27-1.61-1.97-1.35-2.06-2.83-3.78-1.35-1.56-2.48-2.84-4.37-3.92-.84-.48-1.69-.79-3.37-1.4-2.84-1.03-5.03-1.51-4.99-1.68h0Z"/>
          <path class="cls-16" d="m158.25,359.58c.75,1.18,1.55,2.7,2.14,4.54.32,1.01.54,1.94.69,2.8.45,2.69-.01,3.44.69,3.99.99.78,2.31-.44,4.22.42.16.07.05.03,1.99,1.47,1.37,1.01,1.54,1.11,2.07,1.54.56.44,1.02.87,1.91,1.68,1.3,1.18,1.94,1.77,2.45,2.31,1.47,1.57,1.77,2.39,1.99,2.31.41-.14-.02-3.41-1.91-6.51-.66-1.09-.58-.64-3.98-4.62-2.14-2.5-2.81-3.42-4.37-4.75-1.63-1.4-1.71-1-3.06-2.24-1.92-1.77-2.83-3.44-4.07-3.29-.35.04-.61.21-.77.34h0Z"/>
          <path class="cls-16" d="m140.25,374.35c-.4.61.99,2.06,1.99,3.08.58.6,1.11,1.06,3.06,2.52,3.13,2.34,3.42,2.41,4.52,3.43.99.92.78.89,2.53,2.66,1.45,1.48,2.34,2.37,3.53,3.29,2.02,1.57,4.54,2.9,4.82,2.59.25-.27-1.55-1.32-2.91-3.84-1.27-2.34-.68-3.26-2.14-4.97-.52-.61-1.24-1.16-2.68-2.24-1.5-1.13-1.89-1.27-3.15-2.17-2.76-2-2.47-2.51-4.14-3.43-2.15-1.18-4.97-1.61-5.44-.91h.01Z"/>
        </g>
      </g>
      <g id="Tegning_af_stjerneskud" data-name="Tegning af stjerneskud">
        <g>
          <path class="cls-25" d="m90.5,440.97c-2.93-6.17-4.39-9.25-6.02-14.32-.56-1.74-3.09-5.73-8.15-13.71-2.25-3.54-4.61-7.26-8.07-12.07-3.57-4.99-6.45-8.56-9.11-11.85-3.78-4.69-6.86-8.26-8.95-10.61-4.17-4.72-6.31-7.12-9.48-9.9-1.49-1.3-3.57-2.78-7.67-5.83-2.5-1.86-3.73-2.87-5.71-4.19-1.97-1.32-2.89-1.79-5.45-3.34-2.44-1.47-9.11-5.46-8.95-5.76.14-.25,5.35,1.82,10.54,5.31,1.88,1.27,2.24,1.7,4.07,2.77,3.73,2.17,4.57,1.74,7.29,3.53,1.82,1.19,1.31,1.31,5.36,4.59.77.62,2.13,1.73,3.92,3.03,2.36,1.71,3.51,2.35,5.72,3.81.97.65,3.65,2.43,6.7,4.82,4.42,3.45,7.15,4.58,8.37,6.26.4.55,2.07,2.44,2.96,4.1.08.15.63.33,1.23.77.85.64,1.36,1.25,1.53,1.46,1.24,1.45,2.06,1.72,3.93,3.62,1.33,1.34,2.17,2.47,3.58,4.38,1.23,1.66,2.34,3.29,2.34,3.29.85,1.24,1.13,1.74,1.81,2.59.93,1.18,1.43,1.6,2.14,2.37,1.17,1.3,2.16,1.56,4.7,5.88,1.49,2.54.86,2.14,1.7,3.67,1,1.81,1.82,3.23,2.94,5.7.44.98,1.31,2.9,2.69,6.47,1.12,2.9,1.3,3.58,1.5,4.27.71,2.48,1.53,3.12,1.56,3.78.03.71.27,2.07.86,2.86.54.71-.28.78-.23,1.12.17,1.19-6.11,4.33-8.81,2.19-.52-.42-.76-.9-.84-1.06h0Z"/>
          <path class="cls-15" d="m99.35,439.85c.18.06.75-.06,1.9-.28.86-.17,1.51-.3,2.36-.58.55-.18,1.06-.35,1.7-.69.31-.16.92-.52,1.6-1.11.91-.79,1.36-1.19,1.4-1.73.04-.69-.59-.84-1.13-1.91-.47-.93-.24-1.33-.51-2.92-.21-1.23-.39-1.24-.89-3.07-.42-1.56-.31-1.58-.83-3.91-.28-1.22-.58-2.58-1.12-4.3-.37-1.17-.68-1.97-1.25-3.47-.91-2.37-1.37-3.56-1.91-4.48-.88-1.51-1.2-1.5-2.03-3.09-.59-1.14-.57-1.42-1.25-2.75-.7-1.39-1.36-2.38-1.74-2.91-1.01-1.48-1.9-2.46-3.1-3.79-1.01-1.11-1.81-1.9-2.43-2.52-1.2-1.2-1.58-1.49-3.71-3.47-3.35-3.12-3.17-3.07-4.24-3.92-1.76-1.41-2.12-1.43-3.3-2.59-1.21-1.19-1.11-1.45-2.62-3.14-.76-.86-.82-.84-3.48-3.43-2.6-2.53-2.51-2.53-3.35-3.25-1.51-1.3-1.67-1.21-3.72-2.88-2.04-1.65-1.96-1.82-3.4-2.92-1.33-1.02-2.39-1.63-4.43-2.82-2.08-1.21-2.42-1.28-5.17-2.8-3.03-1.67-2.79-1.65-5.05-2.86-1.75-.94-3.23-1.65-6.17-3.05-3.23-1.55-4.5-2.13-4.94-2.32-1.36-.61-1.32-.83-2.88-1.43-2.42-.93-4.14-1.77-7.67-2.97-4.28-1.45-3.9-1.57-5.68-1.97-2.15-.47-2.93-.24-5.34-.91-2.16-.59-3.2-.69-3.26-.57-.09.2,2.88,1.85,5.42,3.05.58.27.83.38,1.81.84,1.74.83,2.71,1.28,3.62,1.8,1.96,1.1,1.77,1.34,3.65,2.44.81.48.81.41,4.11,1.93,3.6,1.67,4.12,2,4.73,2.51,1.02.87.87,1.06,2.25,2.22,1.12.95,1.41.97,2.89,2.19,1.06.86,1.08.99,2.16,1.84.71.56,1.22.91,2.22,1.62,1.53,1.07,2.33,1.64,3.46,2.32,1.57.94,1.7.86,2.8,1.62.77.53.75.6,2.17,1.69,1.12.85,1.21.87,2.63,1.93,1.23.92,1.84,1.37,2.35,1.83,1.17,1.05,1.04,1.2,2.29,2.4,1.25,1.21,2.49,2.13,3.13,2.6.97.71,1.22.84,1.83,1.4.83.76,1.06,1.19,1.76,2.02,1.38,1.6,1.34.72,2.72,2.25,1.31,1.45,1.53,1.65,2.73,2.45.82.55,1.18,1.1,1.9,1.79,1.26,1.23,1.77,2.3,3.45,4.34,1.09,1.34,1.05,1.42,2.07,3,1.09,1.66,2,2.78,2.19,3.01,1.21,1.48,1.34,1.36,2.32,2.56.25.31.9,1.13,2.49,3.85.48.83,1,1.73,2.08,3.72,1.38,2.53,2.28,4.19,3.42,6.51,1.27,2.56,1.69,3.6,1.86,4.02.49,1.22.61,1.69,1.29,3.71,1.62,4.8,1.62,4.14,2.07,5.84.85,3.25.72,5.16,1.81,5.51v.02Z"/>
          <path class="cls-25" d="m105.6,433.69c-.84-.89-.73-2.39-.85-3.89-.07-.86-.1-.23-1.18-5.07-.58-2.56-.5-2.4-.76-3.41-.4-1.52-.8-2.66-1.59-4.87-.94-2.64-1.41-3.95-1.96-5.06-.84-1.7-1-1.58-2.33-3.96-1.69-3.03-1.55-3.45-2.7-5.25-.68-1.07-1.69-2.16-3.72-4.34-1.46-1.58-2.66-2.78-5.05-5.16-2.67-2.66-3.22-3.12-3.64-3.48-1.98-1.66-2.41-1.63-3.97-2.98-1.69-1.46-1.82-2.03-3.95-4.39-1.81-2.01-3.28-3.33-5.02-4.91-.62-.56-.33-.28-5.83-4.91-1.75-1.48-2.24-1.89-3.12-2.53-.65-.48-1.69-1.21-4.51-2.87-.94-.55-1.8-1.05-5.71-3.22-4.13-2.29-4.76-2.63-5.28-2.9-1.96-1.02-3.43-1.71-4.96-2.44-2.38-1.12-4.3-2.03-6.86-3.07-2.36-.96-2.47-.91-6.41-2.47-3.47-1.37-3.12-1.31-4.07-1.62-1.43-.47-2.32-.63-7.59-1.63-3.07-.58-4.6-.89-4.62-1.24-.02-.59,2.44-1.22,4.08-1.46.96-.14,1.67-.16,5.23-.03,2.83.1,4.24.16,5.13.24.77.07,2.64.27,5.43.83,3.06.61,3.6.93,8.45,2.2,5.18,1.35,5.36,1.2,8.06,2.09,1.23.41,2.91,1.07,6.23,2.39,3.86,1.53,5.8,2.31,7.22,2.94,1.82.82,5.03,2.26,8.86,4.54.31.18.24.14,6.98,4.6,3.69,2.44,4.39,2.89,5.63,3.81.6.44,2.71,2.02,5.33,4.33,1.69,1.48,3.07,2.7,4.74,4.49.85.92.8.93,4.4,5.4,2.84,3.53,3.11,3.81,3.96,5,1.1,1.54,1.93,2.89,2.92,4.48.92,1.46,1.56,2.51,2.36,3.97,1.03,1.86,1.88,3.4,2.68,5.49.29.75.77,2.36,1.7,5.54,1.03,3.48.88,3.1,1.18,4.03,1.2,3.64,1.8,5.45,2.29,6.14.11.14.34.46.37.92.06.74-.47,1.2-.99,1.98-.4.6-.14.38-1.23,2.83-.79,1.76-.87,1.75-1.17,2.61-.26.75-.25.9-.63,2.01-.38,1.09-.62,1.58-.75,1.85-.23.47-.44.89-.82,1.37-.26.35-.35.39-.58.73-.31.47-.36.72-.57.78-.33.1-.72-.32-.83-.42h.02Z"/>
          <path class="cls-15" d="m104.09,435.63s3.28-4.14,3.92-5.63c.78-1.79.83-2.78,2.06-5.61.39-.92.92-1.92,1.93-3.89,2.55-4.96,2.81-5.1,3.55-6.89,1.51-3.62.56-3.27,1.85-5.83,1.45-2.91,3.1-4.2,3.35-7.17.08-.92.03-1.8.03-1.8,0,0,.05,2.86.32,6.24.27,3.41.51,3.48,1.1,8.71.44,3.83.34,4.1.72,6.13.55,2.97.88,3.08,1.26,5.55.63,4.04.94,5.98.94,5.98,0,0,2.52-.27,6.91-1.19,2.38-.5,4.56-.64,8.92-.94,3.74-.26,4.25-.1,6.04-.55,2.02-.5,2.59-.99,4.94-1.37,1.77-.3,1.93-.1,4.02-.43,2.85-.44,4.26-.7,4.26-.7,0,0-2.5,2.76-3.04,3.18-1.59,1.23-2.19,1.41-4.9,3.14-1.2.77-2.72,1.74-4.59,3.13-.59.45-1.86,1.41-3.39,2.74-1.31,1.13-1.26,1.19-3.55,3.27-2.21,2-2.34,2.04-2.96,2.75-1.4,1.63-1.09,1.91-2.3,3.25-1.75,1.93-3.35,3.18-3.35,3.18,0,0-.07,1.71.4,3.51.63,2.41,1.46,4.43,2.32,6.25.78,1.66.69,1.29,2.06,4.01,1.57,3.16,1.61,3.48,2.8,5.72,1.04,1.95,1.81,3.17,2.37,4.01.67,1.01,1.08,1.54,1.52,2.16,1.87,2.61,3.79,7.08,3.79,7.08,0,0-1.5-1.28-4.41-3.14-1.35-.86-1.59-.85-6.12-3.03-2.96-1.43-4.45-2.14-6.45-3.22-2.54-1.36-2.61-1.53-4.7-2.58-.44-.23-1.95-.92-4.94-2.31-1.3-.6-2.63-1.14-3.91-1.8-2.24-1.17-3.4-1.51-3.4-1.51,0,0-1.65,1.29-3.38,2.98-.58.57-.63.53-4.68,3.25-4.84,3.25-4.35,3.02-5.79,3.91-2,1.21-2.8,1.55-4.8,2.9-.4.27-.64.44-2.75,1.98-3.15,2.3-4.72,3.45-5,3.68-1.32,1.07-2.49,2.18-4.83,4.4-2.47,2.34-3.29,2.88-3.29,2.88,0,0,.88-2.27,3.37-7.61,1.54-3.3,1.68-3.81,3.18-6.9.86-1.77.88-1.71,2.31-4.62,1.97-3.99,1.83-3.87,2.75-5.61,1.13-2.16,1.59-2.83,2.71-5.11,1.72-3.5,1.54-4.52,1.54-4.52,0,0-1.54-1.3-5.13-2.97-2.83-1.32-2.43-1.35-4.33-2.2-3.13-1.37-3.79-1.1-8.69-2.64-3.86-1.21-3.46-1.39-7.32-2.57-3.66-1.12-5.52-1.86-5.52-1.86,0,0,2.1-.44,6.19-1.02,2.66-.37,4.93-.84,9.46-1.78,3.79-.79,3.46-.8,6.64-1.43,4.2-.83,4.44-.72,6.42-1.28,3.27-.93,3.28-1.41,5.86-1.9.88-.16,2.01-.33,3.43-.98,1.01-.46,2.27-1.38,2.27-1.38h0Z"/>
          <g>
            <path class="cls-27" d="m100.73,448.48c.05.55-.37-.9,0,0,.27.66.56,1.12,1.06,1.91.49.78,1.14,1.7,1.99,2.74.77.94,1.39,1.59,2.19,2.42.88.93,1.57,1.64,2.58,2.53,1.28,1.11,1.92,1.68,2.78,2.07,1.63.76,3.21.78,4.07.79,2.39.03,4.09-.66,5.12-1.1,1.86-.79,3.01-1.78,3.89-2.53.78-.66.99-.96,2.63-2.49.74-.69,1.52-1.57,1.93-1.92"/>
            <path class="cls-6" d="m120.32,440.1c.77-.26,1.5-.07,2.98.3.54.13.93.28,1.37.42.98.34,1.48.51,1.99.85.61.4,1.2.79,1.36,1.46.04.15,0,.11-.21,1.64-.09.6-.11.84-.31,1.1-.18.24-.39.36-.8.59-1.14.61-1.72.92-1.84.98-.62.26-1.03.43-1.62.55-1.25.24-2.26,0-2.77-.13-.92-.23-1.54-.38-2.1-.94-.76-.77-.87-1.75-.9-2.11-.1-.94.17-1.65.31-1.98.28-.74.69-1.21.92-1.46.44-.5.9-1.02,1.64-1.28l-.03.02Z"/>
            <path class="cls-6" d="m107.37,439.04c.77-.26,1.5-.07,2.98.3.54.13.93.28,1.37.42.98.34,1.48.51,1.99.85.61.4,1.2.79,1.36,1.46.04.15,0,.11-.21,1.64-.09.6-.11.84-.31,1.1-.18.24-.39.36-.8.59-1.14.61-1.72.92-1.84.98-.62.26-1.03.43-1.62.55-1.25.24-2.26,0-2.77-.13-.92-.23-1.54-.38-2.1-.94-.76-.77-.87-1.75-.9-2.11-.1-.94.17-1.65.31-1.98.28-.74.69-1.21.92-1.46.44-.5.9-1.02,1.64-1.28l-.03.02Z"/>
            <path class="cls-4" d="m120.81,444.6c.07-.37.65-.48.83-.52.22-.05.52-.1.73.08.27.23.2.61.2.66s-.06.32-.31.51c-.29.21-.61.13-.69.11-.4-.1-.82-.49-.76-.84Z"/>
            <path class="cls-4" d="m108.84,443.08c.07-.37.65-.48.83-.52.22-.05.52-.1.73.08.27.23.2.61.2.66s-.06.32-.31.51c-.29.21-.61.13-.69.11-.4-.1-.82-.49-.76-.84Z"/>
          </g>
        </g>
      </g>
      <g id="liv_figur" data-name="liv figur">
        <g>
          <path class="cls-14" d="m525.09,361.65c1.18,0,2.09,2.67,2.59,4.14.68,1.98.8,3.33,1.14,5.9.56,4.35.54,3.17,1.14,7.87.31,2.42.74,4.82.83,7.25.04,1.1.05,2.39.92,3.08.65.5,1.49.44,2.9.23,3.29-.48,5.8-1.13,5.94-1.17,1.26-.33,2.71-.64,5.61-1.26,2.52-.54,2.62-.51,6.5-1.31,2.66-.55,3.98-.82,5.71-1.22,3.35-.77,3.32-.89,5.57-1.36,3.38-.71,3.39-.45,6.32-1.07,4.14-.88,6.08-1.82,6.41-1.26.24.41-.58,1.28-2.11,2.9-2.1,2.22-3.99,3.77-5,4.58-2.62,2.1-2.56,1.88-4.49,3.46-2.84,2.33-2.7,2.6-5.15,4.58-2.74,2.23-3.05,2-6.03,4.4-1.28,1.03-.77.7-4.77,4.21-3.66,3.21-4.04,3.43-5.19,4.68-2,2.16-1.73,2.42-3.18,3.6-1.68,1.38-2.99,1.81-3.14,2.99-.07.61.22.92.89,2.15.69,1.28,1.13,2.38,2.01,4.58.3.77.68,2.03,1.4,4.54.68,2.33.8,2.87,1.64,5.8.71,2.49,1.07,3.76,1.45,4.91.21.65.37,1.09,1.73,4.77,1.64,4.42,1.81,4.85,2.24,6.13.52,1.52.84,2.58,1.5,4.73,2.03,6.67,1.98,7.35,1.68,7.53-.39.24-1.08-.47-3.32-2.24-2.13-1.69,0,.14-5.42-4.02-5.57-4.28-4.88-3.96-6.03-4.68-1.91-1.19-1.89-.88-7.35-3.51-4.6-2.22-4.37-2.33-6.45-3.14-3.69-1.43-4.1-.98-6.22-2.24-2.27-1.37-2.81-2.49-4.54-2.57-.99-.05-1.2.31-3.79,1.26-2.46.91-2.74.77-5.1,1.59-1.02.36-1.22.47-5.24,2.24-4.4,1.94-4.16,1.81-6.92,3.04-1.46.65-3.08,1.38-5.24,2.39-2.57,1.2-4.47,2.12-6.36,3.04-3.4,1.66-5.1,2.48-6.69,3.32-3.48,1.84-3.13,1.85-6.5,3.6-2.83,1.47-3.45,1.66-4.86,2.66-2.56,1.82-3.58,3.39-3.89,3.18-.46-.32,1.62-4.12,3.56-7.68.7-1.28,1.15-2.07,3.89-6.83,2.85-4.97,2.97-5.17,3.27-5.66,2.04-3.29,3.83-5.71,5-7.3.38-.52,1.94-2.48,5.05-6.41,2.78-3.5,4.17-5.27,4.68-5.75,1.76-1.7,2.93-2.42,2.72-3.09-.26-.81-2.24-.47-5.38-.94-2.27-.34-2.41-.68-7.81-2.39-1.79-.56-.98-.28-7.58-2.2-3.47-1.01-5.6-1.64-8.56-2.53-5.57-1.68-5.06-1.61-6.5-1.97-3.42-.86-4.76-.9-4.82-1.4-.08-.74,2.66-1.39,8.98-3.56,3.77-1.29,2.72-1.03,9.03-3.23,2.56-.89,11.71-3.91,8.37-2.85-4.2,1.32,4.29-1.34,9.65-1.97,6.86-.8-6.67.88,8.8-1.27,4.55-.63,5.98-.2,8.5-1.44,1.48-.73,1.19-1.7,3.79-5.66,1.18-1.8,1.2-1.55,5.05-6.5,2.85-3.67,2.56-3.45,5.05-6.64,4.11-5.27,4.08-4.81,5.57-7.07,3.43-5.21,4.21-6.69,4.21-6.69,1.07-2.05,1.55-3.31,2.36-3.31h0Z"/>
          <path class="cls-23" d="m508.07,406.13c-.08-.12-.22-.38-.23-.73-.02-.33.1-.56.12-.62.05-.1.18-.38.5-.56.29-.17.57-.15.68-.14.11,0,.4.03.66.23.35.27.41.66.42.77.02.1.05.42-.14.76-.14.26-.34.38-.38.41-.38.23-.78.16-.99.12-.14-.03-.38-.09-.63-.25h0Z"/>
          <path class="cls-23" d="m518.08,404.76c-.08-.12-.22-.38-.23-.73-.02-.33.1-.56.12-.62.05-.1.18-.38.5-.56.29-.17.57-.15.68-.14.11,0,.4.03.66.23.35.27.41.66.42.77.02.1.05.42-.14.76-.14.26-.34.38-.38.41-.38.23-.78.16-.99.12-.14-.03-.38-.09-.63-.25h0Z"/>
          <path class="cls-26" d="m503.25,408.84c.08.79.2,1.46.32,2,.22.98.48,1.7.53,1.85.22.6.41,1,.75,1.69.4.83.66,1.37,1.1,2.03.23.36.64.98,1.28,1.69.73.79,1.32,1.44,2.35,1.91,1.15.52,2.18.51,2.6.5.62-.02,1.12-.14,2.09-.41,1.31-.35,2.27-.61,3.35-1.25.06-.04.59-.43,1.66-1.22,1.29-.95,1.56-1.17,1.88-1.44.54-.46.98-.84,1.5-1.44.69-.8,1.13-1.55,1.34-1.97.26-.5.71-1.35.94-2.54.25-1.24.17-2.33.03-3.13"/>
        </g>
      </g>
      <g id="tegning_tid" data-name="tegning tid">
        <g>
          <path class="cls-15" d="m405.16,367.23c-.19-.7-1.86-.56-7.53-1.11-5.75-.56-5.45-.85-8.23-.97-3.53-.16-6.21.26-11.58,1.11-5.68.9-9.89,1.99-11.3,2.37-2.84.76-6.15,1.66-10.32,3.35-3.78,1.53-6.9,2.8-10.46,5.3-3.9,2.74-6.2,5.47-9.34,9.2-4.14,4.9-6.6,9.09-7.39,10.46-1.47,2.56-3.41,5.97-5.02,10.88-.39,1.19-1.59,4.99-2.23,10.18-.64,5.21-.4,9.14-.14,13.11.35,5.36,1.07,9.44,1.39,11.16.91,4.79,1.61,8.45,3.49,12.69,1.47,3.34,3.63,6.18,7.95,11.86,2.46,3.23,5.59,7.32,10.32,12.27,4.07,4.26,6.11,6.39,9.2,8.5,5.13,3.51,9.77,4.94,13.67,6.14,6.39,1.96,11.48,2.44,15.48,2.79,8.14.72,14.25.12,16.45-.14,3.91-.44,6.97-.82,10.88-2.23,3.71-1.34,6.26-2.93,9.62-5.02,4.82-3,9.89-5.85,9.48-6.83-.16-.4-1.1-.21-6.48.33-6.18.63-7.33.63-8.01.63-1.85-.02-4.51-.06-7.73-.97-1.92-.54-3.55-1.38-6.81-3.03-1.09-.55-3.79-1.95-7.57-4.24-2.04-1.24-4.42-2.69-7.08-4.59-6.15-4.42-10.21-8.73-11.2-9.8-3.56-3.85-6.09-6.58-8.24-10.97-1.29-2.62-1.18-3.26-4.61-16.4-2.01-7.7-2.1-7.66-2.28-9.13-.82-6.7.45-12,1.52-16.27.97-3.87,2.01-8.03,5.02-12.78.49-.77,2.85-4.43,7.15-8.21,2.62-2.31,5.33-3.9,10.64-6.99,1.77-1.03,4.01-2.3,11.25-6.24,7.84-4.26,10.25-5.5,10.01-6.39h0Z"/>
          <path class="cls-23" d="m348.82,415.42c0-.2,0-.52.17-.86.13-.25.3-.41.43-.5.14-.11.29-.22.5-.26.44-.07.77.25.83.3.2.18.27.38.33.53.14.35.12.68.1.86-.02.21-.07.51-.3.78-.25.29-.57.37-.71.4-.18.04-.63.16-.98-.1-.36-.27-.37-.77-.38-1.16h0Z"/>
          <path class="cls-3" d="m340.72,433.7c.45-.1.8-.25,1.04-.37.38-.19.63-.39.9-.6.34-.26.55-.44.78-.72.38-.46.54-.91.6-1.06.18-.52.2-.98.18-1.28"/>
          <path class="cls-3" d="m364.06,441.87c-.24.26-.64.63-1.23.89-.26.12-.75.3-1.78.34-.97.04-1.71-.08-2.25-.17-3.27-.52-2.84-.35-3.91-.59-1.54-.35-2.31-.53-3.23-1.06-.42-.25-.91-.63-1.91-1.4-.43-.34-1.07-.83-1.87-1.53-.97-.85-1.67-1.54-1.91-1.78-.92-.93-1.52-1.53-2.17-2.46-.36-.53-.63-.99-.81-1.32"/>
        </g>
      </g>
    </g>
  </g>
</svg>