<?xml version="1.0" encoding="UTF-8"?>
<svg id="Layer_2" data-name="Layer 2" xmlns="http://www.w3.org/2000/svg" xmlns:xlink="http://www.w3.org/1999/xlink" viewBox="0 0 1924.49 1081">
  <defs>
    <style>
      .cls-1 {
        font-size: 102.33px;
      }

      .cls-1, .cls-2, .cls-3, .cls-4 {
        fill: #2c1500;
      }

      .cls-1, .cls-3, .cls-4 {
        font-family: AlexisItalic, 'Alexis Italic';
      }

      .cls-5 {
        fill: url(#linear-gradient);
      }

      .cls-5, .cls-6, .cls-7, .cls-8, .cls-9, .cls-10, .cls-11, .cls-12 {
        stroke-width: 0px;
      }

      .cls-13, .cls-14 {
        stroke-linecap: round;
      }

      .cls-13, .cls-14, .cls-15, .cls-16, .cls-17, .cls-18, .cls-19, .cls-20, .cls-21, .cls-22, .cls-23, .cls-2, .cls-24, .cls-25, .cls-26 {
        stroke-miterlimit: 10;
      }

      .cls-13, .cls-14, .cls-15, .cls-16, .cls-17, .cls-18, .cls-21, .cls-22, .cls-23, .cls-2, .cls-24, .cls-25, .cls-27, .cls-28, .cls-26, .cls-3, .cls-4 {
        stroke: #2c1500;
      }

      .cls-13, .cls-26 {
        fill: none;
      }

      .cls-14 {
        fill: #e7a8ba;
      }

      .cls-15 {
        fill: #b8d7e5;
      }

      .cls-16 {
        fill: #e2e1e0;
      }

      .cls-17 {
        fill: #ffe2c4;
      }

      .cls-18 {
        fill: #fff;
      }

      .cls-19, .cls-20 {
        stroke: #272525;
      }

      .cls-19, .cls-8 {
        fill: #b0c4de;
      }

      .cls-20, .cls-7 {
        fill: #add8e6;
      }

      .cls-21 {
        fill: #c2c1c1;
      }

      .cls-22 {
        fill: #8d6a4d;
      }

      .cls-23 {
        fill: #b6c4db;
      }

      .cls-24 {
        fill: #585049;
      }

      .cls-25 {
        fill: #f8e2c3;
      }

      .cls-27 {
        fill: #b7c5db;
      }

      .cls-28 {
        fill: #b8d7e6;
      }

      .cls-3 {
        font-size: 110.47px;
      }

      .cls-29 {
        letter-spacing: -.09em;
      }

      .cls-30 {
        letter-spacing: -.02em;
      }

      .cls-6 {
        fill: #638bc8;
      }

      .cls-9 {
        fill: #a98b52;
      }

      .cls-10 {
        fill: #9d794e;
      }

      .cls-11 {
        fill: #b4a26d;
      }

      .cls-12 {
        fill: #978475;
      }

      .cls-4 {
        font-size: 198.14px;
      }
    </style>
    <linearGradient id="linear-gradient" x1="4302" y1="-3340" x2="5382" y2="-3340" gradientTransform="translate(-3882 3880)" gradientUnits="userSpaceOnUse">
      <stop offset=".14" stop-color="#254895"/>
      <stop offset=".38" stop-color="#6151d5"/>
      <stop offset=".57" stop-color="#4d6bbc"/>
      <stop offset=".81" stop-color="#d56630" stop-opacity=".9"/>
    </linearGradient>
  </defs>
  <g id="forside">
    <rect class="cls-5" x="420" y="-420" width="1080" height="1920" transform="translate(1500 -420) rotate(90)"/>
    <g>
      <path class="cls-20" d="m217.5,606.5c-1.35-2.04.37-3.38,3-16,1.75-8.37,2.56-15.31,3-19,1.44-12.21.43-12.63,2-18,1.2-4.1,3.46-8.07,8-16,4.75-8.32,8.81-14.27,10-16,5.07-7.38,8.12-11.81,13-17,6.36-6.76,12.04-10.78,18-15,5.11-3.62,11.97-8.42,22-13,4.35-1.99,12.61-5.7,24-8,6.96-1.41,12.98-1.61,25-2,15.82-.52,23.73-.78,32,1,8.55,1.84,14.69,4.65,22,8,9.46,4.33,16.03,8.54,23,13,9.57,6.12,16.25,11.3,21,15,10.78,8.4,16.17,12.6,20,18,5.45,7.7,7.59,15.01,9,20,2.29,8.08,1.29,9.59,3,26,2.11,20.27,4.68,28.03,0,32-1.51,1.28-3.71,1.52-8,2-9.08,1.02-15.31-.29-21-1-2.38-.3-1.25-.07-26,0-2.33,0-12,.03-23,0-21.65-.06-21.52-.25-27,0-13.35.61-13.66,1.73-25,2-11.91.28-12.34-.94-25-1-13.39-.06-15.72,1.29-32,2-17.85.78-16.29-.79-29,0-25.45,1.57-38.5,8.28-42,3Z"/>
      <path class="cls-19" d="m369.5,522.5c-.85,2.56,3.93,5.4,8,10,6.85,7.74,5.49,13.45,9,14,4.08.64,5.16-7.17,15-14,4.17-2.89,8.1-4.34,10-8,.26-.5.95-1.93,2-2,1.13-.07,1.99,1.49,3,3,2.01,2.99,4.45,6.64,7,7,1.47.21,2.15-.79,8-6,5.23-4.66,5.01-4.14,8-7,4.23-4.05,6.34-6.07,7-7,1.14-1.62,1.82-2.96,3-3,1.08-.04,1.74,1.03,4,4,3.95,5.19,4.95,5.88,6,6,1.78.2,3.3-1.31,4-2,5.39-5.3,11.64-9.67,17-15,6.26-6.23,9.39-9.34,14-13,5.24-4.17,9.35-6.72,9-10-.12-1.07-.67-1.84-4-5-4.31-4.08-6.94-6.15-9-8-4.41-3.94-3.33-4.23-9-10-3.14-3.19-5.64-5.31-10-9-2.67-2.26-5.75-4.86-10-8-4.78-3.53-4.98-3.27-10-7-4.94-3.67-7.41-5.5-9-7-3.88-3.65-5.91-6.58-8-6-.75.21-.93.7-2,2-1.42,1.71-2,1.94-7,6-2.93,2.38-4.39,3.57-6,5-2.58,2.29-3.23,3.16-7,7-7.85,7.99-7.68,6.93-10,10-3.26,4.31-3.04,5.64-6,8-2.05,1.63-3.94,2.4-4,4-.06,1.42,1.36,2.62,3,4,2.87,2.42,4.83,2.61,5,4,.1.85-.55,1.42-2,3-1.76,1.92-3.27,4.05-5,6-3.24,3.66-2.72,3.5-5,6-2.31,2.53-3.46,3.8-5,5-3.07,2.39-4.88,2.68-5,4-.08.88.88,1.04,4,4,1.99,1.89,1.61,1.81,3,3,1.95,1.68,3.02,2.12,3,3-.02.78-.9,1.22-2,2l-5,5c-1.67,1.67-3.33,3.33-5,5s-3.26,3.41-5,5c-1.65,1.5-1.85,1.54-2,2Z"/>
      <path class="cls-20" d="m216,625c-4.88,3.41-1.17,14.81,1,28,2.37,14.38,2.17,26.28,2,36-.34,19.71-3.49,26.43,1,30,4.09,3.26,9.57-.05,25-3,5.35-1.02,13.23-1.68,29-3,15.04-1.26,20.35-.75,48-1,13.2-.12,25.47-.41,50-1,31.68-.76,35.34-1.13,48-1,0,0,34.02,2,43,2h10c1.08,0,2.13.58,3,0,.88-.59.97-1.74,1-7,.01-2.74,0-5.46,0-7,0-2.37,0-3.55,0-4,.09-4.4.77-7.75,1-9,1.97-10.71,2-36.17,2-42v-19c.4-3.01,1.08-5.11,0-6-.91-.74-2.51-.17-3,0h-47c-21.24.03-28.64,1.06-59,2-31.56.98-27.37-.02-54,1-32.41,1.24-33.72,2.53-50,2-10.99-.36-22.08,1.36-33,0-.64-.08-7.22-.91-15,1-1.61.4-2.43.6-3,1Z"/>
      <path class="cls-19" d="m221,605c-6.65,0-9.98,0-10,0-.82-.1-9.35-1.11-10,0-.21.36-.11.6,0,2v6c0,2,.08,4,0,6-.21,4.85-.87,5.92,0,7,1.01,1.25,2.87,1,6,1,4.81,0,2.39.59,11,1,6.12.29,11,.16,16,0,10.8-.36,16.2-.53,23-1,14.84-1.02,25.97-2.49,30-3,16.39-2.06,31.26-2.37,61-3,30.03-.64,35.36.3,71,0,0,0,29.22-1,48-1h18c1.86,0,3.33.76,4,0,.52-.59.08-1.42,0-3-.08-1.61.31-1.91,1-5,.59-2.65.18-1.89,1-7,.39-2.41.62-3.43,0-4-.8-.75-2.44-.18-3,0h-28c-10.64-.15-12.65-.72-23-1-6.96-.19-11.87-.09-17,0-32.28.56-41.79.1-78,1-22.88.57-62.9,1.84-86,3,0,0-19.86,1-35,1Z"/>
      <path class="cls-19" d="m270,712c-2.69-1.86-2.01-6.48-1-17,1.72-17.83.88-15.96,2-22,1.44-7.71,2.47-13.26,6-20,1.77-3.38,4.15-7.81,9-12,2.01-1.74,6.3-5.35,13-7,3.06-.75,10.06-2.47,17,1,7.86,3.93,10.63,12.01,12,16,1.44,4.19,1.62,8.13,2,16,.17,3.53.03,3.94,0,18-.01,6.44-.02,9.66,0,10,.52,9.26,2.3,14.59,0,16-.64.4-1.17.21-3,0-.69-.08-.15,0-10,0-18.3,0-17.78-.28-23,0-10.73.57-16.09.86-17,1-3.71.57-5.44,1.08-7,0Z"/>
      <path class="cls-20" d="m316,686c-.39-.06-1.28-.26-2-1-1.01-1.03-1-2.38-1-3,.01-1.5.69-2.57,1-3,.35-.49,1.32-1.82,3-2,1.45-.15,2.54.66,3,1,.27.2,1.59,1.2,2,3,.11.5.28,1.21,0,2-.37,1.06-1.27,1.58-2,2-1.5.87-3.02,1.01-4,1Z"/>
      <path class="cls-7" d="m431.5,483.5s2.86,3.41,5,6c6.71,8.14,7.12,9.01,10,12,4.57,4.76,4.99,4.08,7,7,2.15,3.12,3.12,5.98,5,6,.47,0,.71-.17,3-2,3.69-2.95,3.99-3.24,5-4,2.68-2.03,4.13-2.69,4-3-.21-.5-3.77,1.44-8,1-2.81-.3-4.83-1.61-7-3-4.01-2.56-6.47-5.39-7-6-2.76-3.15-17-14-17-14Z"/>
      <path class="cls-7" d="m407.5,510.5c3.24,3.12,3.74,2.51,6,5,1.9,2.09,1.75,2.75,5,7,2.66,3.48,3.36,3.84,4,4,2.06.52,4-.86,7-3,3.81-2.72,3.39-3.63,7-6,.3-.2,1.53-1.13,4-3,1.62-1.23,2.04-1.56,2-2-.1-1.14-3.17-2.16-6-2-2.6.15-3,1.18-6,2-.53.14-4.59,1.2-9,0-2.58-.7-4.14-1.87-7-4-3.61-2.69-4.32-4.06-9-8-3.41-2.87-5.36-4.48-6-4-.9.68,1.21,5.16,3,8,.38.61,1.99,3.1,5,6Z"/>
      <path class="cls-7" d="m376.5,524.5s3.1,5.27,4,7c1.11,2.15,1.67,3.22,2,4,1.46,3.48,1.52,5.25,3,6,1.07.54,2.26.2,3,0,.93-.25,2.04-.8,4-3,1.72-1.92,1.68-2.41,3-4,2.12-2.57,4.5-4.06,6-5,2.04-1.28,2.81-1.41,5-3,1.62-1.17,3.24-2.35,3-3-.32-.85-3.69-.35-6,0-2.03.31-4.63.71-8,2-3.37,1.29-3.32,1.86-5,2-2.51.21-3.6-.98-7-2-1.56-.47-3.92-.99-7-1"/>
      <path class="cls-11" d="m2.5,805.35c3.09-12.35,70-29.49,70-29.49,28.81-7.38,16.39-8.89,85-33.71,32.2-11.65,48.98-16.39,65-20.01,22.64-5.11,39.38-6.98,43-7.37,18.17-1.97,21.64-.89,53-2.11,34.25-1.33,33.48-2.75,58-3.16,7.31-.12,22.64.27,53,1.05,40.61,1.05,45.22,1.41,51,2.11,14.93,1.79,19.78,3.61,50,10.53,33.07,7.57,29.14,5.82,69,14.75,34.16,7.65,51.56,11.58,67,16.85,22.95,7.83,41.05,16.35,51,21.07,16.82,7.97,27.81,14.21,42,22.12,59.69,33.27,58.53,30.65,89,48.45,29.07,16.99,23.1,15.27,73,46.35,49.53,30.85,54.82,32.16,89,54.77,5.1,3.37,32.35,21.49,66,48.45,13.9,11.14,46.93,38.23,44,43.19-.69,1.16-2.9.36-10,0-9.11-.46-14.07.43-22,1.05-2.89.23-10.43.76-48,1.05-36.17.28-54.25.42-74,0-33.28-.71-33.75-1.87-73-3.16-18.42-.6-44.12-1.45-75-1.05-47.1.6-50.03,3.36-96,4.21-36.54.67-34.72-1.07-85-1.05-36.52.01-63.83.94-98,2.11-66.54,2.27-65.74,3.74-104,4.21-50.07.62-50.02-1.93-98-1.05-13.12.24-51.18,1.12-100,5.27-42.57,3.62-43.29,5.47-85,8.43-36.57,2.6-42.11,1.61-62,5.27-34.51,6.35-51.76,9.52-55,10.53-12.67,3.95-26.52,9.43-32,3.16-2.73-3.12-2.25-7.86-2-10.53,1.91-20.62-1.16-41.47,0-62.14.82-14.72,0-29.49,0-44.24v-136.93c-.17-1.29-.95-6.68,0-13.69,0,0,.37-2.75,1-5.27Z"/>
      <path class="cls-12" d="m257,716c.84-1.69,3.06-2.14,16-3,9.24-.61,13.85-.92,18-1,7.36-.14,13.08-.13,30,0,14.5.11,16.39.15,21,0,10.42-.35,15.63-.52,18-1,3.36-.68,6.97-1.72,12-1,2.77.4,4.04,1.05,7,2,5.77,1.85,8.26,1.71,16,3,4.69.79,9.13,1.86,18,4,8.91,2.15,13.36,3.23,19,5,4.94,1.55,11.03,4.06,23,9,11.63,4.8,17.56,7.26,23,10,6.62,3.34,10.76,5.37,16,9,4.16,2.88,9.91,6.87,15.5,13.5,8.33,9.89,11.47,19.94,13,25,1.71,5.66,2.47,12.1,4,25,.77,6.47,1.34,12.86,3,23,1.04,6.37,1.87,10.31,4,15,.44.96,2.6,5.64,7,11,1.54,1.88,7.12,8.41,17,14,7.65,4.32,13.96,5.86,23,8,11.74,2.77,21,3.49,28,4,10.71.78,11.49.09,31,1,12.45.58,15.94,1.04,20,2,8.72,2.07,15.53,5.4,20,8,2.32,1.35,11.17,6.67,20,17,6.63,7.75,5.39,9.13,14,21,3.62,4.99,8.9,12.21,17,20,8.42,8.11,16,13.09,22,17,12.3,8.01,13.54,6.73,26,15,.94.62.72.49,20,15,10.58,7.96,16.75,12.6,16,14-.3.57-1.55.24-5,0-.69-.05-4.13-.03-11,0-3.25.02-4.76.23-20,2-9.58,1.11-14.45,1.64-18,0-2.47-1.14-1.71-1.53-7-5-5.23-3.44-9.67-5.48-13-7-3.54-1.61-6.19-2.83-10-4-6.17-1.9-7.67-1.34-13-3-4.71-1.47-7.94-3.28-11-5-4-2.25-7.38-4.63-15-11-4.18-3.5-7.33-6.26-16-14-12.24-10.93-13.01-11.71-16-14-4.77-3.65-9.7-7.39-17-11-3.54-1.75-10.58-4.93-20-7-2.28-.5-7.52-1.55-24-2-13.19-.36-15.03.18-30,0-9.84-.12-16.75-.21-26-1-11.69-.99-18.24-1.55-27-4-10.62-2.97-18.21-6.96-24-10-5.17-2.72-11.56-6.11-19-12-6.03-4.77-11.3-8.94-16-16-5.14-7.73-6.8-14.72-9-24-1.6-6.76-1.27-7.86-4-27-1.83-12.87-2.78-19.38-4-23-3.98-11.76-10.35-19.6-14-24-7.81-9.43-15.75-14.9-19-17-9.65-6.25-17.95-8.72-29-12-9.31-2.76-16.67-4.11-27-6-6.55-1.2-7.35-1.17-24-4-12.79-2.18-15.83-2.79-20-4-4.59-1.33-10.71-3.13-18-7-2.64-1.4-10.5-5.76-19-14-5.96-5.78-14.64-14.2-12.5-18.5Z"/>
      <path class="cls-10" d="m663.5,745.24c4.47-2.75,10.9-6.33,19-9.59,4.75-1.91,11.34-4.22,26-7.46,11.94-2.64,20.62-3.99,29-5.33,31.6-5.04,25.75-4.56,45-7.46,11.22-1.69,27-4.05,48-6.39,8.98-1,25.76-2.77,47-4.26,17.97-1.26,31.71-1.81,40-2.13,9.98-.39,10.7-.31,40-1.07,29.85-.77,31.46-.91,42-1.07,9.06-.13,9.06-.03,42,0,13.29.01,24.19,0,46,0,33.03-.01,31.82-.05,35,0,7.61.11,14.63.29,55,2.13,36.36,1.65,36.6,1.77,48,2.13,21.47.68,22.54.31,36,1.07,15.23.85,16.66,1.47,41,3.2,18.14,1.29,18.51,1.03,32,2.13,13.73,1.12,14.74,1.51,33,3.2,21.29,1.97,21.1,1.56,38,3.2,5.02.49,7.18.73,38,4.26,22.76,2.61,34.2,3.92,37,4.26,19.95,2.45,31.42,3.85,47,6.39,13.12,2.14,26.44,4.34,44,8.52,14.16,3.38,24.82,6.55,35,9.59,14.13,4.21,8.68,3,36,11.72,10.08,3.22,17.4,5.48,27,10.65,3.24,1.75,18.15,9.78,17,13.85-.35,1.24-2.05,1.65-4,2.13-8.35,2.06-16.59,4.63-25,6.39-4.74.99-8.16,2.08-15,4.26-9.02,2.87-14.61,5.34-27,10.65-27.56,11.82-24.32,10.08-30,12.78-8.41,4-9.91,5.14-30,15.98-24.6,13.27-22.17,11.45-32,17.04-14.52,8.26-14.57,9.22-38,23.43-19.47,11.81-19.61,11.25-32,19.17-5.27,3.37-13.51,8.99-30,20.24-15.51,10.58-15.45,10.63-28,19.17-20.09,13.66-19.63,13.1-25,17.04-4.12,3.03-5.16,3.93-29,23.43-18.68,15.28-20.76,16.96-25,21.3-5.14,5.27-9.65,10.56-17,19.17-3.15,3.69-8.37,9.9-16,18.11-.49.53-1.21,2.6-3,3.2-.87.29-1.41.08-4,0h-51c-34.78,0-34.12,0-35,0-8.84.07-24.1.99-39,1.07-6.58.03-9.87.05-12,0-7.41-.17-7.72-.5-10,0-4.99,1.1-8.21,3.74-10,2.13-.68-.61-1.42-2.07-2-3.2-.57-1.12-.6-1.42-1-2.13-.99-1.78-2.35-2.71-3-3.2-2.44-1.82-3.47-3.7-6-6.39-7.34-7.81-24-21.3-24-21.3-14.91-12.07-11.86-11.06-27-23.43-3.04-2.49-14.7-11.96-31-23.43-3.55-2.5-4.19-2.89-34-22.37-20.83-13.61-25.07-16.39-33-21.3-7.38-4.57-7.28-4.37-23-13.85-19.64-11.85-21.3-13.06-35-21.3-17.59-10.58-17.21-9.99-38-22.37-15.11-9-15.61-9.49-37-22.37-22.36-13.47-33.54-20.2-43-25.56-6.22-3.53-24.16-13.62-48-25.56-20.24-10.14-30.36-15.21-39-18.11-8.75-2.94-17.1-7.22-26-9.59-5.9-1.57-13.82-3.26-14-6.39-.1-1.72,2.15-3.57,3-4.26,2-1.64,4.06-2.02,5-2.13Z"/>
      <path class="cls-11" d="m1284,1030.07c-1.36-4.02,7.85-10.81,13-14.76,20.4-15.67,2.84-6.67,43-40.07,10.35-8.61,29.21-23.91,56-43.23,29.93-21.58,54.26-36.99,66-44.29,27.17-16.87,51.13-30.16,70-40.07,13.87-7.29,40.56-20.93,75-35.85,19.42-8.41,32.34-13.97,51-20.03,8-2.6,27.27-8.62,53-13.71,33.14-6.56,57.8-7.79,95-9.49,0,0,42.94-2.33,82-1.05,10.91.36,21,1.05,21,1.05,2.61-.78,9.91-2.67,13,1.05,1.97,2.38,1.36,6,1,8.44-1.38,9.38-.51,18.99-1,28.47-.08,1.65-.01.66,0,27.42,0,.63,0,7.68,0,17.93,0,30.46,0,30.04,0,30.58.17,18.5.74,18.6,1,39.01.08,6.04.19,15.33,0,27.42-.23,14.32-.65,18.19-1,30.58-.46,16.55-.8,28.45,0,43.23,1.31,24.35,4.87,41.31,0,43.23-.3.12-.87.08-2,0-7.03-.5-11.43-2.18-16-3.16-3.66-.79-3.18-.22-10-1.05-9.6-1.18-12.54-2.55-22-4.22-2.31-.41-1.74-.26-17-2.11-12.56-1.53-18.97-2.31-25-3.16-11.37-1.62-10.21-1.78-20-3.16-13.23-1.87-23.61-2.76-29-3.16-7.16-.54-10.84-.61-23-1.05-23.94-.87-35.92-1.3-48-2.11-15.09-1.01-12.81-1.4-34-3.16-9.58-.8-28.09-2.32-51-3.16-25.71-.94-25.7.12-49-1.05-17.93-.9-19.95-1.63-36-2.11-13.6-.4-24.02-.23-38,0-19.13.32-20.81.74-38,1.05-15.63.29-26.75.18-44,0-9.72-.1-27.65-.29-51-1.05-29.3-.95-26.87-1.49-33-1.05-4.49.32-19.9,1.61-39,1.05-7.34-.21-12.13-.61-13-3.16Z"/>
      <path class="cls-8" d="m222,600c-1.67-2.36,1.94-5.35,5-16,2.04-7.1,2.66-13.5,3-17,.79-8.17-.12-8.56,1-13,.98-3.92,3-7.33,7-14,2.99-4.99,5.68-9.44,10-15,4.37-5.62,10.1-12.99,12-12,1.88.98-.42,9.89-3,16-2.33,5.52-3.78,6.12-6,12-1.76,4.67-2.39,8.37-3,12-.76,4.5-1.72,10.43-1,18,.71,7.43,1.06,11.14,4,14,2.56,2.49,6.74,3.03,15,4,7.09.83,8.33.43,14,1,9.36.94,20.12,3.48,20,5-.02.24-.35,1-13,2-8.82.69-15.09.83-21,1-14.44.42-21.66.63-25,1-12.36,1.37-17.24,3.49-19,1Z"/>
      <path class="cls-8" d="m473,708c2.04-2.11.14-4.77,0-14-.03-2.13.08-1.6,1-15,.73-10.54.79-12.76,0-13-1.47-.44-4.71,6.39-5,7-1.22,2.61-1.26,3.51-3,9-1.53,4.85-2.45,7.7-4,11-1.83,3.88-2.62,5.9-4,7-2.19,1.74-4.62,1.91-11,2-7.94.11-9.64-.08-13,0-8.05.2-17.01,1.74-17,3,0,1.03,6.04,1.76,8,2,6.53.79,9.62.12,16,0,6.22-.11,11.39.38,18,1,9.79.93,12.25,1.81,14,0Z"/>
      <polygon class="cls-9" points="2 1081 1922 1081 1922 1050.5 1855 1040.5 1710 1028.5 1502 1019.5 1284 1016.5 1083.5 1007.28 893.5 1021.5 722.5 1024.5 539.5 1025.5 337.5 1028.5 152.5 1041.5 1.5 1049.5 2 1081"/>
    </g>
    <g>
      <g>
        <rect class="cls-23" x="387.83" y="73" width="1220.61" height="946" rx="30.89" ry="30.89"/>
        <rect class="cls-15" x="422.61" y="116.96" width="1151.04" height="858.09" rx="23.43" ry="23.43"/>
        <text class="cls-4" transform="translate(457.53 317.16) scale(.87 1)"><tspan x="0" y="0" xml:space="preserve"> Game o</tspan><tspan class="cls-29" x="784.25" y="0">v</tspan><tspan x="897.39" y="0">er</tspan></text>
        <text class="cls-3" transform="translate(535.36 434.44) scale(.59 1)"><tspan x="0" y="0">you on</tspan><tspan class="cls-30" x="386.87" y="0">l</tspan><tspan x="441.77" y="0" xml:space="preserve">y caught  meteors</tspan></text>
      </g>
      <g>
        <rect class="cls-27" x="827.23" y="547.11" width="339.48" height="195.1" rx="15.2" ry="15.2"/>
        <rect class="cls-28" x="843.36" y="564.09" width="306.88" height="161.3" rx="15.2" ry="15.2"/>
        <text class="cls-1" transform="translate(859.76 664.64) scale(.84 1)"><tspan x="0" y="0">Retry</tspan></text>
      </g>
      <g>
        <path class="cls-25" d="m570.57,558.5c.52-16.61.12-17.44,1.1-21.68.84-3.62,2.55-10.62,8.09-17.64,1.78-2.26,7.94-9.86,18.74-13.23,6.06-1.89,11.1-1.68,16.28-1.47,7.27.3,12.71,1.79,15.91,2.69,4.08,1.14,8.97,2.55,14.69,5.88,2.9,1.68,6.83,4.01,10.77,8.32,4.58,5.01,6.65,9.95,8.08,13.47,2.3,5.65,2.98,9.98,4.16,17.63.49,3.16,1.38,9.55,1.71,17.87.4,10.08-.2,18.31-.73,23.5-.35,3.41-1.3,8.85-3.18,19.59-2.73,15.6-2.38,12.71-4.65,25.46-2.46,13.85-2.91,17.48-5.39,23.75-3.42,8.67-6.62,12.03-7.84,13.22-4.99,4.9-10.49,6.64-14.45,7.83-4.37,1.32-13.41,4.06-23.5.49-7.49-2.65-11.97-7.51-15.42-11.26-4.91-5.33-7.44-10.41-9.06-13.71-.73-1.49-2.61-5.48-6.12-18.85-1.07-4.07-2.98-11.65-5.14-22.52-1.95-9.84-2.93-14.75-3.67-21.79-.92-8.77-.97-15.71-.98-19.83-.02-5.76.21-5.52.59-17.71Z"/>
        <ellipse class="cls-18" cx="597.24" cy="579.41" rx="17.13" ry="17.85"/>
        <ellipse class="cls-18" cx="645.79" cy="576.35" rx="17.13" ry="17.85"/>
        <g>
          <path class="cls-26" d="m599.47,574.47c.07-.28.25-.53.48-.71.2-.17.44-.29.69-.36.13-.04.26-.06.39-.05.31.02.6.21.78.47s.24.58.24.9c0,.26-.06.53-.24.71-.76.73-2.67.36-2.33-.95Z"/>
          <path class="cls-26" d="m600.87,574.72c-.09-.15-.17-.32-.22-.49.11-.03.22.04.27.15s.04.22.03.33c0,.09-.01.18-.07.25-.12.13-.36,0-.38-.16s.15-.32.32-.34"/>
        </g>
        <g>
          <path class="cls-26" d="m641.58,569.91c.07-.28.25-.53.48-.71.2-.17.44-.29.69-.36.13-.04.26-.06.39-.05.31.02.6.21.78.47s.24.58.24.9c0,.26-.06.53-.24.71-.76.73-2.67.36-2.33-.95Z"/>
          <path class="cls-26" d="m642.98,570.16c-.09-.15-.17-.32-.22-.49.11-.03.22.04.27.15s.04.22.03.33c0,.09-.01.18-.07.25-.12.13-.36,0-.38-.16s.15-.32.32-.34"/>
        </g>
        <path class="cls-13" d="m584.34,557.11c-.09-.37-.3-1.5.33-2.5.64-1.02,1.76-1.3,2.59-1.5,1.06-.26,1.97-.18,2.51-.08"/>
        <path class="cls-13" d="m610.4,530.47c.35-.43.94-1.06,1.84-1.59.55-.32,1.57-.91,3.01-.92,1.4,0,2.44.54,2.92.83"/>
        <path class="cls-13" d="m605.47,525.04c.4-.82,1.18-2.05,2.59-2.84,1.03-.58,1.97-.68,3.42-.83.96-.1,2.33-.18,4.01,0"/>
        <path class="cls-13" d="m649.97,550.68c.45-.33,1.31-.87,2.5-1.09.7-.13,1.69-.31,2.67.17,1.59.77,1.96,2.65,2,2.92"/>
        <path class="cls-13" d="m579.08,578.39c-.71-1.12-1.78-2.84-3.02-4.98-1.85-3.22-2.06-3.91-3.28-5.64-.87-1.24-2.2-3.1-4.46-4.98-1.21-1.01-2.95-2.43-5.64-3.41-3.6-1.31-6.69-1.03-7.6-.92-3.13.37-5.43,1.58-6.69,2.36"/>
        <path class="cls-13" d="m662.47,567.77c.47-1.32,1.24-3.18,2.49-5.24,1.7-2.81,3.47-4.62,5.51-6.69.4-.41,2.33-2.11,6.16-5.51,3.02-2.68,4.13-3.64,5.9-4.85,1.69-1.15,3.18-1.97,4.2-2.49"/>
        <path class="cls-13" d="m616.05,578.52c.38-.53,1.12-1.43,2.36-2.1,1.03-.56,1.94-.7,2.49-.79.75-.11,2.1-.3,3.67.26,1.16.41,1.98,1.07,2.49,1.57"/>
        <path class="cls-13" d="m620.85,587.15c.77,1.36,1.66,2.9,2.68,4.59,1.79,2.97,2.41,3.78,3.06,5.54.63,1.72,1.18,3.27.76,5.16-.14.66-.59,2.73-2.29,3.63-1.66.88-3.54.14-5.35-.57-1.87-.74-3.21-1.76-4.01-2.48"/>
        <path class="cls-21" d="m623.67,611.21c-.57,1.97,1,4.04,1.91,5.25.66.87,2.14,2.58,6.92,4.77,1.17.54,4.87,2.17,10.5,3.34,3.73.78,6.63,1,9.07,1.19,3.92.3,7,.28,8.59.24,2.44-.06,4.1-.21,7.16-.48,5.84-.52,8.76-.78,10.74-1.43,4.06-1.35,6.79-3.48,8.11-4.53,2.62-2.09,4.09-4.02,6.44-7.16.43-.58,6.77-9.08,5.73-10.02-.55-.49-2.46,1.67-6.44,3.82-1.89,1.02-7.69,4.07-14.79,3.82-3.81-.14-6.56-1.17-11.69-3.1-6.59-2.48-6.06-3.44-9.78-4.29-4.78-1.1-8.71-.21-15.98,1.43-2.8.63-4.89,1.38-9.07,2.86-5.73,2.04-7,2.95-7.4,4.29Z"/>
        <path class="cls-21" d="m619.14,611.21c-.98-2.73-3.21-4.15-3.82-4.53-2.72-1.69-5.49-1.46-8.59-1.19-1.14.1-4.87.49-9.54,2.62-2.76,1.26-4.71,2.67-8.59,5.49-5.92,4.29-5.58,4.82-8.35,6.2-4.46,2.23-8.6,2.5-10.97,2.62-2.58.14-6.2.33-10.26-1.19-5.42-2.04-8.01-5.81-8.35-5.49-.44.41,4.29,6.39,10.02,12.17,3.28,3.31,4.97,4.99,7.4,6.44,1.41.84,5.98,3.4,12.4,3.82,5.2.34,8.92-.9,14.08-2.62,6.52-2.18,10.89-4.94,13.6-6.68,4.44-2.85,6.82-4.42,8.83-7.63,1.1-1.77,3.65-5.85,2.15-10.02Z"/>
        <path class="cls-14" d="m604.35,652.95c-1.28-1.3,1.51-7.34,6.2-10.74.65-.47,3.26-2.28,7.16-2.86,2.26-.34,6.66-1,9.78,1.67,2.29,1.96,2.71,4.7,3.34,8.83.57,3.76.54,8.37-.48,8.59-.89.19-1.25-3.21-4.53-5.73-2.57-1.97-5.46-2.27-6.68-2.39-2.51-.24-4.73.32-9.07,1.43-4.35,1.12-5.2,1.72-5.73,1.19Z"/>
        <path class="cls-21" d="m581.69,515.78c-1-2.69-5.75-.84-11.45-4.77-3.68-2.53-5.45-5.88-7.4-9.54-3.33-6.28-4.1-11.92-4.29-13.6-1.35-11.73,1.67-20.75,1.67-20.75,0,0-5.15,4.54-5.49,5.01-2.79,3.98-3.54,7.88-4.06,10.74-.38,2.08-.95,6.29-.24,11.69.98,7.46,3.77,12.3,3.1,12.64-.62.32-2.47-4.06-7.4-8.11-.89-.74-3.88-3.1-8.35-4.77-5.3-1.98-9.71-1.86-14.79-1.67-3.73.14-11.21,2.15-11.21,2.15,0,0,3.14,1.13,8.59,3.82,3.94,1.94,6.69,4.01,9.3,5.96,2.92,2.19,2.88,2.49,8.11,6.92,6.25,5.3,8.9,7.08,8.59,7.63-.39.68-4.43-1.96-11.45-3.34-6.6-1.29-11.61-.64-16.46,0-3.69.49-7.87,2.39-7.87,2.39,0,0,4.15,3.2,6.92,4.29,2.98,1.18,5.64,1.88,10.5,2.86,9.05,1.84,9.16,1.33,11.93,2.39,3.59,1.38,5.75,3.14,9.78,6.44,1.19.97,5.61,4.66,11.45,11.45,5.06,5.89,7.27,9.56,8.35,9.07.98-.46-.57-3.66,0-9.78.33-3.6,1.24-6.48,1.91-8.59.45-1.42,1.33-4,2.86-7.16,4.4-9.06,8.32-10.89,7.4-13.36Z"/>
        <path class="cls-21" d="m641.29,509.44c-.07-1.54,2.74-1.67,5.23-4.65,1.46-1.75,2.07-4.04,3.3-8.63.9-3.39,1.37-6.06,1.55-7.17.39-2.36,1.08-6.67,1.07-12.31,0-1.63-.07-6.55-1.16-12.79-.61-3.49-1.07-6.01-1.07-6.01,0,0,2.06,4.84,2.91,7.37,1.2,3.58,1.62,5.29,3.2,10.47,2.14,7.01,2.93,8.9,3.39,8.82.45-.08.02-1.89.87-4.17.53-1.41,1.51-2.91,5.14-5.62,1.27-.95,3.29-2.37,8.63-5.23,4.03-2.17,6.61-3.37,9.01-4.36,3.53-1.46,6.98-1.94,6.98-1.94,0,0-.65,1.62-3.2,4.75-.41.51-4.29,5.28-6.4,8.14-2.43,3.3-3.93,5.97-5.14,8.14-.93,1.67-4.99,8.96-3.97,9.69.74.53,2.92-3.35,8.04-4.94,1.45-.45,3.36-.53,7.17-.68,3.54-.14,6-.03,8.63.1,5.18.25,7.95,1.16,7.95,1.16,0,0-2.73,1.49-6.78,4.94-2.28,1.94-2.18,2.47-5.23,5.14-2.58,2.25-2.82,2.02-4.65,3.78-1.44,1.38-1.49,1.71-4.75,5.72-2.97,3.64-3.28,3.81-4.85,5.91-.32.43-2.12,2.86-3.59,5.33-4.65,7.85-4.61,13.92-6.59,13.96-1,.02-1.99-1.53-3.29-3.59-.83-1.31-.95-1.88-1.55-3-.96-1.79-2.17-2.96-4.56-5.23-1.78-1.7-3.12-2.81-5.72-4.94-2.78-2.29-4.17-3.43-5.23-4.17-3.73-2.58-5.28-2.83-5.33-3.97Z"/>
        <path class="cls-6" d="m585.37,599.12c-.4-.43-1.66.87-4.42,1.57-2.62.66-3.56.02-4.71,1-1.36,1.17-1.29,3.19-1.28,3.56.01.38.15,3.11,2.28,4.14,1.83.88,4.07,0,5.13-1.28,1.02-1.22.35-2.07,1.28-4.85.88-2.6,2.1-3.73,1.71-4.14Z"/>
        <path class="cls-6" d="m662.79,583.83c-.33.48,1.21,1.44,2.48,3.98,1.21,2.42.78,3.48,1.99,4.38,1.44,1.08,3.39.58,3.76.49.37-.09,3-.81,3.55-3.12.47-1.98-.88-3.97-2.36-4.74-1.42-.73-2.1.11-5.01-.21-2.72-.3-4.09-1.25-4.41-.78Z"/>
        <path class="cls-6" d="m679.83,589.99c-.33.48,1.21,1.44,2.48,3.98,1.21,2.42.78,3.48,1.99,4.38,1.44,1.08,3.39.58,3.76.49.37-.09,3-.81,3.55-3.12.47-1.98-.88-3.97-2.36-4.74-1.42-.73-2.1.11-5.01-.21-2.72-.3-4.09-1.25-4.41-.78Z"/>
        <path class="cls-6" d="m705.09,594.58c-.33.48,1.21,1.44,2.48,3.98,1.21,2.42.78,3.48,1.99,4.38,1.44,1.08,3.39.58,3.76.49.37-.09,3-.81,3.55-3.12.47-1.98-.88-3.97-2.36-4.74-1.42-.73-2.1.11-5.01-.21-2.72-.3-4.09-1.25-4.41-.78Z"/>
        <path class="cls-6" d="m726.74,599.16c-.33.48,1.21,1.44,2.48,3.98,1.21,2.42.78,3.48,1.99,4.38,1.44,1.08,3.39.58,3.76.49.37-.09,3-.81,3.55-3.12.47-1.98-.88-3.97-2.36-4.74-1.42-.73-2.1.11-5.01-.21-2.72-.3-4.09-1.25-4.41-.78Z"/>
        <path class="cls-6" d="m568.91,613.95c-.4-.43-1.66.87-4.42,1.57-2.62.66-3.56.02-4.71,1-1.36,1.17-1.29,3.19-1.28,3.56.01.38.15,3.11,2.28,4.14,1.83.88,4.07,0,5.13-1.28,1.02-1.22.35-2.07,1.28-4.85.88-2.6,2.1-3.73,1.71-4.14Z"/>
        <path class="cls-6" d="m557.79,627.5c-.4-.43-1.66.87-4.42,1.57-2.62.66-3.56.02-4.71,1-1.36,1.17-1.29,3.19-1.28,3.56.01.38.15,3.11,2.28,4.14,1.83.88,4.07,0,5.13-1.28,1.02-1.22.35-2.07,1.28-4.85.88-2.6,2.1-3.73,1.71-4.14Z"/>
        <path class="cls-6" d="m545.81,644.18c-.4-.43-1.66.87-4.42,1.57-2.62.66-3.56.02-4.71,1-1.36,1.17-1.29,3.19-1.28,3.56.01.38.15,3.11,2.28,4.14,1.83.88,4.07,0,5.13-1.28,1.02-1.22.35-2.07,1.28-4.85.88-2.6,2.1-3.73,1.71-4.14Z"/>
        <path class="cls-2" d="m562.16,582.48c-1.23,1.29-6.56-1.96-7.36-2.45-1.58-.98-2.78-1.97-7.92-7.17-2.87-2.9-4.31-4.35-6.23-6.41-2.12-2.28-4.3-4.63-6.98-7.92-2.94-3.62-2.25-3.16-5.85-7.73-3.36-4.26-4.58-5.44-5.85-8.3-.78-1.77-2.42-5.46-.94-6.98,1.06-1.1,3.3-.61,4.34-.38,2.4.53,4,1.86,4.9,2.64,4.94,4.26,8.11,8.49,8.11,8.49,3.1,4.13,3.01,4.47,6.04,8.68,1.9,2.64,4.66,6.16,10.19,13.21,1.21,1.54,2.57,3.28,4.15,5.85,1.87,3.05,4.49,7.34,3.4,8.49Z"/>
        <path class="cls-2" d="m703.46,517.02c1.49.42,1.83,3.68,2.07,6.04.31,2.92-.09,5.29-.38,6.6-.43,1.95-1.36,3.97-3.21,7.92-1.4,2.99-1.52,3.04-2.83,5.85-1.1,2.36-1.56,3.5-3.21,7.36-2.25,5.26-3.38,7.89-3.77,8.68-1.49,2.97-1.21,1.84-6.23,10-2.21,3.58-2.96,4.94-4.15,4.9-1.6-.05-2.94-2.58-3.4-4.53-.52-2.24.08-3.88,1.13-7.17,2.67-8.38,1.79-7.23,3.21-10.75,1.74-4.3,2.17-3.82,4.9-9.62,2.51-5.33,2.2-5.86,4.72-10.94,1.17-2.36,2.68-5.17,4.9-8.3,2.43-3.42,4.62-6.49,6.23-6.04Z"/>
        <path class="cls-18" d="m532.09,558.67c-3.33.94-4.48,4.64-6.66,8.52-.84,1.49-3.49,4.54-8.79,10.65-6.78,7.81-7.14,7.15-11.45,12.51-4.15,5.16-6.91,9.62-8.52,12.25-2.07,3.37-3.92,6.39-5.86,10.65-3.23,7.11-4.56,13-5.32,16.51-1.67,7.6-1.95,13.49-2.13,17.57-.31,7.07-.52,12.01.8,18.64,1.61,8.05,4.53,13.82,5.86,16.24,1.7,3.1,3.78,6.82,7.72,10.65,3.95,3.83,7.72,5.79,11.45,7.72,3.86,2,7.01,3.11,13.31,5.33,3.3,1.16,3.35,1.09,12.25,3.99,5.18,1.69,8.41,2.78,11.18,3.73,10.41,3.57,11.92,4.38,13.05,5.06,4.18,2.51,6.79,5.3,8.79,7.46,2.12,2.3,5.05,5.9,9.05,13.58,5.04,9.67,7.59,17.77,9.59,24.23,1.45,4.67,3.27,10.63,4.79,18.64.66,3.46,2.18,12.13,2.66,27.96.32,10.61-.22,11.44-.53,30.62-.18,10.86-.34,20.59,0,33.28.41,15.41,1.05,16.13,1.06,29.02.02,14.2.02,21.3,0,21.57-.67,7.81-2.15,16.19.8,17.57.2.09.43.16,3.35-.08,3.22-.27,4.9-.41,6.73-.72,5.01-.84,5.7-2.02,10.31-3.08.8-.18,4.56-1.02,9.24-.86,7.54.26,11.83,2.91,12.89,1.36.53-.78-.28-1.84-1.36-4.58-.7-1.78-1.23-4.29-2.29-9.31-.83-3.9-1.7-9.15-2.54-17.87-.65-6.79-1.07-13.43-1.33-20.76-.12-3.48-.34-11.07-.12-26.56.23-16.23.59-15.79.72-28.37.13-12.09-.1-21.26-.36-31.63-.24-9.38-.44-17.32-1.09-28.25-.5-8.36-.99-14.03-1.93-24.87-.59-6.79-1.32-12.85-2.78-24.99-.54-4.48-1.01-8.25-2.54-13.16-1.67-5.37-3.62-8.99-5.43-12.31-3.03-5.55-7.11-13.01-11.11-12.55-.88.1-1.06.51-2.78.85-2.79.55-5.01,0-6.16-.24-4.35-.91-4.53.24-11.11-.36-2.36-.21-5.14-.79-10.62-1.93-3.18-.66-6.83-1.42-10.86-2.41-10.53-2.59-15.8-3.88-20.04-6.04-4.2-2.13-13.04-6.63-16.78-15.99-1.84-4.61-1.64-8.47-1.22-16.18.3-5.67.69-12.88,4.41-21.08,3.02-6.66,6.94-11.09,10.79-15.44,2.79-3.15,5.51-6.24,9.81-9.81,6.35-5.28,10.96-7.3,10.54-10.05-.17-1.08-.97-1.36-3.92-3.68,0,0-3.51-2.76-8.58-7.84-3.5-3.51-5.25-5.27-7.11-8.09-2.2-3.34-3.08-5.85-5.88-6.86-.64-.23-2.22-.69-3.95-.2Z"/>
        <path class="cls-16" d="m604.78,683.2c-.66.42.64,2.41.51,6.16-.06,1.68-.38,2.99-.86,4.96-.31,1.27-.68,2.77-1.45,4.62-.56,1.34-1.17,2.38-2.4,4.45-1.75,2.97-2.65,4.47-3.94,5.48-.71.56-1.46.99-1.37,1.2.13.3,1.75-.43,4.02-.51.32-.01,2.46-.07,4.71.77,1.86.7,1.89,1.3,4.45,3,3.83,2.53,6.01,2.67,6.25,4.28.1.71-.24,1.33-.94,2.57-.79,1.4-1.45,1.73-2.57,3.25-.72.98-1.13,1.77-1.54,2.57-1.06,2.05-1.35,3.59-2.14,7.19-.83,3.78-1.25,5.68-1.54,6.76-1.27,4.71-2.39,6.87-1.45,7.7.4.35.69.05,2.48.17,2.06.14,3.63.68,4.62,1.03.59.21,1.85.68,3.34,1.54.79.45,2.84,1.71,4.96,4.02.97,1.05,1.53,1.87,2.48,3.25,2.94,4.27,3.54,6.45,4.45,6.33,1.02-.13,1.42-2.99,1.54-3.85.46-3.28-.23-5.66-.68-7.87-.65-3.19-.09-2.52-.77-9.59-.57-5.88-.99-6.62-1.71-12.58-.91-7.47-.31-6.83-1.11-13.09-.85-6.62-1.4-10.71-3.68-15.66-1.63-3.54-3.5-6.14-4.45-7.45-2.19-3.01-4.02-4.78-6.68-7.36-3.58-3.47-4.27-3.51-4.54-3.34Z"/>
        <path class="cls-16" d="m642.78,680.63c-1.05-.27-2.18.93-3.17,1.97-.84.89-1.43,1.79-2.14,3.08-.79,1.45-1.16,2.37-2.14,4.71-1.66,3.94-1.57,3.58-2.4,5.65-.22.55-.93,2.32-1.8,4.71-1.06,2.89-1.67,4.58-2.22,6.5-.52,1.82-.88,4.01-1.63,8.39-.55,3.26-.83,4.89-1.03,6.68-.22,1.98-.49,4.5-.43,7.7.03,1.61.25,3.63.68,7.62.55,5.04.68,5.26.94,8.3.28,3.3.42,4.94.43,6.5.02,4.19-.5,5.97.43,6.5.94.53,2.7-.58,3.68-1.63,1.54-1.65.86-2.83,2.31-5.56.83-1.57,1.79-2.57,3.59-4.45,1.54-1.6,2.31-2.41,3.25-3,3.6-2.24,6.62-.76,7.7-2.57.37-.62.05-1.91-.6-4.45-.44-1.73-.98-3.79-2.22-6.59-1.03-2.33-1.2-2.12-2.57-5.05-1.63-3.48-1.22-3.41-2.31-5.39-1.69-3.06-2.92-3.69-2.65-5.13.25-1.36,1.6-2.22,2.57-2.82.95-.6,1.59-.73,4.36-1.45,1.6-.42,3.19-.86,4.79-1.28,5.54-1.46,5.02-1.34,5.13-1.37,2.82-.61,3.94-.58,4.11-1.2.17-.63-.79-1.34-2.31-2.57,0,0-3.02-2.46-5.48-4.79-1.12-1.07-3.19-3.07-4.79-6.25-1.18-2.35-2.03-4.02-2.05-6.33-.01-1.12.16-2.39-.43-4.11-.3-.86-.72-2.08-1.63-2.31Z"/>
        <path class="cls-22" d="m624.96,718.08c.57-.04.93-1.05,1.82-4.33.82-3.02,1.29-5.02,1.82-6.98.27-1.03.72-2.67,1.4-4.75,1.03-3.15,2.03-5.51,2.65-6.98.64-1.5,1.12-2.53,2.1-4.61,1.59-3.39,2.4-5.11,3.21-6.15,1.22-1.57,2.18-2.22,1.96-2.65-.34-.65-2.97.08-4.19.42-1.86.52-2.4.91-4.19,1.54-2.64.92-4.77,1.21-5.17,1.26-1.4.18-1.52.06-6.43,0-4.21-.05-4.23.04-5.17-.14-1.22-.24-1.46-.45-5.31-1.68-2.9-.92-3.7-1.1-4.05-.7-.45.51,0,1.75.56,2.51.85,1.17,1.71.94,3.35,2.24.33.26.92.92,2.1,2.24,1.2,1.34,1.8,2.01,2.51,2.93,1.03,1.33,1.72,2.4,2.23,3.21.56.88,1.3,2.11,2.1,3.63.9,1.72,1.52,2.92,2.1,4.61.29.86.57,2.11,1.12,4.61.63,2.86.94,4.28.98,4.47.23,1.29.36,2.26.98,3.49.39.77.94,1.85,1.54,1.82Z"/>
        <path class="cls-16" d="m592.82,795.46c.74-1.9,2.87-2.81,3.74-3.19.75-.32,1.91-.81,3.46-.69.5.04,2.25.19,3.74,1.52,1.13,1.01,1.52,2.18,1.94,3.46.56,1.71.59,2.98.69,4.71.21,3.58.16.86.55,6.65.25,3.71.37,5.57.42,7.21.09,3.68-.11,3.59,0,7.21.14,4.61.28,6.51.28,6.51.23,3.16.44,4.22-.28,5.54-.81,1.49-2.22,2.21-3.05,2.63-.82.42-1.44.55-4.85.97-4.64.57-5.11.52-5.54.14-.23-.2-.67-.69-.69-4.99-.01-2.31.11-3.1.14-5.27.04-2.63-.12-2.86-.14-5.54-.02-3.16.19-3.46.28-6.93.03-1.04-.03-3.32-.14-7.9-.12-5.02-.18-7.54-.28-8.04-.36-1.86-.77-2.77-.28-4.02Z"/>
        <path class="cls-2" d="m618.29,782.95c-1.09-.25-2.1-1.17-2.28-2.43-.16-1.11.34-2.21,1.22-2.81.15-.11,1-.67,2.13-.46,1.17.23,1.75,1.13,1.9,1.37.13.21.7,1.17.38,2.36-.06.21-.25.91-.91,1.44-1.02.83-2.28.57-2.43.53Z"/>
        <path class="cls-2" d="m618.29,812.65c-1.09-.25-2.1-1.17-2.28-2.43-.16-1.11.34-2.21,1.22-2.81.15-.11,1-.67,2.13-.46,1.17.23,1.75,1.13,1.9,1.37.13.21.7,1.17.38,2.36-.06.21-.25.91-.91,1.44-1.02.83-2.28.57-2.43.53Z"/>
        <path class="cls-2" d="m620.42,836.4c-1.09-.25-2.1-1.17-2.28-2.43-.16-1.11.34-2.21,1.22-2.81.15-.11,1-.67,2.13-.46,1.17.23,1.75,1.13,1.9,1.37.13.21.7,1.17.38,2.36-.06.21-.25.91-.91,1.44-1.02.83-2.28.57-2.43.53Z"/>
        <path class="cls-16" d="m677.78,785.89c-.38-.43-1.77-.85-4.55-1.68-2.41-.73-3.32-.87-4.3-.87-.93,0-1.89,0-2.99.5-1.53.69-2.31,1.86-2.56,2.24-.19.29-.93,1.49-1.06,3.99-.14,2.69.65,2.89.87,6.36,0,.1,0,.11,0,4.8,0,1.97,0,2.97,0,3.37.02,2.28.1,3.13.19,5.49.06,1.6.08,3.31.13,6.73,0,0,.03,2.57.19,6.05.12,2.75.22,3.91,1.06,4.99.95,1.22,2.31,1.64,2.68,1.75,1.06.32,2.01.19,3.86-.06.84-.12,1.7-.31,3.43-.69,2.54-.56,2.46-.64,3.62-.81,1.31-.19,1.53-.11,1.87-.37.93-.71.74-2.4.5-4.3-.48-3.82-.72-5.72-.93-6.98-.17-.99-.34-3.19-.69-7.6-.38-4.9-.57-7.34-.62-9.97-.06-3.39-.09-5.09-.06-6.36.1-4.06.39-5.41-.62-6.55Z"/>
        <path class="cls-22" d="m618.86,938.68c-.55.58-.29,1.29-.14,4.08.09,1.71.08,2.98.07,4.43-.02,2.6-.04,3.9-.14,5.12-.15,1.83-.34,2.66.21,3.18.51.49,1.31.37,2.49.21,1.86-.25,3.74-.39,5.61-.62,1.63-.2,2.98-.23,5.68-.28,2.72-.05,3.2.06,4.92-.07,2.51-.18,2.46-.6,4.64-.69,1.1-.04,1.58.03,1.94-.35.64-.66.09-1.87-.48-4.22-.7-2.84-.31-2.78-1.18-6.37-.8-3.32-1.25-3.88-1.8-4.22-.8-.5-1.32-.13-3.46-.07-1.6.05-1.36-.15-5.95-.55-2.22-.2-3.36-.29-4.57-.28-1.78.03-1.68.19-4.02.28-2.76.11-3.31-.1-3.81.42Z"/>
        <path class="cls-22" d="m645.93,953.49c2.68,0,2.77,0,2.77,0,2.75-.13,4.12-.2,4.29-.21,3.64-.26,3.75-.45,6.37-.55.81-.03,1.67-.04,3.39-.07,1.82-.03,2.73-.04,3.18,0,1.71.14,2.33.46,2.56.14.22-.3-.12-.88-1.45-2.91-.86-1.31-1.77-2.67-2.28-3.46-1.62-2.47-1.93-3.19-2.08-3.53-.17-.41-.56-1.41-.83-2.77-.53-2.67.02-3.61-.69-4.22-.32-.28-.69-.31-3.53.14-2.93.46-3.17.59-4.71.76-1.36.15-1.45.07-3.32.28-2.27.25-2.01.34-2.84.35-1.76,0-2.43-.43-3.95-.07-1.02.24-1.29.57-1.38.69-.37.5-.25,1.08,0,2.49,0,0,.3,1.67.62,3.81.24,1.57.16,1.59.35,2.7.2,1.18.78,2.36.97,3.74.2,1.48-.23,1.89.21,2.35.32.34,1,.34,2.35.35Z"/>
        <path class="cls-24" d="m629.59,954.88c.63-.39,1.1-.36,4.02-.35,1.94,0,2.91.01,3.18,0,2.84-.14,3.3-.63,4.15-.14.25.14.45.32,1.87,2.7.48.8.78,1.28,1.18,2.01.63,1.17,1.06,1.95,1.45,3.05.52,1.44.81,2.25.62,3.32-.05.29-.25,1.47-1.18,2.28-.86.76-1.87.79-3.81.83-2.93.05-5.31.06-6.02.07-2.86.02-2.78.15-5.4.14-1.64,0-1.63-.06-4.78-.14-1.61-.04-.89,0-4.92-.07-2.99-.05-3.73-.07-4.99.14-.76.12-.67.16-2.84.69-2.67.65-4,.98-4.92,1.04-1.5.1-5.33-1.32-5.33-1.32,0,0,1.4-2.7,2.77-3.46.69-.38,1.17-.49,4.08-1.04,3.91-.73,3.68-.66,4.43-.83,1.36-.31,2.68-.74,5.33-1.59,1.47-.47,2.39-.79,3.25-1.11,2.98-1.09,3.59-1.52,3.95-1.8.78-.61,1.32-1.28,2.15-2.28,1.26-1.54,1.12-1.77,1.73-2.15Z"/>
        <path class="cls-24" d="m651.82,953.63c-.39.75.36,1.42.83,3.39.12.5.03.28.35,2.77.29,2.28.32,2.12.42,3.12.2,2.08.01,2.24.28,3.32.28,1.12.52,2.09,1.32,2.7.8.61,1.54.38,4.09.42.67,0,1.69.07,3.74.21.98.06,3.1.2,5.33.55,3.23.51,3.05.89,6.16,1.38.65.1.62.08,5.54.55,4.14.4,4.08.41,4.5.42,2.28.04,4.64.09,7.2-1.11,1.55-.73,2.59-1.63,3.25-2.22,1.72-1.5,2.45-2.79,2.7-3.25.58-1.09.69-2.35.69-2.35,0,0-2.47-1.26-4.36-1.38-2.47-.16-3.19.23-7.2.42-.76.03-2.08.08-3.74.07-2.06-.02-3.7-.12-4.78-.21-2.76-.22-4.14-.33-5.26-.76-1.81-.7-3.01-1.73-3.81-2.42-1.22-1.06-1.97-1.7-2.42-2.84-.65-1.61,0-2.42-.69-3.12-.64-.64-1.45-.23-4.29-.14-2.25.07-3.37.11-4.78-.14-1.33-.24-2.32-.6-3.67-.21-.53.15-1.12.32-1.38.83Z"/>
        <path class="cls-18" d="m681.2,573.42c-.35-1.7,2.29-2.59,5.52-6.82,1.53-2,2.54-3.93,4.55-7.8,1.51-2.9,2.23-4.64,4.22-6.5,1.86-1.73,2.6-2.19,3.25-2.27,1.76-.24,2.75,1.09,5.2,2.6,1.66,1.02,1.57.63,8.77,3.25,3.5,1.27,5.25,1.91,7.04,2.69,1.96.86,4.93,2.18,8.33,4.36,4.32,2.78,4.29,3.71,8.91,6.49,2.45,1.47,2.89,1.47,4.55,2.71,2.22,1.66,3.52,3.22,5.72,5.91,4.11,5.03,6.16,7.54,6.59,8.14,2.94,4.12,5.36,7.5,7.27,12.5,1.28,3.37,1.74,5.92,2.42,9.69,1.31,7.28,1.3,13.01,1.26,15.21-.11,6.03-.93,10.86-1.55,13.86-1.15,5.51-2.64,9.5-3,10.46-2.12,5.58-4.5,9.52-5.33,10.85-.92,1.47-3.76,5.89-8.62,10.85-4.4,4.48-4.62,3.46-9.69,8.43-4.66,4.57-5.17,6.11-10.17,10.66-1.49,1.35-3.56,3.23-6.49,5.33-5.39,3.87-6.69,3.5-12.89,7.36-4.68,2.92-3.63,2.94-11.63,8.33-2.37,1.6-4.49,2.96-7.65,5.33-4.63,3.46-3.27,2.91-5.72,4.55-1.45.98-2.66,1.66-3.59,3.2-.83,1.38-.98,2.7-1.07,3.49-.71,6.77-.58,10.95-.58,10.95.21,6.7-.04,4.6.19,10.76.21,5.56.39,6.77.58,11.14.07,1.53.19,4.59.19,14.53,0,13.35-.21,12.44-.1,18.22.15,8.13.66,14.41,1.07,19.28.63,7.56.87,7.69,1.94,18.22.77,7.59,1.51,14.98,2.01,24.5.46,8.8.52,15.94.55,20.02.09,11.11-.28,10.92,0,17.67.33,7.83,1.11,14.9,1.66,19.88.89,8.04,1.33,12.06,1.38,12.29,1.05,4.81,2.55,8.7.97,9.94-.51.4-.98.24-3.18.14,0,0-1.85-.08-6.9.14-2.84.13-2.54.4-7.45.97-5.07.59-5.24.28-8.56.83-3.71.62-3.53,1.01-6.9,1.52-4.55.68-4.35-.11-8.56.55-3.65.58-5.2,1.4-7.04.41-.82-.44-1.51-1.13-2.35-2.62-1.97-3.5-2.18-6.77-2.48-9.66-.71-6.84-1.26-5.33-2.07-12.98-.38-3.56-.22-3.46-.69-10.49-.65-9.64-1.02-10.79-1.24-16.57-.1-2.69-.07-5.79,0-12.01.06-5.48.15-8.71.41-19.47.23-9.26.34-13.96.41-17.39.12-5.7.22-10.7.28-17.12.07-8.37.11-12.59,0-17.53-.18-8.28-.59-9.82-1.52-24.02-1.4-21.36-.54-18.57-1.52-26.51-.78-6.38-1.31-11.94-2.35-23.05-.17-1.81-.49-5.51.28-10.22.47-2.86,1.09-4.59,2.21-8.01,2.35-7.17,1.22-4.45,5.11-16.43,2.72-8.36,4.01-11.96,6.76-12.56.19-.04.16-.02,3.31,0,.67,0,4.99.03,6.49,0,3-.06,4.85-.53,8.97-1.38,0,0,3.51-.73,12.56-2.35,12.45-2.23,11.98-1.14,15.88-2.62,4.93-1.88,8.17-4.58,12.29-8.01,4.82-4.01,8.12-7.93,10.08-10.49,5.11-6.67,7.6-12.62,8.14-13.94,4.04-9.85,4.25-18.24,4.28-20.16.05-4.09.07-12.42-4.42-21.67-2.95-6.09-6.72-10.25-9.11-12.56-2.12-2.05-5.2-5.02-10.08-7.32-1.74-.82-6.15-2.7-11.74-4.69-3.44-1.23-5.11-1.71-5.37-2.97Z"/>
        <path class="cls-17" d="m569.79,582.72c-2.91-.81-4.4-2.21-5.14-3.12-.52-.63-.39-.67-2.2-4.32-1.54-3.09-1.89-3.58-2.11-4.87-.19-1.09-.42-2.55.37-4.04.2-.39.86-1.68,2.3-2.2,1.16-.42,2.19-.12,3.21.18,1.67.49,2.92,1.4,3.77,2.2"/>
        <path class="cls-17" d="m669.87,560.04c.15-.4.76-1.85,2.36-2.75.43-.24,1.71-.88,3.37-.61.31.05,2.33.41,3.36,2.1.79,1.3.52,2.62.03,5.04-.24,1.19-.75,3.58-2.49,6.08-1.01,1.46-2.07,2.42-2.68,2.97-1,.91-1.95,1.57-2.7,2.04"/>
      </g>
    </g>
  </g>
</svg>