<?xml version="1.0" encoding="UTF-8"?>
<svg id="Layer_2" data-name="Layer 2" xmlns="http://www.w3.org/2000/svg" xmlns:xlink="http://www.w3.org/1999/xlink" viewBox="0 0 1923.49 1080">
  <defs>
    <style>
      .cls-1 {
        font-size: 140.78px;
      }

      .cls-1, .cls-2, .cls-3, .cls-4, .cls-5, .cls-6, .cls-7, .cls-8, .cls-9, .cls-10, .cls-11, .cls-12, .cls-13, .cls-14, .cls-15, .cls-16, .cls-17, .cls-18, .cls-19, .cls-20, .cls-21, .cls-22, .cls-23 {
        stroke-miterlimit: 10;
      }

      .cls-1, .cls-2, .cls-3, .cls-4, .cls-5, .cls-6, .cls-7, .cls-8, .cls-9, .cls-10, .cls-11, .cls-12, .cls-13, .cls-14, .cls-17, .cls-18, .cls-19, .cls-20, .cls-21, .cls-22, .cls-23 {
        stroke: #2c1500;
      }

      .cls-1, .cls-4, .cls-24, .cls-21, .cls-23 {
        fill: #2c1500;
      }

      .cls-1, .cls-24, .cls-23 {
        font-family: AlexisItalic, 'Alexis Italic';
      }

      .cls-2, .cls-3, .cls-4, .cls-5, .cls-6, .cls-7, .cls-8, .cls-9, .cls-10 {
        stroke-linecap: round;
      }

      .cls-2, .cls-6 {
        fill: #fff;
      }

      .cls-2, .cls-10 {
        stroke-width: .5px;
      }

      .cls-25 {
        fill: url(#linear-gradient);
      }

      .cls-25, .cls-26, .cls-27, .cls-28, .cls-29, .cls-30, .cls-31 {
        stroke-width: 0px;
      }

      .cls-3, .cls-10, .cls-22 {
        fill: none;
      }

      .cls-5, .cls-18 {
        fill: #8d6a4d;
      }

      .cls-7, .cls-14 {
        fill: #ffe2c4;
      }

      .cls-8 {
        fill: #fdf9fa;
      }

      .cls-9 {
        fill: #665f59;
      }

      .cls-24 {
        font-size: 62.57px;
      }

      .cls-11 {
        fill: #b8d7e5;
      }

      .cls-12 {
        fill: #b8d7e6;
      }

      .cls-13 {
        fill: #e2e1e0;
      }

      .cls-15, .cls-16 {
        stroke: #272525;
      }

      .cls-15, .cls-27 {
        fill: #b0c4de;
      }

      .cls-16, .cls-26 {
        fill: #add8e6;
      }

      .cls-17 {
        fill: #c2c1c1;
      }

      .cls-19 {
        fill: #b6c4db;
      }

      .cls-20 {
        fill: #b7c5db;
      }

      .cls-32 {
        letter-spacing: -.09em;
      }

      .cls-23 {
        font-size: 94.05px;
      }

      .cls-28 {
        fill: #a98b52;
      }

      .cls-29 {
        fill: #9d794e;
      }

      .cls-30 {
        fill: #b4a26d;
      }

      .cls-31 {
        fill: #978475;
      }
    </style>
    <linearGradient id="linear-gradient" x1="2361" y1="-5281" x2="3441" y2="-5281" gradientTransform="translate(-1941 5821)" gradientUnits="userSpaceOnUse">
      <stop offset=".14" stop-color="#254895"/>
      <stop offset=".38" stop-color="#6151d5"/>
      <stop offset=".57" stop-color="#4d6bbc"/>
      <stop offset=".81" stop-color="#d56630" stop-opacity=".9"/>
    </linearGradient>
  </defs>
  <g id="forside">
    <g>
      <rect class="cls-25" x="420" y="-420" width="1080" height="1920" transform="translate(1500 -420) rotate(90)"/>
      <g>
        <path class="cls-16" d="m216.5,605.5c-1.35-2.04.37-3.38,3-16,1.75-8.37,2.56-15.31,3-19,1.44-12.21.43-12.63,2-18,1.2-4.1,3.46-8.07,8-16,4.75-8.32,8.81-14.27,10-16,5.07-7.38,8.12-11.81,13-17,6.36-6.76,12.04-10.78,18-15,5.11-3.62,11.97-8.42,22-13,4.35-1.99,12.61-5.7,24-8,6.96-1.41,12.98-1.61,25-2,15.82-.52,23.73-.78,32,1,8.55,1.84,14.69,4.65,22,8,9.46,4.33,16.03,8.54,23,13,9.57,6.12,16.25,11.3,21,15,10.78,8.4,16.17,12.6,20,18,5.45,7.7,7.59,15.01,9,20,2.29,8.08,1.29,9.59,3,26,2.11,20.27,4.68,28.03,0,32-1.51,1.28-3.71,1.52-8,2-9.08,1.02-15.31-.29-21-1-2.38-.3-1.25-.07-26,0-2.33,0-12,.03-23,0-21.65-.06-21.52-.25-27,0-13.35.61-13.66,1.73-25,2-11.91.28-12.34-.94-25-1-13.39-.06-15.72,1.29-32,2-17.85.78-16.29-.79-29,0-25.45,1.57-38.5,8.28-42,3Z"/>
        <path class="cls-15" d="m368.5,521.5c-.85,2.56,3.93,5.4,8,10,6.85,7.74,5.49,13.45,9,14,4.08.64,5.16-7.17,15-14,4.17-2.89,8.1-4.34,10-8,.26-.5.95-1.93,2-2,1.13-.07,1.99,1.49,3,3,2.01,2.99,4.45,6.64,7,7,1.47.21,2.15-.79,8-6,5.23-4.66,5.01-4.14,8-7,4.23-4.05,6.34-6.07,7-7,1.14-1.62,1.82-2.96,3-3,1.08-.04,1.74,1.03,4,4,3.95,5.19,4.95,5.88,6,6,1.78.2,3.3-1.31,4-2,5.39-5.3,11.64-9.67,17-15,6.26-6.23,9.39-9.34,14-13,5.24-4.17,9.35-6.72,9-10-.12-1.07-.67-1.84-4-5-4.31-4.08-6.94-6.15-9-8-4.41-3.94-3.33-4.23-9-10-3.14-3.19-5.64-5.31-10-9-2.67-2.26-5.75-4.86-10-8-4.78-3.53-4.98-3.27-10-7-4.94-3.67-7.41-5.5-9-7-3.88-3.65-5.91-6.58-8-6-.75.21-.93.7-2,2-1.42,1.71-2,1.94-7,6-2.93,2.38-4.39,3.57-6,5-2.58,2.29-3.23,3.16-7,7-7.85,7.99-7.68,6.93-10,10-3.26,4.31-3.04,5.64-6,8-2.05,1.63-3.94,2.4-4,4-.06,1.42,1.36,2.62,3,4,2.87,2.42,4.83,2.61,5,4,.1.85-.55,1.42-2,3-1.76,1.92-3.27,4.05-5,6-3.24,3.66-2.72,3.5-5,6-2.31,2.53-3.46,3.8-5,5-3.07,2.39-4.88,2.68-5,4-.08.88.88,1.04,4,4,1.99,1.89,1.61,1.81,3,3,1.95,1.68,3.02,2.12,3,3-.02.78-.9,1.22-2,2l-5,5c-1.67,1.67-3.33,3.33-5,5-1.67,1.67-3.26,3.41-5,5-1.65,1.5-1.85,1.54-2,2Z"/>
        <path class="cls-16" d="m215,624c-4.88,3.41-1.17,14.81,1,28,2.37,14.38,2.17,26.28,2,36-.34,19.71-3.49,26.43,1,30,4.09,3.26,9.57-.05,25-3,5.35-1.02,13.23-1.68,29-3,15.04-1.26,20.35-.75,48-1,13.2-.12,25.47-.41,50-1,31.68-.76,35.34-1.13,48-1,0,0,34.02,2,43,2h10c1.08,0,2.13.58,3,0,.88-.59.97-1.74,1-7,.01-2.74,0-5.46,0-7,0-2.37,0-3.55,0-4,.09-4.4.77-7.75,1-9,1.97-10.71,2-36.17,2-42v-19c.4-3.01,1.08-5.11,0-6-.91-.74-2.51-.17-3,0h-47c-21.24.03-28.64,1.06-59,2-31.56.98-27.37-.02-54,1-32.41,1.24-33.72,2.53-50,2-10.99-.36-22.08,1.36-33,0-.64-.08-7.22-.91-15,1-1.61.4-2.43.6-3,1Z"/>
        <path class="cls-15" d="m220,604c-6.65,0-9.98,0-10,0-.82-.1-9.35-1.11-10,0-.21.36-.11.6,0,2v6c0,2,.08,4,0,6-.21,4.85-.87,5.92,0,7,1.01,1.25,2.87,1,6,1,4.81,0,2.39.59,11,1,6.12.29,11,.16,16,0,10.8-.36,16.2-.53,23-1,14.84-1.02,25.97-2.49,30-3,16.39-2.06,31.26-2.37,61-3,30.03-.64,35.36.3,71,0,0,0,29.22-1,48-1h18c1.86,0,3.33.76,4,0,.52-.59.08-1.42,0-3-.08-1.61.31-1.91,1-5,.59-2.65.18-1.89,1-7,.39-2.41.62-3.43,0-4-.8-.75-2.44-.18-3,0h-28c-10.64-.15-12.65-.72-23-1-6.96-.19-11.87-.09-17,0-32.28.56-41.79.1-78,1-22.88.57-62.9,1.84-86,3,0,0-19.86,1-35,1Z"/>
        <path class="cls-15" d="m269,711c-2.69-1.86-2.01-6.48-1-17,1.72-17.83.88-15.96,2-22,1.44-7.71,2.47-13.26,6-20,1.77-3.38,4.15-7.81,9-12,2.01-1.74,6.3-5.35,13-7,3.06-.75,10.06-2.47,17,1,7.86,3.93,10.63,12.01,12,16,1.44,4.19,1.62,8.13,2,16,.17,3.53.03,3.94,0,18-.01,6.44-.02,9.66,0,10,.52,9.26,2.3,14.59,0,16-.64.4-1.17.21-3,0-.69-.08-.15,0-10,0-18.3,0-17.78-.28-23,0-10.73.57-16.09.86-17,1-3.71.57-5.44,1.08-7,0Z"/>
        <path class="cls-16" d="m315,685c-.39-.06-1.28-.26-2-1-1.01-1.03-1-2.38-1-3,.01-1.5.69-2.57,1-3,.35-.49,1.32-1.82,3-2,1.45-.15,2.54.66,3,1,.27.2,1.59,1.2,2,3,.11.5.28,1.21,0,2-.37,1.06-1.27,1.58-2,2-1.5.87-3.02,1.01-4,1Z"/>
        <path class="cls-26" d="m430.5,482.5s2.86,3.41,5,6c6.71,8.14,7.12,9.01,10,12,4.57,4.76,4.99,4.08,7,7,2.15,3.12,3.12,5.98,5,6,.47,0,.71-.17,3-2,3.69-2.95,3.99-3.24,5-4,2.68-2.03,4.13-2.69,4-3-.21-.5-3.77,1.44-8,1-2.81-.3-4.83-1.61-7-3-4.01-2.56-6.47-5.39-7-6-2.76-3.15-17-14-17-14Z"/>
        <path class="cls-26" d="m406.5,509.5c3.24,3.12,3.74,2.51,6,5,1.9,2.09,1.75,2.75,5,7,2.66,3.48,3.36,3.84,4,4,2.06.52,4-.86,7-3,3.81-2.72,3.39-3.63,7-6,.3-.2,1.53-1.13,4-3,1.62-1.23,2.04-1.56,2-2-.1-1.14-3.17-2.16-6-2-2.6.15-3,1.18-6,2-.53.14-4.59,1.2-9,0-2.58-.7-4.14-1.87-7-4-3.61-2.69-4.32-4.06-9-8-3.41-2.87-5.36-4.48-6-4-.9.68,1.21,5.16,3,8,.38.61,1.99,3.1,5,6Z"/>
        <path class="cls-26" d="m375.5,523.5s3.1,5.27,4,7c1.11,2.15,1.67,3.22,2,4,1.46,3.48,1.52,5.25,3,6,1.07.54,2.26.2,3,0,.93-.25,2.04-.8,4-3,1.72-1.92,1.68-2.41,3-4,2.12-2.57,4.5-4.06,6-5,2.04-1.28,2.81-1.41,5-3,1.62-1.17,3.24-2.35,3-3-.32-.85-3.69-.35-6,0-2.03.31-4.63.71-8,2-3.37,1.29-3.32,1.86-5,2-2.51.21-3.6-.98-7-2-1.56-.47-3.92-.99-7-1"/>
        <path class="cls-30" d="m1.5,804.35c3.09-12.35,70-29.49,70-29.49,28.81-7.38,16.39-8.89,85-33.71,32.2-11.65,48.98-16.39,65-20.01,22.64-5.11,39.38-6.98,43-7.37,18.17-1.97,21.64-.89,53-2.11,34.25-1.33,33.48-2.75,58-3.16,7.31-.12,22.64.27,53,1.05,40.61,1.05,45.22,1.41,51,2.11,14.93,1.79,19.78,3.61,50,10.53,33.07,7.57,29.14,5.82,69,14.75,34.16,7.65,51.56,11.58,67,16.85,22.95,7.83,41.05,16.35,51,21.07,16.82,7.97,27.81,14.21,42,22.12,59.69,33.27,58.53,30.65,89,48.45,29.07,16.99,23.1,15.27,73,46.35,49.53,30.85,54.82,32.16,89,54.77,5.1,3.37,32.35,21.49,66,48.45,13.9,11.14,46.93,38.23,44,43.19-.69,1.16-2.9.36-10,0-9.11-.46-14.07.43-22,1.05-2.89.23-10.43.76-48,1.05-36.17.28-54.25.42-74,0-33.28-.71-33.75-1.87-73-3.16-18.42-.6-44.12-1.45-75-1.05-47.1.6-50.03,3.36-96,4.21-36.54.67-34.72-1.07-85-1.05-36.52.01-63.83.94-98,2.11-66.54,2.27-65.74,3.74-104,4.21-50.07.62-50.02-1.93-98-1.05-13.12.24-51.18,1.12-100,5.27-42.57,3.62-43.29,5.47-85,8.43-36.57,2.6-42.11,1.61-62,5.27-34.51,6.35-51.76,9.52-55,10.53-12.67,3.95-26.52,9.43-32,3.16-2.73-3.12-2.25-7.86-2-10.53,1.91-20.62-1.16-41.47,0-62.14.82-14.72,0-29.49,0-44.24v-136.93c-.17-1.29-.95-6.68,0-13.69,0,0,.37-2.75,1-5.27Z"/>
        <path class="cls-31" d="m256,715c.84-1.69,3.06-2.14,16-3,9.24-.61,13.85-.92,18-1,7.36-.14,13.08-.13,30,0,14.5.11,16.39.15,21,0,10.42-.35,15.63-.52,18-1,3.36-.68,6.97-1.72,12-1,2.77.4,4.04,1.05,7,2,5.77,1.85,8.26,1.71,16,3,4.69.79,9.13,1.86,18,4,8.91,2.15,13.36,3.23,19,5,4.94,1.55,11.03,4.06,23,9,11.63,4.8,17.56,7.26,23,10,6.62,3.34,10.76,5.37,16,9,4.16,2.88,9.91,6.87,15.5,13.5,8.33,9.89,11.47,19.94,13,25,1.71,5.66,2.47,12.1,4,25,.77,6.47,1.34,12.86,3,23,1.04,6.37,1.87,10.31,4,15,.44.96,2.6,5.64,7,11,1.54,1.88,7.12,8.41,17,14,7.65,4.32,13.96,5.86,23,8,11.74,2.77,21,3.49,28,4,10.71.78,11.49.09,31,1,12.45.58,15.94,1.04,20,2,8.72,2.07,15.53,5.4,20,8,2.32,1.35,11.17,6.67,20,17,6.63,7.75,5.39,9.13,14,21,3.62,4.99,8.9,12.21,17,20,8.42,8.11,16,13.09,22,17,12.3,8.01,13.54,6.73,26,15,.94.62.72.49,20,15,10.58,7.96,16.75,12.6,16,14-.3.57-1.55.24-5,0-.69-.05-4.13-.03-11,0-3.25.02-4.76.23-20,2-9.58,1.11-14.45,1.64-18,0-2.47-1.14-1.71-1.53-7-5-5.23-3.44-9.67-5.48-13-7-3.54-1.61-6.19-2.83-10-4-6.17-1.9-7.67-1.34-13-3-4.71-1.47-7.94-3.28-11-5-4-2.25-7.38-4.63-15-11-4.18-3.5-7.33-6.26-16-14-12.24-10.93-13.01-11.71-16-14-4.77-3.65-9.7-7.39-17-11-3.54-1.75-10.58-4.93-20-7-2.28-.5-7.52-1.55-24-2-13.19-.36-15.03.18-30,0-9.84-.12-16.75-.21-26-1-11.69-.99-18.24-1.55-27-4-10.62-2.97-18.21-6.96-24-10-5.17-2.72-11.56-6.11-19-12-6.03-4.77-11.3-8.94-16-16-5.14-7.73-6.8-14.72-9-24-1.6-6.76-1.27-7.86-4-27-1.83-12.87-2.78-19.38-4-23-3.98-11.76-10.35-19.6-14-24-7.81-9.43-15.75-14.9-19-17-9.65-6.25-17.95-8.72-29-12-9.31-2.76-16.67-4.11-27-6-6.55-1.2-7.35-1.17-24-4-12.79-2.18-15.83-2.79-20-4-4.59-1.33-10.71-3.13-18-7-2.64-1.4-10.5-5.76-19-14-5.96-5.78-14.64-14.2-12.5-18.5Z"/>
        <path class="cls-29" d="m662.5,744.24c4.47-2.75,10.9-6.33,19-9.59,4.75-1.91,11.34-4.22,26-7.46,11.94-2.64,20.62-3.99,29-5.33,31.6-5.04,25.75-4.56,45-7.46,11.22-1.69,27-4.05,48-6.39,8.98-1,25.76-2.77,47-4.26,17.97-1.26,31.71-1.81,40-2.13,9.98-.39,10.7-.31,40-1.07,29.85-.77,31.46-.91,42-1.07,9.06-.13,9.06-.03,42,0,13.29.01,24.19,0,46,0,33.03-.01,31.82-.05,35,0,7.61.11,14.63.29,55,2.13,36.36,1.65,36.6,1.77,48,2.13,21.47.68,22.54.31,36,1.07,15.23.85,16.66,1.47,41,3.2,18.14,1.29,18.51,1.03,32,2.13,13.73,1.12,14.74,1.51,33,3.2,21.29,1.97,21.1,1.56,38,3.2,5.02.49,7.18.73,38,4.26,22.76,2.61,34.2,3.92,37,4.26,19.95,2.45,31.42,3.85,47,6.39,13.12,2.14,26.44,4.34,44,8.52,14.16,3.38,24.82,6.55,35,9.59,14.13,4.21,8.68,3,36,11.72,10.08,3.22,17.4,5.48,27,10.65,3.24,1.75,18.15,9.78,17,13.85-.35,1.24-2.05,1.65-4,2.13-8.35,2.06-16.59,4.63-25,6.39-4.74.99-8.16,2.08-15,4.26-9.02,2.87-14.61,5.34-27,10.65-27.56,11.82-24.32,10.08-30,12.78-8.41,4-9.91,5.14-30,15.98-24.6,13.27-22.17,11.45-32,17.04-14.52,8.26-14.57,9.22-38,23.43-19.47,11.81-19.61,11.25-32,19.17-5.27,3.37-13.51,8.99-30,20.24-15.51,10.58-15.45,10.63-28,19.17-20.09,13.66-19.63,13.1-25,17.04-4.12,3.03-5.16,3.93-29,23.43-18.68,15.28-20.76,16.96-25,21.3-5.14,5.27-9.65,10.56-17,19.17-3.15,3.69-8.37,9.9-16,18.11-.49.53-1.21,2.6-3,3.2-.87.29-1.41.08-4,0h-51c-34.78,0-34.12,0-35,0-8.84.07-24.1.99-39,1.07-6.58.03-9.87.05-12,0-7.41-.17-7.72-.5-10,0-4.99,1.1-8.21,3.74-10,2.13-.68-.61-1.42-2.07-2-3.2-.57-1.12-.6-1.42-1-2.13-.99-1.78-2.35-2.71-3-3.2-2.44-1.82-3.47-3.7-6-6.39-7.34-7.81-24-21.3-24-21.3-14.91-12.07-11.86-11.06-27-23.43-3.04-2.49-14.7-11.96-31-23.43-3.55-2.5-4.19-2.89-34-22.37-20.83-13.61-25.07-16.39-33-21.3-7.38-4.57-7.28-4.37-23-13.85-19.64-11.85-21.3-13.06-35-21.3-17.59-10.58-17.21-9.99-38-22.37-15.11-9-15.61-9.49-37-22.37-22.36-13.47-33.54-20.2-43-25.56-6.22-3.53-24.16-13.62-48-25.56-20.24-10.14-30.36-15.21-39-18.11-8.75-2.94-17.1-7.22-26-9.59-5.9-1.57-13.82-3.26-14-6.39-.1-1.72,2.15-3.57,3-4.26,2-1.64,4.06-2.02,5-2.13Z"/>
        <path class="cls-30" d="m1283,1029.07c-1.36-4.02,7.85-10.81,13-14.76,20.4-15.67,2.84-6.67,43-40.07,10.35-8.61,29.21-23.91,56-43.23,29.93-21.58,54.26-36.99,66-44.29,27.17-16.87,51.13-30.16,70-40.07,13.87-7.29,40.56-20.93,75-35.85,19.42-8.41,32.34-13.97,51-20.03,8-2.6,27.27-8.62,53-13.71,33.14-6.56,57.8-7.79,95-9.49,0,0,42.94-2.33,82-1.05,10.91.36,21,1.05,21,1.05,2.61-.78,9.91-2.67,13,1.05,1.97,2.38,1.36,6,1,8.44-1.38,9.38-.51,18.99-1,28.47-.08,1.65-.01.66,0,27.42,0,.63,0,7.68,0,17.93,0,30.46,0,30.04,0,30.58.17,18.5.74,18.6,1,39.01.08,6.04.19,15.33,0,27.42-.23,14.32-.65,18.19-1,30.58-.46,16.55-.8,28.45,0,43.23,1.31,24.35,4.87,41.31,0,43.23-.3.12-.87.08-2,0-7.03-.5-11.43-2.18-16-3.16-3.66-.79-3.18-.22-10-1.05-9.6-1.18-12.54-2.55-22-4.22-2.31-.41-1.74-.26-17-2.11-12.56-1.53-18.97-2.31-25-3.16-11.37-1.62-10.21-1.78-20-3.16-13.23-1.87-23.61-2.76-29-3.16-7.16-.54-10.84-.61-23-1.05-23.94-.87-35.92-1.3-48-2.11-15.09-1.01-12.81-1.4-34-3.16-9.58-.8-28.09-2.32-51-3.16-25.71-.94-25.7.12-49-1.05-17.93-.9-19.95-1.63-36-2.11-13.6-.4-24.02-.23-38,0-19.13.32-20.81.74-38,1.05-15.63.29-26.75.18-44,0-9.72-.1-27.65-.29-51-1.05-29.3-.95-26.87-1.49-33-1.05-4.49.32-19.9,1.61-39,1.05-7.34-.21-12.13-.61-13-3.16Z"/>
        <path class="cls-27" d="m221,599c-1.67-2.36,1.94-5.35,5-16,2.04-7.1,2.66-13.5,3-17,.79-8.17-.12-8.56,1-13,.98-3.92,3-7.33,7-14,2.99-4.99,5.68-9.44,10-15,4.37-5.62,10.1-12.99,12-12,1.88.98-.42,9.89-3,16-2.33,5.52-3.78,6.12-6,12-1.76,4.67-2.39,8.37-3,12-.76,4.5-1.72,10.43-1,18,.71,7.43,1.06,11.14,4,14,2.56,2.49,6.74,3.03,15,4,7.09.83,8.33.43,14,1,9.36.94,20.12,3.48,20,5-.02.24-.35,1-13,2-8.82.69-15.09.83-21,1-14.44.42-21.66.63-25,1-12.36,1.37-17.24,3.49-19,1Z"/>
        <path class="cls-27" d="m472,707c2.04-2.11.14-4.77,0-14-.03-2.13.08-1.6,1-15,.73-10.54.79-12.76,0-13-1.47-.44-4.71,6.39-5,7-1.22,2.61-1.26,3.51-3,9-1.53,4.85-2.45,7.7-4,11-1.83,3.88-2.62,5.9-4,7-2.19,1.74-4.62,1.91-11,2-7.94.11-9.64-.08-13,0-8.05.2-17.01,1.74-17,3,0,1.03,6.04,1.76,8,2,6.53.79,9.62.12,16,0,6.22-.11,11.39.38,18,1,9.79.93,12.25,1.81,14,0Z"/>
        <polygon class="cls-28" points="1 1080 1921 1080 1921 1049.5 1854 1039.5 1709 1027.5 1501 1018.5 1283 1015.5 1082.5 1006.28 892.5 1020.5 721.5 1023.5 538.5 1024.5 336.5 1027.5 151.5 1040.5 .5 1048.5 1 1080"/>
      </g>
      <g>
        <g>
          <rect class="cls-19" x="368.17" y="115.8" width="1225.83" height="896.2" rx="30.89" ry="30.89"/>
          <rect class="cls-11" x="403.11" y="157.44" width="1155.95" height="812.92" rx="23.43" ry="23.43"/>
          <text class="cls-1" transform="translate(449.15 347.11) scale(.92 1)"><tspan x="0" y="0">Le</tspan><tspan class="cls-32" x="163.73" y="0">v</tspan><tspan x="244.12" y="0">el complete</tspan></text>
          <text class="cls-23" transform="translate(560.91 448.7) scale(.74 1)"><tspan x="0" y="0" xml:space="preserve">you caught  meteors!</tspan></text>
        </g>
        <g>
          <rect class="cls-20" x="817.85" y="580.65" width="340.61" height="178.94" rx="15.2" ry="15.2"/>
          <rect class="cls-12" x="834.04" y="596.22" width="307.91" height="147.94" rx="15.2" ry="15.2"/>
          <text class="cls-24" transform="translate(841.67 684.26) scale(.92 1)"><tspan x="0" y="0">try again</tspan></text>
        </g>
        <g>
          <path class="cls-14" d="m563.8,495.13c2.96-4.44,12.57-17.26,26.96-19.17,3.14-.42,7.23,0,15.4.83,10.86,1.11,13.88,2.52,15.4,3.33,5.96,3.17,9.29,7.92,10.59,9.82,1.35,1.97,5.26,8.12,6.05,16.84.48,5.27-.77,4.95-1.08,15.2-.07,2.44-.01,2.78.22,14.5.16,8.01.23,12.02.22,13.33-.12,8.5-1.17,14.98-1.95,19.65-2.54,15.31-4.07,24.5-9.94,34.61-2.55,4.38-9.78,15.59-22.91,22.22-4.79,2.42-10.89,5.39-18.59,3.98-1.87-.34-8.46-1.65-13.4-7.48-3.09-3.65-5.71-5.57-8-13.8-4.78-17.2-3.26-16.18-4.97-24.09-.91-4.22-1.31-7.31-2.38-29.94-1.25-26.53-1.04-29.18-.65-32.04,0,0,.34-2.71.74-5.12,2.21-13.26,8.29-22.68,8.29-22.68Z"/>
          <ellipse class="cls-6" cx="613.48" cy="540.95" rx="14.35" ry="15.53"/>
          <ellipse class="cls-8" cx="570.32" cy="540.95" rx="14.35" ry="15.53"/>
          <path class="cls-7" d="m554.55,558.38c-.95-1.38-2.23-3.28-3.67-5.61-3.53-5.69-3.98-7.35-4.11-8.89-.1-1.21-.31-3.82,1.3-5.85,2.3-2.92,6.4-2.17,6.7-2.1"/>
          <path class="cls-7" d="m636.91,547.55c1.1-.37,4.45-1.67,6.7-5.38,1.86-3.06,1.94-6.05,1.95-6.78.01-1.83.04-5.32-2.38-7.25-2.12-1.69-4.76-1.1-5.4-.94"/>
          <path class="cls-17" d="m553.99,517.85c-.94.46-2.39.04-7.23-4.26-3.09-2.75-5.24-5.02-5.53-5.32-5.46-5.74-8.18-8.61-11.59-11.24-5.66-4.36-8.58-6.68-8.58-6.68,0,0,5.44-5.42,9.64-6.35,7.62-1.69,13.78,1.57,14.15.49.37-1.08-5.7-4.66-6.93-5.38-5.42-3.19-8.28-5.21-8.28-5.21,0,0,4.46-2.77,5.12-2.93,1.18-.28,4.42-1.01,7.98.49,4.9,2.07,6.64,6.76,7.68,6.19,1.07-.59-1.6-5.07,0-9.94.91-2.76.76-3.56,4.05-8.28,2.05-2.94,1.91-3.05,5.03-8.22,2.41-4,6.43-6.31,6.43-6.31,0,0-3.67,8.79-1.05,17.6.42,1.43,1.54,3.56,3.76,7.82,2.58,4.93,3.9,7.42,5.42,8.47.74.51,2.96,1.74,2.99,2.66.02.77-1.84.43-3.37,2.37-.82,1.04-.73,1.11-1.63,2.23-.99,1.25-1.58,1.78-2.21,2.48-1.19,1.33-1.61,2.7-2.83,4.37-6.46,8.85-8.15,14.5-9.68,17.62-.7,1.41-.49,2.02-1.09,3.27-1.63,3.42-1.72,3.81-2.24,4.06Z"/>
          <path class="cls-17" d="m613.64,476.33c-.36-1.03,1.54-2.75,3.69-4.65,2.13-1.88,3.05-2.36,4.11-3.25,4.61-3.89,5.59-10.49,5.76-11.83.43-3.41-.13-6.17-.7-8.97-.84-4.12-1.83-6.51-1.83-6.51,0,0,5.95,7.2,8.64,17.84.7,2.78,1.16,5.59,2.18,5.66,1.66.12,1.75-7.15,6.8-10.76.24-.17,2.23-.9,6.19-2.36,3.86-1.42,5.84-2.09,8.29-2.64,2.88-.66,5.93-.47,5.93-.47l-5.5,5.76c-4.94,4.28-5.8,4.62-7.33,6.7-2.02,2.74-2.86,5.34-3.31,6.8-.86,2.73-2.03,8.01-.79,8.68,1.18.64,2.79-3.84,7.76-6.51,3.35-1.8,6.38-1.8,11.17-1.79,2.71,0,9.86,2.08,9.86,2.08,0,0-1.23,2.24-3.49,4.06-3.48,2.81-6.52,4.24-6.54,4.25-6.51,3.05-11.59,8.81-12.56,9.91-5.44,6.17-7.76,8.67-12.39,13.69-.14.15-.46.49-.87.47-1.03-.04-1.59-2.29-2.59-4.75-.65-1.61-1.38-2.9-2.84-5.46-1.09-1.93-2.57-4.52-5.05-7.05-.96-.98-2.87-2.34-6.68-5.06-2.48-1.77-3.24-2.2-4.26-2.56-2.17-.77-3.4-.49-3.66-1.24Z"/>
          <path class="cls-17" d="m554.47,579.07s2.55,1.6,5.78,1.79c.57.03,1.03.02,1.19.01,1.96-.09,3.62-.67,4.55-1.15,1.86-.96,2.81-2.54,4.39-5.25,2.39-4.09,1.69-4.8,3.49-7.05,1.72-2.15,3.7-3.19,5.76-4.26,3.02-1.58,5.53-2.04,6.06-2.13,2.64-.46,4.72-.83,6.97.16,3.56,1.57,5.09,5.44,5.91,7.54.65,1.65,1.58,4.11,1.21,7.38-.07.62-.48,3.87-2.88,6.89-2.13,2.68-4.62,3.67-5.76,4.1-2.29.87-4.32.96-8.18.66-4.78-.37-7.91-.62-12.43-1.8-9.78-2.57-16.06-6.89-16.06-6.89Z"/>
          <path class="cls-9" d="m581.07,946.79l10.34-.09s1.16,20.78-5.17,23.01c-3.14,1.11-5.36-1.68-13.18-1.17-1.24.08-2.53.24-4.84.27-2.41.03-4.03-.1-7.42-.36-5.91-.46-8.88-.69-9.59-.72-5.44-.22-8.34-.18-8.34-.18,0,0,4.49-.76,11.93-2.62,8.35-2.08,8.49-3.05,11.59-2.89,1.03.05,3.24.27,5.59-.9,1.02-.51,1.85-1.18,2.75-1.9.88-.7,1.31-1.14,3.5-3.34,2.91-2.91,3.02-3.01,3.17-3.43.89-2.44-.33-5.69-.33-5.69Z"/>
          <path class="cls-9" d="m609.52,946.79s1.4-.26,5.42-.72c4.2-.49,5.51-.63,5.51-.63,0,0,1.08,5.54,4.09,8.03,1.19.99,1.26.21,4.42,1.62,3.56,1.6,4.17,2.9,6.84,3.43,1.57.31,1.68-.08,3.92,0,3.71.13,4.73,1.24,8.01,1.9,5.77,1.15,10.09.36,10.09.36,0,0-1.24,2.18-1.84,2.71-1.91,1.68-3.99,2.22-7.17,2.71-2.77.43-5.04.76-8.76.81-4.8.06-5.09-.45-8.92-.18-2.86.2-2.65.48-6.59.81-2.08.18-4.65.31-7.76,0-3.11-.31-4.09-.81-4.75-1.26-1.78-1.22-2.62-3.02-2.92-3.79-.74-1.89-.4-2.98-.25-6.86.25-6.4.67-8.93.67-8.93Z"/>
          <path class="cls-6" d="m614.16,620.45c3.62-1.45,6.68.02,13.86,2.95,7.11,2.91,7.05,2.67,8.61,3.64,1.97,1.21,3.11,2.22,7.35,6.14,5.97,5.5,8.95,8.25,9.45,8.86,1.28,1.56,1.72,2.38,7.14,13.18,5.53,11.02,6.12,12.27,6.93,14.77.54,1.67.74,2.54,2.73,11.82,2.02,9.43,3.03,14.14,3.15,14.77,1.59,8.25,2.81,14.61,3.36,23.18.44,6.79.26,11.8.21,12.96-.21,5.17-.43,10.78-2.1,17.5-1.42,5.7-2.08,4.99-5.67,16.14-2.23,6.91-1.87,6.88-3.36,10.68-2.71,6.93-3.97,7.23-5.88,13.18-1.56,4.86-2.18,9.17-2.94,9.09-.32-.03-.49-.81-.66-1.7-1.02-5.43-.92-10.34-.98-13.74,0-.51-.09-2.08-.25-5.24-.33-6.47-.5-9.71-.83-13.19-.48-4.99-1.08-8.79-1.27-10-.49-3.05-.58-3.01-1.2-6.7-.39-2.34-1.02-6.11-1.53-10.81-.32-2.98-.16-2.29-.76-8.58-.29-3.04-.62-6.28-.71-7.11-.3-2.89-.27-2.54-.43-4.12-.47-4.71-.74-8.24-.83-9.52-.08-1.12-.05-.74-.33-4.98-.2-3.04-.42-6.29-.51-7.52-.48-6.48-1.58-12.52-1.68-12.5-.38.06,11.86,97.51,11.34,136.83-.23,17.67-.84,26.82-.84,26.82-.46,6.89-1.1,13.66-1.68,25.46-.11,2.17-.31,6.47-.42,12.05-.14,7.05-.21,10.57,0,13.18.79,9.87,3.43,14.56,1.68,15.91-1.46,1.12-3.47-2.02-9.03-2.73-3.11-.39-3.59.45-9.24.91-3.63.3-4.57.04-10.71,0-7.61-.05-11.41.14-11.97.23-2.83.43-5.31,1.11-6.93-.45-1.13-1.1-1.6-3.06-1.67-3.39-.38-1.68-.14-3.06-.08-3.44.21-1.3.26-7.36.38-19.47.08-8.29-.42-15.16-.65-18.25-.4-5.48-.7-8.57-.7-8.57-.41-4.16-.62-5.32-.75-8.13-.12-2.42-.05-3.37,0-7.64.07-6.09.1-9.13-.03-11.31-.34-5.88-1.08-6.02-1.4-11.95-.05-.83-.16-3.16.08-9.71.26-7.21.6-9.75.81-13.99.1-1.99.12-3.26-.4-19.53-.33-10.31-.5-15.53-.67-18.54-.25-4.28-.33-4.39-1.35-17.23-1.12-14.07-1.09-14.74-1.59-20.02-.23-2.46-.44-4.42-2.24-19.24-2.14-17.64-2.84-23.09-3.22-31.67-.44-10.17.07-13.45.29-14.69.92-5.32,3.16-9.97,7.64-19.25,3.08-6.39,6.47-12.45,11.75-15.06.22-.11.43-.21.74-.33Z"/>
          <path class="cls-13" d="m636.79,780.87c1.18-1.68,3.23-2.13,7.34-3.01,4.76-1.03,8.93-1.92,11.01.41.95,1.07.74,2,.89,9.31.12,6.04.24,4.15.38,11.91.1,5.95.01,5.75.13,8.49.28,6.68.78,6.62.89,11.23.16,7.14-1.04,7.4-.63,13.42.4,5.84,1.64,7.23.51,8.9-1.59,2.34-5.5,1.79-12.53.82-5.99-.83-9.02-1.29-10.5-3.42-1.18-1.69-1.16-3.51-.13-12.19.82-6.88,1.58-12.32,2.02-15.61,1.18-8.76,1.77-13.14,1.65-15.34-.46-8.33-3.19-11.8-1.01-14.93Z"/>
          <path class="cls-13" d="m612.26,619.89s.33,2.51,2.1,9.11c.21.8.89,2.86,2.24,6.97,1.37,4.19,2.06,6.3,2.37,6.83,2.61,4.59,6.05,6.97,6.05,6.97,0,0-3,.91-6.97,3.56-.58.38-2.01,1.73-4.87,4.41-3.71,3.48-2.67,2.69-5.13,4.98-3.1,2.89-3.68,3.98-3.68,3.98,0,0,1.96,2.31,5,5.98,1.25,1.51,2.73,1.03,4.73,4.84,1.62,3.08,2.26,3.52,5.13,8.11,2.77,4.43,4.08,7.97,4.08,7.97,0,0-2.22,3.38-6.71,8.54-2.56,2.94-4.17,5.33-6.05,8.11-3.21,4.76-5.44,8.95-6.84,11.81-2.51,5.13-3.42,7.83-3.42,7.83,0,0-.8-6.89-2.37-19.07-.8-6.26-1.06-5.68-1.97-12.66-1.26-9.61-.68-10.01-1.84-18.93-1.16-8.9-1.9-9.75-1.84-14.8.06-5.64,1.04-9.94,1.58-12.24.39-1.66,1.76-7.2,5.79-15.23,2.99-5.96,12.62-17.08,12.62-17.08Z"/>
          <path class="cls-5" d="m575.18,627.89c.11-.15,1.24.89,3.29,1.78,1.35.59,2.39.8,4.27,1.19,1.73.36,3.08.63,4.94.69,1.06.03,2.89.08,5.15-.43,1.17-.26,1.2-.39,4.97-1.78,3.74-1.38,3.75-1.27,4.76-1.78,2.9-1.48,4.43-3.21,4.61-3,.19.22-1.65,2-4.09,5.64-.69,1.03-1.36,2.11-2.32,3.66-1.01,1.63-1.51,2.44-1.95,3.23-.55.99-1.47,2.72-2.41,4.98-.5,1.21-.81,2.07-1.4,3.76-.48,1.36-.93,2.64-1.43,4.39-.52,1.81-.78,2.71-.98,3.89-.34,2.12-.19,3.11-.46,3.17-.51.11-1.59-3.37-2.17-5.58-.62-2.39-.5-2.78-1.07-4.72-.37-1.26-1-3.09-2.01-5.02-1.2-2.29-2.41-3.71-4.79-6.5-1.49-1.75-2.98-3.33-3.35-3.73-2.2-2.33-3.69-3.68-3.57-3.86Z"/>
          <path class="cls-18" d="m571.11,921.21c-.88,1.27.46,2.68.64,6.44.1,2.07-.3,1.77-.53,5.71-.23,3.95.19,3.94-.14,6.52-.4,3.08-1.14,4.14-.5,4.95.64.81,1.84.3,4.36.23,2.83-.08,2.63.52,6.24.73,3.89.23,3.82-.49,7.83-.19,2.06.15,2.82.39,4.57.23.95-.09,1.78-.26,3.19-.19,1.45.07,1.55.29,2.02.15,1.1-.33,1.64-1.91,2.62-6.67.92-4.47,1.38-6.71,1.38-8.4.01-3.26-.62-3.25-.57-7.02.04-3.05.48-4.11-.28-5.02-.7-.84-1.53-.49-5.39-.88-2.82-.29-2.72-.51-4.79-.61-2.38-.12-4.21.09-5.39.23-1.67.2-3.2.55-6.27,1.27-3.74.87-2.71.79-5.25,1.34-2.76.6-3.31.55-3.76,1.19Z"/>
          <path class="cls-18" d="m602.98,918.61c.91-1.5,2.24-1.15,2.91-2.61.9-1.98-.72-4.44-.21-4.76.45-.27,1.37,1.85,3.51,2.42.69.18,1.43.08,2.91-.12,2.05-.27,2.51-.63,3.97-.77,1.29-.12,1.44.11,3.4.23,2.92.18,4.05-.25,7.83-.04,1.58.09,2.12.2,2.62.65.86.77.6,1.65,1.43,4.05.74,2.14,1.13,1.97,1.6,3.77.43,1.62.17,1.96.6,3.86.35,1.51.7,2.12,1.15,3.39.73,2.04.65,2.82,1.26,6.12,1.12,6.01,2.04,6.89,1.32,8.02-.58.91-1.44.76-5.87,1.25-5.34.59-5.39.95-9,1.13-3.73.19-3.14-.23-5.98,0-2.32.18-5.93.71-9.61,1.6,0,0-2.15.52-5.27.24-1.34-.12-1.81-.31-2.03-.71-.48-.88.68-1.98,1.76-4.75.85-2.18,1.13-4.04,1.32-5.35.19-1.3.22-2.53.27-4.93.07-3.28.11-4.91,0-7.07-.19-3.71-.56-4.5.12-5.62Z"/>
          <path class="cls-3" d="m584.89,542.73c.42-.63,1.28-1.71,2.76-2.52,1.16-.63,2.18-.82,2.96-.96,1.13-.2,2.66-.47,4.44.06,1.97.59,3.15,1.84,3.66,2.46"/>
          <path class="cls-3" d="m554.77,537c-.61-1.04-1.5-2.48-2.67-4.13-1.38-1.95-2.1-2.95-3.1-3.74-.61-.48-2.4-1.87-5.01-2.07-1.9-.14-3.25.42-5.12,1.21-2.3.97-4.07,1.71-4.79,3.59-.46,1.2-.32,2.4-.14,3.16"/>
          <path class="cls-3" d="m627.57,535.79c1.34-1.35,3.11-3.08,5.24-5.02,2.99-2.73,4.16-3.58,4.76-3.99,2.35-1.64,4.1-2.82,6.61-3.09,1.53-.16,2.66.08,4.05.39,3.43.75,5.92,2.41,6.96,3.12.51.35.92.66,1.19.87"/>
          <path class="cls-3" d="m618.74,521.15c.7-.37,1.87-.84,3.29-.67,1.32.16,2.29.8,3.17,1.37.15.1.79.53,1.54,1.23.79.74,1.37,1.48,1.77,2.05"/>
          <g>
            <path class="cls-6" d="m584.37,614.47c-.49-.05-1.08-.62-2.24-1.77-.89-.87-1.91-1.88-2.95-3.4-.75-1.09-2.32-3.4-2.91-6.52-.81-4.3.42-9.25,1.87-9.45.64-.09.82.83,2.7,2.7.66.66,2.3,2.27,4.57,3.37,2.33,1.14,4.45,1.32,5.41,1.35,3.73.13,5.78-1.43,6.24-.67.55.92-2.09,3.82-3.12,4.95-1.93,2.12-2.32,1.92-4.16,3.82-3.21,3.32-3.83,5.78-5.41,5.62Z"/>
            <path class="cls-10" d="m578.14,593.33c-.01.69.01,1.71.21,2.89.24,1.43.67,2.78,1.91,5.26,1.6,3.21,2.4,4.82,3.6,6.05.84.86,2.42,2.21,4.88,2.89"/>
            <path class="cls-10" d="m581.77,604.64c.54-.29,1.32-.79,2.05-1.67,1.15-1.38,1.48-2.87,1.59-3.57"/>
            <path class="cls-10" d="m583.96,607.95c.98-.45,2.35-1.23,3.71-2.55,1.75-1.7,2.68-3.52,3.15-4.64"/>
            <path class="cls-10" d="m580.82,610.43c1.05-.82,2.09-1.65,3.14-2.47"/>
            <path class="cls-2" d="m577.97,605.6c.2.12.9.52,1.75.17.95-.39,1.42-1.45,1.52-1.69"/>
          </g>
          <path class="cls-3" d="m560.44,522.88c.73-.67,1.37-1.2,1.87-1.6,2.22-1.75,2.87-1.77,3.37-1.64.74.2,1.37.78,1.81,1.3"/>
          <path class="cls-17" d="m600.45,571.36c0-1.17,0-2.99,1.07-4.71.85-1.37,1.95-1.98,3.44-2.81,2.51-1.4,4.77-1.77,6.19-1.98.7-.11,2.12-.15,4.97-.25,4.37-.14,5.08-.07,5.96.17,1.21.32,2.97.8,4.2,2.4.87,1.13.51,1.55,1.53,3.64.55,1.13,1.48,3.01,3.29,4.3,1.03.73,1.93.96,3.74,1.41,1.35.34,3.24.81,5.5.66,4.06-.26,6.65-1.41,6.65-1.41,0,0-.12,3.04-1.07,5.46-.92,2.34-1.66,4.21-3.29,5.87-1.59,1.62-3.41,2.18-7.03,3.31-2.93.91-5.66,1.75-9.4,1.74-2.25-.01-3.94-.37-7.33-1.07-3.55-.74-5.56-1.16-8.1-2.4-1.78-.87-3.89-1.89-5.96-4.13-.72-.78-4.31-4.67-4.35-10.17Z"/>
          <path class="cls-22" d="m592.77,558.54c.97,1.25,1.89,2.17,2.58,2.79,1.2,1.09,1.86,1.69,2.95,2.1,1.37.51,2.54.39,3.32.3,1.51-.17,3.05-.35,4.06-1.7,1.14-1.53.8-3.54.74-3.89-.17-1.02-.58-1.71-2.12-3.69-2.48-3.19-3.75-4.8-5.16-5.59-.73-.4-2.16-1.17-4.06-1.1-1.09.04-1.94.35-2.31.5-1.09.44-1.85,1.06-2.31,1.5"/>
          <ellipse class="cls-4" cx="573.6" cy="541.89" rx="2.65" ry="2.86"/>
          <ellipse class="cls-4" cx="617.72" cy="542.73" rx="2.65" ry="2.86"/>
          <path class="cls-6" d="m570.06,626.62c5.22,1.57,9.33,5.31,10.21,6.11,3.26,2.97,4.93,5.87,6.57,8.72,1.41,2.45,3.48,6.53,4.94,12.03,1.06,3.99,1.07,5.99,2.02,17.26.34,4,.75,7.99,1.07,11.99,2.22,28.45,4.96,53.62,7.57,95.99,1.57,25.46,2.36,38.18,2.42,54.41.09,20.58-.87,21.39-.15,36.31,1.48,30.64,2.21,45.96,2.75,47.2.13.3.7,1.53.1,2.28-.8,1.01-3.02.32-7.15.29-.5,0-1.89.08-4.68.26-5.85.37-12.07,1.54-14.42,1.96-7.68,1.38-6.17.57-21.03,2.65-9.44,1.32-14.16,1.98-16.83,2.67-9.66,2.5-14.78,5.67-16.73,3.81-1.38-1.32-.16-4.21.66-6.49.43-1.18,1.47-8.78,3.55-23.99,1.55-11.33-.17-10.81.98-27.85.56-8.27.91-7.5,2.31-21.34,1.08-10.71,2.19-21.7,2.54-35.35.39-15.38-.74-11.85-.36-26.33.48-18.65,2.48-30.57-4.6-35.06-.43-.27-1.92-.93-4.9-2.24-5.55-2.45-9.07-3.69-14.1-5.64-.53-.21-4.26-1.71-11.69-4.72-19.14-7.75-20.85-8.46-23.95-10.46-2.97-1.92-7.13-4.66-11.12-9.51-2.54-3.09-6.62-8.19-7.55-15.6-.65-5.2.56-9.1,2.05-13.93,2.65-8.56,6.78-14.46,10.57-19.77,3.39-4.75,6.99-9.81,13.45-15.12,6.05-4.97,11.58-7.69,15.58-9.62,5.21-2.52,7.94-3.25,20.7-7.49,1.44-.48,8.01-2.7,21.14-7.16,18.83-6.38,22.7-7.86,28.05-6.25Z"/>
          <path class="cls-13" d="m559.08,661.48s2.92-4.19,7.99-13.89c2.57-4.92,4.03-7.71,5.28-12.04,1.31-4.54,2.28-6.79,2.28-6.79,0,0,9.09,6.73,12.55,14.97,1.35,3.21,2.29,6.5,3.99,18.52,1.24,8.76,1.43,11.84,2.57,21.45,1.84,15.6,2.76,23.39,3.57,29.01,1.66,11.61,1,17.13,1,17.13,0,0-4.69-4-14.26-11.11-6.11-4.54-9.72-7.15-14.69-7.25-5.8-.12-10.27,1.85-10.27,1.85l4.56-12.96c2.89-6.09,3.74-5.62,4.71-8.02.95-2.36,1.83-3.72,2.99-10.18,1.1-6.1,1.49-4.37,2-6.64,1.53-6.87,1.28-7.72,1.28-7.72l-15.54-6.33Z"/>
          <path class="cls-3" d="m539.97,690.34c-.7,2.85-.95,5.22-1.03,6.93-.09,1.78.02,2.52.61,3.04.89.79,2.13.45,5.46.45,1.89,0,3.19.1,5.71.31,4.31.35,3.94.67,6.39.69,2.62.02,3.67-.34,4.42.33.96.85.47,2.5.19,3.59-.05.2-.43,3.89-1.19,11.29-.33,3.2.12,2.93.17,9.12.02,3.09.05,9.07-.88,16.22-1.08,8.28-2.05,7.49-2.02,12.17.03,3.79.68,6.15-1.13,7.68-2.27,1.91-6.61.95-7.42.77-2.77-.61-3.44-1.69-7.06-3.89-1.35-.82-4.36-2.18-10.38-4.9-1.84-.83-4.05-1.8-8.47-3.74-2.68-1.18-4.91-2.15-6.45-2.83"/>
          <path class="cls-13" d="m535.22,844.57c.89.59,4.18-.55,10.71-2.86,6.5-2.3,8.03-3.11,9.32-3.91,2.15-1.34,4.86-3.03,6.56-5.59,2.94-4.41.56-7.93-.4-19.86-.68-8.43.42-7.67-.42-16.08-.91-9.11-2.16-9.52-1.74-15.26.23-3.14.76-5.25-.52-6.2-1.54-1.15-4.04.63-10.11,2.81-8.61,3.1-10.22,1.92-12.02,4.12-2.18,2.66-.47,5.17-.08,14.82.22,5.41-.32,4.38-.41,13.97-.1,11.72.73,10.96.3,16.96-.77,10.63-3.57,15.51-1.2,17.08Z"/>
          <path class="cls-4" d="m562.08,719.01c.77-.44,1.23-.15,4.26-.44,1.03-.1,1.94-.19,3.09-.44,1.7-.37,2.87-.62,4.04-1.44,1.3-.92,1.89-2.06,2.23-2.73.49-.95.68-1.78.81-2.59.26-1.6.33-3.43-.1-6.93-.34-2.81-.57-3.09-.74-5.38-.07-.98-.17-2.35-.09-3.97.11-2.16.33-5.67,2.55-9.36.89-1.48,1.86-3.04,3.93-4.16.61-.33,2.07-1.1,4.07-1.11,2.92,0,4.79,1.62,5.26,2.07,1.07,1.01,1.42,2.02,2.04,3.88.71,2.12.86,3.8,1.02,5.58.05.58.27,3.31-.02,7.05-.05.63-.02.07-.52,4.38-.53,4.54-.52,4.79-.8,5.65-.64,2.01-1.48,3.15-.99,3.51.36.27,1.08-.17,2.55-.61.6-.18.94-.24,4.24-.67,5.65-.74,5.98-.73,6.45-.67.99.12,2.04.5,4.15,1.27,3.63,1.33,4.36,2.12,4.65,2.47.32.4,1.09,1.37,1.02,2.74-.07,1.39-.96,2.37-1.2,2.63-1.56,1.66-3.9,1.81-3.84,2.22.04.25.87.26,2.51.42,2.65.27,4,.41,5.03.95,1.47.78,2.1,1.98,2.29,2.38.32.64,1.03,2.06.31,3.49-.59,1.17-1.8,1.72-2.3,1.95-2.53,1.12-5.21.27-5.29.55-.06.22,1.56.51,3.52,1.57,1.14.61,2.08,1.11,2.79,2.1.72,1,.81,1.95.96,3.43.17,1.77.26,2.66-.33,3.56-.87,1.32-2.58,1.8-3.59,2.08-2.48.69-4.6.25-4.64.48-.04.21,1.78.28,3.51,1.45.44.3,1.2.82,1.72,1.75.75,1.34.51,2.65.41,3.14-.05.23-.48,2.23-2.41,3.66-.61.45-2.11,1.4-7.42,1.46-1.55.02-3.44-.04-7.73-.56-5.76-.7-5.9-1.02-9.76-1.37-5.34-.48-5.18.13-8.12-.52-1.95-.43-2.36-.78-7.89-2.36-2.95-.84-3.42-.91-3.99-.95-1.53-.09-2.44.16-6.83.82-3.07.47-3.53.48-3.89.18-.8-.68-.03-2.01.55-5.52.31-1.83.09-1.43.43-3.91.58-4.18,1.14-4.95,1.29-7.41.05-.84-.14-2.36-.48-5.41-.34-3-.59-4.29-.32-6.39.24-1.9.44-3.3,1.61-3.98Z"/>
          <ellipse class="cls-21" cx="589.62" cy="772.58" rx="5.37" ry="4.68" transform="translate(-109.77 97.76) rotate(-8.67)"/>
          <ellipse class="cls-21" cx="591.91" cy="798.33" rx="5.37" ry="4.68" transform="translate(-113.63 98.4) rotate(-8.67)"/>
          <ellipse class="cls-21" cx="591.7" cy="823.36" rx="5.37" ry="4.68" transform="translate(-117.41 98.65) rotate(-8.67)"/>
        </g>
      </g>
    </g>
  </g>
</svg>