<?xml version="1.0" encoding="utf-8"?>
<!-- Generator: Adobe Illustrator 28.0.0, SVG Export Plug-In . SVG Version: 6.00 Build 0)  -->
<svg version="1.1" id="Layer_2_00000144308774245232885620000001431596522228367493_"
	 xmlns="http://www.w3.org/2000/svg" xmlns:xlink="http://www.w3.org/1999/xlink" x="0px" y="0px" viewBox="0 0 1194.1 800.3"
	 style="enable-background:new 0 0 1194.1 800.3;" xml:space="preserve">
<style type="text/css">
	.st0{fill:#D63927;}
	.st1{font-family:'PlayfairDisplay-Regular';}
	.st2{font-size:180px;}
	.st3{letter-spacing:-1;}
	.st4{fill:none;stroke:#D63927;stroke-width:7;stroke-miterlimit:10;}
	.st5{letter-spacing:-3;}
	.st6{fill:#231F20;}
	.st7{font-size:40px;}
</style>
<g id="Layer_1-2">
	<g>
		<text transform="matrix(1 0 0 1 81.6146 234.7564)" class="st0 st1 st2 st3">P</text>
		<text transform="matrix(1 0 0 1 184.9346 234.7564)" class="st0 st1 st2">ort-</text>
		<line class="st4" x1="30.2" y1="58.5" x2="30.2" y2="461.4"/>
		<text transform="matrix(1 0 0 1 738.2846 649.1564)" class="st0 st1 st2 st5">f</text>
		<text transform="matrix(1 0 0 1 794.9846 649.1564)" class="st0 st1 st2">o</text>
		<text transform="matrix(1 0 0 1 891.8246 649.1564)" class="st0 st1 st2">lio</text>
		<line class="st4" x1="1123.8" y1="461.4" x2="1123.8" y2="744.7"/>
		<line class="st4" x1="438.3" y1="744.7" x2="1127.2" y2="744.7"/>
		<line class="st4" x1="26.6" y1="61.6" x2="559" y2="61.6"/>
		<line class="st4" x1="974.9" y1="61.6" x2="1127.3" y2="61.6"/>
		<text transform="matrix(6.123234e-17 1 -1 6.123234e-17 1117.1851 107.3164)" class="st6 st1 st7">Af </text>
		<text transform="matrix(6.123234e-17 1 -1 6.123234e-17 1117.1851 155.7564)" class="st6 st1 st7">J</text>
		<text transform="matrix(6.123234e-17 1 -1 6.123234e-17 1117.1851 168.0764)" class="st6 st1 st7">osephine </text>
		<text transform="matrix(6.123234e-17 1 -1 6.123234e-17 1117.1851 340.6764)" class="st6 st1 st7">M</text>
		<text transform="matrix(6.123234e-17 1 -1 6.123234e-17 1117.1851 374.7964)" class="st6 st1 st7">ote</text>
		<text transform="matrix(6.123234e-17 1 -1 6.123234e-17 1117.1851 431.1064)" class="st6 st1 st7">t</text>
		<line class="st4" x1="28.2" y1="744.7" x2="225.3" y2="744.7"/>
		<line class="st4" x1="1123.8" y1="59.1" x2="1123.8" y2="102.5"/>
		<line class="st4" x1="28.2" y1="664.2" x2="28.2" y2="748.5"/>
		<text transform="matrix(1 0 0 1 244.1346 751.4964)" class="st6 st1 st7">2023</text>
		<text transform="matrix(1 0 0 1 324.4945 751.4964)" class="st6 st1 st7">/</text>
		<text transform="matrix(1 0 0 1 338.6945 751.4964)" class="st6 st1 st7">2024</text>
	</g>
</g>
</svg>
